<?xml version="1.0" encoding="UTF-8"?>
<svg id="Layer_1" data-name="Layer 1" xmlns="http://www.w3.org/2000/svg" viewBox="0 0 633.6 600">
  <defs>
    <style>
      .cls-1 {
        fill: #ff0049;
      }

      .cls-2 {
        fill: #fff;
      }

      .cls-3 {
        fill: #005ee1;
      }
    </style>
  </defs>
  <g id="WPT_logo" data-name="WPT logo">
    <path id="Path_4923" data-name="Path 4923" d="M425.31,231.58l-70.74,131.05h-31.2l63.27-131.05h38.67ZM341.47,231.58l-70.76,131.05h-34.25l70-131.05h35ZM348.4,362.62h-30.51l-4.31-131.05h27.9l6.92,131.05ZM260.43,362.62h-28.66l-3.92-131.05h34.46l-1.87,131.05ZM544.13,362.62h-33.51l33.89-131.05h33.69l-34.06,131.05h0ZM423.82,362.62h-33.68l34.08-131.05h33.5l-33.89,131.05h0ZM410.17,231.58h206.63l-7.69,27.9h-206.64l7.7-27.9h0ZM428.52,231.58h46.02c20.04,0,49.79,12.19,41.17,51.49-4.86,22.64-22.07,46.61-56.44,46.61h-56.72c-.19.75,6.18-27.32,6.36-28.08h48.47c13.85-.17,22.09-8.06,25.26-20.03,2.64-10.12.56-22.09-13.84-22.09h-47.92l7.64-27.9h0Z"/>
    <path id="Path_4924" data-name="Path 4924" class="cls-1" d="M42.1,382.63c-1.18,4.71,1.68,9.49,6.4,10.67.68.17,1.38.26,2.09.26h93.6c8.09.02,15.15-5.5,17.07-13.37l35.54-137.76c1.14-4.73-1.78-9.48-6.51-10.62-.65-.16-1.32-.24-1.99-.24h-93.61c-8.08-.01-15.13,5.5-17.07,13.35l-35.54,137.7h0Z"/>
    <path id="Path_4925" data-name="Path 4925" class="cls-3" d="M17.07,357.56c-1.18,4.72,1.69,9.5,6.41,10.68.68.17,1.37.26,2.07.26h93.61c8.12.01,15.18-5.55,17.08-13.44l35.54-137.77c1.14-4.72-1.77-9.48-6.49-10.62-.65-.16-1.32-.24-2-.24h-93.62c-8.08,0-15.12,5.51-17.05,13.36l-35.55,137.77Z"/>
    <path id="Path_4926" data-name="Path 4926" class="cls-2" d="M136.26,355.03l31.87-123.6h-73.44c-8.08,0-15.13,5.51-17.05,13.36l-31.86,123.58h73.41c8.09.02,15.13-5.5,17.07-13.35h0Z"/>
    <path id="Path_4927" data-name="Path 4927" d="M93.3,313.57c-4.2.35-7.88-2.77-8.23-6.97-.09-1.12.06-2.24.45-3.29,1.8-7.69,13.55-16.82,22.5-23.8,1.1-.86,2.16-1.68,3.14-2.43l.7-.35.5.35c.62.79,1.3,1.62,2.01,2.43,5.66,6.97,13.09,16.12,11.29,23.8-1.35,5.9-6.55,10.13-12.6,10.25-3.49.13-6.81-1.49-8.85-4.32-2.99,2.7-6.85,4.24-10.88,4.32h-.04Z"/>
    <path id="Path_4928" data-name="Path 4928" d="M101.33,321.54c-5.12,0-9.53.35-9.53.35l-.29-1.21c4.12,0,11.69-7.08,11.69-7.08,0,0,4.25,7.08,8.4,7.08l-.89,1.21s-4.3-.35-9.38-.35Z"/>
  </g>
</svg>