<?xml version="1.0" encoding="UTF-8"?>
<svg id="Layer_1" data-name="Layer 1" xmlns="http://www.w3.org/2000/svg" xmlns:xlink="http://www.w3.org/1999/xlink" viewBox="0 0 633.6 600">
  <defs>
    <style>
      .cls-1 {
        fill: none;
      }

      .cls-2 {
        fill: #d70a0a;
      }

      .cls-2, .cls-3, .cls-4 {
        fill-rule: evenodd;
      }

      .cls-3, .cls-5 {
        fill: #fefefe;
      }

      .cls-5 {
        stroke: #354f34;
      }

      .cls-6, .cls-4 {
        fill: #354f34;
      }

      .cls-7 {
        clip-path: url(#clippath);
      }
    </style>
    <clipPath id="clippath">
      <rect class="cls-1" x="16.8" y="186.57" width="600" height="226.87"/>
    </clipPath>
  </defs>
  <g class="cls-7">
    <g>
      <path class="cls-5" d="M36.63,188.46h560.35c10.07,0,18.33,8.29,18.33,18.44v186.19c0,10.15-8.26,18.44-18.33,18.44H36.63c-10.07,0-18.33-8.29-18.33-18.44v-186.19c0-10.15,8.26-18.44,18.33-18.44Z"/>
      <path class="cls-2" d="M513.62,256.2h21.24c.31-1.27,3.44-10.51,4.04-12.17l2.2-6.73c.1-.31.17-.29.19-.7h.24c.05.48.22.77.39,1.2,1,2.81,1.84,5.75,2.82,8.61l2.44,7.29c.24.77.6,1.73.79,2.5h21.24l-2.1,1.51c-.74.55-1.44.99-2.13,1.51-3.18,2.36-6.48,4.54-9.66,6.88-.34.26-.67.5-1.05.77-.24.14-2.15,1.49-2.15,1.59,0,.36.6,1.95.76,2.4.74,2.21,5.6,16.54,5.67,17.29l-14.37-10.22c-3.23-2.38-2.18-2.24-4.95-.38-.74.5-1.39.99-2.13,1.54l-12.77,9.07c0-.48,1.72-5.48,1.99-6.16.79-2.04,1.34-4.14,2.03-6.2.14-.38.26-.75.41-1.2.14-.53.26-.72.43-1.25.36-1.06,1.48-4.06,1.58-5-.38-.1-3.21-2.19-3.64-2.52l-.64-.48c-.24-.14-.36-.19-.57-.34-.19-.14-.27-.24-.5-.41l-5.86-4.18c-.21-.14-.33-.24-.53-.38-.19-.14-.34-.22-.55-.36l-.12-.1s-.05-.02-.07-.05l-2.99-2.14s-.12-.07-.14-.07l-1.51-1.11ZM541.65,211.93c.07.24.02.12.17.29.53.63,3.75,3.51,4.76,4.57l1.65,1.54c1.63,1.59,3.21,3.25,4.93,4.74l1.65,1.66s.05.02.05.05c.02.02.05.05.07.05.02.02.05.05.05.07l.6.65c2.03,1.64,10.28,9.96,12.24,11.88l1.65,1.64c.36.34.41.51.74.84,3.2,3.25,6.17,6.76,8.94,10.36l6.81,10.22c.1.17.21.31.31.48l.55,1.06c2.03,3.65,3.49,7.33,4.76,11.33,1.51,4.74,2.06,10.48,1.08,15.29-1.03,4.95-3.52,8.85-7.05,12.34-1.1,1.08-2.27,1.9-3.61,2.77-8.13,5.36-20.21,4.98-28.31-1.49-1.46-1.15-2.87-2.55-4.02-4.04-.48-.65-.84-1.18-1.32-1.88-1.43-2.04-4.28-1.08-4.28.51,0,.96.24,1.85.41,2.74.45,2.52,1.1,4.91,1.96,7.31l3.42,7.57c.19.31.38.55.6.89.12.22.17.34.27.5l1,1.39c.67.87,1.29,1.8,2.08,2.57l1.41,1.44c1.91,1.88,4.07,3.41,6.46,4.69.67.38,1.32.75,2.15.94h-44.79c.64-.14,1.62-.65,2.22-.96l3.8-2.45,4.76-4.57c1.36-1.73,2.78-3.63,3.8-5.63.33-.7.67-1.37,1.03-2.04,1.48-2.89,3.3-8.42,3.78-11.83.12-.94.36-1.68.36-2.69,0-.79-1.29-1.56-2.18-1.56-1.87,0-2.77,2.31-3.94,3.68-.43.48-.77.87-1.2,1.3-3.92,3.82-7.48,5.67-12.89,6.95-1.12.26-2.34.26-3.44.34-1.6.14-.98.02-2.3,0-.43-.02-.84.02-1.27-.02-4.64-.48-9.85-2.38-13.25-5.46-2.46-2.26-4.45-4.33-6.05-7.45-2.87-5.63-2.3-8.44-2.3-14.43,0-2.26.6-4.26,1.15-6.3.5-1.88,1.2-3.8,1.91-5.55,1.51-3.73,5.26-10.7,8.06-14.38.29-.41.5-.75.79-1.13l5.76-7.31c.19-.22.31-.31.48-.55.19-.22.19-.26.43-.48l5.38-5.87c.33-.31.6-.58.93-.89l18.99-18.52c1.13-1.08,2.18-2.26,3.35-3.27,1.17-.96,2.25-2.09,3.32-3.15.38-.38.48-.7,1.13-.72Z"/>
      <path class="cls-4" d="M52.27,211.07h445.7l-116.33,117.01H52.27c-6.1,0-11.1-5.05-11.1-11.18v-94.65c0-6.16,5-11.18,11.1-11.18Z"/>
      <path class="cls-3" d="M236.46,265.48h59.3c4.21,0,5.21-3.29,5.21-5.05s-1.67-4.95-5.09-5.07h-59.42v-12.34l71.62.05c7.49,1.85,13.06,8.92,13.06,17.36s-5.57,15.49-13.06,17.34l-45.67.02v21.11h-25.94v-33.42Z"/>
      <path class="cls-6" d="M56.28,388.79h-14.08v-34.43h7.53v30.01h6.55v4.42ZM83.54,388.79h-7.48l-1.27-9.23h-3.32l-1.27,9.23h-7.48l5.6-34.43h9.61l5.62,34.43ZM74.19,374.77l-1.08-10.27-1.03,10.27h2.1ZM106.16,358.85h-4.21v29.94h-7.53v-29.94h-4.21v-4.5h15.95v4.5ZM120.75,388.79h-7.53v-34.43h7.53v34.43ZM147.15,388.79h-7.75l-5.17-18.35v18.35h-6.26v-34.43h8.56l4.35,15.7v-15.7h6.26v34.43ZM183.54,388.79h-7.48l-1.24-9.23h-3.35l-1.27,9.23h-7.48l5.62-34.43h9.59l5.62,34.43ZM174.19,374.77l-1.08-10.27-1.03,10.27h2.1ZM216.68,388.79h-6.72v-19.33l-3.9,19.33h-5.19l-4.5-19.33v19.33h-5.86v-34.43h9.66l3.44,17.87,2.99-17.87h10.07v34.43ZM238.8,388.79h-14.73v-34.43h14.63v4.42h-7.1v9.31h6.41v4.18h-6.41v12.1h7.2v4.42ZM264.29,388.84h-7.48c-.81-.96-1.22-3.75-1.22-8.32v-.05l.05-2.04c.05-2.89.05-4.33.05-4.4,0-1.18-.77-1.76-2.3-1.76v16.52h-7.53v-34.43h9.3c2.1,0,3.95.51,5.52,1.47,1.55.99,2.34,2.52,2.34,4.64v4.11c0,2.69-1.55,4.5-4.64,5.43,3.08.72,4.64,2.65,4.64,5.7l-.1,3.75c0,5.53.45,8.63,1.36,9.38ZM255.68,366.26v-5.67c0-1.2-.77-1.8-2.3-1.8v9.31c1.53,0,2.3-.6,2.3-1.83ZM278.54,388.79h-7.53v-34.43h7.53v34.43ZM302.24,366.4h-6.84v-6.78c0-.55-.36-.84-1.05-.84-.74,0-1.1.29-1.1.84v23.81c0,.55.36.84,1.1.84.69,0,1.05-.29,1.05-.84v-8.51h6.84v8.75c0,1.64-.79,2.96-2.39,3.94-1.6.99-3.4,1.47-5.4,1.47-5.83,0-8.73-2.07-8.73-6.18v-22.15c0-4.45,2.89-6.68,8.73-6.68,5.19,0,7.8,2.04,7.8,6.11v6.23ZM329.95,388.79h-7.48l-1.27-9.23h-3.33l-1.29,9.23h-7.46l5.6-34.43h9.61l5.62,34.43ZM320.6,374.77l-1.07-10.27-1.03,10.27h2.1ZM356.04,388.79h-7.75l-5.17-18.35v18.35h-6.27v-34.43h8.56l4.35,15.7v-15.7h6.27v34.43ZM379.43,376.09v12.7h-7.34v-34.43h7.91c3.13,0,5.45.41,6.99,1.2,1.53.82,2.27,2.43,2.27,4.91v9.55c0,2.26-.62,3.85-1.84,4.79-1.27.94-3.9,1.37-7.99,1.3ZM381.91,369.36v-8.25c0-1.23-.81-1.83-2.49-1.83v11.9c1.67,0,2.49-.6,2.49-1.83ZM396.31,382.9v-22.15c0-4.45,2.87-6.68,8.63-6.68s8.49,2.21,8.49,6.64v22.15c0,2-.79,3.53-2.37,4.62-1.58,1.08-3.63,1.61-6.17,1.61-5.71,0-8.58-2.07-8.58-6.18ZM406.09,383.24v-23.42c0-.67-.38-1.03-1.2-1.03s-1.24.36-1.24,1.03v23.42c0,.7.41,1.03,1.24,1.03s1.2-.34,1.2-1.03ZM439.57,388.79h-8.27l-2.89-12.77v12.77h-7.53v-34.43h7.53v11.47l3.27-11.47h7.01l-4.64,15.7,5.53,18.73ZM461.09,388.79h-14.73v-34.43h14.63v4.42h-7.1v9.31h6.41v4.18h-6.41v12.1h7.2v4.42ZM486.6,388.84h-7.48c-.81-.96-1.22-3.75-1.22-8.32v-.05l.02-2.04c.05-2.89.07-4.33.07-4.4,0-1.18-.77-1.76-2.3-1.76v16.52h-7.53v-34.43h9.28c2.13,0,3.97.51,5.53,1.47,1.58.99,2.37,2.52,2.37,4.64v4.11c0,2.69-1.56,4.5-4.66,5.43,3.11.72,4.66,2.65,4.66,5.7l-.1,3.75c0,5.53.45,8.63,1.36,9.38ZM477.99,366.26v-5.67c0-1.2-.77-1.8-2.3-1.8v9.31c1.53,0,2.3-.6,2.3-1.83ZM517.81,358.85h-4.19v29.94h-7.53v-29.94h-4.21v-4.5h15.93v4.5ZM524.93,382.9v-22.15c0-4.45,2.87-6.68,8.61-6.68s8.51,2.21,8.51,6.64v22.15c0,2-.79,3.53-2.37,4.62-1.58,1.08-3.64,1.61-6.17,1.61-5.71,0-8.59-2.07-8.59-6.18ZM534.71,383.24v-23.42c0-.67-.39-1.03-1.2-1.03s-1.24.36-1.24,1.03v23.42c0,.7.41,1.03,1.24,1.03s1.2-.34,1.2-1.03ZM549.35,354.36h7.53v28.88c0,.7.43,1.03,1.27,1.03s1.22-.34,1.22-1.03v-28.88h7.53v28.49c0,1.97-.81,3.51-2.46,4.59-1.63,1.11-3.73,1.63-6.29,1.63-2.39,0-4.42-.48-6.17-1.47-1.75-.96-2.63-2.55-2.63-4.71v-28.54ZM592.82,388.84h-7.51c-.79-.96-1.22-3.75-1.22-8.32v-.05l.05-2.04c.05-2.89.07-4.33.07-4.4,0-1.18-.76-1.76-2.32-1.76v16.52h-7.53v-34.43h9.3c2.1,0,3.95.51,5.53,1.47,1.58.99,2.34,2.52,2.34,4.64v4.11c0,2.69-1.53,4.5-4.64,5.43,3.11.72,4.64,2.65,4.64,5.7l-.1,3.75c0,5.53.45,8.63,1.39,9.38ZM584.21,366.26v-5.67c0-1.2-.76-1.8-2.32-1.8v9.31c1.56,0,2.32-.6,2.32-1.83Z"/>
      <path class="cls-3" d="M376.13,242.59h-57.1v.53c4.71,2.43,8.16,7,9.04,12.43h24.49v43.36h23.58v-43.36h27.52v-12.96h-27.52Z"/>
      <path class="cls-3" d="M61.88,243.02h24.61v42.9h46.8l-9.13,12.99h-62.27v-55.88Z"/>
      <path class="cls-3" d="M195.33,243.02h-26.14l-36.37,55.88h23.29l6.5-9.98h39.29l6.5,9.98h23.29l-36.37-55.88ZM170.27,277.17l12-18.42,11.98,18.42h-23.98Z"/>
    </g>
  </g>
</svg>