<?xml version="1.0" encoding="UTF-8"?>
<svg id="Layer_1" data-name="Layer 1" xmlns="http://www.w3.org/2000/svg" xmlns:xlink="http://www.w3.org/1999/xlink" viewBox="0 0 633.6 600">
  <defs>
    <style>
      .cls-1, .cls-2, .cls-3 {
        fill: none;
      }

      .cls-2 {
        stroke: #000;
        stroke-width: 1.99px;
      }

      .cls-4, .cls-5 {
        fill-rule: evenodd;
      }

      .cls-4, .cls-6 {
        fill: #ed1d24;
      }

      .cls-7 {
        fill: #d1d3d4;
      }

      .cls-8 {
        clip-path: url(#clippath-11);
      }

      .cls-9 {
        clip-path: url(#clippath-10);
      }

      .cls-10 {
        clip-path: url(#clippath-13);
      }

      .cls-11 {
        clip-path: url(#clippath-14);
      }

      .cls-12 {
        clip-path: url(#clippath-12);
      }

      .cls-13 {
        clip-path: url(#clippath-1);
      }

      .cls-14 {
        clip-path: url(#clippath-3);
      }

      .cls-15 {
        clip-path: url(#clippath-4);
      }

      .cls-16 {
        clip-path: url(#clippath-2);
      }

      .cls-17 {
        clip-path: url(#clippath-7);
      }

      .cls-18 {
        clip-path: url(#clippath-6);
      }

      .cls-19 {
        clip-path: url(#clippath-9);
      }

      .cls-20 {
        clip-path: url(#clippath-8);
      }

      .cls-21 {
        clip-path: url(#clippath-5);
      }

      .cls-22 {
        fill: #fff;
      }

      .cls-3 {
        stroke: #a7a9ac;
        stroke-width: .8px;
      }

      .cls-23 {
        clip-path: url(#clippath);
      }

      .cls-24 {
        fill: #a7a9ac;
      }
    </style>
    <clipPath id="clippath">
      <rect class="cls-1" x="0" width="633.6" height="600"/>
    </clipPath>
    <clipPath id="clippath-1">
      <rect class="cls-1" x="16.7" width="586.67" height="594.31"/>
    </clipPath>
    <clipPath id="clippath-2">
      <rect class="cls-1" x="0" width="633.6" height="600"/>
    </clipPath>
    <clipPath id="clippath-3">
      <rect class="cls-1" x="16.7" width="586.67" height="594.31"/>
    </clipPath>
    <clipPath id="clippath-4">
      <rect class="cls-1" x="0" width="633.6" height="600"/>
    </clipPath>
    <clipPath id="clippath-5">
      <rect class="cls-1" x="16.7" width="586.67" height="594.31"/>
    </clipPath>
    <clipPath id="clippath-6">
      <rect class="cls-1" x="0" width="633.6" height="600"/>
    </clipPath>
    <clipPath id="clippath-7">
      <rect class="cls-1" x="16.7" width="586.67" height="594.31"/>
    </clipPath>
    <clipPath id="clippath-8">
      <rect class="cls-1" x="0" width="633.6" height="600"/>
    </clipPath>
    <clipPath id="clippath-9">
      <rect class="cls-1" x="16.7" width="586.67" height="594.31"/>
    </clipPath>
    <clipPath id="clippath-10">
      <rect class="cls-1" x="0" width="633.6" height="600"/>
    </clipPath>
    <clipPath id="clippath-11">
      <rect class="cls-1" x="16.7" width="586.67" height="594.31"/>
    </clipPath>
    <clipPath id="clippath-12">
      <rect class="cls-1" x="0" width="633.6" height="600"/>
    </clipPath>
    <clipPath id="clippath-13">
      <rect class="cls-1" x="16.7" width="586.67" height="594.31"/>
    </clipPath>
    <clipPath id="clippath-14">
      <rect class="cls-1" x="0" width="633.6" height="600"/>
    </clipPath>
  </defs>
  <g class="cls-23">
    <path d="M61.94,313.75c5.91-31.29,18.77-59.77,36.78-84.56,17.67-24.32,40.38-45.19,66.51-61.77,25.77-16.35,55.02-28.62,86.32-35.98,31.07-7.31,64.38-9.84,98.66-6.69,34.28,3.15,66.57,11.69,95.79,24.53,29.44,12.94,55.97,30.32,78.34,51.09,22.68,21.06,41.2,45.71,54.16,72.84,13.2,27.66,20.66,58,20.77,89.84.12,32.57-7.46,63.59-21.47,91.77-14.31,28.75-35.26,54.44-61.44,75.63-26.59,21.52-58.41,38.27-93.76,48.77-35.68,10.6-74.69,14.74-115.09,11.03-40.41-3.71-78.01-14.88-111.17-31.79-32.86-16.76-61.09-39.02-83.32-65.02-21.88-25.6-37.82-54.66-46.65-85.54-8.66-30.26-10.46-62.14-4.42-94.14"/>
  </g>
  <g class="cls-13">
    <path class="cls-2" d="M61.94,313.75c5.91-31.29,18.77-59.77,36.78-84.56,17.67-24.32,40.38-45.19,66.51-61.77,25.77-16.35,55.02-28.62,86.32-35.98,31.07-7.31,64.38-9.84,98.66-6.69,34.28,3.15,66.57,11.69,95.79,24.53,29.44,12.94,55.97,30.32,78.34,51.09,22.68,21.06,41.2,45.71,54.16,72.84,13.2,27.66,20.66,58,20.77,89.84.12,32.57-7.46,63.59-21.47,91.77-14.31,28.75-35.26,54.44-61.44,75.63-26.59,21.52-58.41,38.27-93.76,48.77-35.68,10.6-74.69,14.74-115.09,11.03-40.41-3.71-78.01-14.88-111.17-31.79-32.86-16.76-61.09-39.02-83.32-65.02-21.88-25.6-37.82-54.66-46.65-85.54-8.66-30.26-10.46-62.14-4.42-94.14Z"/>
  </g>
  <g class="cls-16">
    <path class="cls-24" d="M62.91,303.28c5.76-29.69,18.48-56.69,36.37-80.15,17.56-23.03,40.15-42.74,66.2-58.37,25.68-15.41,54.86-26.93,86.12-33.78,31.02-6.8,64.3-9.05,98.58-5.9,34.29,3.14,66.6,11.41,95.86,23.74,29.49,12.43,56.09,29.06,78.54,48.89,22.77,20.11,41.4,43.6,54.47,69.44,13.32,26.33,20.92,55.19,21.18,85.44.27,30.93-7.16,60.37-21.04,87.07-14.16,27.25-35,51.54-61.06,71.55-26.48,20.32-58.21,36.09-93.5,45.9-35.62,9.9-74.58,13.66-114.99,9.94-40.41-3.7-78.04-14.49-111.27-30.71-32.92-16.07-61.25-37.35-83.59-62.15-21.99-24.41-38.05-52.1-47.02-81.47-8.79-28.78-10.74-59.07-4.85-89.44"/>
  </g>
  <g class="cls-14">
    <path class="cls-3" d="M62.91,303.28c5.76-29.69,18.48-56.69,36.37-80.15,17.56-23.03,40.15-42.74,66.2-58.37,25.68-15.41,54.86-26.93,86.12-33.78,31.02-6.8,64.3-9.05,98.58-5.9,34.29,3.14,66.6,11.41,95.86,23.74,29.49,12.43,56.09,29.06,78.54,48.89,22.77,20.11,41.4,43.6,54.47,69.44,13.32,26.33,20.92,55.19,21.18,85.44.27,30.93-7.16,60.37-21.04,87.07-14.16,27.25-35,51.54-61.06,71.55-26.48,20.32-58.21,36.09-93.5,45.9-35.62,9.9-74.58,13.66-114.99,9.94-40.41-3.7-78.04-14.49-111.27-30.71-32.92-16.07-61.25-37.35-83.59-62.15-21.99-24.41-38.05-52.1-47.02-81.47-8.79-28.78-10.74-59.07-4.85-89.44Z"/>
  </g>
  <g class="cls-15">
    <path d="M63.32,298.83c5.74-29.52,18.45-56.36,36.33-79.68,17.54-22.89,40.13-42.48,66.16-58,25.67-15.31,54.84-26.75,86.1-33.55,31.01-6.74,64.3-8.96,98.57-5.81,34.28,3.14,66.6,11.38,95.87,23.66,29.49,12.37,56.1,28.93,78.56,48.65,22.77,20.01,41.42,43.38,54.5,69.08,13.33,26.19,20.95,54.89,21.22,84.96.28,30.76-7.13,60.03-21,86.57-14.15,27.09-34.96,51.24-61.02,71.12-26.47,20.19-58.18,35.86-93.47,45.59-35.61,9.83-74.57,13.54-114.98,9.84-40.41-3.71-78.05-14.45-111.27-30.59-32.93-15.99-61.27-37.17-83.62-61.84-22-24.29-38.08-51.82-47.06-81.03-8.8-28.63-10.77-58.75-4.89-88.94"/>
  </g>
  <g class="cls-21">
    <path class="cls-2" d="M63.32,298.83c5.74-29.52,18.45-56.36,36.33-79.68,17.54-22.89,40.13-42.48,66.16-58,25.67-15.31,54.84-26.75,86.1-33.55,31.01-6.74,64.3-8.96,98.57-5.81,34.28,3.14,66.6,11.38,95.87,23.66,29.49,12.37,56.1,28.93,78.56,48.65,22.77,20.01,41.42,43.38,54.5,69.08,13.33,26.19,20.95,54.89,21.22,84.96.28,30.76-7.13,60.03-21,86.57-14.15,27.09-34.96,51.24-61.02,71.12-26.47,20.19-58.18,35.86-93.47,45.59-35.61,9.83-74.57,13.54-114.98,9.84-40.41-3.71-78.05-14.45-111.27-30.59-32.93-15.99-61.27-37.17-83.62-61.84-22-24.29-38.08-51.82-47.06-81.03-8.8-28.63-10.77-58.75-4.89-88.94Z"/>
  </g>
  <g class="cls-18">
    <path class="cls-7" d="M307.5,590.24c21.68,1.99,42.96,1.67,63.53-.7l2.39-26.07-.5-55.37c.26-3.68-25.47-9.03-57.47-11.97-32.01-2.93-58.28-2.35-58.69,1.31l-10.54,54.08-2.39,26.06c20.2,6.29,41.5,10.61,63.66,12.65"/>
    <path class="cls-7" d="M526.3,521c21.64-19.7,39.18-42.7,51.67-68.06,3.53-7.16,6.65-14.51,9.35-22.01l1.4-15.19-53.84-26.29c-3.45-2-19.03,13.29-35.04,34.44-16.27,21.51-26.81,40.91-23.29,43.02l51.89,32.91-2.12,21.19Z"/>
    <path class="cls-7" d="M119.22,351.27l-56.56,15.73-1.37,15.3c1.29,8,3.04,15.92,5.24,23.73,7.58,26.91,20.46,52.46,37.86,75.57l1.92-20.98,56.13-22.55c3.84-1.44-2.98-22.44-15.06-46.54-11.88-23.72-24.41-41.58-28.17-40.24"/>
    <path class="cls-22" d="M119.22,351.27l-56.56,15.72c5.92,33.5,21,65.43,43.66,93.61l56.13-22.55c3.84-1.43-2.98-22.43-15.06-46.54-11.88-23.72-24.41-41.57-28.17-40.24M198.68,194.68l-43.31-26.63c-28.1,18.74-51.63,42.5-68.31,70.2l47.34,23.61c3.1,1.86,20.31-12.04,38.17-30.78,17.59-18.45,29.17-34.64,26.11-36.41M315.46,496.14c-32.01-2.93-58.28-2.35-58.69,1.31l-10.54,54.08c20.24,6.03,41.57,10.19,63.71,12.22,21.65,1.99,42.92,1.82,63.49-.28l-.5-55.37c.26-3.68-25.47-9.03-57.47-11.97M536.29,298.76l51.89-14.9c-11.43-30.28-30.33-57.93-54.63-81.45l-48.2,18.59c-3.33,1.18,5.11,19.21,19.03,40.55,14.14,21.67,28.52,38.47,31.91,37.21M295.35,121.32l-.85,41.3c-.32,2.86,22.41,7.29,50.77,9.89,28.36,2.6,51.53,2.38,51.73-.49l6.72-40.95c-17.06-4.46-34.85-7.61-53.24-9.3-18.76-1.72-37.21-1.82-55.13-.46M499.82,423.88c-16.27,21.51-26.81,40.91-23.29,43.02l51.89,32.91c27.52-23.56,48.27-52.2,60.29-84.08l-53.84-26.29c-3.46-2-19.04,13.29-35.04,34.44"/>
    <path d="M146.04,307.9c3.4-20.65,11.71-39.55,23.73-56.07,11.85-16.3,27.35-30.33,45.39-41.51,35.53-22.02,81.38-33.19,129.84-28.75,48.46,4.45,91.5,23.78,122.44,51.89,15.7,14.27,28.38,30.89,37.08,49.07,8.81,18.43,13.54,38.53,13.13,59.46-.41,21.27-6.11,41.38-16.13,59.5-10.18,18.39-24.81,34.69-42.86,48.02-36.71,27.13-87.09,41.71-141.6,36.71-54.51-5-101.39-28.51-132.55-61.86-15.32-16.4-26.74-35.09-33.4-55.02-6.57-19.65-8.51-40.45-5.04-61.44"/>
    <path class="cls-22" d="M466.07,419.99l15.26-19.86,15.53,9.11c7.72-12.01,13.47-25.02,16.94-38.75l-17.66-3.17,3.6-23.07,17.67,3.15c.11-1.79.2-3.59.23-5.4.24-12.08-1.24-23.88-4.23-35.23l-16.65,2.84-7.95-22.15,16.67-2.81c-5.83-12.71-13.59-24.69-22.97-35.65l-12.89,7.83-17.55-17.73,12.96-7.77c-11.03-9.67-23.49-18.24-37.09-25.44l-7.4,11.17-24.04-10.81,7.54-11.14c-14.2-5.38-29.34-9.4-45.19-11.83l-1.08,12.51-26.8-2.46,1.21-12.56c-15.99-.58-31.59.54-46.52,3.16l5.21,11.91-25.59,6.25-5.14-12.05c-14.64,4.5-28.43,10.53-41.03,17.9l10.69,9.43-20.47,14.22-10.76-9.61c-11.21,8.92-21.06,19.11-29.17,30.37l14.74,5.37-11.84,20.31-14.98-5.5c-5.37,11.05-9.23,22.88-11.28,35.36-.18,1.11-.34,2.22-.49,3.33l16.57.1-.67,23.31-16.93-.09c.68,14,3.69,27.72,8.78,40.85l15.73-5.69,11.36,22.28-16.03,5.87c7.75,12.83,17.6,24.8,29.24,35.55l11.85-10.99,21.92,16.92-12,11.31c13.58,9.22,28.72,16.99,45.13,22.98l5.39-14.69,28.55,8-5.32,14.97c9.06,1.98,18.39,3.44,27.93,4.31,8.27.76,16.45,1.06,24.52.94l-2.49-15.68,29.55-2.67,2.69,15.91c17.39-2.63,33.9-7.27,49.14-13.66l-9.99-13.67,24.67-12.67,10.17,13.72c13.72-8.32,25.89-18.2,36.15-29.34l-15.39-9.11Z"/>
    <path d="M152.23,308.15c3.2-19.99,11.15-38.3,22.71-54.32,11.41-15.82,26.37-29.45,43.81-40.32,34.39-21.43,78.85-32.32,125.88-28.01,47.02,4.31,88.76,23.11,118.68,50.44,15.18,13.86,27.4,29.99,35.75,47.62,8.45,17.86,12.94,37.31,12.44,57.55-.5,20.54-6.09,39.94-15.86,57.41-9.9,17.7-24.08,33.38-41.53,46.2-35.46,26.04-84,40.01-136.49,35.19-52.48-4.81-97.68-27.39-127.81-59.44-14.83-15.78-25.92-33.78-32.44-52.98-6.42-18.96-8.39-39.05-5.15-59.34"/>
    <path class="cls-22" d="M159.65,308.89c6-38.06,30.03-69.87,63.64-90.86,32.99-20.61,75.67-31.1,120.84-26.96,45.16,4.14,85.23,22.22,113.91,48.49,29.22,26.76,47.07,62.41,46.04,100.93-.52,19.69-5.92,38.27-15.32,54.98-9.52,16.94-23.13,31.93-39.86,44.19-33.98,24.88-80.45,38.22-130.67,33.61-50.21-4.61-93.49-26.18-122.37-56.82-14.22-15.09-24.87-32.31-31.15-50.7-6.2-18.15-8.13-37.4-5.06-56.86"/>
    <path d="M36.48,212.55c12.75-29.18,31.66-54.06,54.76-74.19,22.67-19.75,49.46-35.01,78.64-45.32,28.77-10.17,60.02-15.59,92.18-15.76,31.91-.17,64.95,4.81,97.65,15.55,32.71,10.74,62.27,26.29,87.88,45.33,25.8,19.2,47.77,42.08,64.92,67.32,17.39,25.6,29.94,53.77,36.49,83.11,6.68,29.91,7.16,61.16.15,92.21-7.17,31.77-21.49,60.31-41.46,84.64-20.38,24.83-46.55,45.17-76.8,59.96-30.73,15.03-65.49,24.24-102.3,26.57-37.15,2.35-76.09-2.34-114.64-14.99-38.56-12.65-72.7-31.95-101.24-55.85-28.28-23.69-50.82-51.7-66.67-82.01-15.6-29.84-24.63-61.74-26.33-93.81-1.67-31.43,3.71-62.91,16.76-92.74"/>
  </g>
  <g class="cls-17">
    <path class="cls-2" d="M36.48,212.55c12.75-29.18,31.66-54.06,54.76-74.19,22.67-19.75,49.46-35.01,78.64-45.32,28.77-10.17,60.02-15.59,92.18-15.76,31.91-.17,64.95,4.81,97.65,15.55,32.71,10.74,62.27,26.29,87.88,45.33,25.8,19.2,47.77,42.08,64.92,67.32,17.39,25.6,29.94,53.77,36.49,83.11,6.68,29.91,7.16,61.16.15,92.21-7.17,31.77-21.49,60.31-41.46,84.64-20.38,24.83-46.55,45.17-76.8,59.96-30.73,15.03-65.49,24.24-102.3,26.57-37.15,2.35-76.09-2.34-114.64-14.99-38.56-12.65-72.7-31.95-101.24-55.85-28.28-23.69-50.82-51.7-66.67-82.01-15.6-29.84-24.63-61.74-26.33-93.81-1.67-31.43,3.71-62.91,16.76-92.74Z"/>
  </g>
  <g class="cls-20">
    <path class="cls-24" d="M39.76,202.56c12.26-27.65,30.69-51.12,53.38-69.99,22.26-18.51,48.69-32.67,77.58-42.08,28.48-9.28,59.49-13.97,91.49-13.66,31.76.31,64.7,5.57,97.4,16.3,32.71,10.74,62.36,26.02,88.12,44.58,25.96,18.71,48.16,40.87,65.61,65.22,17.69,24.69,30.6,51.76,37.56,79.86,7.09,28.64,8.05,58.47,1.53,88.01-6.66,30.21-20.48,57.24-39.98,80.16-19.9,23.39-45.64,42.41-75.52,56.08-30.35,13.89-64.8,22.16-101.4,23.83-36.93,1.68-75.75-3.37-114.31-16.03-38.56-12.65-72.82-31.58-101.58-54.82-28.49-23.03-51.34-50.1-67.57-79.27-15.97-28.71-25.43-59.29-27.61-89.92-2.13-30.02,2.75-59.98,15.29-88.26"/>
    <path class="cls-3" d="M39.76,202.56c12.26-27.65,30.69-51.12,53.38-69.99,22.26-18.51,48.69-32.67,77.58-42.08,28.48-9.28,59.49-13.97,91.49-13.66,31.76.31,64.7,5.57,97.4,16.3,32.71,10.74,62.36,26.02,88.12,44.58,25.96,18.71,48.16,40.87,65.61,65.22,17.69,24.69,30.6,51.76,37.56,79.86,7.09,28.64,8.05,58.47,1.53,88.01-6.66,30.21-20.48,57.24-39.98,80.16-19.9,23.39-45.64,42.41-75.52,56.08-30.35,13.89-64.8,22.16-101.4,23.83-36.93,1.68-75.75-3.37-114.31-16.03-38.56-12.65-72.82-31.58-101.58-54.82-28.49-23.03-51.34-50.1-67.57-79.27-15.97-28.71-25.43-59.29-27.61-89.92-2.13-30.02,2.75-59.98,15.29-88.26Z"/>
    <path d="M41.16,198.31c12.2-27.49,30.59-50.8,53.23-69.54,22.22-18.38,48.61-32.42,77.46-41.73,28.44-9.18,59.44-13.8,91.42-13.44,31.73.37,64.67,5.65,97.38,16.38,32.71,10.74,62.37,25.99,88.15,44.5,25.98,18.65,48.21,40.74,65.68,64.99,17.72,24.59,30.67,51.55,37.67,79.52,7.14,28.5,8.14,58.19,1.68,87.56-6.6,30.04-20.38,56.91-39.83,79.68-19.85,23.23-45.54,42.12-75.38,55.67-30.31,13.76-64.73,21.93-101.3,23.53-36.9,1.61-75.71-3.48-114.27-16.14-38.56-12.65-72.84-31.54-101.61-54.71-28.52-22.96-51.4-49.93-67.67-78.98-16.01-28.59-25.52-59.03-27.74-89.51-2.18-29.87,2.64-59.66,15.13-87.78"/>
  </g>
  <g class="cls-19">
    <path class="cls-2" d="M41.16,198.31c12.2-27.49,30.59-50.8,53.23-69.54,22.22-18.38,48.61-32.42,77.46-41.73,28.44-9.18,59.44-13.8,91.42-13.44,31.73.37,64.67,5.65,97.38,16.38,32.71,10.74,62.37,25.99,88.15,44.5,25.98,18.65,48.21,40.74,65.68,64.99,17.72,24.59,30.67,51.55,37.67,79.52,7.14,28.5,8.14,58.19,1.68,87.56-6.6,30.04-20.38,56.91-39.83,79.68-19.85,23.23-45.54,42.12-75.38,55.67-30.31,13.76-64.73,21.93-101.3,23.53-36.9,1.61-75.71-3.48-114.27-16.14-38.56-12.65-72.84-31.54-101.61-54.71-28.52-22.96-51.4-49.93-67.67-78.98-16.01-28.59-25.52-59.03-27.74-89.51-2.18-29.87,2.64-59.66,15.13-87.78Z"/>
  </g>
  <g class="cls-9">
    <path class="cls-7" d="M213.96,536.96c20.69,6.79,41.49,11.24,62.08,13.54l8.17-24.88,11.9-54.08c1.08-3.52-22.81-14.5-53.34-24.52-30.54-10.02-56.27-15.33-57.49-11.85l-22.37,50.35-8.17,24.87c18.28,10.65,38.08,19.63,59.23,26.57"/>
    <path class="cls-7" d="M442.7,518.42c25.49-14.36,47.74-32.85,65.59-54.78,5.04-6.19,9.73-12.66,14.03-19.37l4.76-14.5-46.6-37.67c-2.92-2.72-21.52,8.69-41.86,25.73-20.67,17.32-35.28,33.88-32.32,36.72l43.21,43.68-6.81,20.18Z"/>
    <path class="cls-7" d="M83.91,261.93l-58.64,2.67-4.75,14.6c-.53,8.08-.6,16.19-.2,24.3,1.37,27.93,8.2,55.71,20,82.12l6.57-20.02,59.75-9.42c4.07-.54,2.11-22.53-4.27-48.73-6.27-25.77-14.49-45.99-18.45-45.52"/>
    <path class="cls-22" d="M83.91,261.93l-58.64,2.67c-1.72,33.98,5.84,68.47,21.61,101l59.75-9.42c4.07-.54,2.11-22.53-4.27-48.73-6.27-25.77-14.49-45.99-18.45-45.52M196.39,127.08l-36.26-35.64c-31.58,11.98-59.83,29.88-82.28,53.14l40.86,33.6c2.61,2.51,22.48-7.19,44.08-21.46,21.27-14.05,36.18-27.24,33.59-29.65M242.77,447.03c-30.54-10.02-56.27-15.34-57.5-11.85l-22.37,50.35c18.38,10.4,38.23,19.23,59.36,26.16,20.66,6.78,41.42,11.38,61.95,13.93l11.9-54.08c1.08-3.52-22.81-14.49-53.34-24.52M502.15,304.05l53.91-2.91c-4.37-32.07-16.6-63.24-35.03-91.61l-51.14,7.34c-3.51.41.68,19.87,9.48,43.78,8.94,24.29,19.19,43.88,22.78,43.4M307.02,77.21l-10.07,40.06c-.95,2.71,20.21,12.12,47.27,21,27.07,8.88,49.68,13.85,50.53,11.1l15.71-38.41c-15.63-8.16-32.26-15.22-49.81-20.98-17.9-5.87-35.86-10.1-53.63-12.78M438.62,417.84c-20.67,17.32-35.28,33.88-32.32,36.72l43.21,43.68c32.09-16.8,58.72-40.08,77.57-68.46l-46.6-37.67c-2.92-2.72-21.52,8.69-41.86,25.73"/>
    <path d="M119.76,225.66c7.94-19.37,20.26-35.93,35.67-49.34,15.2-13.23,33.44-23.44,53.52-30.3,39.55-13.51,86.74-14.14,132.97,1.03,46.24,15.17,83.87,43.64,107.73,77.96,12.11,17.42,20.75,36.46,25.16,56.12,4.46,19.94,4.58,40.58-.51,60.88-5.16,20.64-15.21,38.96-29.04,54.38-14.04,15.65-31.94,28.26-52.52,37.22-41.85,18.23-94.21,21.17-146.22,4.11-52.01-17.07-92.44-50.47-115.36-89.95-11.27-19.41-18.21-40.18-20.25-61.1-2.01-20.62.76-41.33,8.83-61.01"/>
    <path class="cls-22" d="M406.6,406.5l19.32-15.95,13.1,12.35c10.21-9.98,18.72-21.37,25.18-33.98l-16.51-7.04,8.67-21.68,16.51,7.03c.51-1.72,1-3.46,1.44-5.21,2.93-11.72,4.13-23.55,3.76-35.29l-16.87-.95-2.79-23.36,16.88.99c-2.83-13.7-7.73-27.1-14.41-39.88l-14.32,4.75-13.14-21.21,14.37-4.67c-8.58-11.89-18.81-23.03-30.46-33.09l-9.71,9.23-21.01-15.91,9.84-9.17c-12.63-8.42-26.49-15.73-41.4-21.64l-3.85,11.95-25.57-8.39,4-11.97c-15.46-4.14-30.91-6.54-46.05-7.33l2.42,12.78-26.34.37-2.31-12.89c-15.28,1.11-30.07,3.9-44,8.27l8.31,11.58-23.13,9.29-8.34-11.77c-12.92,6.19-24.8,13.91-35.22,23.07l13.17,8.54-16.08,17.14-13.36-8.71c-7.71,9.57-14.12,20.24-18.91,31.94-.42,1.04-.83,2.09-1.23,3.14l16.12,3.81-5.86,22.57-16.49-3.88c-2.47,13.8-2.61,27.84-.58,41.78l16.6-2.03,6.09,24.26-16.93,2.14c4.69,14.24,11.61,28.1,20.54,41.19l14.01-8.07,17.57,21.4-14.22,8.34c11.17,12.03,24.19,22.99,38.84,32.49l8.55-13.11,26.04,14.18-8.53,13.4c8.39,3.95,17.15,7.46,26.25,10.45,7.89,2.59,15.8,4.71,23.69,6.4l1.08-15.84,29.4,4.01-.94,16.1c17.54,1.33,34.67.5,50.95-2.31l-6.68-15.56,26.88-6.83,6.85,15.64c15.23-5.04,29.3-11.94,41.8-20.51l-12.96-12.32Z"/>
    <path d="M125.74,227.29c7.59-18.76,19.43-34.83,34.29-47.86,14.66-12.86,32.29-22.81,51.72-29.5,38.31-13.19,84.08-13.87,128.95.86,44.87,14.73,81.34,42.39,104.39,75.71,11.69,16.91,20,35.36,24.19,54.41,4.24,19.3,4.26,39.26-.74,58.87-5.09,19.91-14.87,37.57-28.3,52.41-13.61,15.04-30.93,27.15-50.81,35.74-40.39,17.44-90.83,20.2-140.9,3.77-50.08-16.43-89.08-48.54-111.27-86.53-10.93-18.7-17.7-38.72-19.76-58.9-2.03-19.91.55-39.93,8.25-58.99"/>
    <path class="cls-22" d="M132.8,229.67c14.36-35.76,44.9-61.38,82.35-74.33,36.76-12.71,80.71-13.38,123.8.76,43.09,14.14,78.1,40.73,100.18,72.75,22.5,32.62,31.92,71.35,22.3,108.67-4.92,19.07-14.33,35.97-27.23,50.17-13.07,14.38-29.68,25.95-48.74,34.15-38.68,16.65-86.95,19.25-134.87,3.52-47.91-15.72-85.26-46.43-106.56-82.76-10.49-17.89-17.01-37.06-19.02-56.38-1.98-19.08.45-38.28,7.79-56.55"/>
    <path d="M42.7,220.26c3.02-31.7,13.23-61.24,28.9-87.57,15.38-25.83,36.08-48.69,60.59-67.59,24.17-18.63,52.17-33.52,82.68-43.72,30.26-10.11,63.2-15.68,97.63-15.68s67.37,5.56,97.63,15.68c30.5,10.19,58.51,25.08,82.68,43.72,24.51,18.9,45.21,41.75,60.58,67.59,15.67,26.33,25.88,55.87,28.9,87.57,3.09,32.42-1.62,64.01-13,93.35-11.61,29.94-30.14,57.44-54.27,80.92-24.51,23.86-54.66,43.45-88.91,57.14-34.56,13.81-73.03,21.5-113.61,21.5s-79.04-7.69-113.6-21.5c-34.25-13.69-64.4-33.28-88.92-57.14-24.13-23.49-42.65-50.98-54.27-80.92-11.38-29.34-16.09-60.93-13-93.35"/>
  </g>
  <g class="cls-8">
    <path class="cls-2" d="M42.7,220.26c3.02-31.7,13.23-61.24,28.9-87.57,15.38-25.83,36.08-48.69,60.59-67.59,24.17-18.63,52.17-33.52,82.68-43.72,30.26-10.11,63.2-15.68,97.63-15.68s67.37,5.56,97.63,15.68c30.5,10.19,58.51,25.08,82.68,43.72,24.51,18.9,45.21,41.75,60.58,67.59,15.67,26.33,25.88,55.87,28.9,87.57,3.09,32.42-1.62,64.01-13,93.35-11.61,29.94-30.14,57.44-54.27,80.92-24.51,23.86-54.66,43.45-88.91,57.14-34.56,13.81-73.03,21.5-113.61,21.5s-79.04-7.69-113.6-21.5c-34.25-13.69-64.4-33.28-88.92-57.14-24.13-23.49-42.65-50.98-54.27-80.92-11.38-29.34-16.09-60.93-13-93.35Z"/>
  </g>
  <g class="cls-12">
    <path class="cls-24" d="M42.7,209.75c3.02-30.09,13.23-58.14,28.9-83.14,15.38-24.53,36.08-46.23,60.59-64.17,24.17-17.69,52.17-31.83,82.68-41.51,30.26-9.6,63.2-14.88,97.63-14.88s67.37,5.28,97.63,14.88c30.5,9.68,58.51,23.82,82.68,41.51,24.51,17.94,45.21,39.64,60.58,64.17,15.67,25,25.88,53.05,28.9,83.14,3.09,30.78-1.62,60.77-13,88.63-11.61,28.43-30.14,54.53-54.27,76.83-24.51,22.66-54.66,41.25-88.91,54.25-34.56,13.11-73.03,20.41-113.61,20.41s-79.04-7.3-113.6-20.41c-34.25-13-64.4-31.6-88.92-54.25-24.13-22.3-42.65-48.4-54.27-76.83-11.38-27.86-16.09-57.85-13-88.63"/>
    <path class="cls-3" d="M42.7,209.75c3.02-30.09,13.23-58.14,28.9-83.14,15.38-24.53,36.08-46.23,60.59-64.17,24.17-17.69,52.17-31.83,82.68-41.51,30.26-9.6,63.2-14.88,97.63-14.88s67.37,5.28,97.63,14.88c30.5,9.68,58.51,23.82,82.68,41.51,24.51,17.94,45.21,39.64,60.58,64.17,15.67,25,25.88,53.05,28.9,83.14,3.09,30.78-1.62,60.77-13,88.63-11.61,28.43-30.14,54.53-54.27,76.83-24.51,22.66-54.66,41.25-88.91,54.25-34.56,13.11-73.03,20.41-113.61,20.41s-79.04-7.3-113.6-20.41c-34.25-13-64.4-31.6-88.92-54.25-24.13-22.3-42.65-48.4-54.27-76.83-11.38-27.86-16.09-57.85-13-88.63Z"/>
    <path d="M42.7,205.28c3.02-29.92,13.23-57.81,28.9-82.67,15.38-24.39,36.08-45.96,60.59-63.81,24.17-17.59,52.17-31.65,82.68-41.27,30.26-9.55,63.2-14.8,97.63-14.8s67.37,5.25,97.63,14.8c30.5,9.63,58.51,23.68,82.68,41.27,24.51,17.84,45.21,39.42,60.58,63.81,15.67,24.86,25.88,52.75,28.9,82.67,3.09,30.61-1.62,60.43-13,88.13-11.61,28.27-30.14,54.22-54.27,76.4-24.51,22.53-54.66,41.02-88.91,53.94-34.56,13.04-73.03,20.3-113.61,20.3s-79.04-7.26-113.6-20.3c-34.25-12.92-64.4-31.41-88.92-53.94-24.13-22.17-42.65-48.13-54.27-76.4-11.38-27.7-16.09-57.52-13-88.13"/>
  </g>
  <g class="cls-10">
    <path class="cls-2" d="M42.7,205.28c3.02-29.92,13.23-57.81,28.9-82.67,15.38-24.39,36.08-45.96,60.59-63.81,24.17-17.59,52.17-31.65,82.68-41.27,30.26-9.55,63.2-14.8,97.63-14.8s67.37,5.25,97.63,14.8c30.5,9.63,58.51,23.68,82.68,41.27,24.51,17.84,45.21,39.42,60.58,63.81,15.67,24.86,25.88,52.75,28.9,82.67,3.09,30.61-1.62,60.43-13,88.13-11.61,28.27-30.14,54.22-54.27,76.4-24.51,22.53-54.66,41.02-88.91,53.94-34.56,13.04-73.03,20.3-113.61,20.3s-79.04-7.26-113.6-20.3c-34.25-12.92-64.4-31.41-88.92-53.94-24.13-22.17-42.65-48.13-54.27-76.4-11.38-27.7-16.09-57.52-13-88.13Z"/>
  </g>
  <g class="cls-11">
    <path class="cls-7" d="M312.49,473.16c21.77,0,42.93-2.26,63.21-6.49v-26.18l-5.55-55.09c-.08-3.68-26.19-6.66-58.32-6.66s-58.25,2.98-58.33,6.66l-5.56,54.82v26.17c20.69,4.42,42.3,6.77,64.56,6.77"/>
    <path class="cls-7" d="M524.04,384.22c19.75-21.59,35.12-46.1,45.23-72.5,2.86-7.46,5.3-15.06,7.3-22.78v-15.26l-56.02-21.26c-3.62-1.67-17.74,14.97-31.75,37.5-14.24,22.9-22.96,43.19-19.26,44.97l54.67,28.03-.17,21.3Z"/>
    <path class="cls-7" d="M103.16,252.39l-54.89,20.83.04,15.36c2.01,7.85,4.48,15.57,7.38,23.15,10.01,26.11,25.17,50.37,44.61,71.79v-21.07l53.83-27.59c3.7-1.78-5.02-22.06-19.25-44.97-13.99-22.53-28.11-39.17-31.73-37.5"/>
    <path class="cls-22" d="M103.16,252.39l-54.89,20.83c8.96,32.82,26.89,63.24,52.03,89.23l53.83-27.59c3.7-1.78-5.02-22.07-19.25-44.97-13.99-22.53-28.11-39.17-31.73-37.5M167.98,89.19l-45.56-22.56c-26.27,21.23-47.54,47.04-61.61,76.15l49.3,19.19c3.26,1.57,19.12-13.84,35.19-34.14,15.83-19.98,25.88-37.16,22.68-38.64M311.81,378.73c-32.14,0-58.25,2.98-58.32,6.66l-5.56,54.82c20.71,4.15,42.33,6.35,64.56,6.35s42.91-2.1,63.2-6.08l-5.55-55.09c-.07-3.68-26.19-6.66-58.32-6.66M513.68,162l50.31-19.57c-14.15-29.11-35.49-54.92-61.85-76.12l-46.3,22.92c-3.2,1.48,6.84,18.66,22.66,38.64,16.06,20.29,31.91,35.7,35.18,34.13M257.54,7.31l2.92,41.21c-.06,2.87,22.98,5.21,51.46,5.21s51.53-2.34,51.47-5.21l2.95-41.39c-17.39-2.88-35.4-4.4-53.86-4.4s-37.22,1.58-54.94,4.58M488.8,289.92c-14.24,22.9-22.96,43.19-19.26,44.97l54.67,28.03c25.25-25.97,43.3-56.4,52.36-89.24l-56.02-21.26c-3.62-1.67-17.74,14.97-31.75,37.5"/>
    <path d="M125.91,206.76c1.5-20.88,8.05-40.46,18.51-58.01,10.31-17.31,24.46-32.7,41.4-45.48,33.37-25.17,78.01-40.49,126.66-40.49s93.3,15.32,126.67,40.49c16.94,12.78,31.09,28.17,41.41,45.48,10.46,17.55,17,37.13,18.51,58.01,1.53,21.22-2.3,41.76-10.64,60.72-8.46,19.24-21.53,36.81-38.29,51.74-34.08,30.37-82.91,49.49-137.65,49.49s-103.57-19.13-137.65-49.49c-16.76-14.93-29.83-32.5-38.29-51.74-8.34-18.96-12.16-39.51-10.64-60.72"/>
    <path class="cls-22" d="M454.84,289.13l13.38-21.17,16.29,7.65c6.59-12.67,11.13-26.14,13.33-40.14l-17.88-1.54,1.48-23.3,17.88,1.53c-.05-1.8-.13-3.6-.26-5.4-.87-12.05-3.42-23.66-7.43-34.7l-16.32,4.36-9.94-21.33,16.35-4.32c-6.96-12.13-15.79-23.34-26.13-33.4l-12.13,8.98-19.09-16.05,12.19-8.92c-11.86-8.62-25.06-16.01-39.26-21.95l-6.35,11.8-24.92-8.57,6.49-11.79c-14.63-4.06-30.07-6.68-46.08-7.65l.07,12.55h-26.91l.07-12.62c-15.98.89-31.41,3.42-46.04,7.4l6.28,11.39-24.91,8.56-6.22-11.53c-14.17,5.83-27.35,13.09-39.22,21.58l11.5,8.41-19.09,16.04-11.6-8.58c-10.35,9.91-19.22,20.95-26.27,32.9l15.17,4.01-9.93,21.3-15.41-4.11c-4.34,11.5-7.1,23.63-8,36.25-.08,1.12-.14,2.24-.19,3.36l16.51-1.41,1.46,23.27-16.87,1.45c1.95,13.88,6.2,27.27,12.47,39.88l15.15-7.11,13.35,21.15-15.43,7.31c8.9,12.06,19.79,23.08,32.36,32.73l10.79-12.03,23.37,14.86-10.92,12.35c14.36,7.94,30.15,14.3,47.03,18.76l4.03-15.13,29.16,5.36-3.93,15.4c9.21,1.14,18.62,1.74,28.21,1.74,8.3,0,16.48-.45,24.5-1.31l-3.91-15.38,29.18-5.36,4.13,15.59c17.08-4.2,33.09-10.34,47.69-18.09l-11.2-12.7,23.41-14.87,11.39,12.72c12.9-9.53,24.11-20.49,33.32-32.52l-16.15-7.66Z"/>
    <path d="M132.1,206.44c1.35-20.2,7.61-39.16,17.65-56.17,9.92-16.79,23.57-31.74,39.95-44.15,32.29-24.48,75.57-39.39,122.79-39.39s90.5,14.91,122.79,39.39c16.38,12.42,30.03,27.36,39.95,44.15,10.05,17.01,16.3,35.97,17.65,56.17,1.38,20.5-2.41,40.33-10.55,58.62-8.24,18.53-20.93,35.44-37.14,49.8-32.93,29.17-80,47.52-132.7,47.52s-99.77-18.35-132.7-47.52c-16.21-14.36-28.89-31.27-37.14-49.8-8.13-18.29-11.93-38.12-10.55-58.62"/>
    <path class="cls-22" d="M139.55,206.49c2.49-38.46,23.52-72.32,55.07-96.3,30.97-23.54,72.52-37.88,117.86-37.88s86.9,14.34,117.87,37.88c31.55,23.98,52.58,57.84,55.07,96.3,1.27,19.65-2.4,38.65-10.23,56.16-7.93,17.74-20.11,33.91-35.66,47.65-31.56,27.88-76.62,45.4-127.05,45.4s-95.48-17.52-127.05-45.4c-15.55-13.73-27.72-29.91-35.66-47.65-7.83-17.51-11.51-36.5-10.23-56.16"/>
    <path class="cls-6" d="M211.79,149.65h-8.95s.15-1.04-.15-2.98c-.65-6.09-2.08-20.31-3.18-30.41-.12-.97-.57-2.65-.57-2.65h8.11s-.11,1.53-.04,2.45c.87,10.15,2.29,26.91,2.29,26.91h.1s1.85-16.66,3.03-26.66c.14-1.02-.11-2.71-.11-2.71h8.53s-.05,1.58.02,2.5c.93,9.79,2.44,26.39,2.44,26.39h.1s1.91-16.4,3.04-26.34c.13-1.02.02-2.55.02-2.55h4.7s-.41,1.68-.54,2.65c-1.98,12.88-5.15,33.38-5.15,33.38h-8.58l-2.12-23.49h-.1l-2.9,23.49Z"/>
    <path class="cls-6" d="M232.98,117.8c.12-4.08,2.56-4.65,9.53-4.65s9.08.66,8.99,4.85l-.58,26.64c-.09,4.28-1.06,5.48-9.59,5.48-7.95,0-9.23-1.1-9.11-5.22l.76-27.1ZM240.31,118.37l-.66,26.07c-.04,1.61.51,2.29,1.93,2.29s1.9-.63,1.94-2.24l.63-26.17c.04-1.38-.63-1.84-1.92-1.84s-1.88.46-1.91,1.89"/>
    <path class="cls-6" d="M261.69,132.66s-.15,8.08-.23,13.03c-.04,1.93.31,3.13.66,3.97h-8.53c.29-1.26.42-2.51.45-4.02.23-10.91.34-16.64.57-27.47.03-1.48-.2-2.91-.47-4.54h13.07c4.44,0,5.98,1.17,5.93,4.54-.06,4.1-.05,3.59-.11,8-.04,3.09-1.83,4.02-4.8,4.69,2.85.46,4.71,1.24,4.67,4.14-.05,3.57-.1,6.84-.15,10.96-.02,1.56.38,2.76.73,3.71h-8.22c.08-4.59.16-9.43.24-14.05.04-2.17-1.04-2.95-2.5-2.95h-1.3ZM261.97,117.04l-.22,12.32h1.4c1.87,0,2.47-1.65,2.49-2.94.06-3.8.06-3.7.12-7.28.02-1.13-.69-2.1-1.93-2.1h-1.86Z"/>
    <path class="cls-6" d="M275.45,149.65c.28-1.26.4-2.51.42-4.02.14-10.91.22-16.64.36-27.47.02-1.48-.27-3.42-.51-4.55h8.27c-.21.92-.38,2.25-.4,3.78-.11,10.78-.19,17.8-.3,28.71,1.93,0,3.14-.05,5.02-.16.52,0,.99-.1,1.52-.1l-.03,3.81h-14.33Z"/>
    <path class="cls-6" d="M291.28,113.61h13.69c3.77,0,5.37,1.12,5.37,4.39-.01,7.85-.02,18.69-.03,26.79,0,3.86-1.16,4.85-5.19,4.85h-13.92c.27-1.25.39-2.51.4-4.02.08-10.91.13-17.31.21-28.14.01-1.48-.24-2.45-.54-3.88M299.16,117.14l-.15,29.33h1.93c1.1,0,1.94-.99,1.94-2.19.03-8,.07-17.76.1-25.3,0-1.02-.66-1.84-1.8-1.84h-2.02Z"/>
    <path class="cls-6" d="M342.59,145.21c.04,4.18-2.51,4.91-9.58,4.91-4.29,0-6.75-.21-9.11-.52l-.05-13.43h6.67l.05,8.31c0,1.31.64,2.24,2.41,2.24s2.19-.84,2.18-2.19c-.02-2.39-.03-4.52-.05-7.22-.02-2.59-3.14-3.31-5.39-4.19-3.44-1.34-5.88-1.45-5.9-6.44-.01-3.6-.02-5.6-.03-8.88-.02-4.09,2.62-4.65,9.59-4.65,3.82,0,6.62.25,8.68.41l.13,12.91h-6.54l-.06-8.26c-.01-1.43-.64-1.79-2.19-1.79s-2.28.36-2.26,1.89c.01,2.2.02,4.46.04,6.92.02,3.03,3.25,3.65,5.64,4.48,2.71.93,5.63,1.86,5.65,4.7.04,3.99.07,7.16.11,10.8"/>
    <path class="cls-6" d="M345.4,149.65c.25-1.26.34-2.51.32-4.02-.12-10.91-.18-16.64-.3-27.47-.02-1.48-.29-2.91-.62-4.55h13.74l.05,3.32c-.37-.15-.62-.26-1.19-.26h-4.66l.16,12.06h2.55c1.04,0,2.12-.21,2.49-.31l.06,3.77c-.47-.1-1.51-.36-2.45-.36h-2.6l.19,14.27c1.93,0,3.14-.05,5.01-.16.52,0,.99-.1,1.51-.1l.06,3.81h-14.33Z"/>
    <path class="cls-6" d="M368.83,132.66s.15,8.08.25,13.03c.04,1.93.43,3.13.81,3.97h-8.53c.24-1.26.32-2.51.3-4.02-.18-10.91-.27-16.64-.45-27.47-.02-1.48-.31-2.91-.64-4.54h13.08c4.44,0,6.02,1.17,6.09,4.54.09,4.1.08,3.59.18,8,.07,3.09-1.67,4.02-4.62,4.69,2.87.46,4.76,1.24,4.82,4.14.09,3.57.16,6.84.25,10.96.04,1.56.48,2.76.87,3.71h-8.21c-.09-4.59-.19-9.43-.29-14.05-.04-2.17-1.15-2.95-2.61-2.95h-1.3ZM368.53,117.04l.24,12.32h1.4c1.87,0,2.41-1.65,2.38-2.94-.08-3.8-.08-3.7-.15-7.28-.02-1.13-.77-2.1-2.01-2.1h-1.87Z"/>
    <path class="cls-6" d="M390.92,145.58c.05,1.93.4,3.13.68,4.07h-8.37c.23-1.25.31-2.51.27-4.02-.26-10.91-.41-17.05-.66-27.88-.04-1.43-.27-2.76-.66-4.14h8.37c-.17,1.23-.39,2.76-.36,4.14.12,4.61.6,22.89.74,27.83"/>
    <path class="cls-6" d="M393.8,149.65c.23-1.26.3-2.51.26-4.02-.3-10.91-.46-16.64-.76-27.47-.04-1.48-.34-2.91-.7-4.55h13.75l.1,3.32c-.37-.15-.63-.26-1.2-.26h-4.65l.36,12.06h2.54c1.04,0,2.12-.21,2.48-.31l.12,3.77c-.47-.1-1.52-.36-2.46-.36h-2.6l.43,14.27c1.93,0,3.13-.05,5.01-.16.52,0,.99-.1,1.51-.1l.12,3.81h-14.33Z"/>
    <path class="cls-6" d="M428.67,145.21c.16,4.18-2.37,4.91-9.44,4.91-4.29,0-6.75-.21-9.12-.52l-.44-13.43h6.66l.29,8.31c.05,1.31.71,2.24,2.48,2.24s2.17-.84,2.11-2.19c-.09-2.39-.17-4.52-.26-7.22-.1-2.59-3.25-3.31-5.51-4.19-3.48-1.34-5.93-1.45-6.09-6.44-.12-3.6-.18-5.6-.29-8.88-.14-4.09,2.48-4.65,9.45-4.65,3.82,0,6.62.25,8.69.41l.51,12.91h-6.54l-.31-8.26c-.05-1.43-.69-1.79-2.24-1.79s-2.26.36-2.21,1.89c.08,2.2.16,4.46.25,6.92.11,3.03,3.35,3.65,5.77,4.48,2.74.93,5.68,1.86,5.79,4.7.16,3.99.28,7.16.43,10.8"/>
    <path d="M309.76,154.78c0-2.01,1.18-2.29,4.58-2.29s4.43.33,4.43,2.39l.02,13.07c0,2.09-.45,2.67-4.58,2.67-3.85,0-4.48-.54-4.48-2.54l.02-13.29ZM313.34,155.06v12.79c0,.79.28,1.12.96,1.12s.91-.31.91-1.09v-12.83c0-.68-.33-.91-.96-.91s-.91.23-.91.93"/>
    <path d="M320.14,170.39c.13-.61.17-1.22.17-1.96-.01-5.34-.02-8.15-.03-13.47,0-.73-.13-1.44-.28-2.24h6.69v1.63c-.19-.02-.37-.07-.57-.07-.85-.08-2.27-.05-2.27-.05l.02,5.93h1.19c.51,0,1.09-.1,1.26-.15v1.85c-.22-.05-.8-.18-1.18-.18h-1.26s.01,4.26.02,6.67c0,.79.13,1.5.36,2.04h-4.12Z"/>
    <path d="M207.4,231.51s-.38,10.75-.85,23.78c-.18,5.11.95,10.79,1.43,12.31h-21.77c.81-3.33,1.21-6.65,1.38-10.66,1.2-28.68,1.82-43.63,3-71.63.16-3.81-.34-7.47-.94-11.65h32.75c11.13,0,14.94,3,14.71,11.65-.27,10.55-.55,21.18-.85,32.7-.27,10.52-4.18,13.5-11.31,13.5h-17.56ZM209.14,182.42l-1.45,40.7h5.14c3.29,0,4.75-4.31,4.85-7.67.32-9.89.6-18.4.89-27.64.09-2.89-1.64-5.39-4.76-5.39h-4.67Z"/>
    <path d="M243.24,184.39c.25-10.47,6.37-11.91,23.84-11.91s22.76,1.7,22.67,12.43l-.57,69.4c-.09,11.33-2.52,14.52-24.31,14.52-20.31,0-23.58-2.92-23.32-13.83l1.69-70.62ZM261.66,185.84l-1.21,67.93c-.07,4.28,1.36,6.07,4.96,6.07s4.82-1.66,4.88-5.93l.99-68.2c.05-3.55-1.62-4.73-4.86-4.73s-4.7,1.18-4.76,4.86"/>
    <path d="M328.84,260.53c-3.91-13.35-12.43-38.76-12.43-38.76h-.4s.01,21.58.02,34.62c0,5.11.94,9.68,1.48,11.21h-21.37c.69-3.33.97-6.65.99-10.66.16-28.69.25-45.5.41-73.47.02-3.67-.61-6.29-1.37-9.81h20.84c-.39,1.7-1.03,6.01-1.03,8.77,0,11.85.02,34.1.02,34.1h.26s12.48-25.82,19.02-40.26c.38-.78.89-2.61.89-2.61h11.13l-17.43,33.63s11.69,32.23,19.35,53.51c.83,2.49,3.28,6.79,3.28,6.79h-22.44s-.56-4.58-1.24-7.07"/>
    <path d="M355.33,267.6c.62-3.33.84-6.65.79-10.66-.4-28.69-.61-43.63-1-71.63-.05-3.81-.75-7.47-1.59-11.65h34.43l.22,8.5c-.92-.39-1.58-.65-3-.65h-11.68l.63,31.13h6.43c2.62,0,5.37-.54,6.28-.81l.24,9.8c-1.19-.27-3.84-.94-6.21-.94h-6.58l.76,37.48c4.93,0,7.99-.13,12.77-.41,1.33,0,2.52-.27,3.85-.27l.26,10.1h-36.6Z"/>
    <path d="M414.47,222.85s.71,21.18,1.15,34.22c.17,5.11,1.21,8.3,2.23,10.52h-21.78c.58-3.33.76-6.65.65-10.66-.79-28.68-1.19-43.63-1.96-71.63-.1-3.81-.85-7.47-1.74-11.65h32.75c11.13,0,15.15,3,15.52,11.65.45,10.55.4,9.23.89,20.65.34,8.02-4.01,10.44-11.43,12.18,7.28,1.21,12.1,3.23,12.42,10.79.41,9.37.78,17.98,1.24,28.83.18,4.15,1.38,7.33,2.43,9.83h-20.97c-.45-12.17-.92-24.93-1.37-37.04-.21-5.68-3.04-7.7-6.73-7.7h-3.29ZM413.11,182.42l1.07,31.83h3.54c4.72,0,6.01-4.28,5.88-7.62-.36-9.83-.35-9.57-.69-18.82-.11-2.89-2.02-5.39-5.13-5.39h-4.68Z"/>
    <polygon points="183.31 273.66 183.05 279.74 446.86 279.74 446.59 273.66 183.31 273.66"/>
    <polygon points="333.39 158.96 333.43 164.59 440.3 164.59 440.06 158.96 333.39 158.96"/>
    <polygon points="188.62 158.96 188.38 164.59 303.65 164.59 303.67 158.96 188.62 158.96"/>
    <path d="M441.42,177.3c-.1-2.25,1.64-3.91,3.78-3.91s4,1.66,4.11,3.91c.1,2.28-1.63,3.94-3.76,3.94s-4.03-1.67-4.12-3.94M445.51,180.59c1.76,0,3.09-1.39,3-3.28-.08-1.86-1.53-3.26-3.29-3.26s-3.1,1.4-3.03,3.26c.08,1.89,1.53,3.28,3.31,3.28M444.65,179.58h-.68l-.2-4.53h1.71c1.06,0,1.6.39,1.64,1.29.04.81-.45,1.16-1.11,1.24l1.37,1.99h-.76l-1.27-1.96h-.78l.09,1.96ZM445.34,177.04c.58,0,1.09-.04,1.06-.74-.02-.56-.53-.66-1.01-.66h-.93l.06,1.4h.81Z"/>
    <polygon class="cls-4" points="237.69 290.14 248.4 308.62 236.98 328.62 225.24 308.77 237.69 290.14"/>
    <path class="cls-5" d="M296.43,327.15c-16.34-.97-13.91-10.91-13.91-10.91,0,0-.82,3.9,9.03,4.23,9.85.32,7.76-11.2,3.8-14.43-3.95-3.22-13.9-16.68-13.9-16.68,0,0-10.27,13.46-14.3,16.68-4.03,3.23-6.4,14.75,3.46,14.43,9.85-.33,9.13-4.23,9.13-4.23,0,0,2.19,9.94-14.17,10.91l-.02.89h30.93l-.05-.89Z"/>
    <path class="cls-4" d="M331.86,327.95c-1.37-8.2-13.2-19.53-16.2-25.36-3.01-5.81-.89-13.26,6.76-13.7,7.66-.44,9.29,5.55,9.29,5.55,0,0,1.57-5.98,9.24-5.55,7.66.44,9.83,7.89,6.89,13.7-2.96,5.83-14.68,17.17-15.98,25.36"/>
    <path class="cls-5" d="M364.14,328.07v-.82s8.02-.06,11.24-3.12c3.21-3.04,3.3-6.84,3-8.01-.3-1.17-2.09-2.62-3.44-.88-1.35,1.75-3.61,5.67-8.48,5.67s-6.94-6.13-6.98-9.57c-.05-3.42,3.47-7.89,7.32-7.89s4.8.63,5.3.93c.5.3,1.76.05,1.08-1.1-.68-1.16-2.57-2.71-2.67-7.73-.08-5.01,4.43-6.72,8.1-6.72s8.25,1.71,8.37,6.72c.11,5.01-1.72,6.57-2.35,7.73-.63,1.15.63,1.4,1.12,1.1.49-.29,1.42-.93,5.27-.93s7.54,4.47,7.63,7.89c.1,3.44-1.73,9.57-6.6,9.57s-7.28-3.92-8.7-5.67c-1.42-1.74-3.15-.29-3.4.88-.26,1.17-.01,4.97,3.31,8.01,3.34,3.06,11.37,3.12,11.37,3.12l.02.82h-30.51Z"/>
  </g>
</svg>