<?xml version="1.0" encoding="UTF-8"?>
<svg id="Layer_1" xmlns="http://www.w3.org/2000/svg" version="1.1" viewBox="0 0 1920 1080">
  <!-- Generator: Adobe Illustrator 29.8.2, SVG Export Plug-In . SVG Version: 2.1.1 Build 3)  -->
  <defs>
    <style>
      .st0 {
        font-size: 44.98px;
      }

      .st0, .st1, .st2, .st3, .st4, .st5, .st6, .st7, .st8, .st9 {
        font-family: AppleSDGothicNeo-Bold-KSCpc-EUC-H, 'Apple SD Gothic Neo';
        font-weight: 700;
      }

      .st10 {
        stroke: #fff;
      }

      .st10, .st11 {
        fill: none;
        stroke-miterlimit: 10;
      }

      .st1, .st2 {
        font-size: 32px;
      }

      .st1, .st2, .st12, .st3, .st6, .st7 {
        isolation: isolate;
      }

      .st1, .st3, .st13, .st5 {
        fill: #fff;
      }

      .st3, .st6 {
        font-size: 40px;
      }

      .st4 {
        font-size: 31.24px;
      }

      .st5, .st9 {
        font-size: 22.59px;
      }

      .st14 {
        fill: #ffbc00;
      }

      .st15 {
        fill: #383838;
      }

      .st16 {
        fill: #3d0000;
      }

      .st11 {
        stroke: #000;
        stroke-width: 5px;
      }

      .st7 {
        font-size: 21.56px;
      }

      .st8 {
        font-size: 37.09px;
      }
    </style>
  </defs>
  <rect width="1920" height="1091.8"/>
  <text class="st3" transform="translate(1577.48 86.61)"><tspan x="0" y="0">LOGIN</tspan></text>
  <text class="st3" transform="translate(1388.98 86.61)"><tspan x="0" y="0">FORUM</tspan></text>
  <text class="st3" transform="translate(1172.05 86.61)"><tspan x="0" y="0">EXPLORE</tspan></text>
  <text class="st3" transform="translate(978.76 86.61)"><tspan x="0" y="0">SEARCH</tspan></text>
  <text class="st3" transform="translate(61.44 84.93)"><tspan x="0" y="0">GGValut</tspan></text>
  <rect class="st15" x="13.66" y="158.06" width="946.34" height="908.93"/>
  <rect class="st13" x="1005.97" y="262.79" width="878.26" height="465.74"/>
  <rect class="st15" x="1005.97" y="741.94" width="878.26" height="51.3"/>
  <rect class="st13" x="1005.97" y="808.4" width="878.26" height="51.3"/>
  <rect class="st13" x="1005.97" y="874.94" width="878.26" height="51.3"/>
  <rect class="st13" x="1005.97" y="941.47" width="878.26" height="51.3"/>
  <rect class="st13" x="1005.97" y="1008.01" width="878.26" height="51.3"/>
  <rect class="st13" x="151.2" y="290.36" width="774.76" height="51.3"/>
  <rect class="st13" x="47.7" y="195.84" width="878.26" height="78.82" rx="39.41" ry="39.41"/>
  <rect class="st13" x="151.2" y="358.79" width="774.76" height="51.3"/>
  <rect class="st13" x="151.2" y="427.23" width="774.76" height="51.3"/>
  <rect class="st13" x="231.7" y="495.66" width="694.26" height="51.3"/>
  <rect class="st13" x="308.16" y="564.1" width="617.8" height="51.3"/>
  <rect class="st13" x="308.16" y="632.53" width="617.8" height="51.3"/>
  <rect class="st13" x="308.16" y="703.79" width="617.8" height="45.65"/>
  <rect class="st13" x="231.7" y="769.4" width="694.26" height="51.3"/>
  <rect class="st13" x="231.7" y="837.84" width="694.26" height="51.3"/>
  <rect class="st13" x="151.2" y="906.28" width="774.76" height="51.3"/>
  <rect class="st13" x="151.2" y="974.71" width="774.76" height="51.3"/>
  <rect class="st13" x="151.2" y="1043.15" width="774.76" height="51.3"/>
  <text class="st6" transform="translate(1318.74 495.66)"><tspan x="0" y="0">동영상 플레이어</tspan></text>
  <circle class="st13" cx="1834.8" cy="74.57" r="49.43"/>
  <text class="st1" transform="translate(1093.44 221.48)"><tspan x="0" y="0">2025 WSOP Super Circuit Cyprus Main Event Day 1</tspan></text>
  <text class="st2" transform="translate(1191.2 847.07)"><tspan x="0" y="0">Daniel Negreanu AA / Phil Ivey KK</tspan></text>
  <text class="st2" transform="translate(1700.98 847.07)"><tspan x="0" y="0">05:11</tspan></text>
  <text class="st7" transform="translate(1787.63 845.11)"><tspan x="0" y="0">Comment</tspan></text>
  <text class="st2" transform="translate(1111.88 847.99)"><tspan x="0" y="0">001</tspan></text>
  <text class="st2" transform="translate(1111.88 915)"><tspan x="0" y="0">002</tspan></text>
  <text class="st2" transform="translate(1111.88 982.02)"><tspan x="0" y="0">003</tspan></text>
  <text class="st2" transform="translate(1111.88 1049.03)"><tspan x="0" y="0">004</tspan></text>
  <text class="st1" transform="translate(1686.66 779.22)"><tspan x="0" y="0">DOWNLOAD</tspan></text>
  <text class="st1" transform="translate(1081.2 781.22)"><tspan x="0" y="0">ANALYZE</tspan></text>
  <text class="st1" transform="translate(1245.93 781.22)"><tspan x="0" y="0">85%</tspan></text>
  <text class="st2" transform="translate(273.77 535.7)"><tspan x="0" y="0">Main Event</tspan></text>
  <text class="st2" transform="translate(352.93 602.03)"><tspan x="0" y="0">Day1</tspan></text>
  <text class="st2" transform="translate(352.93 670)"><tspan x="0" y="0">Day2</tspan></text>
  <text class="st2" transform="translate(352.93 734.82)"><tspan x="0" y="0">Day3</tspan></text>
  <rect class="st11" x="1013.73" y="816.16" width="35.78" height="35.78"/>
  <rect class="st11" x="1013.73" y="882.7" width="35.78" height="35.78"/>
  <rect class="st11" x="1013.73" y="949.23" width="35.78" height="35.78"/>
  <rect class="st11" x="1013.73" y="1015.77" width="35.78" height="35.78"/>
  <rect class="st10" x="1013.73" y="747.8" width="35.78" height="35.78"/>
  <path class="st14" d="M1083.26,817.7l3.09,9.5h9.99c2.09,0,2.96,2.67,1.27,3.9l-8.09,5.87,3.09,9.5c.65,1.99-1.63,3.64-3.32,2.41l-8.09-5.87-8.09,5.87c-1.69,1.23-3.96-.42-3.32-2.41l3.09-9.5-8.09-5.87c-1.69-1.23-.82-3.9,1.27-3.9h9.99l3.09-9.5c.65-1.99,3.46-1.99,4.1,0h.02Z"/>
  <path class="st14" d="M1083.26,1018.59l3.09,9.5h9.99c2.09,0,2.96,2.67,1.27,3.9l-8.09,5.87,3.09,9.5c.65,1.99-1.63,3.64-3.32,2.41l-8.09-5.87-8.09,5.87c-1.69,1.23-3.96-.42-3.32-2.41l3.09-9.5-8.09-5.87c-1.69-1.23-.82-3.9,1.27-3.9h9.99l3.09-9.5c.65-1.99,3.46-1.99,4.1,0h.02Z"/>
  <path d="M90.04,203.49h68.69v63.52h-68.69c-17.53,0-31.76-14.23-31.76-31.76h0c0-17.53,14.23-31.76,31.76-31.76Z"/>
  <text class="st2" transform="translate(178.09 465.93)"><tspan x="0" y="0">2025 WSOP Super Circuit Cyprus</tspan></text>
  <g class="st12">
    <path class="st13" d="M92.99,219.29h42.68v9.25h-42.68v-9.25ZM92.99,238.29h42.68v9.35h-42.68v-9.35Z"/>
  </g>
  <text class="st2" transform="translate(775.95 248.68)"><tspan x="0" y="0">SEARCH</tspan></text>
  <rect class="st16" x="47.7" y="303.7" width="476.53" height="739.45"/>
  <rect class="st13" x="70.19" y="371.36" width="298.29" height="55.87"/>
  <text class="st5" transform="translate(68.24 358.54)"><tspan x="0" y="0">PLAYER</tspan></text>
  <rect class="st13" x="70.19" y="623.87" width="55.87" height="55.87"/>
  <rect class="st13" x="130.79" y="623.87" width="55.87" height="55.87"/>
  <rect class="st13" x="191.39" y="623.87" width="55.87" height="55.87"/>
  <rect class="st13" x="252" y="623.87" width="55.87" height="55.87"/>
  <rect class="st13" x="312.6" y="623.87" width="55.87" height="55.87"/>
  <rect class="st13" x="378.21" y="623.87" width="115.06" height="55.87"/>
  <text class="st5" transform="translate(172.36 611.05)"><tspan x="0" y="0">COMMUNITY CARDS</tspan></text>
  <rect class="st13" x="70.19" y="755.92" width="415.22" height="55.87"/>
  <text class="st5" transform="translate(172.36 743.1)"><tspan x="0" y="0">COMMUNITY CARDS</tspan></text>
  <rect class="st13" x="377.5" y="371.36" width="55.87" height="55.87"/>
  <rect class="st13" x="438.11" y="371.36" width="55.87" height="55.87"/>
  <rect class="st13" x="70.19" y="438" width="298.29" height="55.87"/>
  <rect class="st13" x="377.5" y="438" width="55.87" height="55.87"/>
  <rect class="st13" x="438.11" y="438" width="55.87" height="55.87"/>
  <rect class="st13" x="70.19" y="504.63" width="298.29" height="55.87"/>
  <rect class="st13" x="377.5" y="504.63" width="55.87" height="55.87"/>
  <rect class="st13" x="438.11" y="504.63" width="55.87" height="55.87"/>
  <text class="st5" transform="translate(417.54 357.61)"><tspan x="0" y="0">CARDS</tspan></text>
  <text class="st0" transform="translate(328.08 553.58) scale(1.05 1)"><tspan x="0" y="0">+</tspan></text>
  <text class="st4" transform="translate(493.86 666.12)"><tspan x="0" y="0">ANY</tspan></text>
  <text class="st8" transform="translate(330 410.05) scale(1.05 1)"><tspan x="0" y="0">x</tspan></text>
  <text class="st8" transform="translate(330 478.53) scale(1.05 1)"><tspan x="0" y="0">x</tspan></text>
  <text class="st9" transform="translate(85.69 477.01)"><tspan x="0" y="0">anyone</tspan></text>
  <text class="st9" transform="translate(85.69 410.05)"><tspan x="0" y="0">Phil Ivey</tspan></text>
</svg>