<svg xmlns="http://www.w3.org/2000/svg" xmlns:xlink="http://www.w3.org/1999/xlink" width="180.037" height="71.623" viewBox="0 0 180.037 71.623">
  <defs>
    <clipPath id="clip-path">
      <rect id="Rectangle_1592" data-name="Rectangle 1592" width="180" height="71.383" fill="#fff"/>
    </clipPath>
  </defs>
  <g id="European_Poker_Tour_for_light_bg" data-name="European Poker Tour for light bg" transform="translate(-2165 -6831)">
    <g id="EPT_Logo_White" data-name="EPT Logo White" transform="translate(2165.037 6831.24)" clip-path="url(#clip-path)">
      <path id="Path_60796" data-name="Path 60796" d="M179.518,66.1c0,2.929-1.577,3.163-4.352,4.761L5.606,70.9A9.53,9.53,0,0,1,.251,66.128L.39,5.725C.39,2.8,3.607.533,6.267.533h170.4c2.157,2.453,1.749,2.275,3.007,4.712L179.518,66.1Z" transform="translate(0 0)" fill="#fff"/>
      <path id="Path_60797" data-name="Path 60797" d="M22.029,19.1A2.928,2.928,0,0,0,19.1,22.029V51.862a2.928,2.928,0,0,0,2.929,2.929h97.323l36-35.692Z" transform="translate(-11.738 -11.738)" fill="#1e3c7a"/>
      <path id="Path_60798" data-name="Path 60798" d="M77.741,39.9H47.6v4.24H77.741Z" transform="translate(-29.253 -24.521)" fill="#fff"/>
      <path id="Path_60799" data-name="Path 60799" d="M56.311,67.939V64.277H76.739V60.5H47.6V72.179H77.741v-4.24Z" transform="translate(-29.253 -37.181)" fill="#fff"/>
      <path id="Path_60800" data-name="Path 60800" d="M156.666,40.1H133v4.24h21.045a2.032,2.032,0,0,1,2.081,1.85,2.058,2.058,0,0,1-2.081,1.85H133V59.719h8.672V52.28h14.994a6.106,6.106,0,1,0,0-12.18Z" transform="translate(-81.737 -24.644)" fill="#fff"/>
      <path id="Path_60801" data-name="Path 60801" d="M207.3,40.039c2.313,0,4.163,2.544,4.163,4.24h8.865v15.34H229V44.24h10.214V40Z" transform="translate(-127.399 -24.582)" fill="#fff"/>
      <path id="Path_60802" data-name="Path 60802" d="M24.65,131.139v2.775H22.029v2.274h2.12v2.852h-2.12v2.66h2.737v2.814H19.1V131.1h5.55Z" transform="translate(-11.738 -80.569)" fill="#1e3c7a"/>
      <path id="Path_60803" data-name="Path 60803" d="M44.316,144.806h-.578c-2.236,0-3.238-1.349-3.238-3.392V131.2h3.084v10.1c0,.463.154.694.5.694s.5-.27.5-.694V131.2h3.084v10.214A3.147,3.147,0,0,1,44.316,144.806Z" transform="translate(-24.89 -80.63)" fill="#1e3c7a"/>
      <path id="Path_60804" data-name="Path 60804" d="M69.068,144.613H66.1V131.2h4.664A2.1,2.1,0,0,1,73,133.551v1.773a2.084,2.084,0,0,1-1.156,2.043A1.807,1.807,0,0,1,73,139.1v4.433a1.708,1.708,0,0,0,.193.964v.077H70.263a1.64,1.64,0,0,1-.231-.964v-3.893c0-.463-.116-.655-.5-.655h-.424v5.55Zm0-8.017h.385c.385,0,.54-.193.54-.655v-1.812c0-.463-.077-.617-.5-.617h-.424V136.6Z" transform="translate(-40.622 -80.63)" fill="#1e3c7a"/>
      <path id="Path_60805" data-name="Path 60805" d="M98.146,140.837c0,2.313-1.31,3.662-3.315,3.662h-.578c-2.158,0-3.353-1.311-3.353-3.662v-6.36c0-2.313.964-3.777,3.353-3.777h.578c2.39,0,3.353,1.5,3.353,3.777v6.36Zm-3.083-6.668c0-.5-.154-.771-.54-.771s-.54.27-.54.771v6.861c0,.385.154.655.578.655.385,0,.54-.27.54-.655v-6.861Z" transform="translate(-55.864 -80.323)" fill="#1e3c7a"/>
      <path id="Path_60806" data-name="Path 60806" d="M119.668,139.448v5.165H116.7V131.2h4.278c1.773,0,2.544.887,2.544,2.7v2.775c0,1.734-.886,2.775-2.428,2.775Zm0-2.505h.347c.424,0,.54-.27.54-.655v-2.081c0-.385-.077-.655-.54-.655h-.347Z" transform="translate(-71.719 -80.63)" fill="#1e3c7a"/>
      <path id="Path_60807" data-name="Path 60807" d="M146.85,131.139v2.775h-2.621v2.274h2.12v2.852h-2.12v2.66h2.737v2.814H141.3V131.1h5.55Z" transform="translate(-86.837 -80.569)" fill="#1e3c7a"/>
      <path id="Path_60808" data-name="Path 60808" d="M166.2,142.648h-1.388l-.193,1.966H162l1.7-13.413h3.662l1.889,13.413h-2.891Zm-.27-2.66-.424-4.086-.424,4.086Z" transform="translate(-99.559 -80.63)" fill="#1e3c7a"/>
      <path id="Path_60809" data-name="Path 60809" d="M189.891,131.2l1.542,6.475V131.2h2.544v13.413h-2.621l-1.773-7.015v7.015H187V131.2Z" transform="translate(-114.923 -80.63)" fill="#1e3c7a"/>
      <path id="Path_60810" data-name="Path 60810" d="M225.868,139.448v5.165H222.9V131.2h4.278c1.773,0,2.544.887,2.544,2.7v2.775c0,1.734-.886,2.775-2.428,2.775Zm0-2.505h.347c.424,0,.54-.27.54-.655v-2.081c0-.385-.077-.655-.54-.655h-.347Z" transform="translate(-136.986 -80.63)" fill="#1e3c7a"/>
      <path id="Path_60811" data-name="Path 60811" d="M254.646,140.837c0,2.313-1.311,3.662-3.315,3.662h-.578c-2.158,0-3.353-1.311-3.353-3.662v-6.36c0-2.313.964-3.777,3.353-3.777h.578c2.39,0,3.353,1.5,3.353,3.777v6.36Zm-3.083-6.668c0-.5-.154-.771-.54-.771s-.54.27-.54.771v6.861c0,.385.154.655.578.655.385,0,.54-.27.54-.655v-6.861Z" transform="translate(-152.042 -80.323)" fill="#1e3c7a"/>
      <path id="Path_60812" data-name="Path 60812" d="M276.168,139.256v5.358H273.2V131.2h2.968v4.779l1.388-4.779h2.968l-1.812,5.974,1.927,7.439h-3.122Z" transform="translate(-167.898 -80.63)" fill="#1e3c7a"/>
      <path id="Path_60813" data-name="Path 60813" d="M304.05,131.139v2.775h-2.621v2.274h2.12v2.852h-2.12v2.66h2.737v2.814H298.5V131.1h5.55Z" transform="translate(-183.446 -80.569)" fill="#1e3c7a"/>
      <path id="Path_60814" data-name="Path 60814" d="M322.868,144.613H319.9V131.2h4.664a2.1,2.1,0,0,1,2.236,2.351v1.773a2.084,2.084,0,0,1-1.156,2.043A1.807,1.807,0,0,1,326.8,139.1v4.433a1.708,1.708,0,0,0,.193.964v.077h-2.929a1.639,1.639,0,0,1-.231-.964v-3.893c0-.463-.116-.655-.5-.655h-.424v5.55Zm0-8.017h.385c.385,0,.54-.193.54-.655v-1.812c0-.463-.077-.617-.5-.617h-.424V136.6Z" transform="translate(-196.598 -80.63)" fill="#1e3c7a"/>
      <path id="Path_60815" data-name="Path 60815" d="M359.764,133.975v10.638H356.8V133.975h-1.7V131.2h6.321v2.775Z" transform="translate(-218.231 -80.63)" fill="#1e3c7a"/>
      <path id="Path_60816" data-name="Path 60816" d="M385.146,140.837c0,2.313-1.311,3.662-3.315,3.662h-.578c-2.158,0-3.353-1.311-3.353-3.662v-6.36c0-2.313.964-3.777,3.353-3.777h.578c2.39,0,3.353,1.5,3.353,3.777v6.36Zm-3.084-6.668c0-.5-.154-.771-.54-.771s-.54.27-.54.771v6.861c0,.385.154.655.578.655.385,0,.54-.27.54-.655v-6.861Z" transform="translate(-232.243 -80.323)" fill="#1e3c7a"/>
      <path id="Path_60817" data-name="Path 60817" d="M407.516,144.806h-.578c-2.236,0-3.238-1.349-3.238-3.392V131.2h3.084v10.1c0,.463.154.694.5.694s.5-.27.5-.694V131.2h3.083v10.214A3.167,3.167,0,0,1,407.516,144.806Z" transform="translate(-248.098 -80.63)" fill="#1e3c7a"/>
      <path id="Path_60818" data-name="Path 60818" d="M432.168,144.613H429.2V131.2h4.664a2.1,2.1,0,0,1,2.236,2.351v1.773a2.084,2.084,0,0,1-1.156,2.043A1.807,1.807,0,0,1,436.1,139.1v4.433a1.708,1.708,0,0,0,.193.964v.077h-2.929a1.64,1.64,0,0,1-.231-.964v-3.893c0-.463-.116-.655-.5-.655h-.424v5.55Zm0-8.017h.385c.385,0,.54-.193.54-.655v-1.812c0-.463-.077-.617-.5-.617h-.424V136.6Z" transform="translate(-263.77 -80.63)" fill="#1e3c7a"/>
      <path id="Path_60819" data-name="Path 60819" d="M389.542,26.755c-4.664-4.664-7.632-7.555-7.632-7.555s-3.006,2.891-7.632,7.555c-2.467,2.467-7.979,8.557-7.979,14.608a7.3,7.3,0,0,0,13.567,3.777.753.753,0,0,1,.578-.27c.385,0,.732.27.694.578-.27,2.2-1.5,7.555-6.36,9.366h14.3c-4.857-1.812-6.051-7.208-6.36-9.366-.039-.347.308-.578.694-.578a.753.753,0,0,1,.578.27,7.3,7.3,0,0,0,13.567-3.777C397.521,35.311,392.009,29.221,389.542,26.755Z" transform="translate(-225.114 -11.8)" fill="#d70a0a"/>
      <path id="Path_60820" data-name="Path 60820" d="M393.341,38.8l1.966,6.129h6.437l-5.2,3.777,2,6.09-5.2-3.777-5.2,3.777,1.966-6.09-5.2-3.777h6.437Z" transform="translate(-236.545 -23.845)" fill="#fff"/>
    </g>
    <g id="Group_14532" data-name="Group 14532" transform="translate(-83 -128)">
      <path id="Rectangle_1590" data-name="Rectangle 1590" d="M6,1.053A5.144,5.144,0,0,0,1,6.32V65.3A5.144,5.144,0,0,0,6,70.57H174a5.144,5.144,0,0,0,5-5.266V6.32a5.144,5.144,0,0,0-5-5.266H6M6,0H174a6.166,6.166,0,0,1,6,6.32V65.3a6.166,6.166,0,0,1-6,6.32H6A6.166,6.166,0,0,1,0,65.3V6.32A6.166,6.166,0,0,1,6,0Z" transform="translate(2248 6959)" fill="#1e3c7a"/>
    </g>
  </g>
</svg>
