<svg xmlns="http://www.w3.org/2000/svg" width="192" height="59.884" viewBox="0 0 192 59.884">
  <g id="WPT_logo" data-name="WPT logo" transform="translate(-728.406 -2357.919)">
    <path id="Path_4923" data-name="Path 4923" d="M96.763.6,74.126,42.536H64.143L84.389.6ZM69.934.6,47.291,42.536H36.332L58.733.6ZM72.15,42.536H62.388L61.008.6h8.928ZM44,42.536H34.83L33.574.6H44.6Zm90.785,0H124.062L134.906.6h10.781l-10.9,41.936Zm-38.5,0H85.506L96.412.6h10.72L96.288,42.536ZM91.918.6h66.123l-2.46,8.928H89.455L91.92.6ZM97.79.6h14.725c6.413,0,15.934,3.9,13.176,16.477-1.554,7.245-7.062,14.914-18.061,14.914H89.481c-.061.241,1.978-8.742,2.036-8.986h15.512c4.431-.056,7.069-2.578,8.082-6.409.844-3.238.18-7.069-4.429-7.069H95.346L97.792.6Z" transform="translate(762.366 2365.365)"/>
    <path id="Path_4924" data-name="Path 4924" d="M4.067,52.938a2.816,2.816,0,0,0,2.716,3.5H36.736A5.612,5.612,0,0,0,42.2,52.161L53.572,8.076A2.818,2.818,0,0,0,50.854,4.6H20.9a5.616,5.616,0,0,0-5.461,4.272L4.067,52.936Z" transform="translate(732.435 2361.365)" fill="#ff0049"/>
    <path id="Path_4925" data-name="Path 4925" d="M.084,48.962a2.818,2.818,0,0,0,2.715,3.5H32.753a5.612,5.612,0,0,0,5.465-4.3L49.591,4.076A2.816,2.816,0,0,0,46.875.6H16.916a5.616,5.616,0,0,0-5.457,4.276Z" transform="translate(728.406 2357.319)" fill="#005ee1"/>
    <path id="Path_4926" data-name="Path 4926" d="M33.563,44.129l10.2-39.552h-23.5a5.612,5.612,0,0,0-5.457,4.276L4.61,48.4H28.1a5.612,5.612,0,0,0,5.461-4.272Z" transform="translate(733.069 2361.342)" fill="#fff"/>
    <path id="Path_4927" data-name="Path 4927" d="M13.479,23.572a2.44,2.44,0,0,1-2.49-3.281c.577-2.46,4.335-5.383,7.2-7.617.352-.274.69-.537,1.006-.778l.225-.113.161.113c.2.253.416.517.644.778,1.81,2.229,4.19,5.157,3.613,7.617a4.224,4.224,0,0,1-4.033,3.281,3.334,3.334,0,0,1-2.832-1.384,5.367,5.367,0,0,1-3.482,1.384h-.01Z" transform="translate(739.407 2368.631)"/>
    <path id="Path_4928" data-name="Path 4928" d="M15.029,20.19c-1.637,0-3.051.113-3.051.113l-.093-.388c1.32,0,3.741-2.267,3.741-2.267s1.36,2.267,2.689,2.267l-.284.388S16.656,20.19,15.029,20.19Z" transform="translate(740.427 2374.563)"/>
  </g>
</svg>
