<svg width="194" height="106" viewBox="0 0 194 106" fill="none" xmlns="http://www.w3.org/2000/svg">
<path d="M32.21 38.252C31.394 41.91 30.938 45.622 30.362 49.312C28.8867 58.7526 27.42 68.1946 25.962 77.638C25.747 79.021 25.531 80.405 25.362 81.795C25.279 82.495 25.015 82.759 24.262 82.752C20.2007 82.7153 16.1397 82.7153 12.079 82.752C11.31 82.759 11.105 82.442 10.986 81.777C9.30866 72.377 7.61832 62.977 5.91499 53.577C3.98899 42.9643 2.05232 32.353 0.104989 21.743C-0.125011 20.48 -0.064011 20.409 1.21699 20.409C4.40799 20.409 7.59999 20.438 10.79 20.388C11.671 20.374 12.026 20.641 12.154 21.521C13.65 31.835 15.165 42.1466 16.699 52.456C17.238 56.123 17.746 59.795 18.299 63.456C18.399 64.091 18.357 64.727 18.419 65.378C19.1413 64.38 19.567 63.1983 19.647 61.969C21.4303 50.825 23.1937 39.678 24.937 28.528C25.323 26.088 25.782 23.658 26.137 21.213C26.231 20.559 26.488 20.394 27.084 20.397C30.523 20.411 33.963 20.422 37.402 20.388C38.15 20.38 38.287 20.761 38.379 21.353C38.927 24.895 39.495 28.433 40.058 31.972C41.68 42.1833 43.3007 52.3956 44.92 62.609C45.054 63.452 45.082 64.309 45.174 65.321C45.439 65.1415 45.6553 64.8989 45.8033 64.6151C45.9514 64.3312 46.0265 64.015 46.022 63.695C46.7013 59.341 47.368 54.985 48.022 50.627C48.904 44.7603 49.7797 38.8936 50.649 33.027C51.201 29.3196 51.751 25.612 52.299 21.904C52.518 20.412 52.505 20.404 54.027 20.404C57.176 20.404 60.327 20.438 63.475 20.383C64.467 20.365 64.639 20.647 64.462 21.583C62.8133 30.323 61.1913 39.0676 59.596 47.817C57.796 57.617 56.0057 67.42 54.225 77.226C53.952 78.726 53.69 80.226 53.461 81.726C53.347 82.476 52.989 82.746 52.215 82.74C48.154 82.708 44.092 82.721 40.031 82.73C39.489 82.73 39.175 82.703 39.073 81.982C38.337 76.764 37.537 71.554 36.74 66.344C35.794 60.157 34.82 53.974 33.878 47.787C33.419 44.775 33.006 41.757 32.573 38.742C32.543 38.536 32.512 38.332 32.212 38.242" fill="black"/>
<path d="M129.471 82.603C126.847 82.6014 124.235 82.253 121.703 81.567C119.696 81.0374 117.828 80.0757 116.231 78.7489C114.634 77.4221 113.346 75.7624 112.458 73.886C110.663 70.0271 109.653 65.8498 109.487 61.597C109.349 59.676 109.263 57.747 109.163 55.512C109.115 54.425 109.063 53.302 109.003 52.057C109.091 50.68 109.133 49.257 109.178 47.745C109.311 43.262 109.461 38.18 110.953 33.327C112.203 29.238 114.063 26.261 116.628 24.225C119.193 22.189 122.511 21.049 126.803 20.712C127.826 20.632 128.822 20.591 129.765 20.591C131.845 20.5752 133.92 20.7969 135.95 21.252C138.699 21.8392 141.239 23.1564 143.303 25.065C145.301 27.0219 146.813 29.4191 147.719 32.065C148.884 35.6777 149.534 39.4367 149.649 43.231C150.277 51.006 150.046 58.8265 148.961 66.551C148.568 69.5036 147.577 72.3451 146.049 74.902C145.079 76.5723 143.783 78.0307 142.239 79.1907C140.694 80.3507 138.932 81.1887 137.058 81.655C134.577 82.2774 132.029 82.5957 129.471 82.603ZM129.397 29.547C128.039 29.5086 126.7 29.874 125.549 30.597C124.437 31.3615 123.582 32.4441 123.095 33.703C122.264 35.8164 121.773 38.048 121.639 40.315C121.229 46.493 121.151 52.6886 121.405 58.875L121.425 59.717C121.362 63.1467 121.928 66.5589 123.097 69.784C123.531 70.9341 124.294 71.9309 125.291 72.65C126.288 73.369 127.475 73.7784 128.703 73.827C129.044 73.859 129.389 73.876 129.728 73.876C130.863 73.9444 131.995 73.7115 133.011 73.2008C134.027 72.69 134.889 71.9197 135.511 70.968C135.585 70.847 135.66 70.732 135.738 70.611C136.438 69.534 137.238 68.311 137.958 61.951V51.451C137.958 49.417 137.834 47.442 137.715 45.531C137.633 44.218 137.548 42.861 137.502 41.477C137.442 38.8757 136.953 36.3023 136.053 33.861C135.613 32.5456 134.76 31.4077 133.621 30.617C132.384 29.8689 130.956 29.4962 129.511 29.544L129.397 29.547Z" fill="black"/>
<path d="M71.451 62.759C73.025 62.759 74.601 62.8 76.174 62.744C77.159 62.708 77.61 62.98 77.574 64.058C77.5739 65.1708 77.6527 66.2823 77.81 67.384C78.2 70.784 79.754 72.576 83.047 73.468C84.126 73.8098 85.2689 73.9004 86.3884 73.7331C87.5078 73.5657 88.5742 73.1447 89.5061 72.5023C90.438 71.8598 91.2107 71.0129 91.7653 70.0262C92.3199 69.0394 92.6416 67.939 92.706 66.809C92.941 63.358 91.206 61.009 88.428 59.27C86.3489 57.9879 84.1153 56.9751 81.781 56.256C79.0117 55.404 76.3555 54.2208 73.87 52.732C71.906 51.6154 70.2271 50.0594 68.9648 48.1857C67.7025 46.312 66.891 44.1716 66.594 41.932C66.1443 39.0346 66.2063 36.0809 66.777 33.205C68.116 26.609 72.264 22.709 78.702 21.244C83.4516 20.1395 88.4075 20.296 93.078 21.698C99.408 23.588 103.078 28.531 103.433 35.436C103.59 38.417 103.59 38.408 100.58 38.4C98.0983 38.2575 95.611 38.2445 93.128 38.361C92.218 38.453 91.88 38.061 91.784 37.193C91.726 35.5829 91.3522 33.9999 90.684 32.534C90.3874 31.9191 89.9647 31.3735 89.4433 30.9328C88.922 30.4921 88.3137 30.1661 87.658 29.976C84.907 29.193 82.336 29.31 80.132 31.387C79.9223 31.5859 79.7327 31.8049 79.566 32.041C77.189 35.401 78.508 41.293 82.166 43.166C84.812 44.521 87.566 45.666 90.279 46.892C92.7602 47.9226 95.1855 49.0828 97.545 50.368C101.045 52.423 103.881 55.079 104.796 59.197C105.83 63.56 105.585 68.1284 104.091 72.356C102.51 76.768 99.197 79.472 94.905 80.937C88.8575 82.9814 82.341 83.1943 76.173 81.549C69.612 79.883 66.517 75.165 65.681 68.761C65.467 67.121 65.531 65.467 65.439 63.822C65.387 62.894 65.78 62.692 66.598 62.711C68.213 62.749 69.83 62.723 71.447 62.723V62.759" fill="black"/>
<path d="M165.877 82.512H165.748C164.115 82.475 162.416 82.456 160.698 82.456C159.08 82.456 157.392 82.473 155.68 82.506H155.602C155.444 82.5255 155.284 82.5138 155.131 82.4714C154.978 82.429 154.834 82.3568 154.709 82.259C154.495 81.9674 154.404 81.603 154.457 81.245C154.481 73.493 154.479 65.611 154.477 57.989C154.477 55.841 154.477 53.6953 154.477 51.552C154.477 49.3013 154.477 47.0506 154.477 44.8V44.74C154.477 37.36 154.484 29.732 154.448 22.23C154.415 22.0108 154.425 21.7872 154.479 21.572C154.532 21.3568 154.627 21.1543 154.759 20.976C155.081 20.726 155.489 20.6142 155.894 20.665H155.929C157.356 20.674 158.922 20.678 160.715 20.678C162.253 20.678 163.815 20.678 165.328 20.672H165.337C166.822 20.665 168.355 20.665 169.863 20.665C172.985 20.665 175.397 20.678 177.684 20.707C181.477 20.6769 185.143 22.0723 187.956 24.617C190.767 27.3142 192.538 30.9164 192.956 34.79C193.473 38.666 193.766 43.738 191.423 48.59C190.24 51.1201 188.369 53.266 186.023 54.782C183.657 56.2279 181.01 57.1515 178.258 57.491C175.748 57.8488 173.214 58.0196 170.679 58.002C169.937 58.002 169.15 57.99 168.341 57.966H168.224C168.071 57.9485 167.915 57.9616 167.767 58.0043C167.618 58.047 167.48 58.1186 167.359 58.215C167.25 58.3618 167.172 58.5286 167.128 58.7059C167.083 58.8831 167.075 59.0673 167.102 59.248C167.118 62.498 167.12 65.801 167.121 68.994C167.121 72.977 167.121 77.094 167.155 81.145C167.212 81.5338 167.112 81.9293 166.878 82.245C166.737 82.3536 166.576 82.4332 166.404 82.479C166.232 82.5249 166.053 82.5361 165.877 82.512ZM168.108 30.001C167.974 29.9866 167.838 29.9995 167.71 30.0389C167.581 30.0782 167.461 30.1432 167.358 30.23C167.258 30.3614 167.186 30.5113 167.145 30.6709C167.104 30.8306 167.095 30.9969 167.119 31.16C167.145 33.139 167.141 35.15 167.137 37.095V37.109C167.137 37.8463 167.137 38.5836 167.137 39.321H167.143C167.143 40.0583 167.143 40.796 167.143 41.534C167.143 43.483 167.149 45.498 167.131 47.482C167.092 47.8033 167.182 48.127 167.381 48.382C167.481 48.4681 167.598 48.5332 167.724 48.5734C167.85 48.6136 167.983 48.6281 168.115 48.616H168.19C168.52 48.605 168.868 48.601 169.32 48.601H169.886H170.486C171.021 48.601 171.653 48.595 172.286 48.552C176.8 48.242 179.458 46.231 180.413 42.403C180.965 40.1021 180.88 37.6944 180.168 35.438C179.784 33.8651 178.9 32.4594 177.648 31.433C176.303 30.508 174.704 30.0256 173.072 30.053C172.472 30.032 171.878 30.029 171.425 30.029H170.725H169.953C169.479 30.029 168.853 30.029 168.224 30L168.108 30.001Z" fill="black"/>
<path d="M169.619 98H193.689" stroke="black" stroke-width="2"/>
<path d="M0 98H24.07" stroke="black" stroke-width="2"/>
<path d="M41.2285 99.8391L42.0371 94.4778H43.7422L42.2246 103.009H40.4961L39.5 97.9817L38.5156 103.009H36.7812L35.2578 94.4778H36.9746L37.7773 99.8332L38.7793 94.4778H40.2266L41.2285 99.8391ZM50.6797 99.511C50.6797 100.655 50.4082 101.544 49.8652 102.177C49.3262 102.81 48.5762 103.126 47.6152 103.126C46.6582 103.126 45.9062 102.814 45.3594 102.189C44.8125 101.56 44.5352 100.681 44.5273 99.552V98.093C44.5273 96.9211 44.7988 96.007 45.3418 95.3508C45.8848 94.6906 46.6387 94.3606 47.6035 94.3606C48.5527 94.3606 49.3008 94.6848 49.8477 95.3332C50.3945 95.9778 50.6719 96.884 50.6797 98.052V99.511ZM48.9512 98.0813C48.9512 97.3117 48.8418 96.7395 48.623 96.3645C48.4043 95.9895 48.0645 95.802 47.6035 95.802C47.1465 95.802 46.8086 95.9836 46.5898 96.3469C46.3711 96.7063 46.2578 97.2551 46.25 97.9934V99.511C46.25 100.257 46.3613 100.808 46.584 101.163C46.8066 101.515 47.1504 101.691 47.6152 101.691C48.0645 101.691 48.3984 101.519 48.6172 101.175C48.8359 100.827 48.9473 100.29 48.9512 99.5637V98.0813ZM54.5 99.8918H53.6445V103.009H51.9219V94.4778H54.6699C55.5332 94.4778 56.1992 94.7024 56.668 95.1516C57.1406 95.5969 57.377 96.2317 57.377 97.0559C57.377 98.1887 56.9648 98.9817 56.1406 99.4348L57.6348 102.927V103.009H55.7832L54.5 99.8918ZM53.6445 98.4563H54.623C54.9668 98.4563 55.2246 98.343 55.3965 98.1164C55.5684 97.886 55.6543 97.5793 55.6543 97.1965C55.6543 96.341 55.3203 95.9133 54.6523 95.9133H53.6445V98.4563ZM60.2832 101.579H63.3066V103.009H58.5605V94.4778H60.2832V101.579ZM64.3027 103.009V94.4778H66.5586C67.5547 94.4778 68.3477 94.7942 68.9375 95.427C69.5312 96.0598 69.834 96.927 69.8457 98.0285V99.4113C69.8457 100.532 69.5488 101.413 68.9551 102.054C68.3652 102.691 67.5508 103.009 66.5117 103.009H64.3027ZM66.0254 95.9133V101.579H66.541C67.1152 101.579 67.5195 101.429 67.7539 101.128C67.9883 100.823 68.1113 100.3 68.123 99.5578V98.0754C68.123 97.2785 68.0117 96.7238 67.7891 96.4113C67.5664 96.0949 67.1875 95.9289 66.6523 95.9133H66.0254ZM77.457 100.771C77.457 100.423 77.3672 100.161 77.1875 99.9856C77.0117 99.8059 76.6895 99.6203 76.2207 99.4289C75.3652 99.1047 74.75 98.7258 74.375 98.2922C74 97.8547 73.8125 97.3391 73.8125 96.7453C73.8125 96.0266 74.0664 95.4504 74.5742 95.0168C75.0859 94.5793 75.7344 94.3606 76.5195 94.3606C77.043 94.3606 77.5098 94.4719 77.9199 94.6945C78.3301 94.9133 78.6445 95.2238 78.8633 95.6262C79.0859 96.0285 79.1973 96.4856 79.1973 96.9973H77.4805C77.4805 96.5988 77.3945 96.2961 77.2227 96.0891C77.0547 95.8781 76.8105 95.7727 76.4902 95.7727C76.1895 95.7727 75.9551 95.8625 75.7871 96.0422C75.6191 96.218 75.5352 96.4563 75.5352 96.757C75.5352 96.9914 75.6289 97.2043 75.8164 97.3957C76.0039 97.5832 76.3359 97.7785 76.8125 97.9817C77.6445 98.2824 78.248 98.6516 78.623 99.0891C79.002 99.5266 79.1914 100.083 79.1914 100.759C79.1914 101.501 78.9551 102.081 78.4824 102.499C78.0098 102.917 77.3672 103.126 76.5547 103.126C76.0039 103.126 75.502 103.013 75.0488 102.786C74.5957 102.56 74.2402 102.236 73.9824 101.814C73.7285 101.392 73.6016 100.894 73.6016 100.32H75.3301C75.3301 100.812 75.4258 101.169 75.6172 101.392C75.8086 101.614 76.1211 101.726 76.5547 101.726C77.1562 101.726 77.457 101.407 77.457 100.771ZM84.7402 99.3176H82.0566V101.579H85.2324V103.009H80.334V94.4778H85.2207V95.9133H82.0566V97.9289H84.7402V99.3176ZM88.8125 99.8918H87.957V103.009H86.2344V94.4778H88.9824C89.8457 94.4778 90.5117 94.7024 90.9805 95.1516C91.4531 95.5969 91.6895 96.2317 91.6895 97.0559C91.6895 98.1887 91.2773 98.9817 90.4531 99.4348L91.9473 102.927V103.009H90.0957L88.8125 99.8918ZM87.957 98.4563H88.9355C89.2793 98.4563 89.5371 98.343 89.709 98.1164C89.8809 97.886 89.9668 97.5793 89.9668 97.1965C89.9668 96.341 89.6328 95.9133 88.9648 95.9133H87.957V98.4563ZM94.6719 103.009H92.9492V94.4778H94.6719V103.009ZM100.525 99.3176H97.8418V101.579H101.018V103.009H96.1191V94.4778H101.006V95.9133H97.8418V97.9289H100.525V99.3176ZM105.617 100.771C105.617 100.423 105.527 100.161 105.348 99.9856C105.172 99.8059 104.85 99.6203 104.381 99.4289C103.525 99.1047 102.91 98.7258 102.535 98.2922C102.16 97.8547 101.973 97.3391 101.973 96.7453C101.973 96.0266 102.227 95.4504 102.734 95.0168C103.246 94.5793 103.895 94.3606 104.68 94.3606C105.203 94.3606 105.67 94.4719 106.08 94.6945C106.49 94.9133 106.805 95.2238 107.023 95.6262C107.246 96.0285 107.357 96.4856 107.357 96.9973H105.641C105.641 96.5988 105.555 96.2961 105.383 96.0891C105.215 95.8781 104.971 95.7727 104.65 95.7727C104.35 95.7727 104.115 95.8625 103.947 96.0422C103.779 96.218 103.695 96.4563 103.695 96.757C103.695 96.9914 103.789 97.2043 103.977 97.3957C104.164 97.5832 104.496 97.7785 104.973 97.9817C105.805 98.2824 106.408 98.6516 106.783 99.0891C107.162 99.5266 107.352 100.083 107.352 100.759C107.352 101.501 107.115 102.081 106.643 102.499C106.17 102.917 105.527 103.126 104.715 103.126C104.164 103.126 103.662 103.013 103.209 102.786C102.756 102.56 102.4 102.236 102.143 101.814C101.889 101.392 101.762 100.894 101.762 100.32H103.49C103.49 100.812 103.586 101.169 103.777 101.392C103.969 101.614 104.281 101.726 104.715 101.726C105.316 101.726 105.617 101.407 105.617 100.771ZM117.266 99.511C117.266 100.655 116.994 101.544 116.451 102.177C115.912 102.81 115.162 103.126 114.201 103.126C113.244 103.126 112.492 102.814 111.945 102.189C111.398 101.56 111.121 100.681 111.113 99.552V98.093C111.113 96.9211 111.385 96.007 111.928 95.3508C112.471 94.6906 113.225 94.3606 114.189 94.3606C115.139 94.3606 115.887 94.6848 116.434 95.3332C116.98 95.9778 117.258 96.884 117.266 98.052V99.511ZM115.537 98.0813C115.537 97.3117 115.428 96.7395 115.209 96.3645C114.99 95.9895 114.65 95.802 114.189 95.802C113.732 95.802 113.395 95.9836 113.176 96.3469C112.957 96.7063 112.844 97.2551 112.836 97.9934V99.511C112.836 100.257 112.947 100.808 113.17 101.163C113.393 101.515 113.736 101.691 114.201 101.691C114.65 101.691 114.984 101.519 115.203 101.175C115.422 100.827 115.533 100.29 115.537 99.5637V98.0813ZM122.902 99.5285H120.225V103.009H118.502V94.4778H123.225V95.9133H120.225V98.0988H122.902V99.5285ZM128.697 100.009V103.009H126.975V94.4778H129.881C130.725 94.4778 131.396 94.7395 131.896 95.2629C132.4 95.7863 132.652 96.466 132.652 97.302C132.652 98.1379 132.404 98.7981 131.908 99.2824C131.412 99.7668 130.725 100.009 129.846 100.009H128.697ZM128.697 98.5735H129.881C130.209 98.5735 130.463 98.466 130.643 98.2512C130.822 98.0363 130.912 97.7238 130.912 97.3137C130.912 96.8879 130.82 96.55 130.637 96.3C130.453 96.0461 130.207 95.9172 129.898 95.9133H128.697V98.5735ZM139.812 99.511C139.812 100.655 139.541 101.544 138.998 102.177C138.459 102.81 137.709 103.126 136.748 103.126C135.791 103.126 135.039 102.814 134.492 102.189C133.945 101.56 133.668 100.681 133.66 99.552V98.093C133.66 96.9211 133.932 96.007 134.475 95.3508C135.018 94.6906 135.771 94.3606 136.736 94.3606C137.686 94.3606 138.434 94.6848 138.98 95.3332C139.527 95.9778 139.805 96.884 139.812 98.052V99.511ZM138.084 98.0813C138.084 97.3117 137.975 96.7395 137.756 96.3645C137.537 95.9895 137.197 95.802 136.736 95.802C136.279 95.802 135.941 95.9836 135.723 96.3469C135.504 96.7063 135.391 97.2551 135.383 97.9934V99.511C135.383 100.257 135.494 100.808 135.717 101.163C135.939 101.515 136.283 101.691 136.748 101.691C137.197 101.691 137.531 101.519 137.75 101.175C137.969 100.827 138.08 100.29 138.084 99.5637V98.0813ZM143.451 99.716L142.771 100.572V103.009H141.049V94.4778H142.771V98.1985L143.316 97.2785L144.904 94.4778H147.014L144.57 98.2278L147.055 103.009H145.01L143.451 99.716ZM152.1 99.3176H149.416V101.579H152.592V103.009H147.693V94.4778H152.58V95.9133H149.416V97.9289H152.1V99.3176ZM156.172 99.8918H155.316V103.009H153.594V94.4778H156.342C157.205 94.4778 157.871 94.7024 158.34 95.1516C158.812 95.5969 159.049 96.2317 159.049 97.0559C159.049 98.1887 158.637 98.9817 157.812 99.4348L159.307 102.927V103.009H157.455L156.172 99.8918ZM155.316 98.4563H156.295C156.639 98.4563 156.896 98.343 157.068 98.1164C157.24 97.886 157.326 97.5793 157.326 97.1965C157.326 96.341 156.992 95.9133 156.324 95.9133H155.316V98.4563Z" fill="black"/>
<path d="M0 5.80899H58.927" stroke="black" stroke-width="2"/>
<path d="M135.275 5.80899H193.758" stroke="black" stroke-width="2"/>
<path d="M83.2 2.849C83.222 2.749 83.245 2.649 83.266 2.542C83.3974 1.92898 83.7045 1.36747 84.1497 0.926017C84.5948 0.484563 85.1589 0.182258 85.773 0.0560009C86.3404 -0.069062 86.9323 -0.0216331 87.4726 0.192195C88.0128 0.406023 88.4769 0.776487 88.805 1.256C88.979 1.494 89.133 1.746 89.305 2.02L89.459 1.765C89.6784 1.39775 89.9416 1.05859 90.243 0.755001C90.7837 0.282069 91.4738 0.0150506 92.192 0.00096536C92.9101 -0.0131198 93.6102 0.226632 94.169 0.678002C94.5669 0.983233 94.8857 1.37948 95.0987 1.83347C95.3117 2.28745 95.4126 2.78592 95.393 3.287C95.3364 4.0689 95.0052 4.80562 94.458 5.367C93.8797 5.98412 93.266 6.56711 92.62 7.113C91.4141 8.17356 90.3264 9.36147 89.376 10.656C89.355 10.685 89.329 10.711 89.297 10.749C89.216 10.642 89.14 10.542 89.065 10.441C88.0484 9.10363 86.8926 7.87808 85.617 6.785C85.0463 6.30677 84.514 5.7845 84.025 5.223C83.5879 4.72942 83.3092 4.1159 83.225 3.462C83.2197 3.43642 83.2113 3.41157 83.2 3.388V2.849Z" fill="#ED1C24"/>
<path d="M105.179 7.95699C105.277 8.35044 105.46 8.71787 105.714 9.03399C106.098 9.52103 106.574 9.92861 107.114 10.234C107.162 10.2543 107.202 10.2902 107.227 10.336C107.251 10.3818 107.26 10.4347 107.251 10.486C107.241 10.5774 107.241 10.6696 107.251 10.761C107.265 10.882 107.211 10.904 107.103 10.904C105.522 10.904 103.942 10.904 102.362 10.904C102.249 10.904 102.208 10.875 102.216 10.759C102.203 10.6202 102.208 10.4803 102.232 10.343C102.28 10.217 102.45 10.182 102.565 10.107C103.191 9.72241 103.709 9.18576 104.072 8.54699C104.178 8.36167 104.26 8.16379 104.316 7.958C104.263 7.97 104.251 8.01099 104.228 8.03799C103.911 8.44988 103.479 8.75812 102.986 8.92339C102.494 9.08867 101.963 9.1035 101.462 8.966C100.953 8.85772 100.489 8.59793 100.13 8.22079C99.7715 7.84365 99.5354 7.36681 99.453 6.85299C99.3815 6.48193 99.3888 6.10001 99.4743 5.73193C99.5597 5.36384 99.7215 5.0178 99.9492 4.71618C100.177 4.41456 100.465 4.16406 100.796 3.98092C101.126 3.79778 101.492 3.68608 101.868 3.65301C101.968 3.64501 102.105 3.68099 102.152 3.60699C102.188 3.55099 102.117 3.42801 102.095 3.33401C102.01 2.97542 101.999 2.60322 102.062 2.24017C102.126 1.87711 102.262 1.53081 102.464 1.22244C102.666 0.914066 102.929 0.650116 103.236 0.446679C103.543 0.243242 103.889 0.104595 104.252 0.0392388C104.615 -0.0261174 104.987 -0.0168222 105.346 0.066552C105.705 0.149926 106.043 0.305644 106.34 0.524163C106.637 0.742683 106.886 1.01943 107.072 1.33749C107.258 1.65555 107.378 2.00821 107.423 2.37399C107.473 2.74867 107.441 3.1297 107.33 3.49099C107.295 3.60099 107.303 3.63299 107.43 3.64199C108.013 3.65858 108.574 3.86268 109.032 4.22396C109.489 4.58524 109.818 5.08442 109.969 5.64739C110.12 6.21036 110.086 6.80711 109.871 7.34893C109.656 7.89076 109.272 8.34878 108.776 8.65499C108.215 9.00069 107.548 9.13045 106.898 9.02004C106.248 8.90963 105.661 8.5666 105.246 8.05499C105.222 8.02499 105.199 7.99499 105.176 7.96499" fill="black"/>
<path d="M73.716 7.94801C73.591 8.08401 73.475 8.22601 73.341 8.35301C73.0974 8.58028 72.8089 8.75395 72.494 8.86281C72.1792 8.97167 71.845 9.0133 71.513 8.98501C71.0584 8.96949 70.6165 8.83113 70.2343 8.58463C69.852 8.33813 69.5437 7.99269 69.342 7.58501C69.0913 7.16314 68.9746 6.67505 69.0074 6.18538C69.0403 5.69572 69.2211 5.2276 69.526 4.84301C69.8134 4.45312 70.1434 4.09657 70.51 3.78001C71.318 3.03901 72.149 2.32301 72.884 1.50601C73.2978 1.0471 73.6864 0.566059 74.048 0.0650072C74.09 0.00600721 74.114 -0.0399928 74.18 0.0530072C75.0667 1.25581 76.0884 2.35297 77.225 3.32301C77.7173 3.73337 78.1733 4.18538 78.588 4.67401C78.8191 4.94155 78.9934 5.25321 79.1005 5.59011C79.2076 5.92701 79.2452 6.28215 79.211 6.63401C79.1281 7.27383 78.8193 7.86299 78.3404 8.29532C77.8615 8.72765 77.2439 8.97472 76.599 8.99201C76.2058 8.99973 75.8164 8.91294 75.4637 8.73893C75.111 8.56491 74.8052 8.30876 74.572 7.99201C74.558 7.97401 74.543 7.95801 74.509 7.91901C74.5442 8.06816 74.5973 8.21253 74.667 8.34901C74.986 8.99255 75.4754 9.53628 76.082 9.92101C76.2 10.001 76.322 10.075 76.445 10.148C76.4698 10.1592 76.4904 10.1778 76.5041 10.2013C76.5177 10.2248 76.5236 10.252 76.521 10.279C76.521 10.403 76.516 10.528 76.521 10.652C76.521 10.727 76.493 10.752 76.421 10.745C76.4027 10.7441 76.3843 10.7441 76.366 10.745H71.86C71.713 10.745 71.713 10.745 71.713 10.595C71.6938 10.4676 71.6982 10.3378 71.726 10.212C71.773 10.1 71.926 10.067 72.037 9.99701C72.6842 9.6074 73.2099 9.04499 73.555 8.37301C73.6244 8.23721 73.6772 8.0935 73.712 7.94501" fill="black"/>
<path d="M125.045 5.422C122.885 6.88149 121.024 8.74135 119.564 10.901C118.116 8.74219 116.26 6.88708 114.1 5.43998C114.113 5.42298 114.118 5.40899 114.128 5.40299C116.181 4.01886 117.962 2.26912 119.382 0.241004L119.435 0.160986C119.573 -0.0550136 119.572 -0.0540016 119.716 0.166998C120.283 1.01705 120.928 1.81248 121.642 2.54301C122.577 3.54863 123.619 4.44927 124.749 5.22898C124.849 5.29398 124.949 5.357 125.049 5.422" fill="#ED1C24"/>
</svg>
