<?xml version="1.0" encoding="UTF-8"?>
<svg id="Layer_1" xmlns="http://www.w3.org/2000/svg" version="1.1" viewBox="0 0 1080 1080">
  <!-- Generator: Adobe Illustrator 30.0.0, SVG Export Plug-In . SVG Version: 2.1.1 Build 123)  -->
  <path d="M875.72,434.62v-62.14h-228.7l-66.41-174.48h-80.11l-66.41,174.48h-228.7v62.14h60.27v220.11h73.37v-220.11h71.41l-17.37,45.62h78.24l15.67-45.62h107.16l15.67,45.62h78.24l-17.37-45.62h71.41v157.97h-60.27v62.14h193.9v-62.14h-60.27v-157.97h60.27ZM540.55,281.47l31.91,91.01h-63.81l31.91-91.01Z"/>
  <rect x="142.14" y="671.21" width="795.72" height="62.14"/>
  <rect x="80" y="749.83" width="920" height="62.14"/>
  <g>
    <path d="M104.02,841.04v39.56h-13.19v-39.56h-10.83v-11.17h34.85v11.17h-10.83Z"/>
    <path d="M149.4,841.04h-15.68v8.48h14.8v11.17h-14.8v8.75h15.68v11.17h-28.86v-50.73h28.86v11.17Z"/>
    <path d="M156.32,880.59l8.61-50.73h13.05l10.16,27.04,10.09-27.04h13.05l8.61,50.73h-13.12l-4.37-29.2-11.98,29.2h-5.25l-11.37-29.2-4.37,29.2h-13.12Z"/>
    <path d="M241.05,880.59h-13.18v-50.73h20.99c5.7,0,10.06,1.48,13.09,4.44,3.03,2.96,4.54,7.13,4.54,12.51s-1.51,9.55-4.54,12.51c-3.03,2.96-7.39,4.44-13.09,4.44h-7.8v16.82ZM241.05,853.14h4.37c4.84,0,7.27-2.11,7.27-6.32s-2.42-6.32-7.27-6.32h-4.37v12.65Z"/>
    <path d="M286.14,829.87v39.56h15.81v11.17h-28.99v-50.73h13.18Z"/>
    <path d="M341.68,871.78h-18.84l-3.03,8.81h-14.06l19.31-50.73h14.4l19.31,50.73h-14.06l-3.03-8.81ZM338.18,861.76l-5.92-16.89-5.92,16.89h11.84Z"/>
    <path d="M406.6,880.59h-16.42l-12.58-19.51v19.51h-13.18v-50.73h20.52c2.83,0,5.29.42,7.4,1.24,2.11.83,3.84,1.96,5.21,3.4,1.37,1.43,2.4,3.09,3.09,4.98.7,1.88,1.04,3.9,1.04,6.05,0,3.86-.93,6.99-2.79,9.38-1.86,2.4-4.61,4.03-8.24,4.88l15.94,20.79ZM377.6,852.54h2.49c2.6,0,4.6-.54,5.99-1.62,1.39-1.08,2.08-2.62,2.08-4.64s-.7-3.57-2.08-4.64c-1.39-1.08-3.39-1.62-5.99-1.62h-2.49v12.51Z"/>
    <path d="M466.07,871.78h-18.84l-3.03,8.81h-14.06l19.31-50.73h14.4l19.31,50.73h-14.06l-3.03-8.81ZM462.57,861.76l-5.92-16.89-5.92,16.89h11.84Z"/>
    <path d="M530.99,880.59h-16.42l-12.58-19.51v19.51h-13.18v-50.73h20.52c2.83,0,5.29.42,7.4,1.24,2.11.83,3.84,1.96,5.21,3.4,1.37,1.43,2.4,3.09,3.09,4.98.7,1.88,1.04,3.9,1.04,6.05,0,3.86-.93,6.99-2.79,9.38-1.86,2.4-4.61,4.03-8.24,4.88l15.94,20.79ZM501.99,852.54h2.49c2.6,0,4.6-.54,5.99-1.62,1.39-1.08,2.08-2.62,2.08-4.64s-.7-3.57-2.08-4.64c-1.39-1.08-3.39-1.62-5.99-1.62h-2.49v12.51Z"/>
    <path d="M571.68,846.82c-3.05-3.72-6.82-5.58-11.3-5.58-1.97,0-3.8.36-5.48,1.08-1.68.72-3.13,1.69-4.34,2.93-1.21,1.23-2.17,2.7-2.86,4.41-.7,1.71-1.04,3.54-1.04,5.52s.35,3.88,1.04,5.58c.7,1.71,1.66,3.19,2.89,4.44,1.23,1.26,2.68,2.24,4.34,2.96,1.66.72,3.45,1.08,5.38,1.08,4.22,0,8.01-1.79,11.37-5.38v15.61l-1.34.47c-2.02.72-3.9,1.25-5.65,1.58-1.75.34-3.48.5-5.18.5-3.5,0-6.85-.66-10.06-1.98-3.21-1.32-6.03-3.18-8.48-5.58-2.44-2.4-4.4-5.25-5.89-8.54-1.48-3.3-2.22-6.9-2.22-10.8s.73-7.48,2.19-10.73c1.46-3.25,3.41-6.05,5.85-8.41,2.44-2.35,5.28-4.19,8.51-5.52,3.23-1.32,6.61-1.98,10.16-1.98,2.02,0,4,.21,5.95.64s4,1.09,6.15,1.98v15.74Z"/>
    <path d="M594.27,849.44h19.04v-19.58h13.18v50.73h-13.18v-20.92h-19.04v20.92h-13.18v-50.73h13.18v19.58Z"/>
    <path d="M650.39,829.87v50.73h-13.18v-50.73h13.18Z"/>
    <path d="M669.39,829.87l12.25,30.88,12.31-30.88h14.33l-21.39,50.73h-10.5l-21.33-50.73h14.33Z"/>
    <path d="M741.8,841.04h-15.68v8.48h14.8v11.17h-14.8v8.75h15.68v11.17h-28.86v-50.73h28.86v11.17Z"/>
    <path d="M787.35,829.87v50.73h-13.18v-50.73h13.18Z"/>
    <path d="M798.06,880.59v-50.73h13.18l24.35,31.01v-31.01h13.12v50.73h-13.12l-24.35-31.01v31.01h-13.18Z"/>
    <path d="M859.43,829.87h19.51c3.45,0,6.69.7,9.72,2.09,3.03,1.39,5.67,3.24,7.94,5.55,2.27,2.31,4.05,5,5.35,8.07,1.3,3.07,1.95,6.29,1.95,9.65s-.64,6.51-1.92,9.59c-1.28,3.07-3.05,5.78-5.32,8.11-2.27,2.33-4.91,4.19-7.94,5.58-3.03,1.39-6.29,2.09-9.79,2.09h-19.51v-50.73ZM872.61,869.43h3.03c2.29,0,4.33-.36,6.12-1.08,1.79-.72,3.31-1.7,4.54-2.96,1.23-1.25,2.17-2.75,2.83-4.47.65-1.73.97-3.62.97-5.68s-.33-3.9-1.01-5.65c-.67-1.75-1.63-3.25-2.86-4.51-1.23-1.25-2.75-2.24-4.54-2.96-1.79-.72-3.81-1.08-6.05-1.08h-3.03v28.39Z"/>
    <path d="M941.01,841.04h-15.68v8.48h14.8v11.17h-14.8v8.75h15.68v11.17h-28.86v-50.73h28.86v11.17Z"/>
    <path d="M965.76,853.55l-15.81-23.68h16.28l6.86,13.12,8.48-13.12h16.28l-16.75,23.68,18.91,27.05h-16.08l-10.16-16.55-11.91,16.55h-15.94l19.85-27.05Z"/>
  </g>
</svg>