<?xml version="1.0" encoding="UTF-8"?>
<svg id="Layer_1" xmlns="http://www.w3.org/2000/svg" version="1.1" viewBox="0 0 1920 1080">
  <!-- Generator: Adobe Illustrator 29.8.2, SVG Export Plug-In . SVG Version: 2.1.1 Build 3)  -->
  <defs>
    <style>
      .st0, .st1, .st2 {
        fill: #fff;
      }

      .st0, .st1, .st3, .st4, .st5 {
        font-family: AppleSDGothicNeo-Bold-KSCpc-EUC-H, 'Apple SD Gothic Neo';
        font-weight: 700;
      }

      .st0, .st3 {
        font-size: 32px;
      }

      .st6 {
        stroke: #fff;
      }

      .st6, .st7 {
        fill: none;
        stroke-miterlimit: 10;
      }

      .st1, .st4 {
        font-size: 40px;
      }

      .st8 {
        fill: #ffbc00;
      }

      .st9 {
        fill: #383838;
      }

      .st7 {
        stroke: #000;
        stroke-width: 5px;
      }

      .st5 {
        font-size: 21.56px;
      }
    </style>
  </defs>
  <rect width="1920" height="1091.8"/>
  <text class="st1" transform="translate(1577.48 86.61)"><tspan x="0" y="0">LOGIN</tspan></text>
  <text class="st1" transform="translate(1388.98 86.61)"><tspan x="0" y="0">FORUM</tspan></text>
  <text class="st1" transform="translate(1172.05 86.61)"><tspan x="0" y="0">EXPLORE</tspan></text>
  <text class="st1" transform="translate(978.76 86.61)"><tspan x="0" y="0">SEARCH</tspan></text>
  <text class="st1" transform="translate(758.56 86.61)"><tspan x="0" y="0">ANALYZE</tspan></text>
  <text class="st1" transform="translate(61.44 84.93)"><tspan x="0" y="0">GGValut</tspan></text>
  <rect class="st9" x="13.66" y="158.06" width="946.34" height="908.93"/>
  <rect class="st2" x="1005.97" y="186.77" width="878.26" height="465.74"/>
  <rect class="st9" x="1005.97" y="741.94" width="878.26" height="51.3"/>
  <rect class="st2" x="1005.97" y="808.4" width="878.26" height="51.3"/>
  <rect class="st2" x="1005.97" y="874.94" width="878.26" height="51.3"/>
  <rect class="st2" x="1005.97" y="941.47" width="878.26" height="51.3"/>
  <rect class="st2" x="1005.97" y="1008.01" width="878.26" height="51.3"/>
  <rect class="st2" x="47.7" y="186.77" width="878.26" height="51.3"/>
  <rect class="st2" x="47.7" y="255.2" width="878.26" height="51.3"/>
  <rect class="st2" x="47.7" y="323.64" width="878.26" height="51.3"/>
  <rect class="st2" x="138.95" y="392.07" width="787.01" height="51.3"/>
  <rect class="st2" x="225.62" y="460.51" width="700.34" height="51.3"/>
  <rect class="st2" x="225.62" y="528.94" width="700.34" height="51.3"/>
  <rect class="st2" x="225.62" y="600.2" width="700.34" height="45.65"/>
  <rect class="st2" x="138.95" y="665.81" width="787.01" height="51.3"/>
  <rect class="st2" x="138.95" y="734.25" width="787.01" height="51.3"/>
  <rect class="st2" x="47.7" y="802.69" width="878.26" height="51.3"/>
  <rect class="st2" x="47.7" y="871.12" width="878.26" height="51.3"/>
  <rect class="st2" x="47.7" y="939.56" width="878.26" height="51.3"/>
  <rect class="st2" x="47.7" y="1007.99" width="878.26" height="51.3"/>
  <text class="st4" transform="translate(1329.88 419.64)"><tspan x="0" y="0">유튜브 플레이어</tspan></text>
  <circle class="st2" cx="1834.8" cy="74.57" r="49.43"/>
  <text class="st3" transform="translate(149.54 362.34)"><tspan x="0" y="0">2025 WSOP Super Circuit Cyprus</tspan></text>
  <text class="st0" transform="translate(1093.44 703)"><tspan x="0" y="0">2025 WSOP Super Circuit Cyprus Main Event Day 1</tspan></text>
  <text class="st3" transform="translate(1191.2 847.07)"><tspan x="0" y="0">Daniel Negreanu AA / Phil Ivey KK</tspan></text>
  <text class="st3" transform="translate(1700.98 847.07)"><tspan x="0" y="0">05:11</tspan></text>
  <text class="st5" transform="translate(1787.63 845.11)"><tspan x="0" y="0">Comment</tspan></text>
  <text class="st3" transform="translate(1111.88 847.99)"><tspan x="0" y="0">001</tspan></text>
  <text class="st3" transform="translate(1111.88 915)"><tspan x="0" y="0">002</tspan></text>
  <text class="st3" transform="translate(1111.88 982.02)"><tspan x="0" y="0">003</tspan></text>
  <text class="st3" transform="translate(1111.88 1049.03)"><tspan x="0" y="0">004</tspan></text>
  <text class="st0" transform="translate(1686.66 779.22)"><tspan x="0" y="0">DOWNLOAD</tspan></text>
  <text class="st3" transform="translate(245.22 432.11)"><tspan x="0" y="0">Main Event</tspan></text>
  <text class="st3" transform="translate(324.38 498.44)"><tspan x="0" y="0">Day1</tspan></text>
  <text class="st3" transform="translate(324.38 566.41)"><tspan x="0" y="0">Day2</tspan></text>
  <text class="st3" transform="translate(324.38 631.23)"><tspan x="0" y="0">Day3</tspan></text>
  <text/>
  <rect class="st7" x="1013.73" y="816.16" width="35.78" height="35.78"/>
  <rect class="st7" x="1013.73" y="882.7" width="35.78" height="35.78"/>
  <rect class="st7" x="1013.73" y="949.23" width="35.78" height="35.78"/>
  <rect class="st7" x="1013.73" y="1015.77" width="35.78" height="35.78"/>
  <rect class="st6" x="1013.73" y="747.8" width="35.78" height="35.78"/>
  <path class="st8" d="M1083.26,817.7l3.09,9.5h9.99c2.09,0,2.96,2.67,1.27,3.9l-8.09,5.87,3.09,9.5c.65,1.99-1.63,3.64-3.32,2.41l-8.09-5.87-8.09,5.87c-1.69,1.23-3.96-.42-3.32-2.41l3.09-9.5-8.09-5.87c-1.69-1.23-.82-3.9,1.27-3.9h9.99s3.09-9.5,3.09-9.5c.65-1.99,3.46-1.99,4.1,0Z"/>
  <path class="st8" d="M1083.26,1018.59l3.09,9.5h9.99c2.09,0,2.96,2.67,1.27,3.9l-8.09,5.87,3.09,9.5c.65,1.99-1.63,3.64-3.32,2.41l-8.09-5.87-8.09,5.87c-1.69,1.23-3.96-.42-3.32-2.41l3.09-9.5-8.09-5.87c-1.69-1.23-.82-3.9,1.27-3.9h9.99s3.09-9.5,3.09-9.5c.65-1.99,3.46-1.99,4.1,0Z"/>
</svg>