<svg xmlns="http://www.w3.org/2000/svg" width="192" height="43.839" viewBox="0 0 192 43.839">
  <g id="Group_14017" data-name="Group 14017" transform="translate(-1045.661 362.144)">
    <path id="Path_4956" data-name="Path 4956" d="M685.525,22.866q0-9.359,0-18.717a1.448,1.448,0,0,1,1.529-1.608c.345-.016.691-.008,1.037-.008q13.448,0,26.9-.009c1.156,0,1.662.663,1.68,1.761.033,2.013.011,4.028.006,6.041a2.945,2.945,0,0,1-.133.816,1.338,1.338,0,0,1-1.278.967c-.256.013-.513,0-.77,0h-17.98c-.394,0-.392,0-.393.4,0,1.836,0,3.672-.01,5.508,0,.21.08.251.261.245.325-.011.652-.008.977-.008q7.79,0,15.581,0a1.66,1.66,0,0,1,1.414.526,1.258,1.258,0,0,1,.319.809c0,2.083.015,4.166,0,6.249a1.353,1.353,0,0,1-1.48,1.322l-12-.005c-1.6,0-3.2,0-4.8-.009-.24,0-.274.089-.273.294q.016,2.769.016,5.538c0,.645,0,.649.633.649,6.191,0,12.382.007,18.573-.014a1.526,1.526,0,0,1,1.584,1.571q-.009,3.258,0,6.515A1.491,1.491,0,0,1,715.4,43.23q-14.174-.028-28.348,0a1.5,1.5,0,0,1-1.523-1.469c0-.346,0-.691,0-1.036V22.866Z" transform="translate(520.743 -364.509)" fill="#0080ff"/>
    <path id="Path_4957" data-name="Path 4957" d="M512.057,2.507c1.363,0,2.725,0,4.088,0,1.093,0,1.448.272,1.8,1.3q1.579,4.628,3.169,9.253Q522.8,18,524.479,22.935c.156.457.3.918.46,1.373a1.338,1.338,0,0,0,2.545.08c.466-1.172.788-2.4,1.216-3.581.946-2.622,1.783-5.281,2.715-7.908.883-2.488,1.692-5,2.538-7.5.205-.606.43-1.206.649-1.807a1.411,1.411,0,0,1,1.481-1.076c.306-.011.612-.006.918-.006,2.439,0,4.879.034,7.317-.017a1.493,1.493,0,0,1,1.492,2.116c-.6,1.489-1.124,3.008-1.714,4.5-.959,2.428-1.867,4.876-2.8,7.314q-1.834,4.8-3.67,9.608c-1.451,3.78-2.927,7.55-4.355,11.339-.6,1.6-1.277,3.182-1.84,4.8a1.374,1.374,0,0,1-1.486,1.021c-2.558,0-5.115-.005-7.672,0a1.425,1.425,0,0,1-1.465-.976q-1.364-3.544-2.714-7.094-1.783-4.665-3.566-9.331-1.522-3.974-3.05-7.947-1.725-4.5-3.446-9-.766-2-1.535-4a2.809,2.809,0,0,1-.206-.889,1.334,1.334,0,0,1,1.2-1.426,5.044,5.044,0,0,1,.561-.028q2,0,4,0" transform="translate(657.497 -364.483)" fill="#0080ff"/>
    <path id="Path_4958" data-name="Path 4958" d="M312.991,22.67V3.953a1.488,1.488,0,0,1,1.7-1.689h7.376a1.521,1.521,0,0,1,1.371.607,1.688,1.688,0,0,1,.255,1.013q-.005,6.1-.006,12.2,0,7.463,0,14.926c0,.237.01.474.025.71a1.41,1.41,0,0,0,1.437,1.392c.453.01.907-.043,1.36-.043q6.916,0,13.832,0a5.061,5.061,0,0,1,.971.088,1.376,1.376,0,0,1,1.131,1.207,3.849,3.849,0,0,1,.034.5q.006,3.258.008,6.515a1.459,1.459,0,0,1-1.616,1.639H314.6a1.428,1.428,0,0,1-1.6-1.6V22.67" transform="translate(804.982 -364.311)" fill="#0080ff"/>
    <path id="Path_4959" data-name="Path 4959" d="M449.874,22.924q0-9.285,0-18.571a1.708,1.708,0,0,1,.575-1.538,1.5,1.5,0,0,1,.953-.253c2.548-.008,5.1-.014,7.643,0a1.437,1.437,0,0,1,1.592,1.574c.013.345.013.691.013,1.036q0,17.741,0,35.483a10.477,10.477,0,0,1-.018,1.361,1.371,1.371,0,0,1-1.4,1.224h-7.939a1.324,1.324,0,0,1-1.4-1.3c-.025-.473-.013-.947-.013-1.421q0-8.8,0-17.593h-.01" transform="translate(700.542 -364.533)" fill="#0080ff"/>
    <path id="Path_4963" data-name="Path 4963" d="M265.972,22.365q0-10.068-.007-20.136c0-.281.066-.39.353-.371.3.02.612.012.918.006.2,0,.28.071.271.28-.017.4-.013.809-.013,1.214q0,19.025,0,38.051c0,.385.005.77.014,1.155,0,.181-.054.271-.257.263-.355-.014-.711-.008-1.066,0-.15,0-.222-.051-.213-.205.005-.089,0-.178,0-.267V22.365" transform="translate(840.862 -364)" fill="#0080ff"/>
    <g id="_888poker_blue_logo" data-name="888poker blue logo" transform="translate(1045.661 -362.11)" style="isolation: isolate">
      <g id="Group_14010" data-name="Group 14010" transform="translate(0.079 12.02)" opacity="0.88">
        <path id="Path_7117" data-name="Path 7117" d="M8.5,20.259A8.547,8.547,0,1,0,20.591,32.347a8.151,8.151,0,0,0,2.493-5.589c.011-.157.011-.3.011-.45v-.219A8.553,8.553,0,0,0,8.509,20.265Zm6.085,2.619a3.322,3.322,0,0,1,2.431,1.006,3.408,3.408,0,0,1,0,4.829,3.46,3.46,0,0,1-2.472,1.006,3.408,3.408,0,0,1-2.388-5.835,3.322,3.322,0,0,1,2.431-1.007Z" transform="translate(-6 -17.77)" fill="#0080ff"/>
      </g>
      <g id="Group_14011" data-name="Group 14011" transform="translate(17.257 12.015)" opacity="0.88">
        <path id="Path_7118" data-name="Path 7118" d="M21.1,20.261a8.547,8.547,0,0,0,0,12.088,8.307,8.307,0,0,0,6.07,2.5,8.55,8.55,0,0,0,8.511-8.1c0-.157.011-.3.011-.45v-.219a8.553,8.553,0,0,0-14.586-5.824Zm6.07,2.619a3.34,3.34,0,0,1,2.446,1.006,3.441,3.441,0,1,1-2.446-1Z" transform="translate(-18.601 -17.766)" fill="#0080ff"/>
      </g>
      <g id="Group_14012" data-name="Group 14012" transform="translate(0 0)" opacity="0.88">
        <path id="Path_7119" data-name="Path 7119" d="M23.105,18.014c.011-.157.011-.3.011-.45v-.219a8.588,8.588,0,1,0-.011.671Zm-8.536-3.88a3.412,3.412,0,1,1-3.412,3.412A3.418,3.418,0,0,1,14.569,14.135Z" transform="translate(-5.942 -8.953)" fill="#0080ff"/>
      </g>
      <g id="Group_14013" data-name="Group 14013" transform="translate(17.178 0)" opacity="0.88">
        <path id="Path_7120" data-name="Path 7120" d="M35.706,18.014c0-.157.011-.3.011-.45v-.219a8.588,8.588,0,1,0-.011.671ZM27.2,14.135a3.34,3.34,0,0,1,2.446,1.006,3.408,3.408,0,0,1,0,4.829,3.367,3.367,0,0,1-2.446.99,3.412,3.412,0,0,1,0-6.824Z" transform="translate(-18.543 -8.953)" fill="#0080ff"/>
      </g>
      <g id="Group_14014" data-name="Group 14014" transform="translate(34.435 0.058)" opacity="0.88">
        <path id="Path_7121" data-name="Path 7121" d="M48.3,17.549V17.33A8.549,8.549,0,1,0,33.71,23.594a8.3,8.3,0,0,0,6.059,2.5A8.55,8.55,0,0,0,48.291,18c-.005-.158.005-.305.005-.451Zm-6.074-2.42a3.436,3.436,0,1,1-2.454-1.006,3.364,3.364,0,0,1,2.452,1.006Z" transform="translate(-31.202 -8.995)" fill="#0080ff"/>
      </g>
      <path id="Path_7122" data-name="Path 7122" d="M23.257,37.758v.029A3.694,3.694,0,0,1,19.5,41.658a2.949,2.949,0,0,1-2.718-1.565v4.668H15.345V34.016h1.437V35.41A2.927,2.927,0,0,1,19.5,33.874a3.7,3.7,0,0,1,3.757,3.884Zm-1.465-.014a2.386,2.386,0,0,0-2.42-2.5,2.422,2.422,0,0,0-2.433,2.5v.029a2.428,2.428,0,1,0,4.853,0Zm2.669.027v-.026a3.878,3.878,0,1,1,7.756-.029v.029a3.878,3.878,0,1,1-7.756.029Zm6.3-.014v-.029a2.428,2.428,0,1,0-4.853,0v.029a2.422,2.422,0,0,0,2.433,2.5,2.386,2.386,0,0,0,2.425-2.506Zm5.252.6-1.01,1.167v1.964H33.57V30.969h1.437v6.575l3.074-3.529h1.693l-2.889,3.344L40.1,41.485H38.422Zm11.541-.228H41.681a2.356,2.356,0,0,0,2.376,2.263,2.392,2.392,0,0,0,2.163-1.352l1.11.6a3.681,3.681,0,0,1-3.359,2.007A3.731,3.731,0,0,1,40.2,37.77v-.025a3.739,3.739,0,0,1,3.715-3.885,3.554,3.554,0,0,1,3.643,3.728Zm-1.423-1.081a1.992,1.992,0,0,0-2.181-1.936,2.252,2.252,0,0,0-2.219,1.936Zm2.761-3.03h1.437v1.708a2.879,2.879,0,0,1,2.69-1.821v1.363h-.185a2.551,2.551,0,0,0-2.5,2.42v3.8H48.9Z" transform="translate(-2.526 -0.956)" fill="#0080ff"/>
      <g id="Group_14015" data-name="Group 14015" transform="translate(34.523 12.012)" opacity="0.88">
        <path id="Path_7123" data-name="Path 7123" d="M33.77,20.26a8.547,8.547,0,0,0,0,12.088,8.3,8.3,0,0,0,6.059,2.5,8.55,8.55,0,0,0,8.521-8.1c0-.157.011-.3.011-.45v-.221a8.553,8.553,0,0,0-14.586-5.824Zm6.059,2.65a3.336,3.336,0,0,1,2.454.975,3.438,3.438,0,1,1-4.857,0,3.219,3.219,0,0,1,2.4-.975Z" transform="translate(-31.267 -17.764)" fill="#0080ff"/>
      </g>
    </g>
  </g>
</svg>
