<svg xmlns="http://www.w3.org/2000/svg" width="192" height="162.935" viewBox="0 0 192 162.935">
  <g id="_888_dark_logo" data-name="888 dark logo" transform="translate(-70 -1453.443)">
    <g id="Group_14021" data-name="Group 14021" transform="translate(-975.661 1815.443)">
      <g id="_888poker_blue_logo" data-name="888poker blue logo" transform="translate(1045.661 -362)" style="isolation: isolate">
        <g id="Group_14010" data-name="Group 14010" transform="translate(0.293 44.711)" opacity="0.844">
          <path id="Path_7117" data-name="Path 7117" d="M15.312,27.028A31.792,31.792,0,1,0,60.273,71.989,30.317,30.317,0,0,0,69.547,51.2c.041-.583.041-1.131.041-1.673V48.71A31.813,31.813,0,0,0,15.332,27.048Zm22.635,9.741a12.357,12.357,0,0,1,9.041,3.742,12.676,12.676,0,0,1,0,17.96,12.869,12.869,0,0,1-9.193,3.742,12.676,12.676,0,0,1-8.884-21.7,12.357,12.357,0,0,1,9.041-3.747Z" transform="translate(-6 -17.77)" fill="#0080ff"/>
        </g>
        <g id="Group_14011" data-name="Group 14011" transform="translate(64.189 44.69)" opacity="0.844">
          <path id="Path_7118" data-name="Path 7118" d="M27.912,27.044a31.793,31.793,0,0,0,0,44.961,30.9,30.9,0,0,0,22.579,9.31A31.8,31.8,0,0,0,82.147,51.2c0-.583.041-1.131.041-1.673v-.816A31.813,31.813,0,0,0,27.932,27.044Zm22.579,9.741a12.423,12.423,0,0,1,9.1,3.742,12.8,12.8,0,1,1-9.1-3.717Z" transform="translate(-18.601 -17.766)" fill="#0080ff"/>
        </g>
        <g id="Group_14012" data-name="Group 14012" transform="translate(0 0)" opacity="0.844">
          <path id="Path_7119" data-name="Path 7119" d="M69.782,42.659c.041-.583.041-1.131.041-1.673v-.816a31.945,31.945,0,1,0-.041,2.495ZM38.03,28.228A12.692,12.692,0,1,1,25.339,40.919,12.712,12.712,0,0,1,38.03,28.228Z" transform="translate(-5.942 -8.953)" fill="#0080ff"/>
        </g>
        <g id="Group_14013" data-name="Group 14013" transform="translate(63.895 0)" opacity="0.844">
          <path id="Path_7120" data-name="Path 7120" d="M82.383,42.659c0-.583.041-1.131.041-1.673v-.816a31.944,31.944,0,1,0-.041,2.495ZM50.728,28.228a12.423,12.423,0,0,1,9.1,3.742,12.676,12.676,0,0,1,0,17.96,12.524,12.524,0,0,1-9.1,3.681,12.692,12.692,0,0,1,0-25.383Z" transform="translate(-18.543 -8.953)" fill="#0080ff"/>
        </g>
        <g id="Group_14014" data-name="Group 14014" transform="translate(128.084 0.214)" opacity="0.844">
          <path id="Path_7121" data-name="Path 7121" d="M94.788,40.813V40A31.8,31.8,0,1,0,40.533,63.3a30.875,30.875,0,0,0,22.539,9.315,31.8,31.8,0,0,0,31.7-30.119c-.02-.588.02-1.136.02-1.678Zm-22.595-9a12.782,12.782,0,1,1-9.127-3.742,12.514,12.514,0,0,1,9.122,3.742Z" transform="translate(-31.202 -8.995)" fill="#0080ff"/>
        </g>
        <path id="Path_7122" data-name="Path 7122" d="M44.775,56.221v.106A13.741,13.741,0,0,1,30.8,70.728a10.968,10.968,0,0,1-10.111-5.821V82.268H15.345V42.3h5.344v5.187A10.887,10.887,0,0,1,30.8,41.774,13.757,13.757,0,0,1,44.775,56.221Zm-5.451-.051a8.874,8.874,0,0,0-9-9.315,9.01,9.01,0,0,0-9.051,9.315v.106a9.031,9.031,0,1,0,18.051,0Zm9.928.1v-.1A14.425,14.425,0,1,1,78.1,56.068l0,.106a14.425,14.425,0,1,1-28.849.106ZM72.7,56.221v-.107a9.031,9.031,0,1,0-18.051,0v.107A9.01,9.01,0,0,0,63.7,65.535a8.874,8.874,0,0,0,9.021-9.32Zm19.537,2.221-3.757,4.34v7.307H83.134V30.969h5.344V55.424L99.912,42.3h6.3L95.465,54.735l11.962,15.349H101.18Zm42.928-.847H113.3a8.762,8.762,0,0,0,8.838,8.417,8.9,8.9,0,0,0,8.047-5.03l4.127,2.221a13.691,13.691,0,0,1-12.494,7.464,13.878,13.878,0,0,1-14.025-14.4v-.091a13.909,13.909,0,0,1,13.817-14.451,13.219,13.219,0,0,1,13.549,13.868Zm-5.294-4.021a7.408,7.408,0,0,0-8.113-7.2,8.377,8.377,0,0,0-8.255,7.2ZM140.137,42.3h5.344v6.353a10.709,10.709,0,0,1,10-6.774v5.071h-.69a9.487,9.487,0,0,0-9.315,9V70.084h-5.344Z" transform="translate(32.336 80.667)" fill="#0080ff"/>
        <g id="Group_14015" data-name="Group 14015" transform="translate(128.413 44.68)" opacity="0.844">
          <path id="Path_7123" data-name="Path 7123" d="M40.578,27.047a31.793,31.793,0,0,0,0,44.961,30.875,30.875,0,0,0,22.539,9.31A31.8,31.8,0,0,0,94.813,51.2c0-.583.041-1.131.041-1.673V48.7A31.813,31.813,0,0,0,40.6,27.042ZM63.117,36.9a12.408,12.408,0,0,1,9.127,3.625,12.789,12.789,0,1,1-18.067,0A11.972,11.972,0,0,1,63.117,36.9Z" transform="translate(-31.267 -17.764)" fill="#0080ff"/>
        </g>
      </g>
    </g>
  </g>
</svg>
