<?xml version="1.0" encoding="UTF-8"?>
<svg id="Layer_1" data-name="Layer 1" xmlns="http://www.w3.org/2000/svg" xmlns:xlink="http://www.w3.org/1999/xlink" viewBox="0 0 633.6 600">
  <defs>
    <style>
      .cls-1 {
        fill: none;
      }

      .cls-2 {
        fill: #fff;
      }

      .cls-3 {
        fill: #d80908;
      }

      .cls-4 {
        clip-path: url(#clippath);
      }
    </style>
    <clipPath id="clippath">
      <rect class="cls-1" x="16.8" y="188.36" width="600" height="223.29"/>
    </clipPath>
  </defs>
  <g id="Asia_Pacific_for_light_bg" data-name="Asia Pacific for light bg">
    <g id="Group_14524" data-name="Group 14524">
      <g id="Group_14523" data-name="Group 14523">
        <g id="Group_14518" data-name="Group 14518">
          <g id="Group_14517" data-name="Group 14517">
            <g class="cls-4">
              <g id="Group_14516" data-name="Group 14516">
                <path id="Path_60721" data-name="Path 60721" class="cls-2" d="M559.34,288.87l-16.33-12.04c-5.55,4-11.55,9.27-16.97,13.19-.16-.11-1.67-.69-1.82-.8.18-.73,2.25-2.36,2.49-3.08,1.76-5.24,3.59-10.47,5.25-15.74.04-.79-.29-1.54-.9-2.04-4.4-3.28-8.88-6.44-13.33-9.66-.53-.39-1-.85-1.96-1.67,1.27-.08,1.97-.16,2.67-.16,5.38,0,10.75,0,16.12.08,1.15.17,2.21-.63,2.38-1.78,0,0,0,0,0-.01,1.46-5.08,2.98-10.14,4.58-15.18.07-1.65.36-3.28.85-4.86.72,1.57,1.33,3.19,1.83,4.84,1.65,5.15,3.24,10.31,4.79,15.49.38,1.29,1.09,1.54,2.33,1.52,5.69-.1,11.37-.09,17.06-.12.36,0,2.93-.52,3.29-.47.19.21-1.83,1-1.64,1.21-.6.36-1.24.69-1.81,1.1-4.56,3.27-9.07,6.6-13.66,9.82-.8.4-1.14,1.37-.77,2.18,1.9,5.26,3.82,10.51,5.71,15.77.22.61.74,2.62.88,3.26-.19.17-.83-1-1.02-.85"/>
                <path id="Path_60695" data-name="Path 60695" class="cls-3" d="M564.5,327.27c-7-.07-14-.18-21-.2-6.5-.02-13,.04-19.5.06h-2.33c-.04-.19-.09-.37-.13-.56.7-.44,1.37-.94,2.1-1.31,5.36-2.9,9.64-7.44,12.21-12.96,2.09-4.11,3.5-8.53,4.2-13.08.13-.67.2-1.35.19-2.04.07-1.06-.74-1.98-1.8-2.05-.5-.03-.99.13-1.37.46-.72.59-1.35,1.28-1.87,2.05-7.54,10.39-22.07,12.7-32.46,5.16-4.22-3.06-7.28-7.45-8.7-12.46-1.66-6.51-1.07-13.39,1.67-19.53,4.44-11.49,11.35-21.87,20.23-30.41,8.49-8.7,17.26-17.13,25.89-25.69.67-.67,1.17-.98,2-.16,9.53,9.51,19.3,18.8,28.57,28.56,8.54,8.54,14.93,18.98,18.66,30.46,2.27,6.21,2.23,13.04-.11,19.22-2.99,7.84-10.14,13.33-18.49,14.19-8.71,1.32-17.4-2.56-22.23-9.93-.39-.56-.86-1.07-1.39-1.51-.88-.72-2.18-.58-2.9.3-.23.28-.38.62-.44.98-.11.68-.09,1.37.04,2.04,1.23,8.9,5.46,17.11,12,23.28,1.33,1.17,3.02,1.93,4.49,2.98.84.66,1.65,1.38,2.42,2.13h.03ZM559.34,288.87c.19-.17.49.33.67.15-.14-.64-.33-1.95-.54-2.56-1.89-5.26-3.81-10.51-5.71-15.77-.37-.82-.03-1.78.77-2.18,4.59-3.23,9.11-6.55,13.66-9.82.57-.41,2.48-1.67,2.48-1.67,0,0-1.96-.18-2.33-.18-5.69.02-11.37.02-17.06.12-1.24.02-1.95-.23-2.33-1.52-1.53-5.18-3.13-10.34-4.79-15.49-1.67-4.4-1.17-2.82-2.67.02-1.59,5.04-3.12,10.1-4.58,15.18-.16,1.15-1.22,1.95-2.37,1.79,0,0,0,0-.01,0-5.37-.08-10.75-.07-16.12-.08-.71,0-1.41.08-2.67.16.95.82,1.43,1.29,1.96,1.67,4.45,3.21,8.93,6.38,13.33,9.66.61.5.94,1.26.9,2.04-1.67,5.27-3.49,10.5-5.25,15.74-.24.72-.67,2.27-.86,3,.16.11.61-.58.77-.47l16.39-11.84,16.33,12.04"/>
                <path id="Path_60729" data-name="Path 60729" class="cls-2" d="M342.93,360.81c-.31-1.63-.4-3.3-.26-4.95.16-.83,1.67-1.58,2.59-2.36,1.31.69,3.67,1.33,3.76,2.09.37,3.38.34,6.79-.09,10.16-.1.73-2.44,1.37-3.74,2.06-.86-.77-2.24-1.49-2.45-2.3-.24-1.55-.27-3.13-.11-4.69h.31"/>
                <path id="Path_60730" data-name="Path 60730" class="cls-2" d="M161.84,360.09c-.07-1.64-.05-3.28.06-4.92.07-.67.96-1.81,1.25-1.75.82.16,2.14.81,2.17,1.31.2,3.5.2,7.01,0,10.52-.03.54-1.53,1-2.36,1.49-.37-.67-1-1.29-1.06-1.98-.1-1.55-.11-3.11-.05-4.67h0"/>
                <path id="Path_60728" data-name="Path 60728" class="cls-2" d="M51.13,364.49c.41,2.95.87,5.9,1.15,8.86.03.37-.52.25-1.48.2-.6,0-1.6.15-1.56-.22.29-2.96.53-8.11.97-11.05l.92,2.22"/>
                <path id="Path_60727" data-name="Path 60727" class="cls-2" d="M125.26,363.07c.55,3.51,1.21,7.03,1.53,10.54.03.39-1.85,1.17-2.81,1.15s-2.78-.79-2.75-1.21c.28-3.51.9-7,1.42-10.5h2.61"/>
                <path id="Path_60693" data-name="Path 60693" class="cls-2" d="M318.47,411.64H41.51c-2.87.13-5.75-.02-8.59-.43-7.21-1.4-14.59-7.91-14.59-15.3,0-41.05-1.15-77.98-1.16-119.03,0-22.48.33-48.99,0-71.47-.14-9.24,12.33-17.08,19.76-17.06,49.5.16,99.01.08,148.5.09,26.25,0,52.5,0,78.75.03,76.75.03,153.49.06,230.24.08,34.88,0,66.42.07,101.31-.16,9.65-.14,17.6,7.57,17.74,17.22,0,.15,0,.3,0,.44-.07,58.3-.09,116.6-.06,174.91.17,5.47.06,10.95-.33,16.41-.85,8.29-7.96,14.52-16.3,14.26-23.63,0-43.92-.02-67.55-.02h-210.77v.02ZM564.51,327.27l.08-.08-.13.07c-.77-.75-1.57-1.46-2.42-2.13-1.46-1.04-3.14-1.81-4.49-2.98-6.54-6.17-10.77-14.38-12-23.28-.14-.67-.15-1.36-.04-2.04.18-1.12,1.23-1.89,2.36-1.71.36.06.69.21.98.44.53.44.99.95,1.39,1.51,4.83,7.36,13.5,11.23,22.2,9.92,8.35-.86,15.5-6.35,18.49-14.19,2.34-6.19,2.38-13.01.11-19.22-3.73-11.49-10.12-21.93-18.66-30.46-9.27-9.76-19.04-19.04-28.57-28.56-.82-.82-1.3-.52-2,.16-8.63,8.57-17.4,17-25.89,25.69-8.86,8.54-15.76,18.92-20.19,30.41-2.74,6.14-3.32,13.02-1.67,19.53,3.51,12.35,16.36,19.51,28.71,16,5.01-1.42,9.4-4.49,12.46-8.7.52-.77,1.15-1.46,1.87-2.05.81-.69,2.03-.59,2.72.21.33.38.49.87.46,1.37,0,.68-.06,1.37-.19,2.04-.7,4.56-2.11,8.97-4.2,13.08-2.57,5.52-6.85,10.07-12.21,12.96-.74.37-1.4.87-2.1,1.31l.13.56h2.33c6.5-.02,13-.09,19.5-.06,7,.03,14,.13,21,.2M498.16,213.68c-.35-.1-.7-.18-1.06-.22-4.62.04-9.25.15-13.87.15H50.83c-5.27-.49-9.95,3.38-10.44,8.65-.05.54-.06,1.08-.01,1.62.03,30.58.16,61.17-.06,91.75-.5,5.68,3.7,10.7,9.39,11.2.54.05,1.07.05,1.61.02.5-.03,1,0,1.5,0,63.13.02,126.27.03,189.4.05h138.2c2.28.09,4.48-.83,6.02-2.52,16.79-16.74,33.71-33.33,50.57-49.99,20.1-19.85,40.2-39.72,60.28-59.6.31-.36.59-.73.85-1.13M446.69,348.59c-.07.32-.12.64-.15.96v37.16c0,1.11.49,1.4,1.47,1.39,1.81,0,3.63-.07,5.43.05,1.62.11,2.03-.55,1.97-2.08-.14-3.92-.15-7.84-.13-11.76,0-.94-.51-2.42,1.08-2.54,1.72-.13,1.6,1.38,1.72,2.54.03.43.04.87.03,1.31,0,3.42-.01,6.85-.03,10.27-.18,1.06.54,2.07,1.6,2.25.23.04.47.04.7,0,1.5-.05,3-.06,4.5-.05,2.48.02,2.47.04,2.15-2.47-.06-.55-.08-1.11-.06-1.67,0-3.8.04-7.59.04-11.39.23-1.9-.56-3.77-2.08-4.93-.92-.63-.76-1.31-.11-2.19.99-1.09,1.69-2.41,2.05-3.83.26-2.66.21-5.35-.17-8-.45-3.16-2.06-4.85-4.75-4.95-5.04-.18-10.09-.05-15.27-.05M384.87,368.21h-.02c0-3.42.22-6.87-.08-10.26-.17-2.21-.8-4.36-1.86-6.31-2.07-3.65-5.88-3.83-9.56-3.77-5-.46-9.43,3.21-9.89,8.21-.03.33-.04.66-.04.99-.31,7.45-.31,14.94-.04,22.39-.06,4.93,3.89,8.97,8.81,9.03.28,0,.57,0,.85-.03.5,0,1,0,1.5.02,5.21.48,9.82-3.35,10.3-8.55.05-.54.05-1.09.01-1.63.03-3.36,0-6.72,0-10.08M513.16,368.24h-.26c0,3.3-.11,6.6.05,9.89.03,1.74.38,3.45,1.03,5.06,3.13,5.24,9.92,6.95,15.16,3.82,3.01-1.8,4.98-4.91,5.33-8.4.24-7.09.18-14.19,0-21.28.2-4.25-2.69-8.03-6.84-8.94-2.19-.49-4.44-.58-6.67-.28-4.21.23-7.55,3.62-7.72,7.83-.38,4.07-.08,8.19-.08,12.3M592.05,388.08c0-5.67-.03-11,.02-16.33.21-1.51-.5-3-1.81-3.79-.71-.27-1.06-1.06-.79-1.76.11-.29.32-.54.59-.7,1.56-1.3,2.32-3.33,2-5.33-.11-1.55,0-3.11,0-4.67.06-4.89-1.92-6.93-6.88-6.97-3.75-.03-7.51.14-11.24-.03-1.92-.09-2.22.58-2.22,2.3.04,11.89,0,23.79-.07,35.68,0,1.15.38,1.6,1.48,1.59,1.81,0,3.63-.1,5.43.02,1.49.1,1.94-.36,1.88-1.88-.15-4.11-.13-8.21-.16-12.33,0-1-.1-2.04,1.46-2.02,1.51.02,1.69.91,1.67,2.1,0,4.05.03,8.1,0,12.14,0,1.22.4,1.94,1.67,1.96,2.42.03,4.84,0,6.95,0M563.37,348.5c-2.4,0-4.53.11-6.64-.03-1.74-.12-2.27.48-2.25,2.19.1,8.84.1,17.69.13,26.53,0,.56.14,1.23-.12,1.65-.35.58-.9,1.01-1.55,1.2-.36.06-1.09-.67-1.25-1.16-.22-.84-.3-1.71-.25-2.58,0-8.33.03-16.69.05-25.03,0-.85-.08-1.7-.13-2.67h-8.83v6.99c0,7.54-.06,15.07.02,22.61-.3,3.03.77,6.03,2.93,8.17,4.14,2.7,9.39,3.02,13.82.83,2.68-1.71,4.27-4.71,4.19-7.89-.02-9.4.02-18.81.03-28.21,0-.79-.09-1.58-.15-2.58M414.98,388.12c-.52-2-.91-3.55-1.33-5.1-1.33-5.05-2.75-10.08-4-15.15-.29-1.16-.28-2.38.03-3.54,1.55-5.23,3.27-10.41,4.98-15.8-2.74,0-5.23-.06-7.72.05-.61.14-1.12.57-1.36,1.16-.82,2.6-1.44,5.27-2.24,7.88-.35.9-.78,1.78-1.28,2.61l-.48-.21v-11.35h-8.4c-.11.22-.16.27-.16.33-.04,12.64-.09,25.28-.06,37.93,0,.42.86,1.16,1.36,1.19,2,.13,4,0,6,.03,1,0,1.26-.46,1.25-1.39-.05-2.92-.04-5.84,0-8.76,0-1.16.13-2.33.21-3.49.42.19.73.56.86,1,.93,3.61,1.81,7.24,2.8,10.83.18.67.79,1.69,1.25,1.72,2.67.17,5.33.08,8.33.08M303.37,368.12c0-3.48.02-6.97,0-10.45,0-1.06.26-1.91,1.42-2.04,1.27-.15,1.61.79,1.65,1.79.09,1.43.08,2.86-.04,4.29-.17,1.58.52,1.95,1.93,1.89,1.81-.11,3.62-.11,5.43,0,1.26.1,1.53-.41,1.5-1.47-.05-1.93.05-3.87-.11-5.79.11-3.29-1.87-6.29-4.93-7.5-3.11-1.21-6.55-1.32-9.73-.33-2.98.79-5.2,3.27-5.64,6.32-.25,1.34-.39,2.71-.4,4.08-.05,6.35-.06,12.7-.04,19.05-.02,1.24.07,2.49.27,3.72.58,3.94,3.97,6.85,7.95,6.83,1.31.04,2.62.07,3.93.05,3.72.23,7.06-2.28,7.86-5.92.55-3.49.82-7.01.79-10.54,0-.33-.75-.96-1.18-.98-2.05-.12-4.12-.07-6.18-.11-1.14-.02-1.51.49-1.46,1.61.12,2.05.11,4.11-.03,6.16-.06.74-.78,1.97-1.28,2-1.23.11-1.74-.9-1.73-2.14.03-3.48,0-6.97,0-10.45M228.16,371c-2.67,0-4.97.05-7.26-.02-1.36-.04-1.69.54-1.63,1.8.1,2.11.37,7.02.22,9.12-.04.62-.79-.44-1.22.15-.52-.6-1.79.69-2,0-.04-1.92.05-3.83.26-5.74,0-6.17,0-12.33,0-18.49,0-1.02,0-2.22,1.36-2.23s1.35,1.22,1.37,2.22c.03,1.43.05,2.87,0,4.3-.03,1,.26,1.52,1.36,1.51,1.94,0,3.87.02,5.81.08,1.1.04,1.64-.4,1.6-1.52-.07-2.18-.05-4.36-.2-6.53.09-3.88-2.88-7.14-6.75-7.42-1.6-.26-3.23-.35-4.86-.28-4.93-.03-8.94,3.94-8.97,8.86,0,.02,0,.04,0,.07-.07,1.18-.02,2.37-.02,3.55,0,6.42-.08,12.83.04,19.24-.23,4.47,3.08,8.33,7.54,8.77,1.87.12,3.75.12,5.62,0,3.37-.14,6.21-2.56,6.9-5.86.54-3.73.54-7.53.8-11.6M68.71,377.75c0,.25-.07.81-.09,1.37-.73,4.39,2.25,8.55,6.64,9.27.73.12,1.47.14,2.2.06,1.12,0,2.25.02,3.37-.02,4.72-.03,8.54-3.84,8.6-8.56.05-1.37-.03-2.74.06-4.11.18-3.1-1.04-6.12-3.33-8.21-2.24-2.24-4.58-4.38-6.95-6.49-1.4-1.22-1.97-3.13-1.47-4.92.11-.54,1-1.41,1.33-1.33.72.22,1.31.73,1.64,1.4.18.72.18,1.48,0,2.21-.18,1.59.46,2.33,2.08,2.31,1.68-.02,3.38.08,5.05-.03.52-.12.94-.5,1.12-1,.15-1.92.11-3.86-.11-5.78-.11-2.68-2.1-4.91-4.75-5.33-2.87-.4-5.77-.5-8.65-.28-2.03.15-3.88,1.2-5.06,2.86-2.34,4.83-1.97,10.54.96,15.04,1.97,1.9,3.92,3.82,5.95,5.67,1.93,1.53,3.06,3.87,3.06,6.33-.03,1.36-.25,2.97-1.88,2.92-1.57-.04-1.36-1.71-1.29-2.84.27-4.67.48-4.73-4.56-4.72-3.86,0-3.86-.02-3.93,4.16M200.8,388.16c-.58-3.77-1.15-7.13-1.6-10.5-1.19-8.87-2.37-17.75-3.44-26.64-.22-1.84-.85-2.64-2.79-2.52-2.43.15-4.87,0-7.3.14-.62.16-1.12.62-1.33,1.23-.48,2.63-.81,5.29-1.14,7.94-1.11,8.76-2.19,17.53-3.3,26.29-.51,4.05-.54,4.05,3.61,4.02,3.22-.02.89-.92,3.55-3.64.11-2.12-1.33-2.93.21-2.97,1.62-.03,7.25.22,7.09,1.84-.25.86-.36,1.77-.31,2.67.12.41-1.14,2.07-.76,2.08,2.35.09,4.71.05,7.54.05M134.54,388.28c-.13-1.42-.17-2.41-.32-3.37-.4-2.65-.91-5.27-1.26-7.92-1.18-8.89-2.33-17.77-3.45-26.66-.18-1.41-.86-1.89-2.24-1.84-2.37.09-4.75.15-7.12.04-1.33-.06-1.81.3-1.98,1.69-.98,7.97-2.08,15.92-3.13,23.87-.6,4.53-1.19,9.07-1.84,14h3.94c.93,0,1.47-.44,2.08-1.48.85-1.33.7-5.85,4.27-5.6,4.77-.6,2.33,5.36,2.58,6.1.16.47.76,1.11,1.19,1.13,2.33.11,4.7.05,7.26.05M51.07,348.54h0c-1.44,0-2.87.03-4.31,0-1.02-.03-1.4.42-1.53,1.42-1.47,11.6-2.98,23.2-4.47,34.79-.43,3.38-.41,3.38,3.18,3.36,4.15-.02,4.11-.02,4.55-4.1.07-.61-.64-1.8,1.04-1.69,4.83-.4,3.5.3,3.53,2.5,0,.56.04,1.12.03,1.67-.02,1.09.51,1.6,1.59,1.6,2,0,4,.03,6,.04,1.06,0,1.42-.44,1.23-1.52-.46-2.56-.85-5.14-1.22-7.72-1.26-8.74-2.49-17.48-3.76-26.22-.61-4.16-.64-4.16-4.93-4.12h-.94M335.48,368.36h-.05c0,6.03.03,12.07-.03,18.1,0,1.23.36,1.7,1.59,1.67,1.81-.06,3.62-.07,5.43,0,1.28.05,1.79-.37,1.74-1.71-.1-3.11-.09-6.22-.1-9.33q0-4.26,4.29-4.33c3.61.23,6.73-2.51,6.96-6.12,0-.02,0-.03,0-.05.28-4.09.28-8.2,0-12.29.06-3.11-2.41-5.68-5.52-5.74-.27,0-.54,0-.81.04-3.93-.08-7.87.02-11.8-.03-1.42-.02-1.76.57-1.75,1.91.07,5.97.03,11.94.03,17.92M154.3,348.6v39.47c2.54,0,4.91-.03,7.28,0,1.24.02,1.4-.63,1.37-1.67-.09-3.3-.1-6.59-.14-9.89v-3.76h3.82c3.81.32,7.16-2.5,7.48-6.31.01-.13.02-.26.02-.39.24-3.91.24-7.83,0-11.74-.01-3.17-2.6-5.74-5.77-5.73-.06,0-.12,0-.19,0-4.55-.14-9.1-.03-13.86-.03M438.89,379.85h-3.73c-4.67,0-6.37,2.25-6.1-5.67-1.78-3.86,1.9-2.9,5.53-2.48.25.03.31-.43.55-.39,1.26.23,1.9.13,1.86-1.05-.06-1.74-.18-3.48-.09-5.22.07-1.4-.54-1.64-1.77-1.67-1.33,0-2.3.07-3.47.17-1.89.16-1.18.08-1.25-4.94-.07-1.6-1.67-1.96,2.11-2.11,1.43-.14,2.88-.11,4.31.11,1.29.08,1.82-.39,1.73-1.72-.11-1.43-.11-2.86,0-4.29.14-1.6-.35-2.2-2.06-2.15-4.49.12-9,.05-13.49.07-.37.04-.74.12-1.1.24v4.92c0,10.95,0,21.9-.04,32.86,0,1.05.26,1.52,1.31,1.51,4.75,0,9.49,0,14.24-.07.49,0,1.37-.64,1.39-1.03.13-2.28.06-4.57.06-7.12M253.09,368.22h0c0,5.98.05,11.95-.03,17.92-.02,1.58.47,2.1,2.03,1.96,1.55-.11,3.11-.11,4.67,0,1.56.09,2.18-.33,2.1-2.1-.19-4.29-.08-8.58-.13-12.87,0-1.15.43-1.57,1.57-1.45,1,.11,2,.12,3,.17,1.13.05,1.74-.33,1.67-1.62-.1-1.68-.1-3.36,0-5.04.09-1.41-.41-1.77-1.8-1.78-4.64-.05-4.64-.12-4.49-4.85,0-.12,0-.25,0-.37-.11-1.23.53-1.67,1.69-1.63,1.62.06,3.25.04,4.87.11,1.07.05,1.63-.29,1.57-1.48-.08-1.55-.08-3.11,0-4.67s-.45-2.17-2.16-2.11c-4.24.15-8.49.14-12.73.09-1.38-.02-1.84.36-1.82,1.79.08,5.97.03,11.95.03,17.92M491.94,388.13c2.27,0,4.33-.14,6.35.04,1.94.17,2.44-.49,2.44-2.37-.04-9.07.11-18.15.09-27.23,0-1.72-5.46-4.61-.55-3.51.37.07,3.49,1.57,3.86,1.62,1.23.15,1.67-.41,1.62-1.62-.08-1.67-.13-3.36-.07-5.03.04-1.14-.37-1.51-1.51-1.5-4.49.05-9,0-13.48,0h-3.82v2.27c0,.67,1.56.95,1.52,1.63-.22,3.73.23,3.68,4.14,3.49,1.41-.07-.49,1.21-.56,2.57-.1,2.05-.03,4.1-.03,6.16v23.46M235.86,368.24h0c0,6.09.04,12.18-.03,18.28,0,1.18.39,1.56,1.48,1.56,1.93,0,3.87-.06,5.8.07,1.56.11,1.94-.56,1.89-1.97-.1-3.1-.12-6.21-.11-9.33.02-8.82.07-17.65.13-26.48,0-1.31-.36-1.93-1.82-1.84-1.93.1-3.87.1-5.8,0-1.25-.06-1.57.38-1.55,1.61.07,6.03.03,12.06.03,18.09M286.06,348.54c-2.6,0-5.09-.06-7.58.06-.36.02-.97.88-.97,1.36-.05,12.27-.03,24.54-.05,36.81,0,1,.36,1.33,1.3,1.33,1.94-.02,3.88-.07,5.81.02,1.36.07,1.74-.47,1.67-1.75-.12-2.49-.18-4.98-.19-7.47-.02-10.02,0-20.04,0-30.35M97.62,348.61c-.09.24-.15.49-.19.74,0,12.5-.01,25-.04,37.5,0,1.04.44,1.27,1.33,1.26,2-.03,4-.05,6,0,1.1.03,1.36-.43,1.35-1.45-.05-12.12-.05-24.25-.07-36.38,0-.53-.09-1.06-.15-1.67h-8.23Z"/>
                <path id="Path_60694" data-name="Path 60694" class="cls-3" d="M498.15,213.7c-.26.39-.54.77-.85,1.13-20.09,19.87-40.18,39.74-60.28,59.6-16.87,16.66-33.79,33.26-50.57,49.99-1.53,1.69-3.74,2.61-6.02,2.52-46.07-.04-92.14-.04-138.2,0-63.13,0-126.27-.02-189.4-.05-.5,0-1-.04-1.5,0-5.69.39-10.62-3.91-11.01-9.6-.04-.54-.03-1.07.02-1.61.22-30.58.09-61.17.06-91.75-.4-5.28,3.56-9.88,8.84-10.28.54-.04,1.08-.04,1.61.01,14.69-.01,29.38-.01,44.07,0h388.33c4.62,0,9.24-.11,13.87-.15.36.04.72.11,1.06.22M150.1,297.65c-.21-.61-.47-1.21-.77-1.78-2.97-4.6-5.96-9.2-8.96-13.78-7.78-11.81-15.61-23.59-23.33-35.44-.87-1.65-2.65-2.61-4.51-2.43-7.12.14-14.24.03-21.35.14-.88.11-1.68.58-2.2,1.3-4.03,6.07-7.94,12.22-11.91,18.33-6.75,10.39-13.51,20.78-20.28,31.16-.41.81-.74,1.65-1,2.52,7.18,0,13.92.04,20.66-.06.82-.19,1.53-.71,1.96-1.44,1.31-1.96,2.51-4,3.63-6.07.67-1.37,2.13-2.18,3.65-2.02,11.56.04,23.12-.02,34.66.05.94.07,1.81.52,2.42,1.24,1.6,2.14,2.91,4.49,4.49,6.67.54.81,1.38,1.38,2.33,1.58,6.67.12,13.35.07,20.49.07M245.54,265.81c-.08.41-.13.82-.16,1.24-.02,9.59-.02,19.19-.07,28.78,0,1.23.47,1.59,1.67,1.58,6.75-.05,13.5-.07,20.25,0,1.54,0,1.94-.63,1.91-2-.09-5.48-.09-10.96-.22-16.44-.03-1.14.33-1.67,1.4-1.71,1.19-.06,2.37-.08,3.56-.08,12.38,0,24.75.08,37.13,0,7.74-.21,14.4-5.55,16.27-13.06,1.52-9.16-4.68-17.83-13.84-19.34-.58-.1-1.17-.16-1.77-.2-5.43-.27-10.87-.29-16.3-.33-18.87-.11-37.75-.19-56.62-.24-.82,0-1.64.08-2.47.12.36.56.86,1.02,1.46,1.33,3.4,1.69,5.95,4.72,7.02,8.36.47,1.83,1.33,2.3,3.11,2.3,17-.05,34-.05,50.99,0,1.62,0,3.26,0,4.87.13,2.06.42,3.69,1.97,4.24,4,.28,1.8-.74,3.55-2.44,4.19-1.78.72-3.67,1.1-5.59,1.12-17.13.09-34.25.07-51.38.09-.98,0-1.96.1-3,.16M155.49,265.68v28.66c0,3.07.05,3.06,3.11,3.07,6.06.02,12.12.06,18.18.07,2.53,0,3-.4,2.95-2.25-.1-4.67-.21-9.33-.25-14-.03-4.11,0-4.1,4.26-4.09,12.37.02,24.74,0,37.12.05,6.85-.05,13.05-4.06,15.92-10.28,2.97-7.37.05-15.8-6.84-19.75-3.65-2.09-7.82-3.1-12.02-2.9-16.12-.02-32.24-.03-48.36-.03h-14.04c0,3.59.02,7.06,0,10.52,0,1.25.67,1.37,1.67,1.37,16.87-.03,33.74-.05,50.62-.05,2,0,4,0,6,.11,2.08.32,3.82,1.75,4.54,3.73.37,1.86-.63,3.71-2.39,4.42-1.35.75-2.86,1.17-4.4,1.24-14.25.11-28.49.1-42.74.11h-13.33M325.45,244.24l-.02.45c.53.3,1.08.59,1.6.91,3.52,1.74,6.06,4.99,6.89,8.83.23,1.41.79,1.67,2.06,1.67,5.69-.06,11.37-.03,17.06-.03h5.04v1.2c-.04,12.71-.05,25.42-.15,38.12,0,1.62.44,2.2,2.1,2.17,6.25-.11,12.5-.13,18.75-.14,3.33,0,3.44-.08,3.28-3.3-.03-.5-.02-1-.02-1.5-.02-10.84-.02-21.66-.07-32.52,0-4.09-.06-4.07,4-4.08,7.31-.02,14.62-.08,21.94-.07,1.43,0,2-.47,1.92-1.97-.11-2.17-.04-4.36,0-6.54.05-3.28.06-3.28-3.11-3.28-26.38-.04-52.75-.08-79.13-.12-.72,0-1.43.12-2.15.18"/>
                <path id="Path_60696" data-name="Path 60696" class="cls-3" d="M446.69,348.59c5.18,0,10.23-.13,15.27.05,2.69.1,4.3,1.8,4.75,4.95.38,2.65.43,5.34.17,8-.36,1.43-1.06,2.74-2.05,3.83-.65.89-.82,1.56.11,2.19,1.52,1.16,2.31,3.03,2.08,4.93,0,3.8-.03,7.59-.03,11.39-.02.56,0,1.11.06,1.67.33,2.51.33,2.49-2.15,2.47-1.5-.01-3,0-4.5.05-1.06.21-2.08-.48-2.29-1.54-.05-.23-.05-.47,0-.7.02-3.42.03-6.85.03-10.27.01-.44,0-.87-.03-1.31-.12-1.16,0-2.67-1.72-2.54-1.6.12-1.08,1.6-1.08,2.54-.02,3.92,0,7.84.13,11.76.05,1.53-.35,2.18-1.97,2.08-1.8-.12-3.62-.06-5.43-.05-.98,0-1.47-.28-1.47-1.39.02-12.39.02-24.77,0-37.16.03-.32.08-.64.15-.96M455.29,359.6h.07c-.06,1.18-.04,2.36.05,3.53.06.48.67,1.22,1.05,1.23.44,0,1.27-.61,1.3-1,.18-2.4.22-4.8.14-7.21,0-.36-2.48-.19-2.56.29-.1,1.05-.11,2.11-.05,3.16"/>
                <path id="Path_60697" data-name="Path 60697" class="cls-3" d="M384.88,368.21c0,3.36.03,6.72,0,10.08.42,5.21-3.47,9.78-8.68,10.2-.54.04-1.09.04-1.63,0-.5,0-1,0-1.5-.02-4.91.41-9.22-3.24-9.63-8.15-.02-.28-.03-.57-.03-.85-.27-7.46-.27-14.94.04-22.39-.08-5.02,3.92-9.16,8.94-9.24.33,0,.66,0,.99.04,3.68-.06,7.5.12,9.56,3.77,1.05,1.95,1.68,4.1,1.86,6.31.3,3.4.08,6.84.08,10.26h0ZM372.58,368.16h.03c0,3.36-.04,6.72,0,10.07.03,1.82,1.32,2.77,2.41,1.82.48-.54.73-1.24.72-1.96.08-6.28.12-12.55.1-18.83-.03-.92-.24-1.83-.63-2.67-.33-.42-.83-.67-1.37-.67-.33,0-.82.52-.96.91-.21.65-.31,1.32-.3,2-.03,3.11,0,6.22,0,9.33"/>
                <path id="Path_60698" data-name="Path 60698" class="cls-3" d="M512.96,355.87c.32-4.25,3.77-7.59,8.02-7.76,2.22-.3,4.48-.21,6.67.28,4.16.91,7.05,4.69,6.84,8.94.19,7.09.24,14.2,0,21.28-.6,6.08-6.01,10.51-12.09,9.91-3.49-.34-6.6-2.32-8.4-5.33-.65-1.61-1-3.32-1.03-5.06-.16-3.29-.05-6.6-.05-9.89M525.29,368.1h0c0-3.3.03-6.6,0-9.89,0-1.1.08-2.41-1.65-2.33-1.56.07-1.7,1.17-1.7,2.38.02,6.67.07,13.33.04,20,0,1.33.35,2.21,1.82,2.22s1.52-1.04,1.52-2.08v-10.27"/>
                <path id="Path_60699" data-name="Path 60699" class="cls-3" d="M592.08,388.08c-2.11,0-4.53.02-6.95,0-1.26,0-1.67-.74-1.67-1.95.04-4.05,0-8.1,0-12.14,0-1.19-.17-2.08-1.67-2.1-1.56-.03-1.47,1-1.47,2.02.04,4.11,0,8.22.16,12.33.06,1.52-.39,1.98-1.88,1.88-1.8-.12-3.62-.03-5.43-.02-1.1,0-1.48-.44-1.48-1.59.07-11.89.11-23.79.07-35.68,0-1.71.3-2.39,2.22-2.3,3.74.17,7.5,0,11.24.03,4.96.05,6.94,2.09,6.88,6.98-.02,1.56-.11,3.12,0,4.67.32,2.01-.44,4.03-2,5.33-.65.38-.88,1.21-.5,1.87.16.27.41.49.7.6,1.31.79,2.02,2.28,1.81,3.79-.06,5.33-.02,10.66-.02,16.33M580.38,359.62h0c-.08,1.05-.06,2.11.05,3.16.11.58.74,1.07,1.13,1.6.62-.48,1.72-.92,1.77-1.46.22-2.1.23-4.23.04-6.33-.05-.55-1.13-1-1.73-1.5-.42.51-1.08.97-1.2,1.55-.12.99-.14,1.98-.05,2.97"/>
                <path id="Path_60700" data-name="Path 60700" class="cls-3" d="M563.43,348.52c.06,1,.15,1.79.15,2.58,0,9.4-.05,18.81-.03,28.21.09,3.18-1.5,6.18-4.19,7.89-4.43,2.19-9.69,1.87-13.82-.83-2.16-2.14-3.24-5.15-2.93-8.17-.08-7.54-.02-15.07-.02-22.61v-6.96h8.96c.05.95,0,1.8,0,2.67,0,8.33-.04,16.69-.05,25.03-.05.87.04,1.74.25,2.58.16.5.89,1.22,1.25,1.16.65-.19,1.21-.62,1.55-1.2.26-.41.12-1.09.12-1.65-.03-8.84-.04-19.74-.14-28.58.03-.02,6.5-.11,8.9-.11"/>
                <path id="Path_60701" data-name="Path 60701" class="cls-3" d="M414.98,388.12c-2.98,0-5.67.08-8.33-.08-.46-.03-1.06-1.06-1.25-1.72-1-3.59-1.87-7.22-2.8-10.83-.13-.44-.44-.81-.86-1-.07,1.16-.19,2.33-.2,3.49-.03,2.92-.03,5.84,0,8.76,0,.92-.25,1.4-1.25,1.39-2-.02-4,.1-6-.03-.5-.03-1.36-.77-1.36-1.19-.03-12.64.02-25.28.06-37.93,0-.05.05-.11.16-.33h8.4v11.37l.48.21c.5-.83.93-1.71,1.28-2.61.79-2.61,1.42-5.27,2.24-7.88.24-.58.75-1.01,1.36-1.16,2.49-.12,5-.05,7.72-.05-1.72,5.39-3.43,10.57-4.98,15.8-.31,1.16-.32,2.38-.03,3.54,1.26,5.07,2.67,10.1,4,15.15.41,1.55.8,3.1,1.33,5.1"/>
                <path id="Path_60702" data-name="Path 60702" class="cls-3" d="M303.32,368.11v10.45c0,1.24.49,2.25,1.73,2.14.5-.04,1.21-1.27,1.28-2,.14-2.05.14-4.1.03-6.16-.05-1.12.33-1.63,1.46-1.61,2.06.04,4.13,0,6.18.11.43.03,1.19.67,1.18.98.02,3.53-.24,7.06-.79,10.54-.81,3.64-4.14,6.15-7.86,5.91-1.31.03-2.62,0-3.93-.05-3.98.02-7.37-2.89-7.95-6.83-.2-1.23-.29-2.47-.27-3.72-.02-6.35,0-12.7.04-19.05.02-1.37.15-2.73.4-4.08.45-3.04,2.67-5.53,5.65-6.31,3.19-.99,6.62-.87,9.73.33,3.06,1.21,5.04,4.21,4.93,7.5.16,1.92.06,3.86.11,5.79.03,1.06-.24,1.57-1.5,1.48-1.81-.11-3.62-.11-5.43,0-1.4.06-2.09-.31-1.93-1.89.12-1.43.13-2.86.04-4.29-.04-1-.38-1.93-1.65-1.79-1.17.13-1.43.98-1.42,2.04.03,3.48,0,6.97,0,10.45"/>
                <path id="Path_60703" data-name="Path 60703" class="cls-3" d="M228.12,370.97c-.26,4.07-.26,7.88-.8,11.6-.69,3.3-3.53,5.71-6.9,5.86-1.87.12-3.75.12-5.62,0-4.45-.44-7.77-4.3-7.54-8.77-.11-6.41-.03-12.83-.04-19.24,0-1.18-.05-2.37.02-3.55,0-4.93,3.98-8.92,8.9-8.93.02,0,.04,0,.07,0,1.62-.08,3.25.02,4.86.28,3.87.28,6.84,3.54,6.75,7.42.15,2.17.13,4.35.2,6.53.04,1.12-.5,1.56-1.6,1.52-1.94-.06-3.87-.1-5.81-.08-1.09,0-1.39-.52-1.36-1.51.05-1.43.03-2.87,0-4.3-.02-1,.02-2.24-1.37-2.22s-1.36,1.21-1.36,2.23v18.49c-.13.92-.13,1.86,0,2.78.31,2.58.77,1.56,1.48,1.81,1.09-.05,1.17-1.16,1.21-1.78.12-2.11.12-4.22,0-6.33-.06-1.26.27-1.84,1.63-1.8,2.3.07,4.6.02,7.27.02"/>
                <path id="Path_60704" data-name="Path 60704" class="cls-3" d="M68.7,377.73c.07-4.18.07-4.15,3.93-4.16,5.03,0,4.83.04,4.56,4.72-.06,1.12-.28,2.79,1.29,2.84,1.63.05,1.85-1.56,1.87-2.92,0-2.47-1.13-4.8-3.06-6.33-2.03-1.84-3.98-3.76-5.95-5.67-2.93-4.5-3.3-10.2-.96-15.04,1.17-1.66,3.03-2.71,5.06-2.86,2.9-.22,5.81-.12,8.69.28,2.65.42,4.64,2.65,4.75,5.33.22,1.92.25,3.85.11,5.78-.18.5-.6.88-1.12,1-1.67.11-3.37,0-5.06.03-1.62.02-2.27-.73-2.08-2.31.18-.73.18-1.48,0-2.21-.33-.67-.92-1.18-1.63-1.4-.33-.08-1.23.78-1.33,1.33-.5,1.79.07,3.7,1.47,4.92,2.37,2.11,4.71,4.25,6.95,6.49,2.29,2.1,3.52,5.11,3.33,8.21-.09,1.36,0,2.74-.06,4.11-.06,4.72-3.88,8.53-8.6,8.56-1.12.04-2.25.04-3.37.02-4.43.49-8.41-2.7-8.9-7.13-.08-.73-.06-1.48.06-2.2.02-.56.07-1.12.09-1.37"/>
                <path id="Path_60705" data-name="Path 60705" class="cls-3" d="M193.37,388.1c-.38,0-.47-1.96-.79-3.64-.35-2.54-1.1-2.21-2.72-2.17-1.54.03-2.43-.45-2.83,2.17-.67,4.3-.33,3.62-3.55,3.64-4.15.02-4.12.03-3.61-4.02,1.11-8.76,2.19-17.53,3.3-26.29.33-2.67.67-5.31,1.14-7.94.21-.61.71-1.07,1.33-1.23,2.43-.14,4.87,0,7.3-.14,1.94-.12,2.57.67,2.79,2.52,1.07,8.89,2.26,17.77,3.44,26.64.45,3.38,1.11,6.7,1.69,10.46M189.87,365.23c-.24,0,.47.29.23.29-.42,2.75-.63,5.52-.62,8.3,0,.25-.13.78.17.67.49-.18.87-.58,1.02-1.08.02-.99-.06-1.99-.22-2.97-.18-1.74-.38-3.48-.57-5.22"/>
                <path id="Path_60706" data-name="Path 60706" class="cls-3" d="M134.55,388.29c-2.56,0-4.92.06-7.26-.05-1.49.14-1.04-.67-1.2-1.13-.21-4.14,1.17-5-2.51-5-3.23.14-2.53.76-2.64,2.58-.21,3.39.56,3.44-3.78,3.42h-3.94c.65-4.92,1.24-9.46,1.84-14,1.05-7.96,2.15-15.91,3.13-23.87.17-1.39.63-1.75,1.98-1.69,2.37.11,4.75.05,7.12-.04,1.38-.05,2.06.43,2.24,1.84,1.11,8.89,2.26,17.77,3.45,26.66.35,2.67.86,5.28,1.26,7.92.15.96.19,1.94.32,3.37M123.58,364.49c-.2,2.79-1,6.33-1.13,9.12,0,.33.74.15,1.13.17s1.38.15,1.37-.17"/>
                <path id="Path_60707" data-name="Path 60707" class="cls-3" d="M51.07,348.54h.94c4.29-.04,4.33-.05,4.93,4.12,1.27,8.74,2.5,17.48,3.76,26.22.37,2.58.76,5.15,1.22,7.72.19,1.08-.17,1.53-1.23,1.52-2-.02-4-.04-6-.04-1.08,0-1.61-.51-1.59-1.6,0-.56-.02-1.12-.03-1.67-.04-2.2.18-2.85-3.53-2.5-1.21-.1-.97,1.08-1.04,1.7-.44,4.08.06,4.11-4.55,4.1-4.55.07-3.67.28-3.18-3.36,1.49-11.6,3-23.2,4.47-34.79.13-1,.51-1.45,1.53-1.42,1.44.04,2.87,0,4.31,0h0M50.67,363.26h0c-.44,2.94-1.13,7.09-1.43,10.05-.04.37.46.24,1.61.19,1.15,0,1.46.21,1.43-.16-.28-2.96-1.2-7.13-1.61-10.08"/>
                <path id="Path_60708" data-name="Path 60708" class="cls-3" d="M335.48,368.35c0-5.97.04-11.94-.03-17.91,0-1.33.33-1.93,1.75-1.91,3.93.05,7.87-.05,11.8.03,3.09-.38,5.9,1.82,6.27,4.91.03.26.05.53.04.8.28,4.09.28,8.2,0,12.29-.2,3.61-3.3,6.38-6.91,6.17-.02,0-.03,0-.05,0q-4.3.09-4.29,4.33c0,3.11,0,6.22.1,9.33.04,1.33-.47,1.76-1.74,1.71-1.81-.07-3.62-.06-5.43,0-1.22.04-1.6-.43-1.59-1.67.06-6.03.03-12.07.03-18.1h.04M344.01,360.4c-.03,1.59.02,3.19.15,4.78.09.58,2.77.22,2.43-1.27.18-2.4.19-4.82.04-7.23,0-1.47-2.5-1.67-2.57-1.08"/>
                <path id="Path_60709" data-name="Path 60709" class="cls-3" d="M154.32,348.57c4.76,0,9.31-.1,13.86.03,3.17-.12,5.84,2.36,5.95,5.53,0,.06,0,.12,0,.19.24,3.91.24,7.83,0,11.74-.11,3.82-3.29,6.83-7.11,6.73-.13,0-.26-.01-.39-.02h-3.82v3.76c.03,3.3.05,6.6.14,9.89.03,1.03-.12,1.69-1.37,1.67-2.37-.04-4.73,0-7.28,0v-39.51ZM162.89,360.41h0c0,1.18.04,3.55.16,4.71.05.52,2.47.21,2.31-.81.14-2.65.14-5.3,0-7.95-.02-.38-.28-1-1.54-1-.21-.04-.87-.24-.92.26-.13,1.23,0,3.54,0,4.78"/>
                <path id="Path_60710" data-name="Path 60710" class="cls-3" d="M438.9,379.87c0,2.56.07,4.84-.06,7.12-.02.38-.9,1.02-1.39,1.03-4.75.08-9.49.05-14.24.07-1.05,0-1.32-.47-1.31-1.51.05-10.95.03-21.9.04-32.86v-4.92c.36-.12.72-.2,1.1-.24,4.5-.02,9,.05,13.49-.07,1.71-.05,2.2.55,2.06,2.15-.11,1.43-.11,2.86,0,4.29.09,1.33-.45,1.8-1.73,1.72-1.43-.09-2.2-.06-4.31-.11s-2.19.51-2.11,2.11c.26,5.42-1.13,4.72,4.73,4.77,1.91-.09,1.84.25,1.77,1.67-.09,1.73.03,3.48.09,5.22.05,2.27.18,1.33-2.41,1.44-4.46-.16-4.02-.07-4.05,3.56q-.04,4.57,4.62,4.58h3.73"/>
                <path id="Path_60711" data-name="Path 60711" class="cls-3" d="M253.08,368.22c0-5.98.04-11.95-.03-17.92-.02-1.43.44-1.8,1.82-1.79,4.24.06,8.49.07,12.73-.08,1.71-.06,2.22.55,2.16,2.11s-.06,3.11,0,4.67c.06,1.19-.49,1.52-1.57,1.48-1.62-.07-3.25-.06-4.87-.11-1.16-.04-1.8.4-1.69,1.63,0,.12,0,.25,0,.37-.15,4.73-.15,4.8,4.49,4.85,1.4,0,1.9.37,1.8,1.78-.1,1.68-.1,3.36,0,5.04.07,1.29-.54,1.67-1.67,1.62-1-.04-2-.06-3-.17-1.13-.13-1.58.3-1.57,1.45.06,4.29-.06,8.59.13,12.87.08,1.78-.54,2.18-2.1,2.09-1.55-.11-3.11-.11-4.67,0-1.57.13-2.05-.39-2.03-1.96.08-5.97.03-11.95.03-17.92h0"/>
                <path id="Path_60712" data-name="Path 60712" class="cls-3" d="M491.92,388.13v-23.46c0-2.05-.08-4.11.03-6.16.07-1.36.08-2.05-1.77-1.88-3.8.04-3.37.59-3.33-3.76.04-.67,0-1.37,0-2.05v-2.27h3.82c4.49,0,9,.04,13.48,0,1.67-.07,1.54-.21,1.51,1.5s0,3.36.07,5.03c.02,1.78.2,1.59-1.62,1.62-.37-.04-.76,0-1.12-.07-2.73-.05-2.19.25-2.18,1.96.02,9.08-.12,18.15-.09,27.23,0,1.88-.5,2.55-2.43,2.37-2.03-.18-4.08-.04-6.35-.04"/>
                <path id="Path_60713" data-name="Path 60713" class="cls-3" d="M235.86,368.24c0-6.03.04-12.06-.03-18.09,0-1.23.3-1.67,1.55-1.61,1.93.1,3.87.1,5.8,0,1.47-.09,1.83.54,1.82,1.84-.07,8.82-.11,17.65-.13,26.48,0,3.11,0,6.22.11,9.33.05,1.41-.33,2.07-1.89,1.97-1.93-.13-3.87-.08-5.8-.07-1.09,0-1.49-.38-1.48-1.56.07-6.09.03-12.18.03-18.28h.01Z"/>
                <path id="Path_60714" data-name="Path 60714" class="cls-3" d="M286.05,348.55v30.35c0,2.49.06,4.98.18,7.47.06,1.27-.33,1.82-1.67,1.75-1.93-.1-3.87-.05-5.81-.02-.94,0-1.3-.32-1.3-1.33.03-12.27,0-24.54.05-36.81,0-.48.61-1.33.97-1.36,2.49-.12,4.98-.06,7.58-.06"/>
                <path id="Path_60715" data-name="Path 60715" class="cls-3" d="M97.61,348.61h8.23c.06.62.15,1.15.15,1.67.02,12.12.03,24.25.07,36.38,0,1.02-.26,1.49-1.35,1.45-2-.06-4-.04-6,0-.9,0-1.33-.22-1.33-1.26.03-12.5.05-25,.04-37.5.04-.25.1-.5.19-.74"/>
                <path id="Path_60716" data-name="Path 60716" d="M564.46,327.26l.13-.07-.09.08h-.04"/>
                <path id="Path_60717" data-name="Path 60717" class="cls-2" d="M150.1,297.64c-7.14,0-13.82.05-20.49-.07-.96-.19-1.8-.76-2.33-1.57-1.58-2.16-2.89-4.51-4.49-6.67-.61-.72-1.48-1.17-2.42-1.24-11.56-.07-23.12,0-34.66-.05-1.52-.16-2.98.65-3.65,2.02-1.11,2.08-2.33,4.11-3.63,6.07-.43.72-1.14,1.24-1.96,1.44-6.73.11-13.47.06-20.66.06.26-.87.59-1.71,1-2.52,6.74-10.4,13.5-20.78,20.28-31.16,3.97-6.11,7.88-12.25,11.91-18.33.52-.72,1.31-1.19,2.2-1.3,7.12-.11,14.24,0,21.35-.14,1.85-.17,3.63.78,4.51,2.43,7.71,11.86,15.54,23.63,23.33,35.44,3.01,4.58,6,9.17,8.96,13.78.3.58.56,1.17.77,1.79M90.74,276.47h24l-12.14-19.18-11.86,19.18"/>
                <path id="Path_60718" data-name="Path 60718" class="cls-2" d="M245.55,265.81c1.04-.06,2.02-.16,3-.16,17.13-.02,34.25,0,51.38-.09,1.92-.02,3.82-.39,5.59-1.12,1.73-.63,2.76-2.39,2.48-4.21-.54-2.03-2.18-3.58-4.24-4-1.61-.14-3.25-.13-4.87-.13-17-.01-34-.01-50.99,0-1.77,0-2.65-.46-3.11-2.3-1.07-3.64-3.62-6.68-7.02-8.36-.59-.31-1.09-.77-1.46-1.33.82-.04,1.64-.13,2.47-.12,18.89.07,37.76.15,56.62.24,5.44.03,10.88.05,16.3.33,9.27.54,16.35,8.5,15.8,17.78-.03.59-.1,1.18-.2,1.77-1.87,7.52-8.53,12.86-16.27,13.06-12.38.09-24.75,0-37.13,0-1.19,0-2.37.02-3.56.08-1.07.05-1.43.57-1.4,1.71.13,5.48.12,10.96.22,16.44.02,1.39-.37,2.02-1.91,2-6.75-.06-13.5-.04-20.25,0-1.2,0-1.67-.35-1.67-1.59.05-9.59.05-19.19.07-28.78.03-.42.08-.83.16-1.24"/>
                <path id="Path_60719" data-name="Path 60719" class="cls-2" d="M155.49,265.67h13.33c14.25-.02,28.49,0,42.74-.11,1.54-.07,3.05-.49,4.4-1.24,1.76-.7,2.76-2.56,2.39-4.42-.72-1.98-2.46-3.41-4.54-3.73-2-.11-4-.11-6-.11-16.87,0-33.74.02-50.61.05-1,0-1.7-.12-1.67-1.37.03-3.47,0-6.94,0-10.52h14.04c16.12,0,32.24.01,48.36.03,4.2-.2,8.37.81,12.02,2.9,6.89,3.95,9.81,12.38,6.84,19.75-2.86,6.22-9.07,10.23-15.92,10.28-12.37-.04-24.74-.03-37.12-.05-4.25,0-4.29-.02-4.26,4.09.04,4.67.15,9.33.25,14,.04,1.86-.42,2.26-2.95,2.25-6.06,0-12.12-.05-18.18-.07-3.07,0-3.11,0-3.11-3.07-.02-9.51,0-19.02,0-28.66"/>
                <path id="Path_60720" data-name="Path 60720" class="cls-2" d="M325.46,244.23c.72-.06,1.43-.18,2.15-.18,26.38.03,52.75.07,79.13.12,3.17,0,3.16,0,3.11,3.28-.03,2.18-.11,4.37,0,6.54.08,1.5-.49,1.97-1.92,1.97-7.31,0-14.62.05-21.94.07-4.07,0-4.03,0-4,4.08.05,10.84.05,21.66.07,32.52,0,.5,0,1,.02,1.5.17,3.22.06,3.29-3.28,3.3-6.25,0-12.5.03-18.75.14-1.67.03-2.11-.55-2.1-2.17.1-12.71.11-25.41.15-38.12v-1.2h-5.04c-5.69,0-11.38-.03-17.06.03-1.28,0-1.83-.25-2.06-1.67-.83-3.84-3.37-7.09-6.89-8.83-.52-.33-1.06-.61-1.6-.91l.02-.45"/>
                <path id="Path_60722" data-name="Path 60722" class="cls-2" d="M455.27,359.6c-.08-1.31-.08-2.62,0-3.93.07-.48.31-.45.67-.43,1.59-.14,1.94.55,1.95.91.08,2.4.04,4.81-.14,7.21-.03.39-.56,1-1,1-.38,0-1.22.24-1.29-.24"/>
                <path id="Path_60723" data-name="Path 60723" class="cls-2" d="M372.58,368.15v-9.33c-.01-.68.09-1.35.3-2,.14-.39.62-.91.96-.91.54,0,1.04.24,1.37.67.39.84.6,1.74.63,2.67.02,6.28-.01,12.55-.1,18.83.02.72-.24,1.42-.72,1.96-1.1.94-2.38,0-2.41-1.82-.06-3.36,0-6.72,0-10.07h-.03Z"/>
                <path id="Path_60724" data-name="Path 60724" class="cls-2" d="M525.3,368.1v10.27c0,1.04-.08,2.09-1.52,2.08s-1.82-.87-1.82-2.22c.03-6.67,0-13.33-.04-20,0-1.2.14-2.31,1.7-2.38,1.73-.08,1.64,1.23,1.65,2.33.04,3.3,0,6.6,0,9.89h.02"/>
                <path id="Path_60725" data-name="Path 60725" class="cls-2" d="M580.36,359.6c-.1-1.35-.1-2.71,0-4.07.12-.57-.02-.47,1.27-.45,1.44.7,1.67.95,1.73,1.5.2,2.11.18,4.23-.04,6.33-.06.54-.76.97-1.77,1.46-.62-.19-1.06.14-1.17-.44-.03-1.08,0-3.26,0-4.33h0"/>
                <path id="Path_60731" data-name="Path 60731" class="cls-3" d="M90.73,276.48l11.85-19.18,12.14,19.18h-23.99Z"/>
                <path id="Path_60726" data-name="Path 60726" class="cls-2" d="M189.81,364.33c.19,1.74.5,4.38.67,6.12.23,1.23.37,2.48.43,3.73-.03.4-1.11.31-1.11.31,0,0-1.17.09-1.19-.16-.17-3.35.08-6.71.73-10"/>
              </g>
            </g>
          </g>
        </g>
      </g>
      <path id="Rectangle_1587" data-name="Rectangle 1587" class="cls-3" d="M36.8,191.69c-9.2.01-16.65,7.46-16.66,16.66v183.3c.01,9.2,7.46,16.65,16.66,16.66h559.88c9.2-.01,16.65-7.46,16.66-16.66v-183.3c-.01-9.2-7.46-16.65-16.66-16.66H36.8M36.8,188.36h559.88c11.04,0,20,8.95,20,20v183.3c0,11.04-8.95,20-20,20H36.8c-11.04,0-20-8.95-20-20v-183.3c0-11.04,8.95-20,20-20Z"/>
    </g>
  </g>
</svg>