<?xml version="1.0" encoding="UTF-8"?>
<svg id="Layer_1" data-name="Layer 1" xmlns="http://www.w3.org/2000/svg" xmlns:xlink="http://www.w3.org/1999/xlink" viewBox="0 0 633.6 600">
  <defs>
    <style>
      .cls-1 {
        fill: none;
      }

      .cls-2 {
        fill: #1e3c7a;
      }

      .cls-3 {
        fill: #fff;
      }

      .cls-4 {
        fill: #d70a0a;
      }

      .cls-5 {
        clip-path: url(#clippath);
      }
    </style>
    <clipPath id="clippath">
      <rect class="cls-1" x="16.93" y="181.45" width="599.87" height="237.89"/>
    </clipPath>
  </defs>
  <g id="European_Poker_Tour_for_light_bg" data-name="European Poker Tour for light bg">
    <g class="cls-5">
      <g id="EPT_Logo_White" data-name="EPT Logo White">
        <path id="Path_60796" data-name="Path 60796" class="cls-3" d="M615.2,401.74c0,9.76-5.26,10.54-14.5,15.87l-565.08.13c-7.79-2.77-14.2-8.48-17.85-15.9l.46-201.3c0-9.75,10.72-17.3,19.59-17.3h567.88c7.19,8.17,5.83,7.58,10.02,15.7l-.52,202.81Z"/>
        <path id="Path_60797" data-name="Path 60797" class="cls-2" d="M51.23,205.99c-5.39,0-9.76,4.37-9.76,9.75h0v99.43c0,5.39,4.37,9.76,9.75,9.76h324.35l119.97-118.95H51.23Z"/>
        <path id="Path_60798" data-name="Path 60798" class="cls-3" d="M178.52,232.71h-100.45v14.13h100.45v-14.13Z"/>
        <path id="Path_60799" data-name="Path 60799" class="cls-3" d="M107.11,283.96v-12.2h68.08v-12.59h-97.11v38.92h100.45v-14.13h-71.42Z"/>
        <path id="Path_60800" data-name="Path 60800" class="cls-3" d="M266.64,232.96h-78.87v14.13h70.13c3.58-.1,6.62,2.6,6.94,6.17-.36,3.54-3.37,6.22-6.94,6.17h-70.13v38.92h28.9v-24.79h49.97c11.21.81,20.95-7.61,21.77-18.82.81-11.21-7.61-20.95-18.82-21.77-.98-.07-1.96-.07-2.94,0Z"/>
        <path id="Path_60801" data-name="Path 60801" class="cls-3" d="M283.21,232.97c7.71,0,13.87,8.48,13.87,14.13h29.54v51.12h28.9v-51.25h34.04v-14.13l-106.36.13Z"/>
        <path id="Path_60802" data-name="Path 60802" class="cls-2" d="M59.96,349.98v9.25h-8.73v7.58h7.07v9.5h-7.07v8.86h9.12v9.38h-18.88v-44.7h18.5v.13Z"/>
        <path id="Path_60803" data-name="Path 60803" class="cls-2" d="M81.67,395.33h-1.93c-7.45,0-10.79-4.5-10.79-11.3v-34.04h10.28v33.66c0,1.54.51,2.31,1.67,2.31s1.67-.9,1.67-2.31v-33.66h10.28v34.04c.46,5.77-3.84,10.83-9.61,11.29-.52.04-1.04.04-1.56,0Z"/>
        <path id="Path_60804" data-name="Path 60804" class="cls-2" d="M111.73,394.68h-9.89v-44.7h15.54c3.86-.28,7.21,2.62,7.49,6.47.03.45.02.91-.03,1.36v5.91c.24,2.85-1.29,5.55-3.85,6.81,2.38.92,3.92,3.23,3.85,5.78v14.77c-.11,1.11.12,2.23.64,3.21v.26h-9.76c-.58-.97-.85-2.09-.77-3.21v-12.97c0-1.54-.39-2.18-1.67-2.18h-1.41v18.5h-.13ZM111.73,367.97h1.28c1.28,0,1.8-.64,1.8-2.18v-6.04c0-1.54-.26-2.06-1.67-2.06h-1.41v10.29h0Z"/>
        <path id="Path_60805" data-name="Path 60805" class="cls-2" d="M157.84,383.12c0,7.71-4.37,12.2-11.05,12.2h-1.93c-7.19,0-11.17-4.37-11.17-12.2v-21.2c0-7.71,3.21-12.59,11.17-12.59h1.93c7.96,0,11.17,5,11.17,12.59v21.2h-.13ZM147.57,360.9c0-1.67-.51-2.57-1.8-2.57s-1.8.9-1.8,2.57v22.87c0,1.28.51,2.18,1.93,2.18,1.28,0,1.8-.9,1.8-2.18v-22.87h-.13Z"/>
        <path id="Path_60806" data-name="Path 60806" class="cls-2" d="M176.73,377.47v17.21h-9.89v-44.7h14.26c5.91,0,8.48,2.96,8.48,9v9.25c0,5.78-2.95,9.25-8.09,9.25h-4.75ZM176.73,369.12h1.16c1.41,0,1.8-.9,1.8-2.18v-6.94c0-1.28-.26-2.18-1.8-2.18h-1.16v11.3Z"/>
        <path id="Path_60807" data-name="Path 60807" class="cls-2" d="M216.93,349.98v9.25h-8.73v7.58h7.07v9.5h-7.07v8.86h9.12v9.38h-18.88v-44.7h18.5v.13Z"/>
        <path id="Path_60808" data-name="Path 60808" class="cls-2" d="M239.02,388.14h-4.63l-.64,6.55h-8.73l5.67-44.7h12.2l6.3,44.7h-9.63l-.53-6.55ZM238.12,379.27l-1.41-13.62-1.41,13.62h2.83Z"/>
        <path id="Path_60809" data-name="Path 60809" class="cls-2" d="M266.77,349.98l5.14,21.58v-21.58h8.48v44.7h-8.73l-5.91-23.38v23.38h-8.61v-44.7h9.63Z"/>
        <path id="Path_60810" data-name="Path 60810" class="cls-2" d="M313.14,377.47v17.21h-9.89v-44.7h14.26c5.91,0,8.48,2.96,8.48,9v9.25c0,5.78-2.95,9.25-8.09,9.25h-4.75ZM313.14,369.12h1.16c1.41,0,1.8-.9,1.8-2.18v-6.94c0-1.28-.26-2.18-1.8-2.18h-1.16v11.3Z"/>
        <path id="Path_60811" data-name="Path 60811" class="cls-2" d="M358.87,383.12c0,7.71-4.37,12.2-11.05,12.2h-1.93c-7.19,0-11.17-4.37-11.17-12.2v-21.2c0-7.71,3.21-12.59,11.17-12.59h1.93c7.96,0,11.17,5,11.17,12.59v21.2h-.13ZM348.6,360.9c0-1.67-.51-2.57-1.8-2.57s-1.8.9-1.8,2.57v22.87c0,1.28.51,2.18,1.93,2.18,1.28,0,1.8-.9,1.8-2.18v-22.87h-.13Z"/>
        <path id="Path_60812" data-name="Path 60812" class="cls-2" d="M377.75,376.83v17.86h-9.89v-44.7h9.89v15.93l4.63-15.93h9.89l-6.04,19.91,6.42,24.79h-10.4l-4.5-17.85Z"/>
        <path id="Path_60813" data-name="Path 60813" class="cls-2" d="M418.86,349.98v9.25h-8.73v7.58h7.07v9.5h-7.07v8.86h9.12v9.38h-18.88v-44.7h18.5v.13Z"/>
        <path id="Path_60814" data-name="Path 60814" class="cls-2" d="M437.74,394.68h-9.89v-44.7h15.54c3.86-.28,7.21,2.62,7.49,6.47.03.45.02.91-.03,1.36v5.91c.24,2.85-1.29,5.55-3.85,6.81,2.38.92,3.92,3.23,3.85,5.78v14.77c-.11,1.11.12,2.23.64,3.21v.26h-9.76c-.58-.97-.85-2.09-.77-3.21v-12.97c0-1.54-.39-2.18-1.67-2.18h-1.41v18.5h-.14ZM437.74,367.97h1.28c1.28,0,1.8-.64,1.8-2.18v-6.04c0-1.54-.26-2.06-1.67-2.06h-1.41v10.29h0Z"/>
        <path id="Path_60815" data-name="Path 60815" class="cls-2" d="M488.61,359.23v35.45h-9.88v-35.45h-5.67v-9.25h21.07v9.25h-5.52Z"/>
        <path id="Path_60816" data-name="Path 60816" class="cls-2" d="M526.5,383.12c0,7.71-4.37,12.2-11.05,12.2h-1.93c-7.19,0-11.17-4.37-11.17-12.2v-21.2c0-7.71,3.21-12.59,11.17-12.59h1.93c7.96,0,11.17,5,11.17,12.59v21.2h-.13ZM516.22,360.9c0-1.67-.51-2.57-1.8-2.57s-1.8.9-1.8,2.57v22.87c0,1.28.51,2.18,1.93,2.18,1.28,0,1.8-.9,1.8-2.18v-22.87h-.13Z"/>
        <path id="Path_60817" data-name="Path 60817" class="cls-2" d="M548.21,395.33h-1.93c-7.45,0-10.79-4.5-10.79-11.3v-34.04h10.28v33.66c0,1.54.51,2.31,1.67,2.31s1.67-.9,1.67-2.31v-33.66h10.27v34.04c.42,5.81-3.94,10.87-9.76,11.3-.47.03-.94.04-1.41,0Z"/>
        <path id="Path_60818" data-name="Path 60818" class="cls-2" d="M578.14,394.68h-9.89v-44.7h15.54c3.86-.28,7.21,2.62,7.49,6.47.03.45.02.91-.03,1.36v5.91c.24,2.85-1.29,5.55-3.85,6.81,2.38.92,3.92,3.23,3.85,5.78v14.77c-.11,1.11.12,2.23.64,3.21v.26h-9.76c-.58-.97-.85-2.09-.77-3.21v-12.97c0-1.54-.39-2.18-1.67-2.18h-1.41v18.5h-.14ZM578.14,367.97h1.28c1.28,0,1.8-.64,1.8-2.18v-6.04c0-1.54-.26-2.06-1.67-2.06h-1.41v10.29h0Z"/>
        <path id="Path_60819" data-name="Path 60819" class="cls-4" d="M564.91,231.29c-15.54-15.54-25.43-25.18-25.43-25.18,0,0-10.02,9.63-25.43,25.18-8.22,8.22-26.59,28.52-26.59,48.68-.06,13.44,10.78,24.38,24.22,24.44,8.6.04,16.59-4.47,21-11.85.48-.57,1.18-.9,1.93-.9,1.28,0,2.44.9,2.31,1.93-.9,7.33-5,25.18-21.2,31.21h47.66c-16.19-6.04-20.17-24.02-21.2-31.21-.13-1.16,1.03-1.93,2.31-1.93.74,0,1.45.33,1.93.9,6.89,11.53,21.83,15.3,33.36,8.41,7.39-4.41,11.89-12.39,11.85-21-.12-20.17-18.49-40.46-26.71-48.68Z"/>
        <path id="Path_60820" data-name="Path 60820" class="cls-3" d="M539.47,231.29l6.55,20.43h21.45l-17.33,12.59,6.67,20.3-17.33-12.59-17.33,12.59,6.55-20.3-17.33-12.59h21.45l6.65-20.43Z"/>
      </g>
    </g>
    <g id="Group_14532" data-name="Group 14532">
      <path id="Rectangle_1590" data-name="Rectangle 1590" class="cls-2" d="M36.8,184.16c-9.44.26-16.89,8.11-16.66,17.55v196.56c-.24,9.45,7.22,17.3,16.66,17.56h559.88c9.44-.26,16.89-8.11,16.66-17.55v-196.57c.23-9.44-7.22-17.29-16.66-17.55H36.8M36.8,180.65h559.88c11.33.3,20.28,9.73,20,21.06v196.56c.29,11.33-8.66,20.76-20,21.06H36.8c-11.33-.3-20.28-9.73-20-21.06v-196.56c-.29-11.33,8.66-20.76,20-21.06Z"/>
    </g>
  </g>
</svg>