<?xml version="1.0" encoding="UTF-8"?>
<svg id="Layer_1" data-name="Layer 1" xmlns="http://www.w3.org/2000/svg" xmlns:xlink="http://www.w3.org/1999/xlink" viewBox="0 0 633.6 600">
  <defs>
    <style>
      .cls-1 {
        fill: none;
      }

      .cls-2 {
        fill: #1e3c7a;
      }

      .cls-3 {
        clip-path: url(#clippath-1);
      }

      .cls-4 {
        fill: #fff;
      }

      .cls-5 {
        fill: #d71614;
      }

      .cls-6 {
        clip-path: url(#clippath);
      }
    </style>
    <clipPath id="clippath">
      <rect class="cls-1" x="16.8" y="185.47" width="600" height="229.06"/>
    </clipPath>
    <clipPath id="clippath-1">
      <rect class="cls-1" x="43.32" y="215.3" width="546.96" height="172.38"/>
    </clipPath>
  </defs>
  <g class="cls-6">
    <g>
      <path class="cls-4" d="M615.02,396.06c.11,4.34-1.51,8.55-4.51,11.71-2.99,3.15-7.11,4.99-11.46,5.11H34.43c-4.33-.16-8.43-2.01-11.41-5.15-2.98-3.14-4.62-7.33-4.55-11.66v-192.12c-.1-4.34,1.52-8.55,4.51-11.71,2.99-3.15,7.11-4.99,11.46-5.11h564.75c4.35.12,8.47,1.96,11.46,5.11,2.99,3.15,4.61,7.36,4.51,11.71v192.12h-.13Z"/>
      <path class="cls-2" d="M599.05,414.53H34.4c-4.77-.16-9.28-2.19-12.57-5.64-3.29-3.45-5.1-8.06-5.03-12.83v-192.12c-.1-4.78,1.69-9.41,5-12.88,3.3-3.46,7.85-5.47,12.63-5.59h564.75c4.79.12,9.33,2.13,12.63,5.59,3.3,3.46,5.1,8.09,5,12.88v193.78h-.2c-.29,4.49-2.26,8.7-5.51,11.82-3.25,3.11-7.54,4.89-12.04,4.99ZM34.43,411.21h564.62c3.91-.12,7.6-1.78,10.29-4.62,2.68-2.84,4.13-6.63,4.02-10.53v-1.66h.13v-190.46c.11-3.91-1.34-7.69-4.02-10.53-2.69-2.84-6.38-4.5-10.29-4.62H34.43c-3.9.12-7.6,1.78-10.29,4.62-2.68,2.84-4.13,6.63-4.03,10.53v192.12c-.06,3.9,1.4,7.66,4.07,10.49,2.68,2.83,6.36,4.5,10.25,4.66h-.01Z"/>
      <g class="cls-3">
        <g>
          <path class="cls-2" d="M504.7,215.76c-2.14,2.08-4.32,4.14-6.43,6.26-31.64,31.77-63.27,63.55-94.91,95.33-1.12,1.13-2.18,1.99-4.07,1.99-46.64-.07-93.28-.05-139.92-.04-67.57,0-135.14.02-202.71-.02-2.5,0-5.14-.1-7.46-.89-3.69-1.26-5.51-4.32-5.79-8.21-.12-1.71-.1-3.44-.1-5.16,0-26.36,0-52.72.03-79.08,0-4.94,2.08-8.46,6.05-9.91,1.46-.53,3.12-.72,4.69-.72,143.94-.02,287.89-.01,431.83,0h18.43c.12.15.23.3.34.45ZM208.3,289.04h10.29c3.49,0,6.98.05,10.46-.03,9.46-.22,15.3-10.37,10.64-18.56-2.51-4.41-6.63-6.06-11.48-6.08-8.57-.04-17.14.01-25.71.01-.71,0-1.42-.01-2.12-.1-2.1-.27-3.12-1.44-3.06-3.42.06-1.99,1.09-3.02,3.23-3.22.65-.06,1.29-.14,1.94-.14,11.17,0,22.34,0,33.51.07,1.21,0,1.56-.41,1.54-1.52-.04-1.95-.1-3.91.04-5.85.1-1.48-.34-1.98-1.85-1.97-13.42.06-26.84.05-40.26.1-5.74.02-10.51,3.81-12.07,9.44-1.45,5.25.76,10.89,5.45,13.89,2.31,1.48,4.84,2.1,7.56,2.1,9.81,0,19.62.02,29.43.06,1.85,0,2.95,1.17,2.89,2.86-.07,1.91-1.11,2.96-2.99,2.98-2.83.03-5.67.06-8.51.06-9.93,0-19.86.03-29.79-.02-1.38,0-1.92.39-1.83,1.82.1,1.83.12,3.69,0,5.52-.1,1.53.33,2.05,1.95,2.03,6.91-.09,13.83-.04,20.75-.04h0ZM269.09,273.71c10.88,0,21.45.02,32.03-.03,1.51,0,3.11-.14,4.51-.64,8.69-3.11,11.03-15.21,4.23-21.58-1.9-1.78-3.99-3.17-6.72-3.17-14.31,0-28.61,0-42.92.01-2.6,0-5.2-.03-7.8.06-.46.02-1.29.57-1.3.91-.11,2.59-.06,5.19-.06,8.03h3.03c13.01.01,26.01.02,39.02.05,1.17,0,2.37.09,3.5.37,1.46.37,2.55,2.12,2.44,3.56-.13,1.62-1.23,2.77-2.97,3-.82.11-1.65.15-2.48.15-13.54,0-27.07,0-40.61-.06-1.45,0-1.97.34-1.95,1.85.07,6.89.07,13.78.01,20.66-.01,1.42.45,1.86,1.82,1.85,4.97-.06,9.93-.04,14.9-.06.39,0,.78-.12,1.33-.22v-14.75h-.01ZM127.89,279.27c0-2.08,0-3.85,0-5.62,0-2.32.01-2.33,2.31-2.33,12.59.01,25.17.01,37.76.07,1.22,0,1.75-.33,1.7-1.59-.05-1.42-.1-2.86.01-4.27.12-1.54-.54-1.87-1.96-1.86-18.03.04-36.06.05-54.08,0-1.54,0-2.06.41-2.05,1.98.06,7.06.07,14.12-.02,21.18-.02,1.85.63,2.26,2.37,2.25,11.76-.07,23.52-.04,35.29-.04,7.21,0,14.42-.02,21.63.03,1.28.01,1.81-.31,1.73-1.69-.12-2.07-.16-4.16-.05-6.23.09-1.65-.61-1.96-2.09-1.95-11.41.06-22.81.05-34.22.07h-8.34,0ZM314.6,248.01c.45.54.56.76.74.87,2.94,1.85,4.77,4.48,5.78,7.79.14.45,1.03.92,1.58.94,2.6.09,5.2.02,7.8.01,2.7,0,5.4,0,8.23,0,.04.8.1,1.38.1,1.96,0,9.08.02,18.15-.05,27.23-.01,1.5.46,1.96,1.91,1.94,4.49-.06,8.98-.09,13.48,0,1.56.03,2.01-.45,2-2.02-.07-7.42-.03-14.84-.03-22.26v-6.86h2.35c5.2,0,10.4-.06,15.6.03,1.52.02,1.97-.48,1.9-1.93-.09-1.78-.01-3.56,0-5.34,0-2.35,0-2.37-2.28-2.37h-59.09ZM141.78,255.83v.02h25.35c3.9,0,5.68-1.98,5.36-5.94,0-.06,0-.12,0-.18-.02-1.11-.53-1.54-1.68-1.49-2.12.1-4.25.06-6.38.06-17.02,0-34.04,0-51.07-.05-1.31,0-1.83.33-1.73,1.69.1,1.3.12,2.62-.02,3.91-.17,1.61.44,2.02,1.98,2.01,9.4-.06,18.8-.03,28.19-.03h0Z"/>
          <path class="cls-5" d="M559.87,319.02h-38.79c.59-.43,1.06-.83,1.57-1.14,9.07-5.64,13.75-14.08,15.45-24.41.17-1.02.46-2.21-.92-2.73-1.26-.47-2.34-.12-3.16.92-3.26,4.17-7.3,7.2-12.38,8.82-11.59,3.68-25.07-2.3-28.99-13.17-2.06-5.71-1.55-11.62.38-17.31,3.6-10.63,10.09-19.49,17.94-27.23,9.27-9.14,18.97-17.84,28.46-26.76.91-.86,1.61-.9,2.55-.02,10.64,9.94,22.01,19.11,31.65,30.08,6.54,7.45,12.43,15.43,15.26,25.19,1.61,5.58,2.15,11.27-.23,16.75-3.81,8.77-12.85,13.97-22.63,13.48-7.42-.38-13.4-3.44-18.06-9.19-.37-.46-.74-1.08-1.23-1.23-.82-.26-1.91-.52-2.57-.17-.54.29-.98,1.55-.82,2.23.71,2.99,1.46,6,2.55,8.87,2.28,5.98,5.67,11.2,11.14,14.8.49.32,1.02.59,1.52.89.48.29.94.58,1.42.87-.04.16-.08.31-.13.47h0ZM566.8,255.6c-.04-.19-.08-.39-.12-.58-.86-.05-1.71-.14-2.57-.14-5.02.04-10.05.06-15.07.16-1.44.03-2.17-.45-2.63-1.93-1.44-4.58-3.05-9.11-4.64-13.64-.23-.63-.75-1.16-1.31-2.02-1.9,5.42-3.74,10.35-5.3,15.36-.52,1.66-1.3,2.11-2.85,2.09-4.55-.05-9.1-.03-13.65,0-1.28.01-2.56.15-3.84.23.32.78.65,1.09,1.03,1.35,4.37,2.94,8.72,5.9,13.14,8.76,1.18.76,1.38,1.43.89,2.74-1.73,4.6-3.33,9.25-4.96,13.89-.2.56-.25,1.16-.46,2.16.87-.5,1.33-.73,1.75-1.02,4.21-2.85,8.43-5.7,12.62-8.58,1.4-.96,2.56-.99,4.02.06,4.08,2.94,8.27,5.72,12.43,8.55.36.25.79.4,1.55.78-.23-1.15-.31-1.96-.56-2.71-1.47-4.39-2.89-8.79-4.54-13.11-.53-1.4-.19-2.05.89-2.76,3.74-2.49,7.46-5.01,11.18-7.53,1.01-.68,1.99-1.41,2.99-2.12h0Z"/>
          <path class="cls-2" d="M130.81,387.19v-45.87c5.71.31,11.32-.78,16.78,1.12,3.09,1.08,5,3.73,5.02,7,0,1.25,0,2.49,0,3.74.03,4.78-.81,6.28-5.55,9.15.38.24.67.51,1.01.64,3.01,1.23,4.47,3.37,4.49,6.72.02,3.56-.07,7.12.06,10.68.08,2.17.48,4.32.77,6.82h-5.64c-3.49,0-3.74.02-3.99-3.51-.22-3.14-.28-6.28-.34-9.43-.03-1.57-.05-3.15-.08-4.72-.02-1.09.28-2.64-.64-3.43-.46-.4-1.07-.6-1.65-.79-.08-.02-.16-.05-.24-.01-.06.02-.09.08-.12.13-.84,1.34-.6,2.9-.61,4.42-.01,1.74-.02,3.48-.02,5.22,0,3.39.01,6.79.07,10.18.02,1.59-.43,2.06-2,1.98-2.4-.13-4.82-.04-7.33-.04ZM140.08,353.44c0,1.54-.06,3.08.03,4.61.04.57.31,1.46.68,1.59.47.16,1.31-.15,1.71-.54.45-.45.81-1.2.83-1.83.06-1.71.06-3.42.05-5.14-.02-2.2.34-4.24-2.39-4.67-.09-.01-.2-.02-.28.02-.08.04-.13.13-.17.21-.84,1.68-.45,3.94-.45,5.76h0Z"/>
          <path class="cls-2" d="M433.33,340.88c5.63.5,11.06-.36,16.37.52,3.53.58,5.17,4.44,5.19,8.1,0,1.66-.07,3.33.02,4.98.17,3.14-1.14,5.36-3.9,6.78-.51.26-.98.61-1.66,1.04.5.26.82.48,1.17.61,3.15,1.19,4.32,3.64,4.37,6.82.08,4.33.11,8.66.29,12.98.06,1.44.52,2.86.81,4.37h-9.28c-.36-2.83-.9-5.73-1.05-8.65-.18-3.49,0-6.99-.03-10.49-.02-2.15-.53-2.6-3.01-2.8v21.9h-9.3v-46.17h0ZM442.5,347.53c0,3.51-.02,7.06.02,10.61,0,.53.23,1.46.47,1.51.57.11,1.4-.04,1.79-.42.48-.48.85-1.3.88-1.99.08-2.55.05-5.1-.03-7.66-.06-1.94-.87-2.46-3.12-2.05Z"/>
          <path class="cls-2" d="M533.65,341.46h9.05c.04.76.11,1.44.11,2.12,0,11.81,0,23.62.01,35.43,0,1.03-.07,2.08,1.4,2.22,1.56.15,2.09-.37,2.09-2.23,0-10.21,0-20.42,0-30.62v-6.88h9.21c.04.64.12,1.21.12,1.79,0,11.63,0,23.26,0,34.9,0,5.18-2.13,7.73-7.2,8.99-3.73.93-7.31.41-10.72-1.1-2.68-1.19-4.23-3.31-4.22-6.42.02-12.29,0-24.57,0-36.86,0-.4.08-.8.14-1.34Z"/>
          <path class="cls-2" d="M573.71,387.1h-9.15c-.06-.47-.16-.86-.16-1.26-.01-14.12,0-28.24-.06-42.37,0-1.73.49-2.25,2.19-2.16,4.06.23,8.13.24,12.19.48,1.08.06,2.17.54,3.19.97,3.08,1.31,4.13,3.83,4.05,7.02-.04,1.54-.13,3.09,0,4.62.24,3.15-1.07,5.37-3.73,6.9-.49.28-.94.63-1.38.93.03.16.03.26.06.26,4.57,1.48,5.22,5.04,5.02,9.2-.24,5.09-.3,10.19,1.43,15.45-3.07,0-5.93.08-8.77-.09-.42-.03-1.01-1.25-1.09-1.97-.28-2.47-.43-4.97-.49-7.45-.08-3.14,0-6.29,0-9.43,0-.53.07-1.25-.23-1.54-.63-.62-1.47-1.01-2.23-1.5-.29.63-.81,1.25-.81,1.88-.05,6.17-.02,12.34,0,18.51v1.53h0ZM573.7,353.41h-.05c0,1.54-.05,3.08.03,4.62.03.58.41,1.63.58,1.62.71-.05,1.59-.23,2.05-.71.46-.48.68-1.37.71-2.09.09-1.95.04-3.91.03-5.87,0-.53,0-1.07-.04-1.6-.15-1.48-1.26-1.97-2.47-1.99-.27,0-.73,1.24-.79,1.94-.13,1.35-.04,2.72-.04,4.09h0Z"/>
          <path class="cls-2" d="M366.46,364.53c0,4.8.02,9.61,0,14.41-.02,4.02-1.71,6.41-5.51,7.74-4.01,1.41-8.04,1.26-11.93-.37-2.52-1.05-4.13-3.13-4.15-5.91-.09-10.49-.08-20.99-.01-31.49.02-3.34,2-5.94,5.14-6.95,3.69-1.19,7.46-1.18,11.16-.12,3.19.91,5.2,3.64,5.25,7.03.08,5.22.02,10.44.02,15.66h.03,0ZM354.07,364.28h-.03c0,4.98.04,9.96-.02,14.94-.02,1.44.44,2.13,1.93,2.01,1.58-.12,1.45-1.3,1.45-2.35.02-9.78.02-19.56.01-29.34,0-1.12-.08-2.2-1.6-2.24-1.61-.05-1.76.97-1.75,2.23.03,4.92.01,9.84.01,14.76h0Z"/>
          <path class="cls-2" d="M384.43,387.09h-9.21v-45.64h9.17v14.63c.16.01.31.02.47.03,1.35-4.88,2.7-9.76,4.07-14.71h8.4c-.27,1.29-.44,2.5-.77,3.66-1.39,4.95-2.64,9.96-4.33,14.8-1,2.86.23,5.22.87,7.69,1.56,6.01,3.38,11.95,5.1,17.92.13.44.16.91.29,1.67-3.29,0-6.44.03-9.59-.06-.25,0-.6-.77-.7-1.23-.9-3.98-1.76-7.98-2.64-11.96-.2-.91-.46-1.81-1.1-2.69v15.88h0Z"/>
          <path class="cls-2" d="M503.53,364.39c0-4.87.09-9.74-.03-14.6-.12-4.83,2.78-7.55,6.7-8.24,3.45-.61,6.94-.79,10.29.61,2.61,1.1,4.25,2.98,4.32,5.94.1,4.27.16,8.54.17,12.81.02,6.23-.05,12.46,0,18.7.02,3.43-1.72,5.6-4.71,6.83-4.13,1.7-8.34,1.61-12.45-.01-2.86-1.13-4.28-3.42-4.28-6.54,0-5.17,0-10.33,0-15.49ZM512.57,364.31h-.02c0,4.98-.01,9.97,0,14.95,0,1.59.75,2.19,2.2,1.96,1.43-.22,1.28-1.32,1.29-2.32,0-9.13,0-18.27,0-27.4,0-.89.03-1.78,0-2.67-.05-1.07-.6-1.56-1.71-1.56-1.62,0-1.77,1.04-1.77,2.27,0,4.92,0,9.85,0,14.77h0Z"/>
          <path class="cls-2" d="M265.67,387.12h-9.13c-.45-3.42-.96-6.8-1.32-10.18-.13-1.26-.25-2.21-1.86-2.12-1.43.07-2.98-.4-3.19,1.89-.28,3.01-.82,5.99-1.1,9-.11,1.14-.44,1.54-1.58,1.51-2.58-.07-5.16-.02-7.97-.02,2.39-15.41,4.74-30.55,7.11-45.85,3.83,0,7.54-.05,11.24.07.39.01.98,1.03,1.09,1.64.66,3.91,1.18,7.85,1.79,11.78,1.24,7.96,2.52,15.92,3.76,23.88.43,2.74.76,5.5,1.16,8.41h0ZM252.8,356.62c-.22.03-.43.05-.65.08-.26,3.51-.44,7.03-.83,10.53-.14,1.23.31,1.42,1.28,1.51.99.1,1.47-.25,1.36-1.27-.38-3.62-.77-7.23-1.16-10.85Z"/>
          <path class="cls-2" d="M93.07,356.7h-8.25v-7.1c0-1.09.05-2.27-1.49-2.33-1.57-.06-1.72,1.09-1.84,2.28-.39,3.95.99,7.15,3.83,9.87,1.97,1.88,3.73,3.96,5.6,5.94,2.23,2.36,3.28,5.15,3.16,8.41-.06,1.78.04,3.56-.04,5.34-.2,4.35-2.29,6.94-6.49,7.99-3.59.89-7.15.75-10.63-.58-2.47-.94-3.84-2.87-4.43-5.39-.15-.62-.09-1.3-.1-1.95,0-3.25,0-6.51,0-10.11,2.57,0,4.97-.06,7.37.06.38.02.99.9,1.01,1.4.09,2.66.01,5.34.02,8,0,1.85.67,2.62,2.15,2.58,1.74-.04,1.76-1.26,1.91-2.59.54-4.87-.98-8.84-4.72-12-.9-.76-1.56-1.79-2.46-2.55-4.27-3.63-5.8-8.15-5.37-13.75.38-4.84,2.02-7.6,6.76-8.63,3.49-.77,7.04-.9,10.42.69,2.03.95,3.38,2.59,3.53,4.78.21,3.12.05,6.27.05,9.63h0Z"/>
          <path class="cls-2" d="M294.49,356.71h-8.31c0-2.43.02-4.79,0-7.15-.01-1.07.09-2.32-1.52-2.25-1.35.06-1.94.93-1.98,2.24-.09,3.43.55,6.52,3.2,9.07,2.51,2.42,4.75,5.12,7.09,7.7.28.31.51.66.74.99,2.05,2.91,2.28,13.44.31,16.39-2.04,3.04-5.3,3.75-8.55,3.84-2.42.07-4.94-.42-7.29-1.09-2.37-.68-3.99-2.62-4.21-5.05-.33-3.77-.21-7.58-.22-11.37,0-.29.53-.81.83-.82,2.19-.1,4.37-.15,6.56-.06.34.01.91.81.92,1.26.1,2.79.08,5.58.07,8.37,0,1.39.45,2.34,1.99,2.34,1.53,0,1.87-.98,2.05-2.33.65-4.94-.93-8.95-4.69-12.18-1.21-1.04-2.14-2.39-3.36-3.42-5.05-4.27-4.9-9.94-4.15-15.69.4-3.07,2.55-4.88,5.42-5.71,3.3-.95,6.65-.97,9.97-.05,3.01.83,4.91,3.03,5.08,6.12.16,2.89.04,5.79.04,8.83h0Z"/>
          <path class="cls-2" d="M315.13,340.92c5.66.45,11.17.16,16.53.78,3.16.37,4.82,2.87,4.93,6.08.19,5.44.16,10.9-.04,16.35-.12,3.2-1.74,4.82-4.88,5.41-1.9.36-3.85.56-5.79.63-1.25.04-1.62.46-1.61,1.68.06,4.45.02,8.89.02,13.34v1.87h-9.17v-46.15h0ZM324.4,348.02v15.65c2.36.17,3.25-.57,3.27-2.68.02-3.43.01-6.86,0-10.29-.01-2.09-.99-2.91-3.26-2.68h0Z"/>
          <path class="cls-2" d="M180.17,341.44v5.77c-2.56,0-4.97.04-7.37-.02-1.22-.03-1.67.39-1.64,1.65.08,3.08.08,6.17.02,9.26-.02,1.31.43,1.79,1.76,1.73,2.11-.1,4.23-.03,6.48-.03v5.31c-2.13,0-4.24.09-6.34-.03-1.52-.09-1.94.51-1.92,1.95.06,4.15.06,8.31,0,12.46-.02,1.29.33,1.83,1.68,1.77,2.06-.09,4.14.03,6.2-.03,1.06-.03,1.52.32,1.48,1.41-.05,1.42-.01,2.84-.01,4.39h-18.55v-45.61h18.21,0Z"/>
          <path class="cls-2" d="M64.47,341.42c0,1.55-.06,2.91.02,4.27.06,1.14-.44,1.42-1.48,1.4-2.53-.05-5.06-.01-7.8-.01,0,4.16-.03,8.01.06,11.85,0,.31.88.83,1.37.85,2.17.09,4.36.04,6.81.04,0,1.55.09,2.96-.06,4.35-.04.36-.82.88-1.28.9-2.18.1-4.36.04-6.74.04v16.14h9.14v5.84h-18.5v-45.67h18.46Z"/>
          <path class="cls-2" d="M406.73,341.4h18.18v5.76h-9.18c0,4.1-.03,7.93.06,11.77,0,.3.9.81,1.41.83,2.17.09,4.35.04,6.68.04v5.32c-2.21,0-4.38.06-6.55-.02-1.27-.05-1.64.46-1.64,1.66.03,4.33.03,8.66-.04,12.99-.02,1.21.51,1.53,1.59,1.52,2.12-.03,4.25.07,6.38.01,1.07-.03,1.51.3,1.47,1.4-.06,1.41-.02,2.84-.02,4.38h-18.35v-45.66h0Z"/>
          <path class="cls-2" d="M117.18,387.1h-9.4c-.03-.6-.08-1.22-.08-1.84,0-11.93-.02-23.86.05-35.79.01-1.7-.44-2.4-2.17-2.19-1.04.12-2.1.02-3.25.02v-5.81h19.9v5.77h-5.05v39.85h0Z"/>
          <path class="cls-2" d="M494.98,341.41v5.87h-5.08v39.77h-9.3v-39.69h-5.27v-5.96h19.65Z"/>
          <path class="cls-2" d="M223.72,341.48v3.61c0,11.44.02,22.89-.05,34.33-.01,1.54.5,1.95,1.91,1.89,2.06-.08,4.12-.02,6.37-.02v5.78h-17.51v-45.59h9.29,0Z"/>
          <path class="cls-2" d="M188.78,341.47h9.23v2.21c0,11.87.03,23.74-.04,35.6,0,1.56.38,2.12,1.96,2.02,2.06-.12,4.13-.03,6.36-.03v5.81h-17.51v-45.61Z"/>
        </g>
      </g>
    </g>
  </g>
</svg>