<?xml version="1.0" encoding="UTF-8"?>
<svg id="Layer_1" data-name="Layer 1" xmlns="http://www.w3.org/2000/svg" xmlns:xlink="http://www.w3.org/1999/xlink" viewBox="0 0 633.6 600">
  <defs>
    <style>
      .cls-1 {
        fill: none;
      }

      .cls-2 {
        fill: #1e3c7a;
      }

      .cls-3 {
        fill: #fff;
      }

      .cls-4 {
        fill: #d71614;
      }

      .cls-5 {
        clip-path: url(#clippath);
      }
    </style>
    <clipPath id="clippath">
      <rect class="cls-1" x="42.7" y="213.92" width="548.21" height="173.4"/>
    </clipPath>
  </defs>
  <g id="Eureka_Poker_Tour_logo_with_border" data-name="Eureka Poker Tour logo with border">
    <path id="Path_60771" data-name="Path 60771" class="cls-3" d="M615.01,396.06c.22,9.05-6.92,16.56-15.97,16.81H34.43c-9.01-.33-16.1-7.8-15.97-16.81v-192.12c-.22-9.05,6.92-16.56,15.97-16.81h564.74c9.05.25,16.18,7.77,15.97,16.81v192.12h-.13Z"/>
    <path id="Path_60771_-_Outline" data-name="Path 60771 - Outline" class="cls-2" d="M599.05,414.53H34.41c-9.91-.34-17.74-8.55-17.6-18.47v-192.12c-.22-9.96,7.66-18.22,17.63-18.47h564.74c9.96.25,17.84,8.51,17.63,18.47v193.78h-.2c-.61,9.3-8.23,16.6-17.55,16.81ZM34.43,411.21h564.61c8.13-.25,14.53-7.02,14.31-15.16v-1.66h.13v-190.46c.22-8.13-6.18-14.91-14.31-15.16H34.43c-8.13.25-14.53,7.02-14.31,15.16v192.12c-.13,8.1,6.23,14.83,14.32,15.15h-.01Z"/>
    <g id="Group_14559" data-name="Group 14559">
      <g id="Group_14554" data-name="Group 14554">
        <g class="cls-5">
          <g id="Group_14553" data-name="Group 14553">
            <path id="Path_62219" data-name="Path 62219" class="cls-2" d="M509.57,214.65c-3.82,3.88-7.62,7.79-11.48,11.63-11.17,11.14-22.35,22.27-33.55,33.38-11.1,11-22.21,21.99-33.33,32.96-8.52,8.43-17.04,16.86-25.47,25.38-1.07,1.17-2.6,1.8-4.18,1.72-110.02-.04-220.05-.06-330.08-.04h-18.67c-6.86,0-9.82-2.91-9.82-9.85-.02-16.32,0-32.63.03-48.94,0-12.67.05-25.35,0-38.01-.33-2.71.88-5.37,3.13-6.9,1.7-1.06,3.64-1.68,5.64-1.82,8.33-.24,16.69-.24,25.03-.24h371.95c18.97,0,37.94.02,56.91.05h3.78c.04.23.08.45.12.66M189.76,255.14c.72.04,1.33.11,1.91.11,10.01.02,20.02,0,30.03.08,1.65-.06,3.3.21,4.85.8,1.31.37,2.07,1.73,1.7,3.03-.22.79-.82,1.41-1.6,1.67-1.24.54-2.58.8-3.92.74-10.24.06-20.48.06-30.72,0-1.88,0-2.5.58-2.45,2.49.13,4.93.11,9.86.03,14.79-.03,1.8.63,2.44,2.38,2.4,3.19-.08,6.38-.19,9.55,0,2.23.12,2.78-.86,2.7-2.8-.11-2.5-.02-5.01-.2-7.5-.11-1.6.35-2.21,1.99-2.12,2.12.12,4.25.04,6.37.06,1.52-.03,2.96.72,3.81,1.99,2.4,3.13,4.97,6.13,7.7,8.97,1.04.93,2.36,1.49,3.76,1.56,3.47.22,6.96.1,10.46.08.57-.09,1.12-.24,1.66-.44-1.85-2.12-3.47-3.98-5.09-5.86-1.66-1.93-3.31-3.88-5.09-5.97,1.74-.69,3.37-1.22,4.92-1.96,4.7-2.05,6.85-7.52,4.8-12.22-.52-1.19-1.27-2.25-2.23-3.12-2.31-2.36-5.48-3.67-8.78-3.65-10.92.06-21.84.03-32.76.03q-6.42,0-5.77,6.86M157.63,281.31v.05c4.25,0,8.49-.04,12.74,0,6.14.49,11.51-4.09,12-10.23.04-.46.04-.91.02-1.37.08-6.44,0-12.89.1-19.34.02-1.58-.5-2.16-2.08-2.13-3.41.06-6.83.08-10.24-.06-2.06-.08-2.53.73-2.49,2.67.12,6.3.08,12.6.05,18.89-.02,3.26-1.19,4.4-4.37,4.4-3.79,0-7.58.02-11.38,0-3.29-.03-4.09-.81-4.37-4.13-.08-.9-.09-1.82-.08-2.73.07-5.68.11-11.37.25-17.05.03-1.21-.23-1.92-1.53-1.93-4.02-.02-8.04-.07-12.06.02-.63.19-1.11.69-1.27,1.33,0,7.43.06,14.85.26,22.28.09,1.36.5,2.67,1.19,3.84,2,3.52,5.79,5.64,9.84,5.49,4.47.1,8.95.02,13.42.02M317.48,269.59c.83.52,1.64,1.08,2.41,1.68,3.06,2.72,5.98,5.59,9.15,8.17,1.26,1.04,2.79,1.69,4.41,1.87,4.07.28,8.18.14,12.27.14.53-.08,1.05-.21,1.55-.4-.99-.93-1.74-1.66-2.51-2.34-4.64-4.13-9.28-8.26-13.92-12.39-.92-.83-1.84-1.59-.33-2.88,5.42-4.61,10.75-9.32,16.11-14.01.19-.16.21-.5.44-1.1-5.36,0-10.46-.05-15.58.06-.7,0-1.46.74-2.07,1.28-3.41,3.01-6.77,6.07-10.17,9.09-.53.39-1.08.74-1.66,1.05,0-3.43-.06-6.45.03-9.46.04-1.46-.45-2.09-1.93-2.07-3.56.04-7.13,0-10.69,0-1.16,0-2.05.15-2.03,1.72.09,9.7.14,19.41.14,29.11,0,1.66.66,2.27,2.32,2.21,3.33-.11,6.67-.14,10-.03,1.66.05,2.12-.55,2.08-2.09-.08-3.02-.02-6.04-.02-9.61M409.7,281.17c-.12-.36-.26-.72-.43-1.07-6.61-10.06-13.19-20.15-19.89-30.17-.7-.91-1.75-1.49-2.89-1.6-4.08-.2-8.19-.19-12.27-.05-1,.1-1.92.61-2.53,1.41-6.49,9.88-12.88,19.82-19.28,29.75-.31.6-.58,1.22-.81,1.86,2.71-.15,5.42-.13,8.12.07,3.28.87,6.65-1.02,7.62-4.26.62-1.63,1.81-1.91,3.41-1.88,5.99.08,11.99.25,17.96-.05,2.68-.39,5.27,1.12,6.26,3.65.46.92,1.45,2.19,2.25,2.24,4.04.23,8.11.11,12.49.11M260.81,267.86h2.15c9.79-.02,19.58-.12,29.37,0,2.62.03,2.55-1.44,2.56-3.19s.22-3.16-2.5-3.14c-14.87.13-29.75.07-44.62,0-1.54,0-1.72.69-1.71,1.94.04,4.93.14,9.87-.04,14.8-.08,2.27.52,3.02,2.87,2.98,14.34-.12,28.68-.04,43.03-.14,4.84-.03,4.39.97,4.51-4.48.05-1.99-.56-2.64-2.56-2.61-9.41.11-18.82.15-28.23.1-5.94-.03-5.4,1.27-5.18-5.69,0-.06.07-.12.36-.59M91.4,267.99c.94-.07,1.61-.16,2.28-.16,9.4-.04,18.81-.09,28.21-.1,3.46,0,3.52-.07,3.52-3.65,0-1.77-.52-2.53-2.48-2.52-14.71.08-29.42.08-44.14.02-1.71,0-2.2.63-2.17,2.28.09,4.85.14,9.71-.02,14.56-.07,2.23.66,2.8,2.83,2.79,14.33-.08,28.66-.03,42.98-.02,4.48,0,4.37,0,4.64-4.38.14-2.11-.52-2.81-2.6-2.78-6.67.09-13.35.05-20.02.07-3.72,0-7.43.05-11.15.05-1.1,0-2.22-.07-2.15-1.64.07-1.43.16-2.85.25-4.5M246.19,255.29c.47.08.94.14,1.42.17,14.7.03,29.41.05,44.11.07,4.55,0,4.36.02,4.73-4.39.21-2.49-.6-2.91-2.82-2.9-13.8.09-27.59.06-41.39.06q-6.65,0-6.05,7M76.63,255.31c1.63.09,3.05.22,4.47.22,13.94.03,27.87.05,41.81.05,4.99,0,4.04-.1,4.08-3.98.03-3.27.06-3.31-3.25-3.31-14.77-.02-29.54-.02-44.31,0-.52-.08-1.06-.04-1.56.11-.5.26-1.15.81-1.18,1.28-.14,1.79-.06,3.61-.06,5.64"/>
            <path id="Path_62220" data-name="Path 62220" class="cls-4" d="M544.22,214.31c.81.55,1.58,1.14,2.32,1.77,8.82,8.88,17.75,17.64,26.38,26.7,6.12,6.26,11.03,13.59,14.49,21.63,3.3,6.57,4.22,14.08,2.62,21.25-2.92,11.25-14.41,18.01-25.66,15.09-3.45-.89-6.61-2.65-9.2-5.1-1.56-1.43-2.89-3.12-4.44-4.56-.54-.5-1.57-1.02-2.11-.81s-.99,1.25-1.14,1.99c-.11.9-.05,1.82.17,2.7,1.26,7.54,4.86,14.5,10.31,19.87,2.11,1.71,4.35,3.26,6.68,4.64h-39.02c.28-.33.59-.62.94-.87,8.29-4.14,12.11-11.57,14.66-19.89.59-2.03.98-4.12,1.16-6.23,0-.87-.38-1.7-1.04-2.28-.3-.24-1.5.36-2.08.84-1.1.93-2.12,1.95-3.04,3.06-6.05,6.99-15.96,9.19-24.4,5.43-9.1-3.97-14.34-13.62-12.71-23.42,1.51-8.79,5.1-17.08,10.47-24.2,6.75-8.98,14.29-17.32,22.54-24.94,4.11-4.13,8.05-8.43,12.11-12.7M520.88,255.55l-.71,1.06c.52.13,1.02.33,1.49.58,3.91,2.73,7.77,5.55,11.71,8.23,1.34.67,1.92,2.27,1.33,3.65-1.58,4.5-3.15,9-4.71,13.51-.21.6-.35,1.21-.72,2.51.85-.37,1.67-.79,2.46-1.27,3.58-2.68,7.23-5.28,10.67-8.13,1.21-1.35,3.29-1.47,4.64-.26.1.09.19.18.28.28,3.68,2.91,7.57,5.57,11.39,8.29.56.31,1.15.57,1.75.79-.03-.5-.1-.99-.21-1.48-1.74-4.76-3.45-9.53-5.27-14.25-.61-1.02-.29-2.34.73-2.95.05-.03.1-.06.16-.09,4.07-2.76,8.07-5.64,12.09-8.48.51-.36.99-.78,2.02-1.62-1.56-.18-2.42-.35-3.27-.36-4.55-.03-9.1-.08-13.65.02-1.95.04-2.72-.7-3.23-2.59-1.34-5.08-2.98-10.09-4.64-15.58-.31.37-.58.76-.81,1.18-1.54,4.83-3.19,9.63-4.54,14.52-.5,1.82-1.31,2.59-3.12,2.49-1.06-.06-2.12-.02-3.19-.02h-12.66"/>
            <path id="Path_62221" data-name="Path 62221" class="cls-2" d="M518.39,364.45v10.01c-.04,8.76-3.92,12.6-12.68,12.57-6.66-.03-10.7-2.97-11.04-9.51-.43-9.16-.38-18.33.16-27.49.31-5.59,3.68-8.33,9.28-8.68,2.49-.2,5-.02,7.43.53,3.61,1.07,6.16,4.29,6.37,8.05.32,2.4.47,4.82.45,7.24.07,2.42,0,4.85,0,7.29h.01ZM508.02,364.29c0-3.93.08-7.87-.07-11.8-.03-.74-.13-2.09-1.81-2.14-1.52.1-1.39,1.35-1.4,2.05-.12,7.79-.06,15.58-.06,23.37,0,1.28.54,2.01,1.91,1.95s1.45-.99,1.44-2.07c-.03-3.78,0-7.57-.02-11.35"/>
            <path id="Path_62222" data-name="Path 62222" class="cls-2" d="M97.62,360.46c0,5.23-.11,10.47.03,15.69.45,5.57-3.7,10.44-9.27,10.89-.54.04-1.08.04-1.62,0-1.36-.09-2.73,0-4.08-.16-4.37-.26-7.85-3.74-8.1-8.11-.37-6.5-.33-13.02-.39-19.54-.06-5,0-10.01-.06-15.01-.02-1.79.5-2.68,2.5-2.46,1.74.18,3.49.19,5.22.03,1.96-.18,2.68.42,2.65,2.49-.15,8.71-.16,17.43-.2,26.15,0,1.44.04,2.88.06,4.31.02,1.24,0,2.68,1.66,2.72s1.7-1.41,1.7-2.65c-.02-8.41-.04-16.82-.07-25.21,0-1.97-.11-3.94-.23-5.9-.08-1.3.3-1.96,1.77-1.9,2.12.09,4.25.03,6.36-.05,1.54-.06,2.13.5,2.11,2.12-.09,5.53-.03,11.07-.03,16.6h-.02Z"/>
            <path id="Path_62223" data-name="Path 62223" class="cls-2" d="M129.7,362.38c4.9,2.09,3.9,6,3.98,9.57.08,4.31.16,8.65.36,12.96.07,1.48-.46,1.88-1.81,1.81-1.74-.15-3.49-.18-5.23-.09-2.42.2-3.25-.96-3.24-3.16.03-3.72.04-7.44.05-11.15.13-.82.09-1.66-.12-2.47-.33-.72-1.22-1.19-1.87-1.76-.43.66-1.24,1.33-1.24,1.99,0,4.55.03,9.11.29,13.65.13,2.27-.79,2.98-2.86,2.92-1.74-.05-3.49-.02-5.23.09-1.41.08-1.87-.53-1.87-1.87.03-13.73.04-27.47.03-41.21,0-1.26.3-1.93,1.81-1.89,4.17.11,8.34,0,12.52.06,6.1.1,8.37,2.42,8.41,8.46,0,1.59-.08,3.19,0,4.78.35,3.04-1.24,5.97-3.98,7.34M120.6,354.27h-.14c0,1.35.11,2.71.3,4.05.11.58.86,1.45,1.3,1.44.56,0,1.54-.77,1.57-1.24.14-2.62.12-5.25-.07-7.87-.04-.5-1.09-1.09-1.78-1.27-.25-.07-1.03.92-1.13,1.51-.11,1.12-.13,2.26-.05,3.38"/>
            <path id="Path_62224" data-name="Path 62224" class="cls-2" d="M421.08,386.61v-14.43c0-.53,0-1.06-.04-1.59-.09-1.22-.07-2.63-1.81-2.59s-1.43,1.45-1.43,2.55c0,4.64-.04,9.25.05,13.88.03,1.72-.64,2.32-2.29,2.16-2.32-.21-5.36.5-6.78-.71-1.16-.99-.47-4.23-.49-6.48-.12-11.6-.15-23.2-.33-34.81-.03-2.08.6-2.87,2.69-2.83,4.31.09,8.65-.06,12.97.04,3.8-.25,7.08,2.64,7.33,6.44.02.35.02.7-.01,1.05.04,2.05-.02,4.1.02,6.15.21,2.08-.63,4.12-2.24,5.45-1.11.89-1.36,1.89.06,2.69,1.47.89,2.3,2.54,2.13,4.25.09,5.76.11,11.53.05,17.29,0,.49-.75,1.39-1.18,1.41-2.78.13-5.57.07-8.69.07M417.88,354.66h-.08c-.08,1.21-.06,2.42.06,3.62.1.58.93,1.5,1.3,1.45.66-.11,1.75-.8,1.78-1.3.15-2.56.11-5.13-.11-7.69-.04-.5-1.17-.91-1.79-1.37-.39.55-1.02,1.07-1.11,1.66-.1,1.2-.12,2.41-.05,3.62"/>
            <path id="Path_62225" data-name="Path 62225" class="cls-2" d="M327.13,364.18c0,3.34-.1,6.68.02,10.01.33,9.28-4.86,13.9-14.63,12.74-4.94,0-8.95-4.01-8.95-8.95,0-.05,0-.1,0-.15-.31-9.15-.29-18.33.02-27.49-.2-4.66,3.41-8.6,8.06-8.8.07,0,.14,0,.21,0,2.03-.28,4.08-.35,6.12-.2,4.6.13,8.38,3.7,8.77,8.29.4,4.82.09,9.69.09,14.54h.29M317.14,364.46h-.12c0-3.86.04-7.71-.02-11.57-.02-1.2-.1-2.57-1.9-2.47-1.56.09-1.68,1.19-1.71,2.42-.07,4.01-.22,8.02-.25,12.02-.02,3.55.06,7.1.14,10.65.03,1.46.95,2.42,2.32,2.08.82-.46,1.37-1.3,1.47-2.24.16-3.62.07-7.26.07-10.89"/>
            <path id="Path_62226" data-name="Path 62226" class="cls-2" d="M590.86,386.5c-2.61,0-5.3.02-8.03,0-1.33-.02-1.49-.9-1.48-2.02.04-4.17,0-8.34,0-12.51,0-.68.19-1.58-.16-1.99-.75-.73-1.59-1.36-2.5-1.9-.33.72-.96,1.44-.98,2.17-.08,4.62-.12,9.25.02,13.87.06,2.03-.66,2.71-2.62,2.58-1.81-.12-3.65-.06-5.46-.05-1.42,0-1.94-.59-1.93-2.08.09-13.26.1-26.52.12-39.78,0-3.02,0-3.03,2.98-3.02,4.09,0,8.19-.02,12.27.03,3.75-.49,7.18,2.16,7.67,5.91.07.53.08,1.07.02,1.6.02.6.04,1.21.05,1.82q.1,6.35-3.27,11.22c.09.19.13.48.29.57,3.24,1.8,3.04,4.84,2.98,7.92-.09,5.14-.02,10.28-.02,15.68M577.63,354.33h.04c-.09,1.27-.07,2.55.07,3.82.12.66.91,1.58,1.46,1.62s1.74-.78,1.77-1.28c.16-2.61.13-5.23-.09-7.83-.04-.47-1.33-.95-2.09-1.14-.18-.04-.82,1.04-.94,1.66-.14,1.04-.21,2.1-.2,3.15"/>
            <path id="Path_62227" data-name="Path 62227" class="cls-2" d="M544.92,341.75c2.85,0,5.5.03,8.15,0,1.49-.03,1.94.63,1.93,2.08-.08,10.46-.08,20.93-.12,31.39-.02,4.38-.91,8.49-5.25,10.56-4.22,2.09-9.17,2.08-13.38-.02-3.53-2.04-5.48-6-4.95-10.04,0-10.54.04-21.08-.04-31.62,0-1.81.48-2.43,2.32-2.28,1.97.13,3.94.12,5.91-.04,1.37-.09,1.97.36,1.94,1.76-.06,2.58-.08,5.15-.09,7.73-.04,7.81-.07,15.62-.1,23.43,0,1.24-.33,2.76,1.66,2.81,2.14.06,2.06-1.41,2.04-2.93-.11-10.39-.19-20.77-.26-31.16.04-.56.12-1.11.23-1.66"/>
            <path id="Path_62228" data-name="Path 62228" class="cls-2" d="M188.59,355.82c.59-1.24,1.11-2.51,1.56-3.81.83-2.91,1.48-5.87,2.32-8.78.15-.53.8-1.29,1.24-1.3,2.77-.12,5.55-.06,8.76-.06-1.23,4.21-2.11,8.19-3.55,11.96-2.09,4.82-2.27,10.26-.52,15.21,1.49,4.69,2.73,9.45,3.74,14.27.19,1.04.31,2.09.36,3.14-3.13,0-5.99.09-8.83-.08-.53-.03-1.29-1.02-1.45-1.69-.78-3.24-1.36-6.52-2.06-9.77-.33-1.49-.77-2.95-1.16-4.42l-.95.11c0,2.12-.02,4.24,0,6.36.04,2.35.03,4.71.22,7.05.18,2.18-.77,2.82-2.79,2.65-1.59-.13-3.19-.13-4.77.02-1.89.19-2.53-.48-2.5-2.39.1-7.59.08-15.18.06-22.76,0-5.69-.04-11.38-.16-17.07-.04-1.99.45-2.98,2.69-2.7,1.74.18,3.49.19,5.23.02,1.69-.13,2.35.47,2.27,2.17-.17,3.18-.24,6.36-.33,9.55-.02.71,0,1.43,0,2.14l.64.18"/>
            <path id="Path_62229" data-name="Path 62229" class="cls-2" d="M349.97,370.22c0,3.54-.04,7.07,0,10.61.09,6.27,1.16,5.53-5.32,5.77-4.86.19-4.54,1.01-4.54-4.56,0-12.66.03-25.32-.05-37.98,0-1.78.45-2.51,2.3-2.34,1.74.18,3.48.21,5.22.07,2.27-.21,2.76.89,2.59,2.82-.2,2.19-.36,4.38-.46,6.58-.07,1.57,0,3.14,0,4.71l.66.14c.27-.53.5-1.07.7-1.63,1.03-3.57,1.97-7.16,3.08-10.7.23-.72,1.02-1.74,1.62-1.78,2.76-.19,5.55-.09,8.73-.09-1.4,4.55-2.4,8.75-3.98,12.71-1.92,4.62-2.03,9.81-.29,14.5,1.88,5.49,3.02,11.24,4.6,17.35-3.38,0-6.49.13-9.57-.12-.56-.05-1.18-1.62-1.43-2.58-1.09-4.17-2.05-8.38-3.07-12.57-.1-.35-.23-.69-.36-1.02l-.41.09"/>
            <path id="Path_62230" data-name="Path 62230" class="cls-2" d="M233.67,386.61h-1.13c-3.78-.02-3.83-.02-4.13-3.75-.16-1.99-.66-3.35-3.1-3.11-1.37.13-1.99.51-2.17,1.97-.66,4.99-.73,4.97-5.78,4.95-3.19-.02-3.29-.13-2.89-3.17,1.74-13.22,3.51-26.43,5.18-39.65.21-1.68.83-2.16,2.45-2.09,2.5.15,5,.13,7.5-.04,1.89-.15,2.51.57,2.75,2.32,1.66,12.31,3.36,24.62,5.07,36.92.15,1.05.26,2.11.48,3.15.43,2.03-.35,2.83-2.39,2.55-.6-.04-1.21-.04-1.82,0v-.03M226.39,359.44l-.99-.02c-.37,3.48-.8,6.96-1.03,10.45-.03.42.9,1.09,1.51,1.29.24.08,1.17-.82,1.15-1.25-.13-3.49-.41-6.96-.66-10.46"/>
            <path id="Path_62231" data-name="Path 62231" class="cls-2" d="M267.64,364.12c0-6.6.05-13.2-.03-19.8-.02-1.78.31-2.61,2.35-2.54,4.09.14,8.19-.04,12.29.02,5.48.08,7.96,2.5,8.05,7.91.08,3.87.06,7.74-.03,11.6.34,3.89-2.54,7.33-6.43,7.67-.4.03-.8.04-1.19,0q-5.1.15-5.07,5.22c.02,3.41,0,6.83.09,10.24.04,1.61-.4,2.39-2.18,2.25-1.89-.14-3.79-.16-5.68-.06-1.7.08-2.21-.59-2.18-2.26.08-6.75.03-13.5.03-20.25M277.17,349.58v9.35c0,1.12-.02,2.23,1.51,2.23,1.39,0,2.3-.56,2.25-2.16-.08-2.34-.1-4.68-.13-7.02-.02-2.06-1.04-2.85-3.62-2.39"/>
            <path id="Path_62232" data-name="Path 62232" class="cls-2" d="M395.41,377.08c0,2.98.07,5.46-.06,7.96-.17.66-.68,1.17-1.33,1.37-5.45.16-10.9.22-16.36.19-.38,0-1.07-1.01-1.07-1.56-.07-13.72-.1-27.44-.08-41.16,0-1.24.22-2.17,1.89-2.14,4.55.11,9.1.15,13.64.03,2.19-.05,3.29.49,2.96,2.92-.13,1.43-.13,2.88,0,4.31.07,1.58-.66,2.21-2.19,2.1-.53-.04-1.06,0-1.59,0-5.74-.19-4.91.72-4.85,5.97,0,2.15,1.14,1.26,1.85,1.42,1.57.35,3.76-.16,4.68.74.83.81.3,3.01.38,4.59q.24,4.22-3.92,4.23-3.07,0-3.08,3.11v5.97l9.12-.03Z"/>
            <path id="Path_62233" data-name="Path 62233" class="cls-2" d="M156.9,377.28h8.58c0,2.83.09,5.4-.08,7.96-.27.69-.87,1.19-1.59,1.33-5.08.1-10.15.03-15.25.06-1.41,0-1.78-.63-1.77-1.96.06-13.58.07-27.15.04-40.72,0-1.74.63-2.19,2.27-2.17,4.62.07,9.25.04,13.88-.07,1.57-.04,2.25.57,2.26,2.07,0,.3.03.61.05.91.37,6.56.37,6.63-6.09,6.17-1.84-.13-2.78.3-2.44,2.3.01.15.01.3,0,.45,0,4.69,0,4.73,4.58,4.8,1.62.02,2.36.62,2.28,2.32-.09,1.74-.09,3.49,0,5.23.09,1.72-.64,2.29-2.3,2.14-1.41-.12-2.84-.03-4.44-.03l.02,9.21Z"/>
            <path id="Path_62234" data-name="Path 62234" class="cls-2" d="M59.14,368c-1.8,0-3.47.05-5.13-.02-1.29-.05-1.8.51-1.78,1.74s0,2.43.02,3.65c.04,3.69-.94,3.89,4,3.76q5.44-.14,5.35,5.3c-.07,4.03-.07,3.98-4.26,4.01-4.02.02-8.05.08-12.06.23-1.79.06-2.59-.45-2.59-2.42.1-13.43.11-26.85.12-40.28,0-1.58.5-2.27,2.27-2.23,4.62.11,9.25.07,13.88-.03,1.66-.04,2.35.49,2.24,2.21-.09,1.74-.09,3.49,0,5.23.05,1.38-.54,1.91-1.9,1.84-1.81-.15-3.64-.15-5.45-.02-.74.24-1.3.83-1.5,1.58-.2,1.79-.74,4.13.14,5.28.71.93,3.27.52,5.01.59,1.33.04,1.92.49,1.87,1.89-.08,2.27,0,4.55,0,6.83-.05.29-.13.58-.23.85"/>
            <path id="Path_62235" data-name="Path 62235" class="cls-2" d="M466.64,386.32v-2.7c0-10.01-.05-20.03.05-30.04.02-1.96-.42-2.68-2.52-2.54-3.14.21-3.14.06-3.04-3.1-.05-1.51-.01-3.03.12-4.54.1-.61.98-1.54,1.52-1.56,5.91-.13,11.83-.15,17.74-.05.51,0,1.37,1.07,1.43,1.71.19,1.88.05,3.79.08,5.68.02,1.55-.55,2.14-2.21,1.94-3.29-.38-3.31-.3-3.31,3.18,0,9.94-.05,19.89.08,29.81.03,2.23-.77,2.75-2.77,2.56-2.32-.22-4.64-.24-7.17-.36"/>
            <path id="Path_62236" data-name="Path 62236" class="cls-3" d="M189.76,255.13q-.66-6.86,5.77-6.86c10.92,0,21.84.03,32.76-.03,3.3-.03,6.47,1.29,8.78,3.65,3.77,3.47,4.02,9.34.54,13.11-.87.95-1.94,1.71-3.12,2.22-1.54.73-3.19,1.27-4.92,1.96,1.78,2.09,3.43,4.03,5.09,5.97,1.61,1.88,3.24,3.74,5.08,5.86-.54.2-1.09.35-1.66.44-3.48.02-6.98.14-10.46-.08-1.39-.08-2.72-.63-3.76-1.57-2.73-2.84-5.3-5.84-7.7-8.97-.85-1.27-2.28-2.02-3.81-1.99-2.12-.02-4.25.06-6.37-.06-1.66-.1-2.11.52-1.99,2.12.18,2.49.09,5,.2,7.5.08,1.94-.47,2.92-2.7,2.8-3.18-.18-6.37-.08-9.55,0-1.75.05-2.41-.6-2.38-2.39.09-4.93.1-9.86-.03-14.79-.05-1.9.58-2.5,2.45-2.49,10.24.07,20.48.07,30.72,0,1.35.05,2.69-.2,3.92-.74,1.29-.43,1.99-1.82,1.56-3.11-.26-.78-.88-1.38-1.67-1.6-1.55-.58-3.19-.85-4.85-.8-10.01-.08-20.02-.06-30.03-.08-.59,0-1.19-.07-1.91-.11"/>
            <path id="Path_62237" data-name="Path 62237" class="cls-3" d="M157.64,281.31c-4.48,0-8.95.08-13.42-.02-4.05.15-7.84-1.97-9.84-5.49-.69-1.17-1.1-2.48-1.19-3.84-.2-7.42-.25-14.85-.26-22.28.16-.63.64-1.13,1.27-1.33,4.02-.09,8.04-.04,12.06-.02,1.31,0,1.56.72,1.53,1.93-.14,5.68-.19,11.37-.25,17.05,0,.91,0,1.82.08,2.72.28,3.31,1.08,4.1,4.37,4.14,3.79.04,7.58.02,11.38,0,3.18,0,4.36-1.14,4.37-4.4.03-6.3.08-12.6-.05-18.89-.04-1.94.43-2.75,2.49-2.67,3.41.14,6.83.12,10.24.06,1.58-.03,2.1.56,2.08,2.14-.09,6.44-.02,12.89-.1,19.34.27,6.15-4.5,11.36-10.65,11.63-.46.02-.92.01-1.37-.02-4.25-.05-8.49,0-12.74,0v-.05"/>
            <path id="Path_62238" data-name="Path 62238" class="cls-3" d="M317.49,269.56c0,3.57-.05,6.59.02,9.61.04,1.54-.44,2.15-2.08,2.09-3.31-.11-6.67-.08-10,.03-1.66.05-2.32-.55-2.32-2.21,0-9.7-.05-19.41-.14-29.11,0-1.57.88-1.72,2.03-1.72,3.57,0,7.13.03,10.69,0,1.49-.02,1.99.61,1.93,2.07-.09,3.01-.03,6.03-.03,9.46.58-.31,1.13-.66,1.66-1.05,3.39-3.02,6.76-6.08,10.17-9.09.61-.54,1.36-1.27,2.06-1.28,5.1-.11,10.21-.06,15.58-.06-.23.6-.25.94-.43,1.1-5.35,4.69-10.69,9.4-16.11,14.01-1.51,1.29-.6,2.06.33,2.88,4.64,4.14,9.28,8.25,13.92,12.39.78.69,1.52,1.41,2.51,2.34-.5.19-1.02.32-1.55.4-4.09,0-8.19.14-12.27-.14-1.62-.18-3.15-.83-4.4-1.87-3.17-2.58-6.1-5.45-9.15-8.17-.77-.61-1.58-1.17-2.41-1.68"/>
            <path id="Path_62239" data-name="Path 62239" class="cls-3" d="M409.73,281.16c-4.38,0-8.44.12-12.48-.11-.81-.05-1.79-1.33-2.25-2.23-.99-2.52-3.58-4.03-6.27-3.65-5.97.3-11.98.13-17.96.05-1.6-.02-2.79.25-3.41,1.88-.98,3.24-4.35,5.12-7.62,4.27-2.7-.2-5.42-.22-8.12-.07.23-.64.5-1.26.81-1.86,6.4-9.94,12.79-19.89,19.27-29.75.61-.8,1.53-1.31,2.54-1.41,4.09-.14,8.19-.14,12.27.05,1.14.12,2.19.7,2.9,1.6,6.7,10,13.28,20.08,19.89,30.17.17.35.31.7.43,1.07M380.31,256.02l-7.33,12.11h15.14l-7.81-12.11"/>
            <path id="Path_62240" data-name="Path 62240" class="cls-3" d="M260.81,267.85c-.29.47-.36.53-.36.59-.23,6.96-.77,5.67,5.18,5.69,9.41.04,18.82.01,28.23-.1,1.99-.02,2.6.62,2.56,2.61-.12,5.45.33,4.45-4.51,4.49-14.34.1-28.68.02-43.03.14-2.35.02-2.95-.73-2.87-3,.18-4.93.08-9.87.04-14.8,0-1.24.17-1.94,1.71-1.94,14.87.06,29.75.12,44.62,0,2.71-.03,2.5,1.41,2.5,3.13s.07,3.22-2.56,3.19c-9.79-.12-19.58,0-29.37,0h-2.15"/>
            <path id="Path_62241" data-name="Path 62241" class="cls-3" d="M91.4,268c-.09,1.66-.18,3.07-.25,4.5-.08,1.57,1.05,1.64,2.15,1.64,3.72,0,7.43-.04,11.15-.05,6.67,0,13.35.03,20.02-.07,2.08-.03,2.74.66,2.61,2.78-.29,4.37-.18,4.38-4.64,4.38-14.33,0-28.66-.06-42.98.02-2.16,0-2.9-.56-2.83-2.79.16-4.85.11-9.71.02-14.56-.03-1.66.45-2.29,2.17-2.28,14.71.04,29.43.03,44.14-.02,1.96,0,2.48.76,2.48,2.52,0,3.59-.06,3.65-3.52,3.65-9.4,0-18.81.05-28.21.1-.66,0-1.33.09-2.28.16"/>
            <path id="Path_62242" data-name="Path 62242" class="cls-3" d="M246.21,255.29q-.61-7.01,6.05-7c13.8,0,27.59.03,41.39-.06,2.22,0,3.03.41,2.82,2.9-.38,4.42-.18,4.4-4.74,4.39-14.7-.04-29.4-.06-44.11-.07-.47-.03-.95-.09-1.42-.17"/>
            <path id="Path_62243" data-name="Path 62243" class="cls-3" d="M76.65,255.32c0-2.04-.08-3.85.06-5.64.04-.47.68-1.01,1.18-1.28.51-.15,1.04-.19,1.56-.11h44.31c3.31,0,3.28.05,3.25,3.31-.04,3.89.91,4-4.08,3.98-13.94-.02-27.87-.04-41.81-.05-1.42,0-2.83-.14-4.47-.22"/>
            <path id="Path_62244" data-name="Path 62244" class="cls-3" d="M520.89,255.58h12.66c1.06,0,2.12-.04,3.19.02,1.81.11,2.62-.66,3.12-2.49,1.35-4.88,2.98-9.69,4.54-14.52.23-.42.5-.81.81-1.18,1.66,5.5,3.29,10.5,4.64,15.58.5,1.9,1.28,2.65,3.23,2.59,4.55-.1,9.1-.05,13.65-.02.86,0,1.71.18,3.27.36-1.04.84-1.51,1.26-2.02,1.62-4.02,2.84-8.02,5.72-12.09,8.48-1.07.53-1.5,1.82-.97,2.88.03.05.06.11.09.16,1.82,4.73,3.53,9.5,5.27,14.25.11.49.18.98.21,1.48-.61-.21-1.19-.47-1.75-.79-3.82-2.73-7.71-5.39-11.39-8.29-1.2-1.36-3.27-1.5-4.64-.3-.1.09-.19.18-.28.28-3.44,2.85-7.08,5.46-10.67,8.13-.79.48-1.61.9-2.46,1.27.37-1.29.51-1.91.72-2.51,1.56-4.51,3.13-9.01,4.71-13.51.6-1.37.02-2.98-1.33-3.65-3.95-2.69-7.8-5.5-11.71-8.23-.47-.25-.97-.45-1.49-.58l.71-1.06"/>
            <path id="Path_62245" data-name="Path 62245" class="cls-2" d="M380.34,256.01l7.81,12.11h-15.15l7.33-12.11"/>
          </g>
        </g>
      </g>
    </g>
  </g>
</svg>