<svg id="Global_poker_dark_logo" data-name="Global poker dark logo" xmlns="http://www.w3.org/2000/svg" width="150" height="61.555" viewBox="0 0 150 61.555">
  <path id="Path_1404" data-name="Path 1404" d="M98.749,13.468a7.574,7.574,0,0,0,2.021-5.13c0-4.663-3.42-7.772-8.7-7.772H82.273v10.57h-2.8v5.6h2.8v11.5h9.948c5.6,0,9.482-3.42,9.482-8.549a7.741,7.741,0,0,0-2.953-6.218M88.49,6.318h3.42A2.061,2.061,0,0,1,94.241,8.65c0,1.554-.777,2.332-2.176,2.332H88.49Zm3.886,16.166H88.49V16.732h3.886a2.657,2.657,0,0,1,2.8,2.953,2.538,2.538,0,0,1-2.8,2.8m-55.026,0V.567H31.133V28.235H48.542V22.484ZM62.687.1a14.132,14.132,0,0,0-14.3,14.145,14.225,14.225,0,1,0,28.446,0A13.99,13.99,0,0,0,62.687.1m0,22.694c-4.352,0-7.927-3.731-7.927-8.549a8.031,8.031,0,0,1,7.927-8.238,7.907,7.907,0,0,1,7.772,8.238c0,4.819-3.42,8.549-7.772,8.549m56.58-21.3-.311-.933h-5.6l-9.948,27.668h6.528l2.487-7.15h7.461l2.487,7.15H128.9Zm-4.974,13.99,1.865-5.285,1.865,5.285h-3.731Zm24.715,6.995V.567h-6.218V28.235H150.2V22.484ZM20.1,13v7.461a8.659,8.659,0,0,1-5.751,2.332c-4.508,0-7.772-3.575-7.772-8.394,0-4.974,3.264-8.238,8.083-8.238a9.032,9.032,0,0,1,6.062,2.176l1.244.933,3.264-4.819-.777-.777c-.311-.311-3.731-3.42-10.1-3.42A13.85,13.85,0,0,0,.2,14.556c0,8.238,5.907,14.3,13.679,14.3a11.96,11.96,0,0,0,6.373-1.71V28.39h5.907V13Z" transform="translate(-0.2 -0.099)"/>
  <g id="Group_407" data-name="Group 407" transform="translate(12.591 32.954)">
    <path id="Path_1405" data-name="Path 1405" d="M46.849,21.3A14.3,14.3,0,1,0,60.994,35.445,13.9,13.9,0,0,0,46.849,21.3Zm6.995,16.321a3.413,3.413,0,0,1-3.42,1.71,3.53,3.53,0,0,1-2.487-.933h-.155a.334.334,0,0,0-.311.311c.311,1.865.933,4.041,2.332,4.819v.155c0,.155,0,.155-.155.155H43.74c-.155,0-.155,0-.155-.155a.152.152,0,0,1,.155-.155c1.4-.777,2.021-3.109,2.332-4.819a.334.334,0,0,0-.311-.311.152.152,0,0,0-.155.155,4.3,4.3,0,0,1-2.487.777,3.31,3.31,0,0,1-3.42-1.71q-1.4-2.565.933-5.13c1.244-1.4,3.575-2.953,5.44-4.663a1.127,1.127,0,0,1,1.554,0c1.71,1.71,4.041,3.264,5.44,4.663,1.4,1.71,1.71,3.42.777,5.13Zm24.093-2.642,8.238-13.368h-7.15l-6.373,10.57H71.1V21.611H64.88V49.435H71.1v-11.5h1.554l6.684,11.5h7.15Zm18.5,8.7V38.4h8.86V32.492h-8.86V27.518h10.881V21.611H90.062V49.435h17.876V43.683ZM21.2,21.611H11.1V34.357H8.3v5.6h2.8v9.482h6.373V40.264H21.2c5.44,0,9.171-3.886,9.171-9.326s-3.731-9.326-9.171-9.326m-3.731,5.907h3.264c2.176,0,3.264,1.244,3.264,3.42a3.228,3.228,0,0,1-3.42,3.575H17.316ZM131.253,43.683h-.466l-3.109-6.062a8.119,8.119,0,0,0,3.575-7.15c0-5.13-3.575-8.7-8.86-8.7h-9.948V49.435h6.373V39.486h1.865c.933,0,.933,0,1.244.622l3.42,6.684c1.088,2.176,2.332,2.642,4.663,2.642h3.109V43.683ZM118.663,27.518h3.264c1.865,0,2.8,1.088,2.8,3.109,0,1.4-.466,3.109-2.953,3.109h-3.264Z" transform="translate(-8.3 -21.3)"/>
  </g>
  <g id="Group_408" data-name="Group 408" transform="translate(134.767 33.265)">
    <path id="Path_1406" data-name="Path 1406" d="M89.387,21.5v.622h-.933v2.642h-.622V22.122H86.9V21.5Zm2.176,1.865h0a.481.481,0,0,1,.155.311v-.155l-.155-.155,1.088-1.71.155-.155h.777v3.264h-.622V22.277l-.933,1.865c0,.155-.155.155-.311.155s-.155,0-.311-.155L90.32,22.277v2.487H89.7V21.5h.777l.155.155Z" transform="translate(-86.9 -21.5)"/>
  </g>
</svg>
