<svg xmlns="http://www.w3.org/2000/svg" xmlns:xlink="http://www.w3.org/1999/xlink" width="160" height="56.374" viewBox="0 0 160 56.374">
  <defs>
    <clipPath id="clip-path">
      <rect id="Rectangle_1603" data-name="Rectangle 1603" width="160" height="50.188" fill="none"/>
    </clipPath>
  </defs>
  <g id="The_Hendon_Mob_dark_logo" data-name="The Hendon Mob dark logo" transform="translate(-123 -4686.513)">
    <g id="Group_14568" data-name="Group 14568" transform="translate(123 4686.513)">
      <path id="Path_62361" data-name="Path 62361" d="M98.789,50.862c0,.068,0,.136,0,.2,0-.068,0-.136,0-.2" transform="translate(-55.144 4.116)" fill="#191919"/>
      <path id="Path_62367" data-name="Path 62367" d="M98.772,53.091a.1.1,0,0,1,0,.1.385.385,0,0,1-.027-.071c0-.008.02-.019.031-.028" transform="translate(-55.124 3.183)" fill="#191919"/>
      <path id="Path_62369" data-name="Path 62369" d="M98.781,51.788a.109.109,0,0,1,0,.1.446.446,0,0,1-.033-.072c0-.006.02-.02.031-.03" transform="translate(-55.127 3.728)" fill="#191919"/>
      <g id="Group_14566" data-name="Group 14566" transform="translate(48.794 40.416)">
        <path id="Path_62311" data-name="Path 62311" d="M164.445,76.093c0-.065.006-.13.009-.2v-.344l-.074-.017-.127.36c-.3.824-.583,1.657-.926,2.464a.716.716,0,0,1-.571.316.747.747,0,0,1-.551-.363c-.335-.793-.61-1.61-.907-2.418-.019-.088-.038-.176-.057-.264l-.1.009v.241c.024,1.422.056,2.844.056,4.266,0,.1-.229.281-.367.3-.228.028-.54.069-.531-.339.011-.486.009-.973.009-1.46q0-2.429,0-4.859c.906-.222,1.025-.166,1.331.694.343.963.675,1.931,1.012,2.9l.058.169.151-.1c.362-.972.728-1.943,1.084-2.918.313-.859.308-.861,1.382-.764v1.908q.009,2,.016,4c-.046.795-.046.795-.755.784l-.119-.028a2.937,2.937,0,0,1-.1-.554c.011-1.215.037-2.43.058-3.645l.023-.142" transform="translate(-115.7 -70.239)" fill="#e15828"/>
        <path id="Path_62312" data-name="Path 62312" d="M211.885,79.123l.056-3.592c.155-.012.309-.031.464-.033.413-.006.826,0,1.239-.006.216,0,.483-.09.64,0a2.139,2.139,0,0,0,1.645.036c1.189-.221,1.754.262,1.768,1.46q.022,1.92.008,3.841c0,.672-.519.263-.8.35l-.126-.056c-.006-1.276-.023-2.553-.016-3.829.005-.929-.217-1.114-1.149-.9l-.111.028a1.679,1.679,0,0,0-.225.55c-.015,1.147,0,2.295.007,3.442,0,.77,0,.77-.767.791l-.118-.024a1.6,1.6,0,0,1-.1-.4c.009-1.238.029-2.476.046-3.714l-.009-.13c-.028-.549-.386-.6-.834-.582-.467.023-.659.2-.643.7.037,1.151.009,2.3.012,3.456,0,.725,0,.725-.755.648l-.195-.206q-.018-.919-.037-1.837" transform="translate(-137.313 -70.983)" fill="#e15828"/>
        <path id="Path_62314" data-name="Path 62314" d="M109.652,80.453a1.05,1.05,0,0,1-.092-.3q.005-3.013.024-6.027c0-.106.019-.212.034-.363l.579-.051.374.243q-.02,1.3-.04,2.591l.1.126c.453.017.907.022,1.359.054.377.026.5-.109.5-.5-.02-.827.013-1.656.024-2.483l.843-.008c.025.425.068.85.071,1.275.012,1.737.011,3.474.015,5.21l-.04.153c-.78.256-.938.148-.933-.624,0-.681,0-1.363,0-2.152-.588,0-1.155-.014-1.718.016-.079,0-.2.223-.208.346-.019.574,0,1.15,0,1.725,0,.777,0,.777-.773.789l-.115-.028" transform="translate(-94.445 -70.256)" fill="#e15828"/>
        <path id="Path_62315" data-name="Path 62315" d="M179.667,73.009q-.029.689-.057,1.378l.188.174a7.178,7.178,0,0,1,1.181-.115,1.105,1.105,0,0,1,1.1,1.169q.027,1.649,0,3.3a1.171,1.171,0,0,1-1.043,1.2c-.767.067-1.545.016-2.341.016V73.335a2.95,2.95,0,0,1,.005-.353c.21.03.752,0,.962.027m.036,6.253.1.044.326,0c.9-.021,1.024-.15,1.016-1.052-.008-.755-.005-1.511-.008-2.266,0-.548-.2-.734-.764-.707-.644.031-.793.188-.75.771.017.232.019.467.023.7q.027,1.257.051,2.514" transform="translate(-123.409 -69.948)" fill="#e15828"/>
        <path id="Path_62316" data-name="Path 62316" d="M224.915,81.192c0,.44-.009.8,0,1.152.014.456-.327.329-.572.352s-.453.006-.45-.352c.016-2.213.013-4.425.021-6.638a.956.956,0,0,1,.059-.236c.726,0,1.425-.021,2.121.006a1.092,1.092,0,0,1,1.2,1.224c.022,1.007.018,2.015,0,3.023a1.325,1.325,0,0,1-1.478,1.469c-.287.008-.574,0-.91,0m-.037-.834c.36-.016.646-.022.931-.043a.553.553,0,0,0,.574-.591c.011-.937.009-1.875,0-2.811,0-.374-.235-.544-.59-.574-.75-.063-.923.1-.917.847,0,.558,0,1.117,0,1.676v1.5" transform="translate(-142.344 -70.987)" fill="#e15828"/>
        <path id="Path_62317" data-name="Path 62317" d="M272.158,75.782a1.772,1.772,0,0,1,.166.232,1.339,1.339,0,0,1,.144.714c.043.989.033,1.981.019,2.972-.015,1.033-.471,1.475-1.5,1.5-.3.006-.609,0-.986,0,.023.515.043.971.065,1.468h-.938V75.482H271.5c.587.06.233.021.486.123M270.009,78.4h.013c0,.45-.015.9.006,1.35.01.231-.18.568.288.615.732.072,1.169-.084,1.184-.522.033-1.006.031-2.016,0-3.022-.016-.49-.434-.465-.777-.426s-.766-.039-.719.55c.039.483.008.971.008,1.457" transform="translate(-161.293 -70.996)" fill="#e15828"/>
        <path id="Path_62318" data-name="Path 62318" d="M136.872,72.858a.1.1,0,0,0,.056.084l.026.111.016.211c0,2.125-.008,4.249.013,6.374,0,.432-.08.571-.551.5a9.22,9.22,0,0,0-1.515-.013c-.873.018-1.22-.242-1.268-1.1-.058-1.024-.063-2.052-.051-3.077a4.491,4.491,0,0,1,.211-.938,1.9,1.9,0,0,1,1.687-.639c.241.008.544.084.5-.336a3.605,3.605,0,0,0,.017-.362c-.045-.876-.046-.876.859-.813m-.858,2.55a.9.9,0,0,0-1.138-.055.945.945,0,0,0-.347.7c-.036.861,0,1.725,0,2.589a.55.55,0,0,0,.63.626c.625,0,.836-.153.843-.642.012-1.025.019-2.049.027-3.074l-.016-.148" transform="translate(-104.513 -69.886)" fill="#e15828"/>
        <path id="Path_62319" data-name="Path 62319" d="M91.719,80.1c-.764,0-.755,0-.754-.789,0-2,.008-4-.015-6,0-.361.113-.482.455-.49s.551.1.531.491c-.02.373,0,.748,0,1.184.272-.047.511-.1.753-.128a1.3,1.3,0,0,1,1.648,1.413c.005,1.4,0,2.809,0,4.212-.8.289-.964.179-.965-.633,0-1.153,0-2.306,0-3.459,0-.509-.214-.707-.731-.688-.615.023-.748.164-.741.729q.024,1.863.025,3.728a1.732,1.732,0,0,1-.1.4l-.11.026" transform="translate(-86.649 -69.879)" fill="#e15828"/>
        <path id="Path_62320" data-name="Path 62320" d="M258.522,74.5a5.835,5.835,0,0,1,.8-.137c.842-.029,1.406.363,1.433,1.134.054,1.5.016,3.013.016,4.517-.845.22-.945.146-.939-.642q.012-1.728.007-3.456c0-.508-.233-.721-.734-.707-.623.018-.779.19-.767.77.026,1.277.036,2.554.046,3.832a.824.824,0,0,1-.083.249l-.1.032c-.145.005-.29.008-.435.015-.275.015-.368-.094-.365-.385q.034-3.218.028-6.438c0-.306.058-.479.414-.465.331.013.572.07.533.482-.033.34-.036.684-.052,1.026l.2.171" transform="translate(-156.379 -69.879)" fill="#e15828"/>
        <path id="Path_62321" data-name="Path 62321" d="M197.886,74.455l.267-.048c1.223-.22,1.843.263,1.869,1.5.027,1.315.02,2.63.028,3.945l-.105.214-.432.038c-.35.028-.466-.124-.459-.478.024-1.187-.028-2.377.033-3.561.049-.945-.7-.994-1.282-.722-.135.063-.227.351-.228.537-.009,1.259-.015,2.518.034,3.776.02.521-.311.421-.6.449-.365.035-.386-.179-.382-.476.022-1.51.021-3.021.027-4.531l0-.112c0-.572.016-1.145,0-1.716-.008-.313.092-.467.429-.456.313.011.508.081.5.457-.01.4.039.8.062,1.206l.231-.021" transform="translate(-130.923 -69.877)" fill="#e15828"/>
        <path id="Path_62322" data-name="Path 62322" d="M170.881,76.555c.2-1,.951-1.24,1.831-1.294l.437.077a1.527,1.527,0,0,1,1.164,1.667c-.007.847.009,1.693,0,2.539a1.467,1.467,0,0,1-1.184,1.636,1.812,1.812,0,0,1-2.185-.947q-.031-1.84-.062-3.679m1.414-.354-.128.027c-.121.213-.339.422-.346.639-.034.9-.014,1.8.006,2.7.013.622.22.838.741.833.55-.006.784-.251.79-.865.008-.829,0-1.657,0-2.486-.008-.777-.26-.975-1.057-.848" transform="translate(-120.135 -70.903)" fill="#e15828"/>
        <path id="Path_62323" data-name="Path 62323" d="M125.952,75.384c.589.019,1.18.069,1.767.048a1.3,1.3,0,0,1,1.518,1.173q.016,2.161.031,4.322l-.016.126-.013.019-.1.094-.752.035-.128-.067c0-1.351.014-2.7-.009-4.053,0-.238-.118-.646-.25-.676a2.872,2.872,0,0,0-1.105.048c-.062.011-.1.314-.1.483-.008,1.384,0,2.769,0,4.148-.851.221-.945.153-.945-.647,0-1.515,0-3.03,0-4.545a2.578,2.578,0,0,1,.105-.507" transform="translate(-101.267 -70.955)" fill="#e15828"/>
        <path id="Path_62324" data-name="Path 62324" d="M238.488,75.851l.291,1.571c0,.7.01,1.4.008,2.106a1.44,1.44,0,0,1-.762,1.493,1.98,1.98,0,0,1-2.065-.116,1.65,1.65,0,0,1-.565-1.087c-.079-1.02-.045-2.051-.029-3.076a1.464,1.464,0,0,1,.959-1.379c.325-.029.779-.073,1.1-.1,1.09.245.784.454,1.058.591m-1.256.314-.152-.023-.314.062-.112.024c-.378.09-.378.4-.379.684,0,.9,0,1.8.026,2.7.016.574.235.789.736.79.533,0,.79-.234.8-.8.017-.9.006-1.8.007-2.7,0-.413-.162-.694-.612-.739" transform="translate(-147.141 -70.902)" fill="#e15828"/>
        <path id="Path_62325" data-name="Path 62325" d="M102.051,78.694H99.711c-.411,1.144-.036,1.687,1.08,1.656.357-.01.712-.06,1.064-.092.15.793.128.825-.628.9a4.9,4.9,0,0,1-.6.03c-1.5-.027-1.968-.506-1.967-2,0-.74-.012-1.479,0-2.219a1.506,1.506,0,0,1,1.7-1.661,1.478,1.478,0,0,1,1.7,1.642c0,.557,0,1.113,0,1.743m-1.626-.751c.284-.046.79.178.758-.547-.046-1.04-.16-1.267-.822-1.255s-.741.214-.78,1.234c-.023.632.352.592.844.568" transform="translate(-89.877 -70.923)" fill="#e15828"/>
        <path id="Path_62326" data-name="Path 62326" d="M120.445,75.345l.609.26a1.925,1.925,0,0,1,.5,1.569c-.02.444-.013.889-.017,1.334l-.128.176-2.16.042-.131.078c-.184,1.274.143,1.629,1.409,1.521.281-.024.561-.06.838-.089.124.815.118.826-.589.905a5.1,5.1,0,0,1-.6.035c-1.526-.012-2.012-.5-2.008-2,0-.647-.036-1.3,0-1.942a11.688,11.688,0,0,1,.216-1.317,2.181,2.181,0,0,1,1.731-.639l.327.071m.112,2.518.093-.117a6.638,6.638,0,0,0-.007-1.015.741.741,0,0,0-.318-.5c-.365-.185-.9-.245-1.055.142a4.278,4.278,0,0,0-.073,1.489c0,.024.125.074.19.071.39-.016.779-.044,1.169-.067" transform="translate(-98.047 -70.908)" fill="#e15828"/>
        <path id="Path_62327" data-name="Path 62327" d="M243.286,75.521a.155.155,0,0,0,.027-.078c.641.011,1.282.027,1.923.032a1.214,1.214,0,0,1,1.314,1.317c.013,1.387.01,2.774.013,4.162l-.047.151c-.757.254-.919.148-.917-.593,0-1.168.007-2.336,0-3.5,0-.508-.227-.718-.728-.7-.6.023-.776.188-.77.722.015,1.239.03,2.479.037,3.719a2.1,2.1,0,0,1-.079.411l-.1.031a2.829,2.829,0,0,0-.322.006c-.345.046-.469-.059-.457-.438.03-.943,0-1.888,0-2.832q.019-1.134.038-2.268l.068-.141" transform="translate(-150.423 -70.979)" fill="#e15828"/>
        <path id="Path_62328" data-name="Path 62328" d="M141.613,75.855a2.261,2.261,0,0,1,2.142-.427,1.324,1.324,0,0,1,1,1.372c.013,1.045,0,2.09-.008,3.135-.019.083-.039.166-.059.249-.273.859-.96,1.2-2.088,1.049a1.332,1.332,0,0,1-1.239-1.439c-.021-1.005-.021-2.012.01-3.016a4.273,4.273,0,0,1,.237-.923m2.217,1.024c-.1-.567-.332-.753-.859-.726-.511.026-.687.342-.693.785-.013.915-.02,1.832,0,2.747.009.546.3.766.839.733a.679.679,0,0,0,.731-.748c0-.879,0-1.758-.005-2.638,0-.051-.005-.1-.008-.153" transform="translate(-107.764 -70.936)" fill="#e15828"/>
        <path id="Path_62329" data-name="Path 62329" d="M204.853,75.435a10.279,10.279,0,0,1,1.5.1,1.181,1.181,0,0,1,1.01,1.216c.028.463.02.928.028,1.392,0,.879-.01,1.759.008,2.637.009.457-.147.551-.593.445a3.373,3.373,0,0,0-1.116-.021c-.988.105-1.562-.1-1.681-.762-.245-1.349-.023-1.868.933-2.281.116-.05.234-.093.351-.139a4.289,4.289,0,0,1,.575-.107c.644-.034.665-.453.628-.938a.672.672,0,0,0-.774-.69c-.143,0-.285-.014-.428-.021l-.107,0-.532.066-.354.029-.134-.162c0-.041,0-.081,0-.121-.07-.531.352-.542.689-.644m1.615,3.676c.069-.479-.092-.661-.564-.422-.342.173-.819.278-.976.557a1.07,1.07,0,0,0,.158,1.024,1.4,1.4,0,0,0,1.055.1c.41-.084.338-.492.333-.815,0-.108-.007-.216-.01-.324,0-.04,0-.078,0-.118" transform="translate(-133.972 -70.976)" fill="#e15828"/>
        <path id="Path_62330" data-name="Path 62330" d="M149.118,80.1l.046-4.33c0-.3.155-.323.418-.3a10.073,10.073,0,0,0,1.432.016,1.228,1.228,0,0,1,1.49,1.238c.047,1.384.041,2.771.054,4.156,0,.468-.363.282-.6.314-.275.04-.424-.019-.413-.37.034-1.115.033-2.231.026-3.348-.008-1.249-.2-1.372-1.424-.97l-.069.131v4.593l-.912-.139c-.007-.051-.015-.1-.022-.152q-.016-.419-.031-.838" transform="translate(-111.018 -70.988)" fill="#e15828"/>
        <path id="Path_62332" data-name="Path 62332" d="M192.72,73.978l.036.634c-.428-.035-.817-.089-1.207-.094-.775-.009-1.008.231-1,.981,0,1.117,0,2.235.013,3.352.007.613.181.787.8.825a5.618,5.618,0,0,0,.705-.025c.21-.015.42-.041.625-.062.124.805.108.83-.594.909a4.574,4.574,0,0,1-.488.03c-1.55,0-2.018-.456-2.019-1.98,0-1.1-.005-2.2,0-3.3a1.356,1.356,0,0,1,1.35-1.514,11.421,11.421,0,0,1,1.662.079l.114.163" transform="translate(-127.972 -70.258)" fill="#e15828"/>
        <path id="Path_62333" data-name="Path 62333" d="M250.4,80.515a2.261,2.261,0,0,1,.53-.171,11.006,11.006,0,0,0,1.178-.034c.2-.036.5-.264.513-.424a1.053,1.053,0,0,0-.273-.784,6.468,6.468,0,0,0-1.115-.65,1.682,1.682,0,0,1-.75-2.1,1.42,1.42,0,0,1,1.453-.908c.271-.01.543,0,.814.01.474.019.755.218.673.74l-.092.124-1.542,0-.14.047a.806.806,0,0,0,.05,1.345c.349.221.731.39,1.09.6a1.521,1.521,0,0,1,.778,1.788,1.253,1.253,0,0,1-1.342,1.092,13,13,0,0,1-1.751-.12l-.03-.117c-.009-.064-.019-.128-.028-.192-.005-.08-.011-.161-.016-.241" transform="translate(-153.442 -70.979)" fill="#e15828"/>
        <path id="Path_62334" data-name="Path 62334" d="M84.9,79.241c.015-1.457.038-2.914.026-4.37,0-.123-.23-.31-.385-.351a5.549,5.549,0,0,0-.911-.1c-.131-.106-.065-.28-.078-.37,0-.345.211-.375.554-.351a5.937,5.937,0,0,0,.7-.031c.653.013,1.3.037,1.957.035.332,0,.5.162.428.454a.64.64,0,0,1-.419.33,5.482,5.482,0,0,1-.881.1v3.986c0,.361-.008.722,0,1.082.018.856.192.854-.993.741Z" transform="translate(-83.548 -70.235)" fill="#e15828"/>
        <path id="Path_62336" data-name="Path 62336" d="M232.728,75.827c0,1.584-.01,3.167-.009,4.751,0,.723-.235.859-.965.544,0-.039,0-.078-.006-.117v-5.44l.934.117.046.145" transform="translate(-145.634 -71.03)" fill="#e15828"/>
        <path id="Path_62337" data-name="Path 62337" d="M265.312,75.653c.922-.065.916-.065.918.736,0,1.491.021,2.982.005,4.472,0,.146-.193.4-.308.409-.224.013-.61.13-.612-.309-.009-1.758,0-3.515,0-5.309" transform="translate(-159.694 -71.057)" fill="#e15828"/>
        <path id="Path_62338" data-name="Path 62338" d="M265.481,72.769c.33-.017.7-.051.738.4a.681.681,0,0,1-.24.566.764.764,0,0,1-.683-.073.541.541,0,0,1,.074-.846l.11-.043" transform="translate(-159.616 -69.856)" fill="#e15828"/>
        <path id="Path_62339" data-name="Path 62339" d="M232.2,73.782c-.361.041-.578-.119-.579-.5a.483.483,0,0,1,.538-.532c.333,0,.543.139.547.511,0,.344-.1.564-.506.524" transform="translate(-145.582 -69.85)" fill="#e15828"/>
        <path id="Path_62343" data-name="Path 62343" d="M259.189,75.585l-.2-.171.2.171" transform="translate(-157.045 -70.967)" fill="#e15828"/>
        <path id="Path_62345" data-name="Path 62345" d="M180.456,75.574l-.188-.174.188.174" transform="translate(-124.067 -70.961)" fill="#e15828"/>
        <path id="Path_62348" data-name="Path 62348" d="M211.949,84.931l.195.206-.195-.206" transform="translate(-137.339 -74.954)" fill="#e15828"/>
        <path id="Path_62353" data-name="Path 62353" d="M202.332,85.139l.106-.214-.106.214" transform="translate(-133.31 -74.952)" fill="#e15828"/>
        <path id="Path_62354" data-name="Path 62354" d="M250.406,84.172c.005.08.011.161.016.241-.005-.08-.011-.161-.016-.241" transform="translate(-153.45 -74.636)" fill="#e15828"/>
        <path id="Path_62356" data-name="Path 62356" d="M123.754,81.016l.129-.176-.129.176" transform="translate(-100.392 -73.24)" fill="#e15828"/>
        <path id="Path_62357" data-name="Path 62357" d="M255.451,76.865l.092-.124-.092.124" transform="translate(-155.564 -71.523)" fill="#e15828"/>
        <path id="Path_62359" data-name="Path 62359" d="M198.623,75.639l-.231.021.231-.021" transform="translate(-131.66 -71.061)" fill="#e15828"/>
        <path id="Path_62364" data-name="Path 62364" d="M194.894,74.045l-.114-.163.114.163" transform="translate(-130.147 -70.325)" fill="#e15828"/>
        <path id="Path_62365" data-name="Path 62365" d="M258.775,85.311l.1-.033-.1.033" transform="translate(-156.956 -75.099)" fill="#e15828"/>
        <path id="Path_62366" data-name="Path 62366" d="M265.658,72.775l-.11.043.11-.043" transform="translate(-159.794 -69.862)" fill="#e15828"/>
        <path id="Path_62372" data-name="Path 62372" d="M99.208,69.113l.132.01-.132-.01" transform="translate(-90.109 -68.327)" fill="#e15828"/>
        <path id="Path_62374" data-name="Path 62374" d="M233.4,75.911l-.046-.145.046.145" transform="translate(-146.307 -71.115)" fill="#e15828"/>
        <path id="Path_62377" data-name="Path 62377" d="M204.344,76.542c0,.041,0,.081,0,.122,0-.041,0-.081,0-.122" transform="translate(-134.152 -71.44)" fill="#e15828"/>
        <path id="Path_62381" data-name="Path 62381" d="M218.113,77.111l.111-.028-.111.028" transform="translate(-139.922 -71.666)" fill="#e15828"/>
        <path id="Path_62382" data-name="Path 62382" d="M252.557,76.993l.14-.046-.14.046" transform="translate(-154.351 -71.609)" fill="#e15828"/>
        <path id="Path_62384" data-name="Path 62384" d="M150.779,77.389l.069-.131-.069.131" transform="translate(-111.713 -71.74)" fill="#e15828"/>
        <path id="Path_62385" data-name="Path 62385" d="M167.421,77.835l-.023.142.023-.142" transform="translate(-118.676 -71.981)" fill="#e15828"/>
        <path id="Path_62386" data-name="Path 62386" d="M216.107,78.025l.009.13-.009-.13" transform="translate(-139.081 -72.061)" fill="#e15828"/>
        <path id="Path_62389" data-name="Path 62389" d="M119.811,81.293l.131-.077-.131.077" transform="translate(-98.74 -73.398)" fill="#e15828"/>
        <path id="Path_62396" data-name="Path 62396" d="M116.169,85.075l.04-.152-.04.152" transform="translate(-97.214 -74.951)" fill="#e15828"/>
        <path id="Path_62397" data-name="Path 62397" d="M131.71,85.05l.016-.126-.016.126" transform="translate(-103.725 -74.951)" fill="#e15828"/>
        <path id="Path_62398" data-name="Path 62398" d="M149.171,84.886c.008.051.015.1.022.152-.008-.051-.015-.1-.022-.152" transform="translate(-111.04 -74.935)" fill="#e15828"/>
        <path id="Path_62399" data-name="Path 62399" d="M98.7,67.761c0,.05,0,.1-.006.15,0-.05,0-.1.006-.15" transform="translate(-89.894 -67.761)" fill="#e15828"/>
        <path id="Path_62400" data-name="Path 62400" d="M231.748,84.927c0,.039,0,.078.006.117,0-.039,0-.078-.006-.117" transform="translate(-145.634 -74.952)" fill="#e15828"/>
        <path id="Path_62401" data-name="Path 62401" d="M248.924,85.078l.047-.151-.047.151" transform="translate(-152.829 -74.952)" fill="#e15828"/>
        <path id="Path_62402" data-name="Path 62402" d="M250.483,84.917l.03.118-.03-.118" transform="translate(-153.482 -74.948)" fill="#e15828"/>
        <path id="Path_62404" data-name="Path 62404" d="M131.513,85.266l.1-.094-.1.094" transform="translate(-103.642 -75.055)" fill="#e15828"/>
        <path id="Path_62405" data-name="Path 62405" d="M220.309,85.217l.125.056-.125-.056" transform="translate(-140.842 -75.074)" fill="#e15828"/>
        <path id="Path_62406" data-name="Path 62406" d="M92.273,85.325l.11-.026-.11.026" transform="translate(-87.203 -75.108)" fill="#e15828"/>
        <path id="Path_62407" data-name="Path 62407" d="M109.719,85.309l.115.028-.115-.028" transform="translate(-94.512 -75.112)" fill="#e15828"/>
        <path id="Path_62408" data-name="Path 62408" d="M130,85.278l.128.067L130,85.278" transform="translate(-103.007 -75.099)" fill="#e15828"/>
        <path id="Path_62409" data-name="Path 62409" d="M167.471,85.306l.119.028-.119-.028" transform="translate(-118.706 -75.111)" fill="#e15828"/>
        <path id="Path_62410" data-name="Path 62410" d="M216.215,85.322l.118.024-.118-.024" transform="translate(-139.126 -75.118)" fill="#e15828"/>
        <path id="Path_62411" data-name="Path 62411" d="M244.524,85.315l.1-.031-.1.031" transform="translate(-150.986 -75.102)" fill="#e15828"/>
        <path id="Path_62528" data-name="Path 62528" d="M111.23,78.594l.1.126-.1-.126" transform="translate(-95.145 -72.299)" fill="#e15828"/>
        <path id="Path_62529" data-name="Path 62529" d="M180.428,83.791l.1.044-.1-.044" transform="translate(-124.134 -74.476)" fill="#e15828"/>
        <path id="Path_62530" data-name="Path 62530" d="M137.777,77.411c-.005-.049-.01-.1-.016-.148.006.049.011.1.016.148" transform="translate(-106.26 -71.742)" fill="#e15828"/>
        <path id="Path_62531" data-name="Path 62531" d="M243.313,75.577l-.068.141.068-.141" transform="translate(-150.45 -71.035)" fill="#e15828"/>
        <path id="Path_62532" data-name="Path 62532" d="M173.221,76.878l-.128.027.128-.027" transform="translate(-121.061 -71.58)" fill="#e15828"/>
        <path id="Path_62533" data-name="Path 62533" d="M237.708,76.886l-.112.024.112-.024" transform="translate(-148.084 -71.584)" fill="#e15828"/>
        <path id="Path_62534" data-name="Path 62534" d="M238.482,76.8l-.152-.023.152.023" transform="translate(-148.391 -71.539)" fill="#e15828"/>
        <path id="Path_62535" data-name="Path 62535" d="M122.288,79.645l.093-.117-.093.117" transform="translate(-99.778 -72.691)" fill="#e15828"/>
        <path id="Path_62536" data-name="Path 62536" d="M145.625,78.141c0-.051-.005-.1-.008-.153,0,.051.005.1.008.153" transform="translate(-109.551 -72.045)" fill="#e15828"/>
        <path id="Path_62537" data-name="Path 62537" d="M206.2,76.861l-.107,0,.107,0" transform="translate(-134.887 -71.573)" fill="#e15828"/>
      </g>
      <g id="Group_14565" data-name="Group 14565">
        <g id="Group_14562" data-name="Group 14562" clip-path="url(#clip-path)">
          <path id="Path_62552" data-name="Path 62552" d="M270.085,27.034q-1.558,4.129-3.116,8.258c-.746,1.979-1.526,3.947-2.215,5.946a1.244,1.244,0,0,1-1.384.984c-2.375-.029-4.752-.07-7.123.022a1.643,1.643,0,0,1-1.821-1.322c-1.741-4.674-3.521-9.335-5.534-13.991q0,.952,0,1.9c0,4.028-.027,8.056.028,12.083.014,1.022-.33,1.333-1.316,1.311-2.289-.051-4.581-.059-6.869,0-1.059.03-1.409-.336-1.4-1.388.045-4.154-.005-8.31.041-12.464.011-.966-.213-1.33-1.261-1.3-2.967.076-5.937.067-8.9.015-1.045-.019-1.405.313-1.393,1.375.046,4.112-.022,8.225.037,12.337.017,1.145-.382,1.465-1.47,1.431-2.118-.067-4.24-.016-6.36-.018-1.692,0-1.713-.017-1.713-1.69q0-13.419,0-26.837c0-2.194.006-2.2-2.148-2.217-2.078-.013-4.158.05-6.233-.026-1.045-.038-1.251.336-1.246,1.316.038,8.352.016,16.7.02,25.057,0,3.031-1.372,4.406-4.433,4.4-1.23,0-2.463-.066-3.688.01-1.116.068-1.474-.342-1.464-1.455.048-5.384.027-10.769.028-16.153,0-3.985-.033-7.971.015-11.956.012-.965-.3-1.246-1.234-1.219-2.119.061-4.241-.011-6.36.043-.94.024-1.284-.313-1.268-1.247q.059-3.5,0-7c-.015-.938.358-1.26,1.279-1.258q17.429.032,34.858,0c1.131,0,1.432.414,1.418,1.5-.055,4.239.015,8.48-.052,12.719-.019,1.2.383,1.529,1.536,1.5,2.882-.07,5.768-.08,8.649,0,1.171.035,1.4-.374,1.386-1.455-.059-4.239.011-8.48-.042-12.719-.014-1.14.289-1.578,1.5-1.545,2.839.076,5.682.05,8.522-.007a1.712,1.712,0,0,1,1.926,1.348c2.566,7.257,5.2,14.49,7.818,21.73.128.354.292.694.57,1.345.5-1.313.915-2.371,1.3-3.442,2.38-6.651,4.765-13.3,7.109-19.963a1.237,1.237,0,0,1,1.371-.981q15.521.03,31.041,0c1.052,0,1.4.328,1.365,1.382-.072,2.033-.091,4.073,0,6.1.055,1.177-.4,1.425-1.47,1.412-3.858-.045-7.718.021-11.576-.026-1-.012-1.3.28-1.29,1.285q.069,9.984.018,19.969c0,1,.283,1.308,1.294,1.291,3.942-.066,7.885-.027,11.828-.076.853-.011,1.214.187,1.188,1.122-.061,2.2-.049,4.409,0,6.613.017.838-.288,1.105-1.1,1.1q-14.63-.018-29.26.022c-1.066,0-1.138-.552-1.135-1.361.014-4.367.005-8.734,0-13.1,0-.235-.032-.47-.05-.7l-.217-.03m8.9-4.573h.149c0,4.238-.027,8.476.008,12.714a5.776,5.776,0,0,0,5.715,6.069c5.041.105,10.088-.03,15.132-.038.814,0,.985-.4.968-1.109-.036-1.525-.067-3.054.005-4.576.047-.979-.316-1.209-1.244-1.2-3.984.052-7.97,0-11.954.06-1.064.017-1.356-.315-1.35-1.364q.063-10.87,0-21.741c-.008-1.153.382-1.437,1.461-1.424,3.942.046,7.884-.01,11.827.023.9.008,1.315-.2,1.264-1.2-.076-1.479-.064-2.968,0-4.448.044-.969-.318-1.215-1.254-1.2-4.535.05-9.071.039-13.607.035-4.841,0-7.158,2.346-7.127,7.194.026,4.068.005,8.136.005,12.2" transform="translate(-141.866 -1.485)" fill="#e15828"/>
          <path id="Path_62553" data-name="Path 62553" d="M0,25.1V2.585C0,.5.444.021,2.528.018Q17.731,0,32.934.005c.975,0,1.951-.017,2.926.011,1.895.053,2.419.579,2.423,2.462.01,4.749,0,9.5,0,14.246q0,15.263.006,30.527c0,2.538-.4,2.937-2.958,2.937q-16.412,0-32.824-.007C.474,50.181,0,49.685,0,47.613Q0,36.356,0,25.1Zm5.659-7.661a6.064,6.064,0,0,0,.527,6.889,3.55,3.55,0,0,1,.43,1.752c.158,1.889.117,3.807.434,5.666a7.871,7.871,0,0,0,1.452,2.408c.188-2.005.173-3.821.194-5.637.01-.907.319-1.072,1.162-.56a28.425,28.425,0,0,0,4.27,2.2,1.691,1.691,0,0,1,1.2,1.637c.327,2.249.782,4.48,1.233,6.709A1.346,1.346,0,0,0,18.019,39.7c-.073-2.409-.117-4.728-.223-7.043-.05-1.089.248-1.324,1.388-1.116,3.493.637,7.014,1.129,10.535,1.6.456.06,1.361-.3,1.4-.562.144-1.044-.793-.665-1.34-.771-3.569-.7-7.14-1.384-10.709-2.081-.628-.123-.964-.429-.767-1.158.747-2.767,1.467-5.541,2.189-8.315.246-.945.781-1.02,1.7-.888,2.678.382,5.38.609,8.077.851a1.62,1.62,0,0,0,.962-.389.739.739,0,0,0-.121-.658,3.5,3.5,0,0,0-1.081-.285q-3.5-.58-7.012-1.14c-1.012-.162-1.145-.624-.595-1.454,1.652-2.49,3.275-5,5.1-7.79-.693.231-1.4.256-1.763.624-1.535,1.574-3.044,3.186-4.418,4.9-2.309,2.88-2.262,2.917-5.351.737-.069-.049-.133-.107-.206-.149-.849-.491-.906-1.089-.146-1.679,2.1-1.63,4.23-3.224,6.339-4.843.31-.238.578-.532.866-.8a8.115,8.115,0,0,0-1.5-.322,1.8,1.8,0,0,0-.93.377c-2.049,1.341-4.123,2.649-6.106,4.081-.749.541-1.032.43-1.145-.377-.118-.839-.139-1.691-.2-2.566-2.269,1.358-2.448,1.815-1.709,4.247a2.119,2.119,0,0,1,.19.6,2.712,2.712,0,0,1-.169,1.149c-1.16,2.194-2.363,4.365-3.56,6.54a4.87,4.87,0,0,1-.429.57c-.173-.168-.434-.305-.5-.508-.411-1.2-.777-2.406-1.16-3.606l.036.034.013-.067M37.279,33.731l.117-.012q0-14.83,0-29.659C37.4.823,37.4.823,34.209.828c-1.523,0-1.659.2-1.436,1.692q1.168,7.832,2.292,15.67,1.12,7.768,2.214,15.54M.956,24.335H.9Q.9,35.7.9,47.064c0,2.226.143,2.3,2.394,2.306.969,0,1.164-.407,1.048-1.23-.473-3.341-.929-6.686-1.4-10.027Q1.957,31.223.956,24.335M8.788,1.849c2.068-.289,4.133-.591,6.2-.888-.006-.045-.012-.089-.019-.133q-6.227,0-12.454,0c-.293,0-.727-.052-.85.108A8.514,8.514,0,0,0,.921,2.366m23.9,46.815q.006.086.012.171,5.625,0,11.249-.007c.245,0,.612-.022.711-.173a8.312,8.312,0,0,0,.592-1.312,2.961,2.961,0,0,0-1.059-.287c-3.839.512-7.672,1.065-11.506,1.607" transform="translate(0 0)" fill="#fff"/>
          <path id="Path_62554" data-name="Path 62554" d="M538.684,25.494c0-4.068.021-8.136-.005-12.2-.031-4.848,2.286-7.2,7.127-7.194,4.536,0,9.072.015,13.607-.035.935-.01,1.3.235,1.254,1.2-.067,1.48-.079,2.969,0,4.448.051,1-.363,1.2-1.264,1.2-3.942-.033-7.885.023-11.827-.023-1.079-.013-1.469.271-1.461,1.424q.076,10.87,0,21.741c-.006,1.049.286,1.381,1.35,1.364,3.984-.062,7.969-.008,11.954-.06.928-.012,1.291.218,1.244,1.2-.073,1.522-.041,3.051-.005,4.576.017.714-.154,1.108-.968,1.11-5.044.009-10.09.144-15.132.038a5.776,5.776,0,0,1-5.715-6.069" transform="translate(-401.568 -4.517)" fill="#fff"/>
          <path id="Path_62555" data-name="Path 62555" d="M19.782,37.859c.381,1.205.747,2.416,1.158,3.612.07.2.331.34.5.508a4.889,4.889,0,0,0,.429-.569c1.2-2.174,2.4-4.346,3.56-6.54a2.712,2.712,0,0,0,.169-1.149,2.118,2.118,0,0,0-.19-.6c-.739-2.432-.56-2.888,1.709-4.246.066.875.087,1.727.2,2.566.114.807.4.918,1.145.377,1.984-1.432,4.058-2.74,6.106-4.081a1.8,1.8,0,0,1,.93-.377,8.116,8.116,0,0,1,1.5.323c-.288.268-.555.561-.866.8C34.028,30.1,31.9,31.693,29.8,33.323c-.76.59-.7,1.188.146,1.679.073.042.137.1.206.149,3.089,2.18,3.043,2.143,5.351-.737,1.374-1.714,2.883-3.327,4.418-4.9.359-.368,1.07-.394,1.763-.624-1.821,2.789-3.444,5.3-5.1,7.79-.55.83-.417,1.292.595,1.453q3.508.56,7.012,1.14a3.5,3.5,0,0,1,1.081.284.74.74,0,0,1,.121.658,1.617,1.617,0,0,1-.962.389c-2.7-.242-5.4-.469-8.077-.851-.923-.132-1.458-.057-1.7.888-.721,2.774-1.442,5.548-2.189,8.315-.2.729.139,1.035.767,1.158,3.569.7,7.508,1.315,11.077,2.014.546.107,1.132-.023.971,1.086-.038.258-.387.509-1.4.315-3.521-.467-7.042-.959-10.535-1.6-1.14-.208-1.438.027-1.388,1.116.106,2.315.151,4.634.223,7.043A1.346,1.346,0,0,1,30.735,58.9c-.451-2.229-.906-4.46-1.233-6.709a1.691,1.691,0,0,0-1.2-1.637,28.39,28.39,0,0,1-4.27-2.2c-.844-.511-1.152-.347-1.162.56-.021,1.816-.006,3.631-.194,5.637a7.869,7.869,0,0,1-1.452-2.408c-.318-1.859-.277-3.776-.434-5.666a3.551,3.551,0,0,0-.43-1.753,6.064,6.064,0,0,1-.527-6.889Zm12.711,1.128a5.662,5.662,0,0,0-.72-.51,32.092,32.092,0,0,1-3.388-1.7c-.817-.541-1.238-.349-1.562.391-1.028,2.349-2.057,4.7-2.983,7.088a1.532,1.532,0,0,0,.439,1.376c1.362.988,2.811,1.857,4.247,2.74.655.4.918.263,1.149-.587.748-2.753,1.664-5.461,2.52-8.184a5.717,5.717,0,0,1,.3-.613" transform="translate(-14.165 -20.394)" fill="#e15828"/>
          <path id="Path_62556" data-name="Path 62556" d="M133.017,36.156q-1.106-7.77-2.214-15.54-1.13-7.838-2.292-15.67c-.222-1.493-.086-1.69,1.436-1.692,3.193-.006,3.188-.006,3.187,3.231q0,14.83,0,29.659Z" transform="translate(-95.738 -2.425)" fill="#e15828"/>
          <path id="Path_62557" data-name="Path 62557" d="M3.583,95.606q.992,6.889,1.982,13.778c.476,3.341.931,6.685,1.4,10.027.117.823-.079,1.234-1.048,1.23-2.251-.009-2.391-.08-2.394-2.306q-.012-11.365,0-22.729h.058" transform="translate(-2.626 -71.271)" fill="#e15828"/>
          <path id="Path_62558" data-name="Path 62558" d="M17.687,3.385c-2.067.3-4.133.6-6.2.888-2.261.317-5.34.7-7.607.967-.34.039-.231-.046-.26-.45.046-.527-.107-.98.214-1.4.122-.16,1.089-.135,1.381-.135q6.227-.009,12.454,0l.019.133" transform="translate(-2.699 -2.424)" fill="#e15828"/>
          <path id="Path_62559" data-name="Path 62559" d="M94.82,188.506c4.063-.573,8.124-1.162,12.191-1.7.92-.118.92.073,1.059.287a2.2,2.2,0,0,1-.122,1.4c-.1.151-.937.086-1.182.086q-5.97.016-11.941.007c0-.047,0-.028-.005-.075" transform="translate(-70.685 -139.229)" fill="#e15828"/>
          <path id="Path_62560" data-name="Path 62560" d="M22.111,68.51l-.013.067a.3.3,0,0,1-.035-.037s.048-.03.048-.03" transform="translate(-16.447 -51.072)"/>
          <path id="Path_62561" data-name="Path 62561" d="M46.551,65.667a5.717,5.717,0,0,0-.3.613c-.856,2.723-1.771,5.431-2.52,8.184-.231.85-.494.99-1.149.587-1.436-.883-2.885-1.752-4.247-2.74a1.532,1.532,0,0,1-.439-1.376c.926-2.389,1.954-4.74,2.983-7.088.324-.74.745-.933,1.562-.391a32.093,32.093,0,0,0,3.388,1.7,5.662,5.662,0,0,1,.72.51" transform="translate(-28.223 -47.074)" fill="#fff"/>
        </g>
      </g>
    </g>
  </g>
</svg>
