<svg xmlns="http://www.w3.org/2000/svg" width="192" height="64.391" viewBox="0 0 192 64.391">
  <g id="RUNGOOD_POKER_SERIES_RGPS_dark_logo" data-name="RUNGOOD POKER SERIES (RGPS) dark logo" transform="translate(-1282 207.299)">
    <path id="Subtraction_6" data-name="Subtraction 6" d="M11.614,8.842A6.53,6.53,0,0,1,9.872,8.6a3.422,3.422,0,0,1-1.548-.874,3.367,3.367,0,0,1-.852-1.563,5.688,5.688,0,0,1-.128-.948C7.33,5.049,7.316,4.878,7.3,4.7c-.066.069-.13.137-.191.2a4.122,4.122,0,0,1-.714.654c-.209.138-.127.281-.049.42.014.025.029.052.042.077l.224.454c.288.584.586,1.187.891,1.774.087.166.108.268.07.331s-.124.086-.278.086H7.269C6.781,8.69,6.2,8.682,5.616,8.682c-.211,0-.416,0-.61,0H5c-.294,0-.394-.18-.486-.4s-.2-.466-.306-.691c-.172-.38-.349-.773-.5-1.17-.135-.36-.269-.374-.588-.374h-.13c-.316.039-.306.194-.306.2,0,.059-.019,1.44,0,1.971a.5.5,0,0,1-.1.379.431.431,0,0,1-.327.1H2.225c-.274-.009-.558-.013-.845-.013s-.59,0-.9.013H.444a.448.448,0,0,1-.332-.1.5.5,0,0,1-.1-.365C.016,6,.013,3.566,0,.578A.466.466,0,0,1,.1.234.449.449,0,0,1,.43.136H.439l.582,0c.349,0,.7,0,1.043,0h0c.34,0,.691,0,1.036,0,.687,0,1.243.008,1.748.025A3.037,3.037,0,0,1,6.186.494a3.027,3.027,0,0,1,1.074.991A1.648,1.648,0,0,0,7.346.757c0-.072-.006-.14-.005-.209,0-.291.119-.41.4-.41h.02c.309.006.612.011.912.011.33,0,.62-.006.887-.019l.061,0a.431.431,0,0,1,.322.1.545.545,0,0,1,.1.408c-.016,1.368-.011,2.758-.005,4.1v.075a1.83,1.83,0,0,0,.4,1.235,1.393,1.393,0,0,0,1.075.441,2.419,2.419,0,0,0,.6-.08,1.3,1.3,0,0,0,.745-.472,1.49,1.49,0,0,0,.266-.9l0-.32c.009-1.3.017-2.65-.009-3.974a.671.671,0,0,1,.126-.5.51.51,0,0,1,.383-.119c.036,0,.075,0,.116,0,.248.018.507.026.791.026.248,0,.521-.007.833-.021h.057c.3,0,.422.116.438.414.033-.328.226-.373.592-.429a4.6,4.6,0,0,1,.7-.057A2.723,2.723,0,0,1,18.676.48a3.264,3.264,0,0,1,1.107,1.309,8.42,8.42,0,0,0,.978,1.4c.161.2.327.406.481.614.2-.092.184-.239.17-.368a.835.835,0,0,1-.007-.1c.008-.823.016-1.757-.009-2.669a.557.557,0,0,1,.11-.418.487.487,0,0,1,.367-.113h.064c.244.011.5.016.786.016.347,0,.693-.008.955-.015h.028a.38.38,0,0,1,.287.089.428.428,0,0,1,.085.322c-.01.389-.008.77-.006,1.173v0c0,.162,0,.33,0,.5a.388.388,0,0,0,.3-.24.822.822,0,0,1,.053-.086,4.57,4.57,0,0,1,1.727-1.4A5.1,5.1,0,0,1,28.33,0a4.528,4.528,0,0,1,2.492.717,3.5,3.5,0,0,1,1.144,1.211c.082.145.141.2.2.2s.121-.055.191-.168A3.932,3.932,0,0,1,34.03.513a5.311,5.311,0,0,1,2.283-.5,5.214,5.214,0,0,1,2.335.538,4.32,4.32,0,0,1,1.805,1.674.176.176,0,0,0,.062.05c.018.011.037.023.06.04A4.839,4.839,0,0,1,42.363.589,5.053,5.053,0,0,1,44.781.022h.009a4.869,4.869,0,0,1,2.435.587A5.256,5.256,0,0,1,49.1,2.47c0-.22,0-.425,0-.621,0-.47,0-.876,0-1.286a.484.484,0,0,1,.081-.346.305.305,0,0,1,.227-.073h.019c.159,0,.324.006.5.006.36,0,.719-.008,1.066-.016s.711-.016,1.066-.016A12.4,12.4,0,0,1,53.886.23a5.165,5.165,0,0,1,1.6.494,3.861,3.861,0,0,1,1.179.917,3.786,3.786,0,0,1,.723,1.292,4.912,4.912,0,0,1,.23,1.618A4.057,4.057,0,0,1,53.8,8.629a15.33,15.33,0,0,1-1.791.089c-.376,0-.759-.008-1.129-.015h-.005c-.368-.008-.749-.015-1.132-.015l-.293,0h-.01a.347.347,0,0,1-.258-.081.415.415,0,0,1-.08-.314c.008-.4.006-.794,0-1.255,0-.2,0-.426,0-.668a5.14,5.14,0,0,1-1.863,1.857,4.915,4.915,0,0,1-2.422.588h-.038a5.081,5.081,0,0,1-2.407-.553,4.8,4.8,0,0,1-1.8-1.713A4.751,4.751,0,0,1,38.69,8.28a5.21,5.21,0,0,1-2.342.545A5.468,5.468,0,0,1,34.1,8.346,4.384,4.384,0,0,1,32.384,7a5.186,5.186,0,0,1-1.8,1.375,5.294,5.294,0,0,1-2.2.448c-.076,0-.154,0-.231,0A4.877,4.877,0,0,1,25.855,8.2a5.266,5.266,0,0,1-1.79-1.755c0,.221,0,.425,0,.622v0c0,.438-.006.816.009,1.2a.454.454,0,0,1-.087.344.4.4,0,0,1-.3.094h-.044c-.556-.021-.984-.031-1.387-.031-.141,0-.279,0-.411,0h-.013c-.287,0-.418-.179-.556-.369l-.019-.027C20.391,7.108,19.5,5.9,18.485,4.711V5.7q0,.991,0,1.982a1.814,1.814,0,0,1-.09.836c-.092.142-.276.167-.629.167-.092,0-.194,0-.3,0h-.03a3.677,3.677,0,0,0-.46.041,3.7,3.7,0,0,1-.463.041.683.683,0,0,1-.546-.2,1.3,1.3,0,0,1-.125-.987,4.028,4.028,0,0,0,.033-.478c-.009-.563-.007-1.119-.005-1.708V5.39c0-.248,0-.5,0-.763-.087,2.3-.814,3.445-2.509,3.956A6.062,6.062,0,0,1,11.614,8.842ZM36.3,2.375a1.952,1.952,0,0,0-1.407.576A2.118,2.118,0,0,0,34.31,4.4a2.058,2.058,0,0,0,.584,1.5,1.967,1.967,0,0,0,1.416.6h.006a1.983,1.983,0,0,0,1.99-2.039,2.107,2.107,0,0,0-.577-1.514,1.984,1.984,0,0,0-1.418-.568Zm8.478,0a1.972,1.972,0,0,0-1.413.578,2.093,2.093,0,0,0-.592,1.508A2.011,2.011,0,0,0,44.793,6.49h.024a1.92,1.92,0,0,0,1.394-.584,2.1,2.1,0,0,0,.572-1.451,2.094,2.094,0,0,0-.576-1.51,1.983,1.983,0,0,0-1.422-.569ZM28.3,2.368a1.925,1.925,0,0,0-1.239.475,2.158,2.158,0,0,0-.268,2.884,1.946,1.946,0,0,0,1.588.75,2.672,2.672,0,0,0,1.094-.242.218.218,0,0,0,.153-.224c-.019-.114-.127-.124-.227-.125l-.236,0c-.093,0-.188,0-.282,0-.111,0-.2,0-.292.011-.039,0-.076,0-.109,0a.4.4,0,0,1-.312-.1.49.49,0,0,1-.086-.377,10.152,10.152,0,0,0,0-1.331.51.51,0,0,1,.087-.4.439.439,0,0,1,.336-.1h.057c.229.01.473.014.767.014.217,0,.438,0,.651,0l.552,0c1.126,0,1.126,0,1.512-1.228l-.534.268h0c-.389.194-.725.361-1.06.548a.761.761,0,0,1-.363.125.533.533,0,0,1-.4-.25A1.767,1.767,0,0,0,28.3,2.368ZM51.727,4.437v.251q0,.251,0,.5c0,.646,0,.97.153,1.124a.6.6,0,0,0,.446.119c.182,0,.419-.021.72-.049A1.931,1.931,0,0,0,54.912,4.3a1.8,1.8,0,0,0-.541-1.314,2.134,2.134,0,0,0-1.425-.5c-.084,0-.167,0-.253,0h-.122c-.139,0-.286,0-.436-.011l-.061,0a.348.348,0,0,0-.261.085.424.424,0,0,0-.087.316c.009.367.007.741.005,1.1,0,.151,0,.306,0,.46ZM15.859.825h0c-.013,1.054,0,2.126.007,3.162v.021c0-.318,0-.639,0-.95C15.874,2.326,15.879,1.569,15.859.825ZM3.585,2.468c-.459,0-.874.032-.878.032A3.714,3.714,0,0,0,2.751,3.7a.045.045,0,0,0,.033.016h1.14a1.939,1.939,0,0,0,.6-.072A.577.577,0,0,0,4.977,3.1a.521.521,0,0,0-.427-.549A3.942,3.942,0,0,0,3.585,2.468Z" transform="translate(1388.176 -207.183)"/>
    <path id="Subtraction_6_-_Outline" data-name="Subtraction 6 - Outline" d="M11.23,8.574h0a6.646,6.646,0,0,1-1.774-.247,3.537,3.537,0,0,1-1.6-.9,3.482,3.482,0,0,1-.882-1.616,5.772,5.772,0,0,1-.132-.967c-.007-.085-.014-.172-.022-.261L6.805,4.6a4.208,4.208,0,0,1-.735.672c-.109.072-.1.109-.011.266.015.027.031.054.045.083l.224.454c.288.583.585,1.186.89,1.772.077.148.145.316.067.445a.416.416,0,0,1-.377.142H6.883c-.487-.008-1.065-.016-1.651-.016-.21,0-.415,0-.609,0H4.615a.609.609,0,0,1-.594-.468c-.1-.231-.2-.464-.3-.689-.172-.382-.351-.777-.5-1.177-.112-.3-.19-.3-.479-.3H2.615c-.146.019-.192.065-.2.082,0,.065-.019,1.438,0,1.964a.6.6,0,0,1-.128.464.535.535,0,0,1-.41.138H1.838c-.273-.009-.556-.013-.841-.013s-.588,0-.893.013A.586.586,0,0,1-.355,8.3a.6.6,0,0,1-.137-.447c.008-2.236,0-4.67-.008-7.658A.569.569,0,0,1-.368-.232.552.552,0,0,1,.046-.364H.055l.582,0c.349,0,.7,0,1.042,0h0c.339,0,.69,0,1.037,0,.689,0,1.245.008,1.752.025A3.152,3.152,0,0,1,5.856.008,3.058,3.058,0,0,1,6.83.842,2.05,2.05,0,0,0,6.846.379c0-.073-.006-.143-.005-.215,0-.353.172-.525.515-.525h.022c.309.006.611.011.91.011.328,0,.616-.006.882-.019a.584.584,0,0,1,.471.131.642.642,0,0,1,.137.491c-.016,1.367-.011,2.756-.005,4.1v.076a1.718,1.718,0,0,0,.373,1.158,1.28,1.28,0,0,0,.988.4,2.3,2.3,0,0,0,.567-.077,1.183,1.183,0,0,0,.68-.429,1.377,1.377,0,0,0,.243-.83l0-.32c.009-1.3.017-2.648-.009-3.971a.769.769,0,0,1,.159-.584.614.614,0,0,1,.466-.154c.039,0,.08,0,.124,0,.245.017.5.026.783.026.247,0,.517-.007.828-.021h.062a.514.514,0,0,1,.457.189.943.943,0,0,1,.555-.2,4.718,4.718,0,0,1,.715-.058A2.835,2.835,0,0,1,18.356,0,3.376,3.376,0,0,1,19.5,1.353a8.335,8.335,0,0,0,.965,1.378c.139.173.282.35.418.53.041-.045.037-.1.027-.2a.934.934,0,0,1-.008-.112c.008-.823.016-1.755-.009-2.665a.659.659,0,0,1,.143-.5.641.641,0,0,1,.519-.146c.243.011.5.016.781.016.346,0,.69-.008.952-.015a.5.5,0,0,1,.4.124.531.531,0,0,1,.118.406C23.8.554,23.8.934,23.8,1.336v0c0,.106,0,.215,0,.324a.467.467,0,0,0,.087-.125.922.922,0,0,1,.061-.1A4.687,4.687,0,0,1,25.724,0a5.221,5.221,0,0,1,2.222-.5A4.643,4.643,0,0,1,30.5.236a3.61,3.61,0,0,1,1.182,1.251.456.456,0,0,0,.1.144.339.339,0,0,0,.092-.112A4.048,4.048,0,0,1,33.6.025,5.428,5.428,0,0,1,35.929-.49a5.33,5.33,0,0,1,2.387.55,4.435,4.435,0,0,1,1.843,1.7A4.91,4.91,0,0,1,41.924.1,5.167,5.167,0,0,1,44.4-.478h.009a4.982,4.982,0,0,1,2.492.6A5.16,5.16,0,0,1,48.6,1.7q0-.118,0-.231V1.465c0-.47,0-.876,0-1.285a.578.578,0,0,1,.115-.429.413.413,0,0,1,.309-.108h.022c.158,0,.322.006.5.006.358,0,.717-.008,1.064-.016s.713-.016,1.068-.016a12.509,12.509,0,0,1,1.841.115,5.281,5.281,0,0,1,1.636.505,3.976,3.976,0,0,1,1.215.945,3.9,3.9,0,0,1,.745,1.331,5.027,5.027,0,0,1,.236,1.656,4.173,4.173,0,0,1-1.1,2.845A4.507,4.507,0,0,1,53.43,8.36a15.442,15.442,0,0,1-1.8.09c-.378,0-.761-.008-1.131-.015h-.005c-.367-.008-.747-.015-1.129-.015l-.291,0h-.011a.454.454,0,0,1-.342-.115.513.513,0,0,1-.113-.4c.008-.4.006-.792,0-1.252,0-.089,0-.183,0-.282a4.813,4.813,0,0,1-4.168,2.175H44.4a5.2,5.2,0,0,1-2.461-.566,4.857,4.857,0,0,1-1.741-1.6A4.848,4.848,0,0,1,38.359,8a5.326,5.326,0,0,1-2.395.558,5.585,5.585,0,0,1-2.3-.49A4.547,4.547,0,0,1,31.994,6.8a5.255,5.255,0,0,1-1.742,1.3,5.409,5.409,0,0,1-2.244.458c-.077,0-.156,0-.235,0a4.99,4.99,0,0,1-2.36-.633A5.182,5.182,0,0,1,23.8,6.43c0,.086,0,.17,0,.252v0c0,.436-.006.813.009,1.191a.556.556,0,0,1-.12.43.5.5,0,0,1-.385.129h-.048C22.7,8.414,22.27,8.4,21.868,8.4c-.14,0-.278,0-.409,0h-.015a.774.774,0,0,1-.65-.417l-.019-.026c-.8-1.091-1.628-2.217-2.557-3.321v.675q0,.991,0,1.982a1.821,1.821,0,0,1-.108.9c-.132.2-.4.22-.726.22-.092,0-.2,0-.3,0h-.028a3.594,3.594,0,0,0-.445.04,3.788,3.788,0,0,1-.478.042.79.79,0,0,1-.632-.235,1.371,1.371,0,0,1-.154-1.077,3.946,3.946,0,0,0,.032-.463c0-.258-.006-.514-.006-.772a3.723,3.723,0,0,1-.434,1,2.869,2.869,0,0,1-.794.83,3.9,3.9,0,0,1-1.128.526A6.178,6.178,0,0,1,11.23,8.574ZM7,4.056l.028.245c.021.182.034.353.048.519a5.606,5.606,0,0,0,.125.928A3.253,3.253,0,0,0,8.022,7.26a3.308,3.308,0,0,0,1.5.844,6.413,6.413,0,0,0,1.712.239,5.946,5.946,0,0,0,1.717-.253A3,3,0,0,0,14.74,6.83a5.123,5.123,0,0,0,.634-2.591l.232,0c0,.259,0,.515,0,.762v.007c0,.588,0,1.144.005,1.706a4.111,4.111,0,0,1-.033.492c-.037.347-.076.706.1.9a.57.57,0,0,0,.46.158,3.621,3.621,0,0,0,.448-.04,3.493,3.493,0,0,1,.507-.042c.1,0,.207,0,.3,0,.346,0,.476-.028.531-.114a1.89,1.89,0,0,0,.071-.773q0-.991,0-1.983v-1.3l.2.238c1.018,1.187,1.91,2.4,2.772,3.576l.02.027c.131.18.235.321.463.321h.011c.133,0,.272,0,.414,0,.4,0,.834.01,1.391.031h.04a.3.3,0,0,0,.217-.058.362.362,0,0,0,.055-.259c-.015-.383-.012-.762-.009-1.2v0c0-.2,0-.4,0-.621V5.67L23.778,6a5.154,5.154,0,0,0,1.75,1.717,4.764,4.764,0,0,0,2.253.6c.076,0,.152,0,.227,0a5.179,5.179,0,0,0,2.148-.438,5.07,5.07,0,0,0,1.755-1.344l.095-.11.087.117a4.268,4.268,0,0,0,1.671,1.313,5.352,5.352,0,0,0,2.2.469,5.093,5.093,0,0,0,2.29-.533A4.636,4.636,0,0,0,40.1,6.1l.1-.155.1.155a4.69,4.69,0,0,0,1.752,1.673,4.984,4.984,0,0,0,2.39.539A4.8,4.8,0,0,0,46.8,7.742a5.027,5.027,0,0,0,1.821-1.817l.215-.346v.407c0,.243,0,.468,0,.667,0,.461,0,.86,0,1.258,0,.161.025.209.047.231a.249.249,0,0,0,.175.046h.009l.293,0c.384,0,.765.008,1.134.015H50.5c.37.008.752.015,1.127.015A15.22,15.22,0,0,0,53.4,8.13a4.279,4.279,0,0,0,2.682-1.274,3.945,3.945,0,0,0,1.034-2.69,4.8,4.8,0,0,0-.225-1.579,3.671,3.671,0,0,0-.7-1.253,3.745,3.745,0,0,0-1.144-.89,5.05,5.05,0,0,0-1.564-.482,12.286,12.286,0,0,0-1.807-.112c-.353,0-.714.008-1.063.016s-.708.016-1.07.016c-.182,0-.348,0-.508-.006a.22.22,0,0,0-.16.039.426.426,0,0,0-.047.264c0,.41,0,.816,0,1.286v.008c0,.194,0,.4,0,.614v.4l-.214-.34A5.143,5.143,0,0,0,46.784.326a4.757,4.757,0,0,0-2.378-.572H44.4a4.938,4.938,0,0,0-2.363.553A4.724,4.724,0,0,0,40.29,1.989l-.066.1-.1-.072c-.02-.014-.037-.025-.053-.035a.271.271,0,0,1-.1-.089A4.206,4.206,0,0,0,38.212.267a5.1,5.1,0,0,0-2.283-.525A5.194,5.194,0,0,0,33.7.234a3.817,3.817,0,0,0-1.62,1.407.421.421,0,0,1-.259.221l-.047.15c-.2.634-.3.952-.516,1.127s-.517.18-1.106.183l-.55,0c-.214,0-.435,0-.653,0-.3,0-.541,0-.772-.014a.4.4,0,0,0-.3.066c-.03.032-.069.1-.056.309a10.267,10.267,0,0,1,0,1.347.4.4,0,0,0,.055.29c.025.027.077.064.227.064.03,0,.064,0,.1,0,.091-.007.187-.011.3-.011.1,0,.192,0,.285,0l.234,0c.075,0,.3,0,.341.222a.331.331,0,0,1-.219.348A2.791,2.791,0,0,1,28,6.211a2.059,2.059,0,0,1-1.68-.8,2.27,2.27,0,0,1-.444-1.592,2.152,2.152,0,0,1,.73-1.453,2.04,2.04,0,0,1,1.314-.5h0a1.881,1.881,0,0,1,1.47.728c.15.184.246.207.313.207a.666.666,0,0,0,.307-.111c.337-.188.674-.356,1.064-.55l.005,0,.531-.266.073-.037a.589.589,0,0,1-.2-.236A3.38,3.38,0,0,0,30.374.43a4.412,4.412,0,0,0-2.428-.7,4.987,4.987,0,0,0-2.123.477A4.454,4.454,0,0,0,24.14,1.578a.731.731,0,0,0-.045.074.5.5,0,0,1-.389.3l-.133.02V1.836c0-.168,0-.334,0-.5v0c0-.4,0-.785.006-1.176a.336.336,0,0,0-.052-.238.283.283,0,0,0-.2-.054H23.3c-.263.007-.61.015-.958.015-.286,0-.545-.005-.791-.016h-.059c-.186,0-.251.044-.284.078a.466.466,0,0,0-.077.334c.025.914.016,1.849.009,2.673a.757.757,0,0,0,.007.084.409.409,0,0,1-.237.486l-.086.039-.056-.076c-.152-.206-.318-.411-.478-.61A8.508,8.508,0,0,1,19.3,1.458,3.153,3.153,0,0,0,18.229.193a2.611,2.611,0,0,0-1.464-.4,4.486,4.486,0,0,0-.679.055c-.38.058-.471.1-.494.326L15.36.171c-.012-.236-.084-.3-.322-.3h-.051c-.314.014-.588.021-.838.021-.287,0-.549-.009-.8-.027-.038,0-.075,0-.108,0-.2,0-.265.048-.3.084a.586.586,0,0,0-.093.416c.027,1.326.018,2.674.009,3.977l0,.32a1.6,1.6,0,0,1-.289.967,1.409,1.409,0,0,1-.809.516,2.535,2.535,0,0,1-.625.084,1.505,1.505,0,0,1-1.162-.48A1.943,1.943,0,0,1,9.539,4.43V4.355c-.005-1.345-.011-2.736.005-4.1a.463.463,0,0,0-.07-.325.335.335,0,0,0-.239-.064H9.179c-.269.013-.561.019-.893.019-.3,0-.6-.005-.914-.011H7.355c-.214,0-.28.069-.283.295,0,.066,0,.132.005.2a1.767,1.767,0,0,1-.094.776l-.081.2L6.78,1.167A2.912,2.912,0,0,0,5.747.213,2.922,2.922,0,0,0,4.461-.112C3.957-.129,3.4-.137,2.717-.137c-.346,0-.7,0-1.036,0h0c-.341,0-.693,0-1.043,0l-.583,0H.046A.355.355,0,0,0-.2-.068.374.374,0,0,0-.268.193c.013,2.989.016,5.423.008,7.66a.4.4,0,0,0,.069.282A.354.354,0,0,0,.06,8.2H.1c.307-.009.609-.013.9-.013s.574,0,.849.013h.034c.161,0,.216-.038.243-.067a.411.411,0,0,0,.063-.294c-.02-.534,0-1.918,0-1.976h0c0-.053.028-.263.408-.309h.144c.338,0,.537.021.7.449.147.393.324.784.495,1.162.1.227.208.461.307.694s.173.327.379.327h.007c.194,0,.4,0,.61,0,.588,0,1.167.008,1.655.016h.021c.152,0,.178-.03.179-.03s.017-.043-.074-.217c-.306-.588-.6-1.192-.892-1.776L5.9,5.721c-.011-.023-.025-.047-.039-.071a.617.617,0,0,1-.1-.261.346.346,0,0,1,.184-.313,4.038,4.038,0,0,0,.693-.637c.062-.066.126-.134.192-.2ZM27.917,2.1a1.811,1.811,0,0,0-1.165.448,1.919,1.919,0,0,0-.647,1.3,2.036,2.036,0,0,0,.4,1.428,1.834,1.834,0,0,0,1.5.705,2.554,2.554,0,0,0,1.045-.231c.022-.01.095-.048.086-.1,0-.012,0-.012-.012-.016a.34.34,0,0,0-.1-.012l-.238,0c-.092,0-.187,0-.279,0-.108,0-.2,0-.282.01-.042,0-.082.005-.119.005a.508.508,0,0,1-.4-.137.594.594,0,0,1-.117-.464,10.039,10.039,0,0,0,0-1.316.61.61,0,0,1,.119-.482.542.542,0,0,1,.421-.141h.062c.227.01.469.014.762.014.217,0,.437,0,.65,0l.553,0c.535,0,.8,0,.961-.131a1.665,1.665,0,0,0,.358-.754l-.286.143-.005,0c-.388.193-.723.36-1.055.545a.861.861,0,0,1-.42.14.667.667,0,0,1-.493-.293,1.653,1.653,0,0,0-1.29-.643Zm8.016,4.127h-.006a2.082,2.082,0,0,1-1.5-.63,2.173,2.173,0,0,1-.617-1.581,2.234,2.234,0,0,1,.618-1.531,2.067,2.067,0,0,1,1.49-.611h.009a2.1,2.1,0,0,1,1.5.6,2.222,2.222,0,0,1,.611,1.6A2.1,2.1,0,0,1,35.933,6.228Zm-.014-4.121a1.837,1.837,0,0,0-1.324.541,2,2,0,0,0-.552,1.373,1.943,1.943,0,0,0,.551,1.414A1.852,1.852,0,0,0,35.927,6h.006a1.869,1.869,0,0,0,1.874-1.923,1.992,1.992,0,0,0-.544-1.432,1.868,1.868,0,0,0-1.336-.534Zm8.514,4.116h-.025a2.128,2.128,0,0,1-2.132-2.142A2.209,2.209,0,0,1,42.9,2.49a2.087,2.087,0,0,1,1.5-.613h0a2.1,2.1,0,0,1,1.5.6,2.209,2.209,0,0,1,.61,1.593,2.21,2.21,0,0,1-.6,1.531A2.035,2.035,0,0,1,44.433,6.223ZM44.41,5.99h.023a1.8,1.8,0,0,0,1.311-.548,1.979,1.979,0,0,0,.539-1.371,1.979,1.979,0,0,0-.543-1.428,1.867,1.867,0,0,0-1.34-.534h0a1.856,1.856,0,0,0-1.331.544,1.978,1.978,0,0,0-.558,1.426,1.9,1.9,0,0,0,1.9,1.912Zm7.531.174a.7.7,0,0,1-.528-.153c-.188-.188-.187-.528-.187-1.206q0-.251,0-.5V3.937h0c0-.116,0-.232,0-.345,0-.361,0-.733-.005-1.1a.529.529,0,0,1,.12-.4.456.456,0,0,1,.344-.12l.069,0c.146.01.291.011.428.011h.122c.086,0,.17,0,.255,0a2.247,2.247,0,0,1,1.5.528,1.914,1.914,0,0,1,.579,1.4,2.133,2.133,0,0,1-.513,1.519,2.169,2.169,0,0,1-1.459.684C52.368,6.142,52.128,6.164,51.941,6.164Zm-.482-2V4.3q0,.251,0,.5c0,.594,0,.922.119,1.042a.518.518,0,0,0,.363.085c.176,0,.412-.021.71-.048a1.942,1.942,0,0,0,1.307-.608,1.906,1.906,0,0,0,.454-1.357,1.688,1.688,0,0,0-.5-1.232,2.022,2.022,0,0,0-1.349-.466c-.082,0-.165,0-.25,0h-.122c-.141,0-.291,0-.444-.011a.3.3,0,0,0-.231.048.329.329,0,0,0-.054.232c.009.369.007.743.005,1.1,0,.15,0,.306,0,.46v.116ZM15.366,3.626V3.6c-.01-1.037-.021-2.109-.007-3.165V.325h.228l0,.113c.02.746.015,1.5.011,2.237,0,.31,0,.631,0,.949ZM2.4,3.444a.161.161,0,0,1-.119-.054c-.056-.061-.113-.2-.1-.728.006-.283.028-.552.028-.555l.008-.1L2.314,2s.421-.033.887-.033a4.043,4.043,0,0,1,1,.09.637.637,0,0,1,.512.668.692.692,0,0,1-.533.64,2.041,2.041,0,0,1-.636.078H2.4Zm.919-.233H3.54A1.838,1.838,0,0,0,4.1,3.145a.465.465,0,0,0,.373-.433.408.408,0,0,0-.343-.43A3.843,3.843,0,0,0,3.2,2.2c-.321,0-.62.016-.77.025-.007.1-.016.255-.02.42a2.047,2.047,0,0,0,.033.566h.874Z" transform="translate(1388.56 -206.799)" fill="rgba(0,0,0,0)"/>
    <path id="Subtraction_5" data-name="Subtraction 5" d="M4.806,25.1H4.74c-.56-.014-1.153-.02-1.812-.02-.8,0-1.608.01-2.365.021H.524a.562.562,0,0,1-.383-.091.508.508,0,0,1-.121-.406C.025,17.119.018,9.245,0,.535A.576.576,0,0,1,.11.11.543.543,0,0,1,.51,0H.516C1.194,0,1.931,0,2.77,0L5.191,0,7.566,0c1.4,0,3.253,0,5.134.027A7.541,7.541,0,0,1,17.894,2.19,7.755,7.755,0,0,1,20.219,7.34a9.482,9.482,0,0,1-.423,3.6,7,7,0,0,1-.773,1.59,7.368,7.368,0,0,1-1.228,1.423,6.491,6.491,0,0,1-2.606,1.463c-.2.055-.3.114-.328.193-.039.1.031.225.125.383,1.443,2.41,2.9,4.864,4.314,7.237l.789,1.326c.056.095.108.192.172.316.032.061.071.136.116.219H17.287c-1.135,0-2,0-2.819.011h-.008c-.321,0-.419-.183-.531-.394l-.036-.066c-.416-.757-.839-1.526-1.249-2.27l-.005-.01c-1.018-1.848-2.07-3.758-3.092-5.646a.89.89,0,0,0-.868-.562l-.079,0c-.416.019-.849.029-1.286.029s-.911-.01-1.382-.03l-.072,0a.491.491,0,0,0-.367.106.609.609,0,0,0-.113.448c0,1.123,0,2.266,0,3.371,0,1.443-.009,2.935.005,4.4a.692.692,0,0,1-.125.509A.607.607,0,0,1,4.806,25.1ZM6.79,11.446c.411,0,.819,0,1.214.009h0c.435,0,.827.009,1.221.009.894,0,1.581-.021,2.228-.069a3.908,3.908,0,0,0,1.318-.324,3.261,3.261,0,0,0,1.021-.712,3.092,3.092,0,0,0,.657-1.031,3.558,3.558,0,0,0-.022-2.557,3.1,3.1,0,0,0-.678-1.026,3.184,3.184,0,0,0-1.038-.691,3.717,3.717,0,0,0-1.329-.276c-.639-.018-1.342-.027-2.213-.027-.431,0-.869,0-1.292,0s-.875,0-1.314,0l-.75,0H5.8a.449.449,0,0,0-.336.1.447.447,0,0,0-.09.336c.012.695.01,1.4.008,2.085,0,.267,0,.543,0,.815H5.374c0,.277,0,.557,0,.829,0,.679.005,1.381-.009,2.071a.492.492,0,0,0,.1.37.448.448,0,0,0,.334.1H5.83C6.123,11.449,6.437,11.446,6.79,11.446Z" transform="translate(1453.429 -194.163)"/>
    <path id="Subtraction_5_-_Outline" data-name="Subtraction 5 - Outline" d="M4.423,24.836h-.07c-.559-.014-1.151-.02-1.809-.02-.8,0-1.606.01-2.364.021H.14a.657.657,0,0,1-.459-.119.607.607,0,0,1-.161-.493C-.475,16.734-.482,8.86-.5.15A.672.672,0,0,1-.356-.356.642.642,0,0,1,.126-.5H.132c.678,0,1.415,0,2.254,0l2.421,0,2.375,0c1.4,0,3.253,0,5.135.027a7.657,7.657,0,0,1,5.274,2.2,7.871,7.871,0,0,1,2.36,5.226,9.6,9.6,0,0,1-.429,3.64,7.117,7.117,0,0,1-.786,1.616,7.484,7.484,0,0,1-1.248,1.445,6.606,6.606,0,0,1-2.652,1.489c-.205.058-.244.106-.252.124-.02.051.072.206.117.281,1.443,2.409,2.9,4.863,4.314,7.237l.789,1.327c.058.1.11.2.175.321.032.06.071.135.116.218l.092.171H16.9c-1.135,0-2,0-2.817.011h-.009a.664.664,0,0,1-.634-.456l-.035-.065c-.414-.754-.836-1.521-1.245-2.262l-.01-.018c-1.018-1.848-2.07-3.758-3.093-5.646a.78.78,0,0,0-.766-.5l-.074,0c-.418.019-.852.029-1.291.029s-.915-.01-1.387-.03H5.477c-.191,0-.254.041-.284.072-.056.056-.08.169-.08.366,0,1.124,0,2.266,0,3.371,0,1.443-.009,2.935.005,4.4a.786.786,0,0,1-.159.592A.7.7,0,0,1,4.423,24.836Zm-1.878-.253c.66,0,1.253.007,1.815.02h.064a.525.525,0,0,0,.37-.087c.065-.066.093-.2.091-.426-.014-1.468-.009-2.96-.005-4.4,0-1.105.007-2.247,0-3.371a.7.7,0,0,1,.147-.53.593.593,0,0,1,.449-.14l.077,0c.469.02.933.03,1.377.03s.866-.01,1.28-.029l.084,0a1,1,0,0,1,.97.623c1.022,1.888,2.074,3.8,3.092,5.645l.01.018c.408.741.83,1.508,1.245,2.262l.036.067c.11.208.177.333.429.333h.008c.813-.008,1.683-.011,2.819-.011h2.9l-.026-.049c-.064-.122-.115-.218-.169-.31L18.816,22.9c-1.412-2.374-2.871-4.828-4.314-7.237-.092-.154-.2-.328-.134-.486.047-.117.168-.2.4-.262a6.376,6.376,0,0,0,2.559-1.438,7.252,7.252,0,0,0,1.209-1.4,6.885,6.885,0,0,0,.76-1.563,9.369,9.369,0,0,0,.417-3.553,7.639,7.639,0,0,0-2.29-5.073,7.425,7.425,0,0,0-5.114-2.13c-1.88-.024-3.731-.027-5.132-.027l-2.375,0-2.421,0c-.839,0-1.577,0-2.255,0H.126a.456.456,0,0,0-.317.076A.5.5,0,0,0-.268.15c.018,8.71.025,16.584.019,24.074,0,.221.046.287.081.318A.482.482,0,0,0,.14,24.6H.177C.935,24.593,1.747,24.583,2.544,24.583Zm6.3-13.388c-.4,0-.788,0-1.223-.009h0c-.394,0-.8-.009-1.211-.009-.352,0-.666,0-.958.01A.578.578,0,0,1,5,11.054a.592.592,0,0,1-.129-.454c.014-.689.012-1.39.009-2.068,0-.271,0-.552,0-.829V7.587h.011c0-.235,0-.471,0-.7,0-.683,0-1.389-.008-2.083A.548.548,0,0,1,5,4.385a.55.55,0,0,1,.419-.13h.011l.749,0c.439,0,.883,0,1.313,0h0c.423,0,.861,0,1.292,0,.872,0,1.577.008,2.217.027a3.833,3.833,0,0,1,1.37.285,3.3,3.3,0,0,1,1.076.717,3.217,3.217,0,0,1,.7,1.064,3.674,3.674,0,0,1,.023,2.643,3.208,3.208,0,0,1-.682,1.069,3.377,3.377,0,0,1-1.057.738,4.024,4.024,0,0,1-1.357.334C10.43,11.173,9.74,11.195,8.843,11.195Zm-2.437-.249c.411,0,.819,0,1.214.009h0c.434,0,.826.009,1.22.009.891,0,1.576-.021,2.22-.069a3.793,3.793,0,0,0,1.279-.314,3.145,3.145,0,0,0,.985-.687,2.977,2.977,0,0,0,.633-.992,3.442,3.442,0,0,0-.021-2.471,2.986,2.986,0,0,0-.653-.987,3.068,3.068,0,0,0-1-.666A3.6,3.6,0,0,0,11,4.508c-.638-.018-1.34-.027-2.21-.027-.43,0-.868,0-1.291,0h0c-.43,0-.875,0-1.314,0l-.75,0H5.42c-.173,0-.227.034-.253.06s-.059.081-.056.253c.012.7.01,1.4.008,2.087,0,.267,0,.543,0,.815v.116H5.106c0,.239,0,.479,0,.712,0,.68.005,1.383-.009,2.074,0,.2.034.257.063.286a.356.356,0,0,0,.251.064h.029C5.737,10.949,6.052,10.945,6.406,10.945Z" transform="translate(1453.813 -193.778)" fill="rgba(0,0,0,0)"/>
    <path id="Path_7127" data-name="Path 7127" d="M651.175,68.628c0-3.965.009-7.93-.011-11.895,0-.5.105-.654.632-.652q8.27.029,16.54,0c.5,0,.67.105.65.634-.043,1.159-.039,2.321,0,3.481.016.5-.108.657-.634.653-3.695-.023-7.39,0-11.084-.025-.587,0-.751.141-.731.731.046,1.314.031,2.63,0,3.945-.012.454.143.542.559.541,3.657-.008,7.313.013,10.969,0,.513,0,.7.108.676.661-.049,1.158-.043,2.321-.011,3.48.013.473-.15.575-.591.573-3.637-.016-7.274,0-10.911-.023-.564,0-.712.14-.7.7.041,1.469.03,2.94,0,4.409-.009.452.11.58.571.578,3.714-.019,7.428,0,11.143-.021.583,0,.767.137.739.738-.054,1.158-.045,2.321-.009,3.48.015.476-.147.564-.584.563q-8.3-.022-16.6,0c-.472,0-.613-.1-.611-.6.022-3.984.012-7.969.012-11.953Z" transform="translate(782.042 -250.24)"/>
    <path id="Subtraction_4" data-name="Subtraction 4" d="M4.473,23.349H4.4c-.576-.016-1.172-.024-1.821-.024-.606,0-1.263.007-2.009.022H.525a.552.552,0,0,1-.411-.111A.583.583,0,0,1,0,22.807C.02,15.732.029,8.445.026.529A.534.534,0,0,1,.145.117a.58.58,0,0,1,.41-.1h.967c.943,0,1.9,0,2.83-.007h.03C5.29,0,6.23,0,7.154,0c1.591,0,2.889.011,4.085.035a8.6,8.6,0,0,1,4.086,1,6.456,6.456,0,0,1,1.6,1.27,7.484,7.484,0,0,1,1.229,1.86,8.259,8.259,0,0,1,.6,4.9,7.3,7.3,0,0,1-.885,2.421,6.23,6.23,0,0,1-1.791,1.947,5.955,5.955,0,0,1-1.8.909c-.211.06-.316.123-.35.211s0,.208.122.409c1.193,1.975,2.394,3.991,3.556,5.94v0l0,.007,1.05,1.762c.072.12.143.243.232.4v0l.151.263h-2.9c-1.1,0-1.942,0-2.725,0h0c-.259,0-.345-.172-.428-.337-.015-.031-.031-.062-.048-.092l-.71-1.281C11.13,19.652,10,17.612,8.9,15.6a.786.786,0,0,0-.769-.517l-.07,0c-.379.019-.767.028-1.186.028s-.836-.009-1.309-.027H5.511a.468.468,0,0,0-.35.1.57.57,0,0,0-.106.422c.008,1.025.008,2.067.008,3.075,0,1.312,0,2.668.018,4a.727.727,0,0,1-.133.535A.631.631,0,0,1,4.473,23.349ZM6.144,10.676c.412,0,.831.007,1.236.013h.039c.393.006.8.013,1.2.013A19.353,19.353,0,0,0,11,10.581a2.979,2.979,0,0,0,1.919-.987,2.92,2.92,0,0,0,.542-.916,3.353,3.353,0,0,0,.012-2.232,2.865,2.865,0,0,0-.54-.925,3,3,0,0,0-1.956-.99A20.393,20.393,0,0,0,8.6,4.415c-.466,0-.94.009-1.4.017s-.928.017-1.4.017l-.379,0H5.41a.375.375,0,0,0-.277.085.487.487,0,0,0-.088.349c.006.639.005,1.288,0,1.917q0,.376,0,.751h.017q0,.372,0,.743c0,.649,0,1.321,0,1.982v0a.475.475,0,0,0,.073.337.31.31,0,0,0,.228.07h.02C5.62,10.679,5.868,10.676,6.144,10.676Z" transform="translate(1403.66 -166.641)"/>
    <path id="Subtraction_4_-_Outline" data-name="Subtraction 4 - Outline" d="M4.089,23.081H4.013c-.575-.016-1.169-.024-1.817-.024-.606,0-1.262.007-2.006.022a.7.7,0,0,1-.541-.144A.681.681,0,0,1-.5,22.422C-.48,15.349-.471,8.062-.474.145a.633.633,0,0,1,.156-.5A.678.678,0,0,1,.171-.487h.967c.944,0,1.9,0,2.83-.007H4C4.906-.5,5.846-.5,6.77-.5c1.592,0,2.89.011,4.088.035A8.71,8.71,0,0,1,15,.551a6.571,6.571,0,0,1,1.626,1.292,7.6,7.6,0,0,1,1.248,1.888A8.377,8.377,0,0,1,18.481,8.7a7.417,7.417,0,0,1-.9,2.46,6.345,6.345,0,0,1-1.824,1.983,6.066,6.066,0,0,1-1.837.926c-.163.046-.255.094-.274.142s.018.149.113.306c1.193,1.975,2.394,3.991,3.556,5.94l.005.009,1.05,1.762c.072.121.143.245.233.4h0l.151.262.1.174h-3.1c-1.1,0-1.942,0-2.724,0h0a.571.571,0,0,1-.532-.4c-.015-.03-.03-.06-.046-.088l-.71-1.281c-1.093-1.973-2.223-4.013-3.319-6.029-.209-.384-.4-.457-.667-.457l-.065,0c-.381.019-.771.028-1.191.028s-.839-.009-1.313-.027H5.127c-.18,0-.239.038-.268.067-.052.052-.074.157-.072.339.008,1.025.008,2.067.008,3.075h0c0,1.311,0,2.667.018,4a.824.824,0,0,1-.167.618A.729.729,0,0,1,4.089,23.081ZM2.2,22.824c.65,0,1.247.008,1.824.024h.069c.263,0,.348-.052.392-.1a.646.646,0,0,0,.1-.452c-.018-1.335-.018-2.692-.018-4h0c0-1.007,0-2.049-.008-3.073a.666.666,0,0,1,.14-.5.57.57,0,0,1,.433-.136h.063c.471.018.9.026,1.3.026s.8-.009,1.18-.027l.076,0a.864.864,0,0,1,.469.114,1.154,1.154,0,0,1,.4.464c1.1,2.014,2.226,4.054,3.318,6.027l.71,1.281c.018.032.034.065.05.1.087.175.145.273.324.273h0c.783,0,1.623,0,2.725,0h2.7l-.051-.089h0c-.089-.156-.16-.278-.231-.4l-1.05-1.762-.005-.009c-1.162-1.95-2.362-3.965-3.555-5.94-.12-.2-.189-.362-.13-.511s.25-.23.427-.28a5.844,5.844,0,0,0,1.767-.893,6.115,6.115,0,0,0,1.758-1.911,7.186,7.186,0,0,0,.871-2.383,8.14,8.14,0,0,0-.591-4.825A7.368,7.368,0,0,0,16.452,2,6.34,6.34,0,0,0,14.884.753a8.483,8.483,0,0,0-4.031-.986C9.657-.257,8.36-.268,6.77-.268c-.924,0-1.863,0-2.771.007h-.03c-.928,0-1.887.007-2.831.007H.17a.5.5,0,0,0-.33.073c-.035.033-.082.1-.082.327,0,7.917-.006,15.2-.026,22.278a.5.5,0,0,0,.081.346c.036.036.105.077.328.077H.185C.931,22.831,1.588,22.824,2.2,22.824ZM8.234,10.434c-.4,0-.808-.006-1.2-.013H6.994c-.4-.006-.823-.013-1.234-.013-.275,0-.522,0-.757.009H4.98a.417.417,0,0,1-.31-.1.559.559,0,0,1-.107-.419v0c0-.662,0-1.333,0-1.982q0-.314,0-.627H4.548V7.165q0-.374,0-.749v0c0-.628,0-1.277,0-1.915a.581.581,0,0,1,.122-.432.482.482,0,0,1,.36-.12h.012l.378,0c.473,0,.944-.009,1.4-.017s.934-.017,1.4-.017a20.5,20.5,0,0,1,2.4.118,3.116,3.116,0,0,1,2.03,1.029,2.981,2.981,0,0,1,.562.962,3.469,3.469,0,0,1-.012,2.311,3.035,3.035,0,0,1-.564.952,3.094,3.094,0,0,1-1.992,1.025A19.461,19.461,0,0,1,8.234,10.434ZM5.76,10.176h0c.413,0,.832.007,1.238.013h.039c.393.006.8.013,1.2.013a19.243,19.243,0,0,0,2.372-.121,2.865,2.865,0,0,0,1.846-.948,2.8,2.8,0,0,0,.521-.879A3.237,3.237,0,0,0,12.984,6.1a2.75,2.75,0,0,0-.518-.888,2.888,2.888,0,0,0-1.882-.951,20.282,20.282,0,0,0-2.368-.117c-.465,0-.939.009-1.4.017s-.929.017-1.4.017l-.38,0H5.026a.278.278,0,0,0-.195.051.413.413,0,0,0-.054.266c.006.64.005,1.29,0,1.918v0q0,.317,0,.632H4.8v.116q0,.372,0,.743c0,.649,0,1.321,0,1.983v0c0,.105,0,.215.039.255a.227.227,0,0,0,.146.036H5C5.234,10.179,5.484,10.176,5.76,10.176Z" transform="translate(1404.044 -166.257)" fill="rgba(0,0,0,0)"/>
    <path id="Path_7129" data-name="Path 7129" d="M568.8,56.089c-.307.366-.5.6-.7.833q-4.445,5.242-8.9,10.478a.585.585,0,0,0-.01.914q4.96,6.17,9.887,12.367c.1.12.189.242.284.362-.1.2-.28.115-.415.115-1.9.008-3.791,0-5.686.017a.84.84,0,0,1-.758-.4q-3.428-4.569-6.876-9.123c-.115-.153-.235-.3-.387-.5-.621.748-1.21,1.463-1.8,2.172a1.007,1.007,0,0,0-.143.719c0,2.185-.015,4.37.01,6.555.006.469-.142.58-.588.572-1.411-.027-2.824-.023-4.235,0-.4.006-.572-.063-.572-.527q.011-12.008-.02-24.016c0-.435.132-.561.563-.553,1.431.026,2.863.031,4.293,0,.483-.011.576.166.574.6-.014,3.21-.006,6.42-.006,9.629,0,.206,0,.411,0,.779.239-.269.379-.414.5-.571q3.949-4.974,7.887-9.956a1.138,1.138,0,0,1,1.021-.481c1.968.022,3.937.01,6.076.01" transform="translate(861.338 -250.238)"/>
    <path id="Subtraction_3" data-name="Subtraction 3" d="M.614,25.107a.634.634,0,0,1-.474-.129.72.72,0,0,1-.135-.532c.019-3.013.017-6.076.015-9.038V15.4c0-.933,0-1.9,0-2.846H.012c0-.952,0-1.921,0-2.857C.015,6.75.017,3.707,0,.714A.77.77,0,0,1,.145.146.739.739,0,0,1,.693,0h.02C2.734.014,4.819.02,7.087.02c1.555,0,3.172,0,4.943-.009h.036a8.832,8.832,0,0,1,3.423.658,7.424,7.424,0,0,1,4.243,4.582,8.844,8.844,0,0,1,.394,3.468,8.69,8.69,0,0,1-.772,3.021A7.43,7.43,0,0,1,15.183,15.6a8.784,8.784,0,0,1-3.083.543l-1.325,0c-.848,0-1.724.005-2.587.005s-1.646,0-2.355-.008H5.816a.536.536,0,0,0-.4.1.553.553,0,0,0-.1.409c.01,1.319.01,2.66.011,3.957s0,2.623.011,3.935A.626.626,0,0,1,5.231,25a.52.52,0,0,1-.385.107H4.8c-.688-.016-1.374-.024-2.04-.024-.7,0-1.4.009-2.08.026ZM5.332,8.138q0,.4,0,.791c0,.672,0,1.367,0,2.051a.471.471,0,0,0,.081.349.371.371,0,0,0,.272.082h.011c.687-.008,1.384-.009,2.059-.01,1.207,0,2.455,0,3.68-.047a3.468,3.468,0,0,0,1.528-.394A3.109,3.109,0,0,0,14.12,9.87a3.19,3.19,0,0,0,.131-3.363,3.093,3.093,0,0,0-1.279-1.315,3.9,3.9,0,0,0-1.789-.424c-.526-.009-1.082-.013-1.8-.013l-1.02,0H8.33l-1.063,0c-.549,0-1,0-1.419-.008H5.829a.522.522,0,0,0-.388.114.574.574,0,0,0-.11.432c.01.675.008,1.361.006,2.024h0c0,.267,0,.544,0,.815Z" transform="translate(1360.698 -194.165)"/>
    <path id="Subtraction_3_-_Outline" data-name="Subtraction 3 - Outline" d="M.23,24.839h0a.732.732,0,0,1-.556-.164.815.815,0,0,1-.169-.615c.019-3.012.017-6.074.015-9.036v-.012c0-.893,0-1.816,0-2.73H-.488v-.116c0-.953,0-1.921,0-2.857,0-2.943,0-5.987-.013-8.979A.865.865,0,0,1-.322-.32.855.855,0,0,1,.33-.5c2.021.014,4.106.02,6.373.02,1.555,0,3.172,0,4.942-.009a8.957,8.957,0,0,1,3.5.667A7.54,7.54,0,0,1,19.458,4.83a8.959,8.959,0,0,1,.4,3.513,8.806,8.806,0,0,1-.782,3.062,7.546,7.546,0,0,1-4.236,3.918,8.9,8.9,0,0,1-3.123.55l-1.312,0h-.013c-.847,0-1.723.005-2.588.005s-1.646,0-2.356-.008H5.432c-.22,0-.285.04-.314.07a.48.48,0,0,0-.069.327c.01,1.319.01,2.66.011,3.957s0,2.623.011,3.935a.715.715,0,0,1-.141.533.619.619,0,0,1-.467.141H4.417c-.687-.016-1.372-.024-2.038-.024-.7,0-1.4.009-2.077.026ZM-.256,12.051h.007v.116c0,.952,0,1.915,0,2.846v.011c0,2.963,0,6.026-.015,9.039a.641.641,0,0,0,.1.449.55.55,0,0,0,.392.1H.3c.68-.017,1.381-.026,2.083-.026.667,0,1.355.008,2.043.024h.039a.433.433,0,0,0,.3-.072c.054-.054.075-.161.073-.368-.01-1.313-.01-2.646-.011-3.936s0-2.638-.011-3.956a.649.649,0,0,1,.137-.492.65.65,0,0,1,.5-.139c.709.006,1.48.008,2.354.008s1.74,0,2.587-.005H10.4l1.312,0a8.668,8.668,0,0,0,3.042-.536,7.314,7.314,0,0,0,4.107-3.8,8.575,8.575,0,0,0,.761-2.981A8.729,8.729,0,0,0,19.238,4.9,7.308,7.308,0,0,0,15.06.392a8.724,8.724,0,0,0-3.414-.649C9.876-.251,8.259-.248,6.7-.248,4.435-.248,2.35-.254.328-.268a.681.681,0,0,0-.485.112A.691.691,0,0,0-.268.329c.017,2.993.015,6.036.013,8.98C-.256,10.208-.256,11.136-.256,12.051Zm5.566-.909H5.3a.476.476,0,0,1-.355-.116.58.58,0,0,1-.115-.432c.006-.683.005-1.377,0-2.049q0-.4,0-.791V7.638h0c0-.234,0-.47,0-.7h0c0-.663,0-1.348-.006-2.022A.672.672,0,0,1,4.974,4.4a.625.625,0,0,1,.471-.149h.02c.419.005.869.008,1.418.008l1.062,0h.03l1.02,0c.722,0,1.278,0,1.805.013a4.011,4.011,0,0,1,1.842.438A3.207,3.207,0,0,1,13.97,6.069a3.3,3.3,0,0,1-.136,3.48,3.224,3.224,0,0,1-1.2,1.129,3.583,3.583,0,0,1-1.578.408c-1.228.045-2.477.046-3.684.047-.675,0-1.372,0-2.058.01ZM5.064,7.87q0,.337,0,.674c0,.672,0,1.368,0,2.052,0,.155.012.23.048.266a.279.279,0,0,0,.19.047h.011C6,10.9,6.694,10.9,7.368,10.9c1.206,0,2.453,0,3.676-.047a3.353,3.353,0,0,0,1.477-.38,2.994,2.994,0,0,0,1.117-1.049,3.079,3.079,0,0,0,.126-3.246,2.979,2.979,0,0,0-1.231-1.266A3.782,3.782,0,0,0,10.8,4.5c-.525-.009-1.081-.013-1.8-.013l-1.02,0h-.03l-1.063,0c-.549,0-1,0-1.421-.008a.449.449,0,0,0-.323.079.491.491,0,0,0-.077.348c.01.676.008,1.362.006,2.026h0c0,.267,0,.544,0,.815V7.87Z" transform="translate(1361.082 -193.781)" fill="rgba(0,0,0,0)"/>
    <path id="Path_7131" data-name="Path 7131" d="M102.44,25.468c-2.091-6.309-6.611-9.262-12.967-9.92,5.549-4.511,10.863-9.12,14.2-15.463,3.19,6.305,8.339,10.915,14.039,15.174-6.5,1.312-11.729,4.431-15.272,10.209" transform="translate(1213.303 -207.248)"/>
    <path id="Path_7132" data-name="Path 7132" d="M661.844,186.294c0-3.675.008-7.349-.01-11.024,0-.473.119-.624.61-.623q7.718.022,15.437-.006c.429,0,.567.1.555.546-.03,1.1-.034,2.206.008,3.306.018.48-.159.58-.587.578-3.4-.011-6.809.008-10.213-.018-.562,0-.773.1-.742.716.058,1.157.041,2.321.006,3.48-.015.508.1.682.652.677,3.346-.027,6.693,0,10.039-.02.487,0,.618.134.6.612-.035,1.1-.027,2.205,0,3.307.011.408-.108.519-.516.517-3.366-.016-6.732.008-10.1-.023-.581-.005-.7.166-.682.708.042,1.333.038,2.669.01,4-.01.45.138.54.558.538,3.443-.018,6.887,0,10.33-.026.512,0,.661.127.642.641-.041,1.1-.027,2.2,0,3.307.009.388-.124.484-.5.483q-7.805-.018-15.611,0c-.486,0-.517-.213-.516-.594q.014-5.541.006-11.082Z" transform="translate(773.859 -341.271)"/>
    <path id="Path_7133" data-name="Path 7133" d="M436.21,186.273c0-3.695.009-7.39-.011-11.084,0-.464.132-.577.584-.576q7.691.021,15.381-.008c.507,0,.632.182.628.626-.009,1.1-.008,2.205.009,3.307.007.461-.229.52-.621.518-3.444-.012-6.888,0-10.331-.016-.49,0-.669.1-.647.637.048,1.2.04,2.4.005,3.6-.013.474.1.618.6.615,3.347-.02,6.694.009,10.041-.018.569,0,.718.148.7.7-.042,1.062-.025,2.128.005,3.191.012.429-.11.554-.55.552-3.386-.017-6.772.007-10.158-.018-.527,0-.644.146-.63.646q.057,1.971.006,3.945c-.013.5.107.65.632.647,3.424-.025,6.849,0,10.273-.02.519,0,.717.117.694.67-.045,1.062-.034,2.127-.012,3.191.01.464-.167.572-.61.571q-7.72-.023-15.44,0c-.479,0-.566-.159-.565-.592.015-3.695.009-7.39.009-11.084Z" transform="translate(947.096 -341.243)"/>
    <path id="Path_7134" data-name="Path 7134" d="M119.8,169c.195.974.329,1.85.548,2.7a19.631,19.631,0,0,0,12.075,13.974,25.877,25.877,0,0,0,23.487-1.41c.066-.037.135-.072.206-.109.122.157,0,.261-.066.361a17.431,17.431,0,0,1-8.407,7.184,15.958,15.958,0,0,1-13.616-.788,20.71,20.71,0,0,1-7.627-6.971,8.459,8.459,0,0,0-.588-.79,34.636,34.636,0,0,0,5.171,10.452H116.491a35.649,35.649,0,0,0,5.235-10.579c-.348.5-.488.429-.663.085q-2.667-5.242-5.362-10.47c-.078-.153-.274-.327.018-.473A14,14,0,0,0,119.8,169" transform="translate(1193.271 -336.937)"/>
    <path id="Path_7135" data-name="Path 7135" d="M753.64,197.293a13.891,13.891,0,0,1-8.769-2.46c-1.526-1.084-1.526-1.084-.463-2.591q.7-1,1.406-1.989c.421-.6.418-.593.936-.117a9.938,9.938,0,0,0,7.475,2.7,4.275,4.275,0,0,0,2.6-.859,1.821,1.821,0,0,0-.248-3.188,13.832,13.832,0,0,0-3.632-1.149,25.651,25.651,0,0,1-4.81-1.468,5.91,5.91,0,0,1-3.876-5.305,6.511,6.511,0,0,1,3.439-6.249,10.211,10.211,0,0,1,5.39-1.341,13.826,13.826,0,0,1,7.072,1.705,14.09,14.09,0,0,1,1.8,1.261c.241.193.284.356.084.619q-1.139,1.5-2.242,3.029c-.224.308-.386.364-.724.093a9.855,9.855,0,0,0-7.01-2.217,3.405,3.405,0,0,0-1.836.641,1.652,1.652,0,0,0,.091,2.877,11.294,11.294,0,0,0,3.338,1.109,26.621,26.621,0,0,1,5.3,1.633,6.051,6.051,0,0,1,3.75,4.48,7.05,7.05,0,0,1-5.191,8.295,11.471,11.471,0,0,1-3.883.489" transform="translate(711.023 -340.223)"/>
    <path id="Path_7136" data-name="Path 7136" d="M349.247,197.356a13.888,13.888,0,0,1-8.367-2.223c-.5-.332-.939-.743-1.418-1.1-.32-.24-.308-.459-.08-.772.751-1.031,1.491-2.071,2.2-3.13.243-.361.39-.347.684-.06a9.78,9.78,0,0,0,4.552,2.537,8.582,8.582,0,0,0,4.413.064A2.873,2.873,0,0,0,353,191.444a1.668,1.668,0,0,0-.509-2.428,10.39,10.39,0,0,0-3.423-1.205,27.022,27.022,0,0,1-5.836-1.847c-4.378-2.175-4.251-8.052-.8-10.657a9.437,9.437,0,0,1,5.141-1.9,14.2,14.2,0,0,1,8.232,1.629,14.515,14.515,0,0,1,1.8,1.261c.272.214.291.385.078.662-.753.982-1.5,1.969-2.213,2.979-.261.37-.435.358-.765.085a9.891,9.891,0,0,0-6.15-2.228,4.7,4.7,0,0,0-2.256.421,1.941,1.941,0,0,0-1.193,1.836c0,.793.576,1.185,1.209,1.481a21.3,21.3,0,0,0,4,1.158,22.024,22.024,0,0,1,4.443,1.471,6.007,6.007,0,0,1,3.727,5.892,6.674,6.674,0,0,1-3.89,6.237,10.539,10.539,0,0,1-5.345,1.064" transform="translate(1021.553 -340.285)"/>
    <path id="Path_7137" data-name="Path 7137" d="M215.125,133.438a18.584,18.584,0,0,0,.548-5.986,19.9,19.9,0,0,0-2.943-9.057.536.536,0,0,0-.526-.268q-6.991.007-13.983-.007c-.441,0-.45.209-.45.531.007,3.345.014,6.691,0,10.036,0,.422.149.511.535.508,2.2-.017,4.41,0,6.614-.026.513-.007.627.142.657.646a1.211,1.211,0,0,1-.8,1.338,12.02,12.02,0,0,1-9.283.79,9.964,9.964,0,0,1-6.626-9.9c.053-3.595,1.318-6.643,4.374-8.693,4.136-2.774,10.17-2.555,13.254,3.01.206.371.368.395.7.22,1.405-.73,2.826-1.43,4.226-2.17a.568.568,0,0,1,.888.215,21.264,21.264,0,0,1,4.184,13,15.81,15.81,0,0,1-1.37,5.807" transform="translate(1136.992 -292.876)"/>
    <path id="Path_7138" data-name="Path 7138" d="M31.781,200.849c-4.146,5.7-11.284,9.277-18.766,7.465a16.611,16.611,0,0,1-8.375-5.028A21.393,21.393,0,0,1,0,195.45a28.677,28.677,0,0,0,2.656,4.2,25.019,25.019,0,0,0,3.191,3.359,1.071,1.071,0,0,0,.782.3c.773-.018,1.548-.034,2.32,0,.466.02.583-.148.582-.594-.012-3.944,0-7.889,0-11.833,0-.741,0-.741.757-.741,1.1,0,2.205.023,3.307-.008a.7.7,0,0,1,.768.511c1.741,4,3.509,7.989,5.244,11.992a.849.849,0,0,0,.93.614c2.649-.029,5.3-.022,7.948,0a1.554,1.554,0,0,0,1.051-.375c.783-.631,1.481-1.354,2.243-2.02" transform="translate(1282 -353.163)"/>
    <path id="Path_7139" data-name="Path 7139" d="M620.74,186.348c0-3.71.007-7.421-.01-11.131,0-.448.105-.6.575-.587,1.313.033,2.629.028,3.943,0,.415-.007.516.136.516.53q-.007,11.131.018,22.263c0,.452-.152.545-.567.538-1.295-.024-2.591-.03-3.885,0-.479.012-.616-.117-.613-.6.021-3.672.011-7.344.011-11.015Z" transform="translate(805.419 -341.262)"/>
    <path id="Path_7140" data-name="Path 7140" d="M739.058,9.04c3.616,0,7.231.011,10.847-.012.526,0,.656.16.64.659q-.055,1.709-.007,3.421c.015.526-.141.69-.681.687-4.215-.021-8.43-.012-12.645-.013-2.958,0-5.917-.011-8.875.011-.52,0-.7-.126-.683-.672.042-1.178.031-2.359,0-3.537-.011-.438.126-.555.556-.553,3.615.016,7.231.009,10.847.009" transform="translate(723.314 -214.114)"/>
    <path id="Path_7141" data-name="Path 7141" d="M348.85,13.787c-3.538,0-7.076-.013-10.614.013-.562,0-.731-.153-.71-.712.042-1.158.028-2.319.007-3.478-.007-.4.072-.577.535-.576q10.817.023,21.634,0c.455,0,.548.165.54.577-.024,1.2-.033,2.4,0,3.595.013.479-.168.581-.6.579-3.6-.013-7.192-.007-10.788-.007Z" transform="translate(1022.852 -214.118)"/>
    <path id="Path_7142" data-name="Path 7142" d="M442.144,79.711a13.037,13.037,0,0,1-5.129-1.043,13.218,13.218,0,0,1-5.78-4.771,13.041,13.041,0,0,1-1.2-2.217,12.822,12.822,0,0,1-1.01-5.066,13.258,13.258,0,0,1,1.081-5.253,12.855,12.855,0,0,1,2.814-4.078,13.43,13.43,0,0,1,6.216-3.449,12.707,12.707,0,0,1,2.328-.34c.224-.012.451-.017.675-.017a13.038,13.038,0,0,1,5.1,1.033,13.252,13.252,0,0,1,4.225,2.848,13.073,13.073,0,0,1,3.823,9.336,12.827,12.827,0,0,1-1.043,5.05,13.071,13.071,0,0,1-1.213,2.208,13.229,13.229,0,0,1-5.765,4.723,13.067,13.067,0,0,1-5.088,1.036Zm0-25.074c-.2,0-.411.005-.616.016a11.544,11.544,0,0,0-2.115.309,12.269,12.269,0,0,0-5.676,3.15,11.7,11.7,0,0,0-2.561,3.711,12.1,12.1,0,0,0-.985,4.8,11.667,11.667,0,0,0,.919,4.61,11.882,11.882,0,0,0,2.543,3.783,12.046,12.046,0,0,0,3.82,2.587,11.882,11.882,0,0,0,4.675.95h.029a12.025,12.025,0,0,0,11-7.264,11.672,11.672,0,0,0,.949-4.6,11.92,11.92,0,0,0-3.484-8.513,12.091,12.091,0,0,0-3.854-2.6A11.883,11.883,0,0,0,442.14,54.637Z" transform="translate(952.598 -248.241)"/>
    <path id="Path_7143" data-name="Path 7143" d="M45.588,114.086a40.69,40.69,0,0,1,4.309.109,3.192,3.192,0,0,1,2.92,3.93,3.1,3.1,0,0,1-2.4,2.333,7.121,7.121,0,0,1-2.006.254c-2.281,0-4.562-.012-6.842.006-.408,0-.578-.071-.571-.531q.039-2.782,0-5.565c-.006-.441.133-.555.561-.545,1.256.028,2.512.01,4.033.01" transform="translate(1250.526 -294.769)"/>
    <path id="Path_7154" data-name="Path 7154" d="M476.915,147.142c-.594-.092-1.318-.21-2.043-.313-.324-.046-.4-.2-.347-.517a11.9,11.9,0,0,0,.1-1.212c.02-.3.157-.4.458-.327a8.183,8.183,0,0,0,3.959,0c.35-.087.457.06.477.368.029.444.045.889.1,1.329.039.294-.145.314-.336.352a17.866,17.866,0,0,1-2.372.319" transform="translate(917.673 -317.855)" fill="#d81d15"/>
    <path id="Path_7154_-_Outline" data-name="Path 7154 - Outline" d="M476.526,146.875l-.013,0-.513-.08c-.47-.074-1-.158-1.529-.233a.533.533,0,0,1-.383-.19.582.582,0,0,1-.062-.462,8.254,8.254,0,0,0,.084-.917c.005-.093.01-.188.016-.282a.567.567,0,0,1,.107-.331.365.365,0,0,1,.3-.128.825.825,0,0,1,.2.027,8.311,8.311,0,0,0,1.965.241,8.062,8.062,0,0,0,1.938-.239.847.847,0,0,1,.2-.028c.385,0,.41.378.417.5.007.1.013.208.019.31.019.333.039.678.084,1.011a.379.379,0,0,1-.114.37.63.63,0,0,1-.285.105l-.03.006a18.088,18.088,0,0,1-2.387.321Zm-1.994-2.394c-.067,0-.158,0-.174.242-.006.093-.011.188-.016.28a8.431,8.431,0,0,1-.087.943.393.393,0,0,0,.021.286.333.333,0,0,0,.228.1c.529.075,1.062.159,1.532.233l.5.078a17.853,17.853,0,0,0,2.345-.316l.031-.006c.191-.038.235-.053.213-.217-.045-.342-.066-.691-.085-1.028-.006-.1-.012-.206-.019-.308-.018-.284-.111-.284-.186-.284a.63.63,0,0,0-.148.021,8.3,8.3,0,0,1-1.994.246,8.543,8.543,0,0,1-2.02-.247A.609.609,0,0,0,474.532,144.481Z" transform="translate(918.057 -317.471)" fill="rgba(0,0,0,0)"/>
    <path id="Path_7155" data-name="Path 7155" d="M477.1,65.167a8.459,8.459,0,0,1,2.122.232c.307.063.476.152.4.531-.1.506.138,1.2-.209,1.5s-.972-.081-1.48-.131a9.385,9.385,0,0,0-2.874.2c-.331.07-.417-.026-.431-.321-.023-.462-.043-.926-.1-1.385-.038-.329.2-.333.393-.378a7.721,7.721,0,0,1,2.176-.248" transform="translate(917.688 -257.695)" fill="#d81d15"/>
    <path id="Path_7155_-_Outline" data-name="Path 7155 - Outline" d="M478.682,67.274a2.459,2.459,0,0,1-.641-.127,3.033,3.033,0,0,0-.509-.116c-.249-.024-.5-.037-.762-.037a10.008,10.008,0,0,0-2.077.235.977.977,0,0,1-.2.024c-.35,0-.365-.317-.372-.453l-.005-.11c-.02-.417-.041-.848-.09-1.267-.046-.4.244-.456.417-.491l.065-.014a8.548,8.548,0,0,1,1.914-.259c.1,0,.194,0,.289.008s.167-.006.252-.006a9.5,9.5,0,0,1,1.893.241.638.638,0,0,1,.442.229.562.562,0,0,1,.046.439,2.519,2.519,0,0,0-.019.585c.016.372.032.756-.229.98A.614.614,0,0,1,478.682,67.274Zm-1.912-.512c.265,0,.529.013.785.038a3.194,3.194,0,0,1,.55.124,2.271,2.271,0,0,0,.577.118.387.387,0,0,0,.266-.083c.175-.15.162-.463.148-.794a2.681,2.681,0,0,1,.023-.642.364.364,0,0,0-.013-.264c-.037-.057-.123-.094-.3-.129a9.3,9.3,0,0,0-1.847-.236c-.083,0-.166,0-.246.006h-.012c-.092-.005-.187-.008-.282-.008a8.331,8.331,0,0,0-1.861.253l-.072.015c-.193.039-.253.06-.233.237.049.427.07.862.091,1.283l.005.11c.011.232.063.232.14.232a.765.765,0,0,0,.151-.019A10.236,10.236,0,0,1,476.77,66.762Z" transform="translate(918.072 -257.311)" fill="rgba(0,0,0,0)"/>
    <path id="Path_7156" data-name="Path 7156" d="M514.769,83.667c.05.112-.007.182-.1.237a1.413,1.413,0,0,1-.148.089c-.469.222-.958.649-1.406.61-.523-.046-.41-.8-.615-1.218a8.641,8.641,0,0,0-1.673-2.477c-.274-.268-.248-.436.07-.6a2.2,2.2,0,0,0,.194-.126c1.237-.838,1.24-.84,2.14.4a11.392,11.392,0,0,1,1.465,2.872c.026.072.045.147.068.22" transform="translate(890.247 -268.47)" fill="#d81d15"/>
    <path id="Path_7156_-_Outline" data-name="Path 7156 - Outline" d="M512.795,84.338c-.023,0-.046,0-.069,0a.524.524,0,0,1-.44-.307,1.971,1.971,0,0,1-.145-.516,1.931,1.931,0,0,0-.124-.461,8.165,8.165,0,0,0-1.65-2.445.565.565,0,0,1-.22-.443c.025-.174.193-.282.317-.348a1.51,1.51,0,0,0,.142-.091l.041-.028c.578-.391.9-.607,1.183-.607.366,0,.6.323,1.117,1.032a11.354,11.354,0,0,1,1.48,2.9c.018.048.032.1.046.144.008.026.015.05.022.075a.284.284,0,0,1-.142.376l-.034.022a1.063,1.063,0,0,1-.127.074c-.138.065-.282.152-.422.235A2.067,2.067,0,0,1,512.795,84.338Zm-.965-5.015c-.216,0-.531.213-1.052.567l-.04.028a1.7,1.7,0,0,1-.165.1c-.153.081-.191.14-.2.176s.017.111.153.243a6.92,6.92,0,0,1,.959,1.183,11.879,11.879,0,0,1,.737,1.327,2.09,2.09,0,0,1,.143.519c.071.379.128.612.377.634l.049,0a1.925,1.925,0,0,0,.855-.355c.145-.087.294-.176.442-.246a.869.869,0,0,0,.1-.059l.037-.024c.072-.045.065-.062.051-.092l0-.006,0-.006c-.009-.029-.018-.058-.026-.085-.013-.046-.026-.089-.041-.13a11.134,11.134,0,0,0-1.449-2.843C512.273,79.593,512.067,79.323,511.829,79.323Z" transform="translate(890.631 -268.086)" fill="rgba(0,0,0,0)"/>
    <path id="Path_7157" data-name="Path 7157" d="M444.272,84.32c-.494-.247-1.036-.5-1.557-.79-.164-.091-.038-.3.007-.427a11.742,11.742,0,0,1,2.131-3.761.415.415,0,0,1,.676-.075c.4.3,1.029.5,1.177.889.176.462-.519.748-.791,1.144a10.456,10.456,0,0,0-1.319,2.633c-.047.141-.016.372-.324.387" transform="translate(941.685 -268.006)" fill="#d81d15"/>
    <path id="Path_7157_-_Outline" data-name="Path 7157 - Outline" d="M443.864,84.054l-.027-.014-.417-.206c-.376-.184-.765-.375-1.145-.587a.267.267,0,0,1-.14-.269.79.79,0,0,1,.068-.23c.01-.025.02-.048.026-.067a11.916,11.916,0,0,1,2.152-3.8.581.581,0,0,1,.44-.257.664.664,0,0,1,.4.164,3.974,3.974,0,0,0,.44.272,1.583,1.583,0,0,1,.775.669c.145.382-.172.656-.452.9a2.092,2.092,0,0,0-.352.354,10.281,10.281,0,0,0-1.3,2.6.7.7,0,0,0-.018.079.564.564,0,0,1-.089.239.4.4,0,0,1-.321.148Zm.957-5.195c-.05,0-.131.018-.262.174a11.685,11.685,0,0,0-2.11,3.724c-.009.026-.02.052-.031.08a.633.633,0,0,0-.051.161c0,.032.005.038.022.047.375.209.761.4,1.134.581l.39.192c.129-.014.141-.078.165-.2a.878.878,0,0,1,.026-.107,10.51,10.51,0,0,1,1.333-2.662,2.251,2.251,0,0,1,.392-.4c.295-.255.468-.425.387-.639s-.382-.386-.671-.548a4.144,4.144,0,0,1-.467-.289A.465.465,0,0,0,444.821,78.859Z" transform="translate(942.069 -267.622)" fill="rgba(0,0,0,0)"/>
    <path id="Path_7158" data-name="Path 7158" d="M445.377,123.874a.539.539,0,0,1-.341-.254,11.5,11.5,0,0,1-2.118-3.686c-.114-.324-.08-.54.288-.669.469-.166.934-.681,1.349-.548.384.124.351.825.548,1.256a9.1,9.1,0,0,0,1.661,2.487c.235.248.241.377-.058.554-.364.216-.7.472-1.057.707-.094.063-.2.111-.273.153" transform="translate(941.743 -297.935)" fill="#d81d15"/>
    <path id="Path_7158_-_Outline" data-name="Path 7158 - Outline" d="M445.014,123.611l-.04-.006a.572.572,0,0,1-.375-.25l-.035-.043a11.67,11.67,0,0,1-2.139-3.723.715.715,0,0,1-.036-.486.585.585,0,0,1,.395-.332,2.64,2.64,0,0,0,.484-.26,1.567,1.567,0,0,1,.761-.316.579.579,0,0,1,.178.028c.314.1.4.471.476.829a2.582,2.582,0,0,0,.142.489,9.035,9.035,0,0,0,1.64,2.456.534.534,0,0,1,.2.41.51.51,0,0,1-.284.324c-.235.139-.465.3-.687.454-.119.083-.242.168-.364.25a2.279,2.279,0,0,1-.21.12l-.071.038Zm-.985-5.183a1.406,1.406,0,0,0-.638.281,2.8,2.8,0,0,1-.53.282c-.273.1-.323.218-.217.521a11.439,11.439,0,0,0,2.1,3.649l.04.049a.384.384,0,0,0,.2.158l.037-.019a2.1,2.1,0,0,0,.189-.108c.121-.081.243-.165.361-.247.226-.157.46-.32.7-.463.143-.084.169-.134.172-.156s-.017-.089-.14-.218a9.266,9.266,0,0,1-1.682-2.519,2.743,2.743,0,0,1-.158-.535c-.069-.308-.134-.6-.321-.659A.343.343,0,0,0,444.029,118.428Z" transform="translate(942.127 -297.551)" fill="rgba(0,0,0,0)"/>
    <path id="Path_7159" data-name="Path 7159" d="M512.616,123.861c-.234-.157-.49-.326-.743-.5-.854-.59-.856-.593-.214-1.377a8,8,0,0,0,1.572-2.942c.094-.341.215-.5.583-.281a3.98,3.98,0,0,0,.838.392c.554.178.608.474.388.985a12.665,12.665,0,0,1-1.99,3.38.842.842,0,0,1-.433.344" transform="translate(889.689 -297.922)" fill="#d81d15"/>
    <path id="Path_7159_-_Outline" data-name="Path 7159 - Outline" d="M512.211,123.6l-.044-.03-.214-.143c-.173-.115-.352-.235-.53-.358-.457-.315-.686-.474-.718-.7s.139-.432.48-.848a7.835,7.835,0,0,0,1.55-2.9c.042-.152.13-.469.414-.469a.679.679,0,0,1,.341.119,3.857,3.857,0,0,0,.813.381.806.806,0,0,1,.541.395.911.911,0,0,1-.081.747,12.819,12.819,0,0,1-2.009,3.41l-.049.058a.823.823,0,0,1-.442.321Zm.937-5.213c-.056,0-.117.036-.19.3a8.063,8.063,0,0,1-1.594,2.984c-.279.34-.447.546-.429.669s.244.281.62.54c.176.122.354.241.527.356l.168.112a.651.651,0,0,0,.275-.229l.053-.063a12.6,12.6,0,0,0,1.971-3.35.73.73,0,0,0,.083-.559.612.612,0,0,0-.4-.27,4.088,4.088,0,0,1-.863-.4A.462.462,0,0,0,513.148,118.391Z" transform="translate(890.074 -297.538)" fill="rgba(0,0,0,0)"/>
    <path id="Subtraction_7" data-name="Subtraction 7" d="M7.575,15.137a7.457,7.457,0,0,1-2.944-.6A7.675,7.675,0,0,1,.589,10.488,7.415,7.415,0,0,1,0,7.551,7.509,7.509,0,0,1,2.186,2.223,7.735,7.735,0,0,1,7.579,0h.093a7.051,7.051,0,0,1,2.836.6,7.7,7.7,0,0,1,2.37,1.624,7.814,7.814,0,0,1,1.635,2.381,7.32,7.32,0,0,1,.631,2.873,7.2,7.2,0,0,1-.574,2.9,7.923,7.923,0,0,1-4,4.109,7.217,7.217,0,0,1-2.885.65ZM7.1,10.189a.293.293,0,0,1,.058.006,5.372,5.372,0,0,1-.931,1.58c-.128.169-.259.344-.384.523h3.4c-.117-.163-.239-.323-.357-.477a5.091,5.091,0,0,1-.982-1.7l.17.151c.113.1.22.194.324.291a2.361,2.361,0,0,0,1.6.65,2.178,2.178,0,0,0,.938-.212,2.383,2.383,0,0,0,.808-.631A3.019,3.019,0,0,0,12.316,9.3a3.223,3.223,0,0,0,.127-1.193,3.182,3.182,0,0,0-.314-1.155A2.942,2.942,0,0,0,11.385,6a8.452,8.452,0,0,0-1.19-.822A7.384,7.384,0,0,1,7.547,2.716l-.238.3c-.154.194-.3.378-.446.556A9.141,9.141,0,0,1,4.733,5.3c-.2.13-.4.265-.6.4A3.392,3.392,0,0,0,2.8,7.191a3.145,3.145,0,0,0-.057,1.945,2.892,2.892,0,0,0,.57,1.216,2.3,2.3,0,0,0,1.136.728,2.361,2.361,0,0,0,.672.1,2.464,2.464,0,0,0,1.747-.818.45.45,0,0,0,.047-.058A.214.214,0,0,1,7.1,10.189Z" transform="translate(1387.195 -189.198)"/>
    <path id="Subtraction_7_-_Outline" data-name="Subtraction 7 - Outline" d="M7.191,14.87h0A7.573,7.573,0,0,1,4.2,14.257,7.791,7.791,0,0,1,.1,10.149,7.53,7.53,0,0,1-.5,7.166,7.625,7.625,0,0,1,1.72,1.757,7.851,7.851,0,0,1,7.193-.5h.094A7.166,7.166,0,0,1,10.17.11a7.82,7.82,0,0,1,2.406,1.648,7.929,7.929,0,0,1,1.659,2.417,7.435,7.435,0,0,1,.64,2.918,7.315,7.315,0,0,1-.583,2.946,8.039,8.039,0,0,1-4.063,4.17,7.332,7.332,0,0,1-2.932.661Zm.1-15.137H7.2A7.62,7.62,0,0,0,1.884,1.921,7.394,7.394,0,0,0-.268,7.167a7.3,7.3,0,0,0,.579,2.892,7.558,7.558,0,0,0,3.981,3.985,7.342,7.342,0,0,0,2.9.594h.1A7.1,7.1,0,0,0,10.134,14a7.807,7.807,0,0,0,3.945-4.048A7.084,7.084,0,0,0,14.643,7.1a7.2,7.2,0,0,0-.621-2.827,7.7,7.7,0,0,0-1.611-2.346,7.589,7.589,0,0,0-2.334-1.6A6.935,6.935,0,0,0,7.287-.268Zm1.795,12.3H5.238l.126-.182c.126-.181.258-.357.386-.527a6.49,6.49,0,0,0,.795-1.236,2.558,2.558,0,0,1-1.806.829,2.477,2.477,0,0,1-.705-.107,2.412,2.412,0,0,1-1.192-.765A3.006,3.006,0,0,1,2.25,8.778a3.254,3.254,0,0,1,.062-2.015,3.5,3.5,0,0,1,1.37-1.54c.2-.137.4-.272.6-.4a9.053,9.053,0,0,0,2.1-1.706c.147-.177.291-.361.444-.554l.239-.3.1-.128.087.139A7.273,7.273,0,0,0,9.87,4.689a8.564,8.564,0,0,1,1.206.833,3.058,3.058,0,0,1,.774,1,3.3,3.3,0,0,1,.325,1.2,3.339,3.339,0,0,1-.132,1.236,3.135,3.135,0,0,1-.6,1.114,2.5,2.5,0,0,1-.847.661,2.293,2.293,0,0,1-.988.223,2.477,2.477,0,0,1-1.676-.681l-.147-.133a6.6,6.6,0,0,0,.806,1.232c.118.155.241.315.359.48Zm-3.4-.232H8.627c-.073-.1-.147-.2-.22-.29a5.179,5.179,0,0,1-1-1.736L7.3,9.391l.3.265.169.15c.114.1.221.2.326.293a2.245,2.245,0,0,0,1.518.619,2.063,2.063,0,0,0,.889-.2,2.268,2.268,0,0,0,.768-.6,2.9,2.9,0,0,0,.556-1.032,3.108,3.108,0,0,0,.123-1.15,3.067,3.067,0,0,0-.3-1.113,2.827,2.827,0,0,0-.715-.922,8.34,8.34,0,0,0-1.174-.811,7.58,7.58,0,0,1-2.6-2.358L7.015,2.7c-.154.195-.3.379-.448.558A9.229,9.229,0,0,1,4.412,5.015c-.2.13-.4.264-.6.4A3.283,3.283,0,0,0,2.527,6.85a3.037,3.037,0,0,0-.051,1.876,2.778,2.778,0,0,0,.546,1.168,2.184,2.184,0,0,0,1.08.691,2.245,2.245,0,0,0,.639.1A2.354,2.354,0,0,0,6.406,9.9a.378.378,0,0,0,.034-.043.324.324,0,0,1,.277-.166A.409.409,0,0,1,6.8,9.7l.127.026-.039.123a5.459,5.459,0,0,1-.949,1.615C5.853,11.572,5.768,11.684,5.685,11.8Z" transform="translate(1387.579 -188.815)" fill="rgba(0,0,0,0)"/>
  </g>
</svg>
