<?xml version="1.0" encoding="UTF-8"?>
<svg id="Layer_1" data-name="Layer 1" xmlns="http://www.w3.org/2000/svg" xmlns:xlink="http://www.w3.org/1999/xlink" viewBox="0 0 633.6 600">
  <defs>
    <style>
      .cls-1 {
        fill: url(#linear-gradient-8);
      }

      .cls-2 {
        fill: url(#linear-gradient-7);
      }

      .cls-3 {
        fill: url(#linear-gradient-5);
      }

      .cls-4 {
        fill: url(#linear-gradient-6);
      }

      .cls-5 {
        fill: url(#linear-gradient-9);
      }

      .cls-6 {
        fill: url(#linear-gradient-4);
      }

      .cls-7 {
        fill: url(#linear-gradient-3);
      }

      .cls-8 {
        fill: url(#linear-gradient-2);
      }

      .cls-9 {
        fill: url(#linear-gradient);
      }

      .cls-10 {
        fill: url(#linear-gradient-10);
      }

      .cls-11 {
        fill: url(#linear-gradient-11);
      }

      .cls-12 {
        fill: url(#linear-gradient-12);
      }

      .cls-13 {
        fill: url(#linear-gradient-13);
      }

      .cls-14 {
        fill: url(#linear-gradient-14);
      }

      .cls-15 {
        fill: url(#linear-gradient-15);
      }

      .cls-16 {
        fill: url(#linear-gradient-16);
      }
    </style>
    <linearGradient id="linear-gradient" x1="120.64" y1="-1542.07" x2="825.63" y2="-1997.85" gradientTransform="translate(0 -1406.7) scale(1 -1)" gradientUnits="userSpaceOnUse">
      <stop offset="0" stop-color="#846226"/>
      <stop offset=".08" stop-color="#ca912c"/>
      <stop offset=".17" stop-color="#f5cf6f"/>
      <stop offset=".28" stop-color="#efab2a"/>
      <stop offset=".39" stop-color="#dd9e28"/>
      <stop offset=".46" stop-color="#b2802c"/>
      <stop offset=".53" stop-color="#e6a42c"/>
      <stop offset=".75" stop-color="#f6d990"/>
      <stop offset=".83" stop-color="#f0b543"/>
      <stop offset=".9" stop-color="#efab2a"/>
      <stop offset="1" stop-color="#3e2f18"/>
    </linearGradient>
    <linearGradient id="linear-gradient-2" x1="768.95" y1="-1986.23" x2="-112.8" y2="-1869.81" gradientTransform="translate(0 -1406.7) scale(1 -1)" gradientUnits="userSpaceOnUse">
      <stop offset="0" stop-color="#efab2a"/>
      <stop offset=".58" stop-color="#f6d990"/>
      <stop offset="1" stop-color="#f0b543"/>
    </linearGradient>
    <linearGradient id="linear-gradient-3" x1="769.5" y1="-1981.91" x2="-112.21" y2="-1865.54" xlink:href="#linear-gradient-2"/>
    <linearGradient id="linear-gradient-4" x1="770.4" y1="-1975.16" x2="-111.31" y2="-1858.75" xlink:href="#linear-gradient-2"/>
    <linearGradient id="linear-gradient-5" x1="771.23" y1="-1968.84" x2="-110.48" y2="-1852.43" xlink:href="#linear-gradient-2"/>
    <linearGradient id="linear-gradient-6" x1="772.01" y1="-1962.95" x2="-109.7" y2="-1846.58" xlink:href="#linear-gradient-2"/>
    <linearGradient id="linear-gradient-7" x1="773.14" y1="-1954.57" x2="-108.61" y2="-1838.16" xlink:href="#linear-gradient-2"/>
    <linearGradient id="linear-gradient-8" x1="774.4" y1="-1944.9" x2="-107.31" y2="-1828.49" xlink:href="#linear-gradient-2"/>
    <linearGradient id="linear-gradient-9" x1="775.45" y1="-1937.04" x2="-106.3" y2="-1820.62" xlink:href="#linear-gradient-2"/>
    <linearGradient id="linear-gradient-10" x1="776.51" y1="-1929.03" x2="-105.24" y2="-1812.66" xlink:href="#linear-gradient-2"/>
    <linearGradient id="linear-gradient-11" x1="777.32" y1="-1922.84" x2="-104.43" y2="-1806.43" xlink:href="#linear-gradient-2"/>
    <linearGradient id="linear-gradient-12" x1="777.93" y1="-1918.17" x2="-103.78" y2="-1801.76" xlink:href="#linear-gradient-2"/>
    <linearGradient id="linear-gradient-13" x1="336.86" y1="-1687.59" x2="450.25" y2="-1687.59" xlink:href="#linear-gradient"/>
    <linearGradient id="linear-gradient-14" x1="-708" y1="655.34" x2="-703.8" y2="655.34" gradientTransform="translate(185126.6 -32195.62) rotate(32.88) scale(194.66)" xlink:href="#linear-gradient"/>
    <linearGradient id="linear-gradient-15" x1="168.74" y1="-1651.53" x2="355.75" y2="-1651.53" xlink:href="#linear-gradient"/>
    <linearGradient id="linear-gradient-16" x1="-708.13" y1="655.38" x2="-703.93" y2="655.38" gradientTransform="translate(188214.54 -32705.95) rotate(32.88) scale(197.9)" xlink:href="#linear-gradient"/>
  </defs>
  <g id="Layer_2" data-name="Layer 2">
    <g id="assets">
      <path class="cls-9" d="M177.4,172.12c-.01-.1-.01-.2,0-.29-.63.17-.5.25,0,.29Z"/>
      <path class="cls-8" d="M42.76,490.49c0,6.55,0,11.97.38,14.82.21,1.97.63,3.49,2.73,3.78,1.01,0,2.56.25,3.19.25s.59,0,.59.42-.34.55-1.13.55c-3.91,0-8.4-.21-8.74-.21s-4.83.21-6.93.21c-.8,0-1.13,0-1.13-.55s0-.42.55-.42c.72-.02,1.44-.11,2.14-.25,1.43-.29,1.76-1.81,2.06-3.78.34-2.86.34-8.4.34-14.82v-28.94h-10.5c-4.2,0-6.09.55-7.22,2.18-.49.66-.9,1.38-1.22,2.14,0,.55-.42.67-.71.67s-.34.08-.34-.5,1.43-6.55,1.55-7.1.42-1.3.71-1.3c1,.39,2.04.65,3.11.8,2.06,0,4.79.38,5.63.38h26.79c1.69.02,3.37-.1,5.04-.38,1.05,0,1.72-.34,1.97-.34s.38.42.38.84c0,2.06-.21,6.76-.21,7.52s-.21.88-.5.88-.5,0-.59-1.18v-.71c-.21-2.06-1.93-3.65-8.74-3.78h-8.95l-.25,28.81Z"/>
      <path class="cls-7" d="M76.65,478.44v-14.78c0-2.18-.71-3.4-3.07-3.91-.8-.07-1.6-.07-2.39,0-.29,0-.59,0-.59-.38s.38-.55,1.13-.55h16.42c4.54-.34,9.08.7,13.02,2.98,2.84,2.16,4.56,5.47,4.7,9.03-.31,6.25-3.39,12.04-8.4,15.79,5.8,7.18,10.63,13.27,14.74,17.51,2.22,2.6,5.28,4.34,8.65,4.91.92.07,1.85.07,2.77,0,.34,0,.63,0,.63.42s-.42.55-1.68.55h-5c-2.6.24-5.23-.2-7.6-1.3-3.82-2.68-7.07-6.1-9.58-10.04-2.98-3.78-6.3-8.4-7.73-10.12-.22-.28-.57-.43-.92-.42h-8.74c-.34,0-.5,0-.5.55v1.64c0,6.55,0,11.97.38,14.82.21,1.97.63,3.49,2.77,3.78.97,0,2.52.25,3.19.25s.55,0,.55.42-.34.55-1.13.55c-3.91,0-8.4-.21-8.74-.21s-4.54.21-6.64.21c-.8,0-1.13,0-1.13-.55s0-.42.55-.42c.72-.02,1.44-.11,2.14-.25,1.43-.29,1.76-1.81,2.06-3.78.34-2.86.34-8.4.34-14.82l-.21-11.88ZM82.32,484.4c0,.34.2.64.5.8,2.39.83,4.91,1.21,7.43,1.09,1.87.1,3.72-.35,5.33-1.3,3.03-2.61,4.59-6.52,4.2-10.5,0-8.4-4.66-13.69-12.26-13.69-1.59-.04-3.18.1-4.75.42-.37.08-.62.42-.59.8l.13,22.38Z"/>
      <path class="cls-6" d="M130.19,478.44v-14.78c0-2.18-.84-3.49-2.39-3.82-.73-.18-1.48-.28-2.23-.29-.29,0-.55,0-.55-.38s.34-.55,1.13-.55h14.11c.76,0,1.13,0,1.13.55s-.29.38-.59.38c-.59-.04-1.18-.04-1.76,0-1.89.38-2.48,1.51-2.6,3.91s0,4.2,0,14.78v12.05c0,6.55,0,11.97.38,14.82.21,1.97.63,3.49,2.77,3.78.97,0,2.48.25,2.9.25s.84,0,.84.42-.29.55-1.05.55c-3.91,0-8.4-.21-8.82-.21s-4.79.21-6.93.21c-.8,0-1.13,0-1.13-.55s0-.42.76-.42c.61.07,1.23.07,1.85,0,1.43-.25,1.85-1.85,2.14-3.82.34-2.86.34-8.4.34-14.82l-.29-12.05Z"/>
      <path class="cls-3" d="M176.39,490.49c0,6.55,0,11.97.38,14.82,0,1.97.63,3.49,2.73,3.78,1.01,0,2.56.25,3.19.25s.59,0,.59.42-.34.55-1.13.55c-3.91,0-8.4-.21-8.74-.21s-4.83.21-6.93.21c-.8,0-1.13,0-1.13-.55s0-.42.55-.42c.72-.02,1.44-.11,2.14-.25,1.43-.29,1.76-1.81,2.06-3.78.34-2.86.34-8.4.34-14.82v-28.94h-10.5c-4.2,0-6.09.55-7.22,2.18-.49.66-.9,1.38-1.22,2.14,0,.55-.42.67-.71.67s-.34-.21-.34-.63,1.43-6.55,1.55-7.1.42-1.3.71-1.3c1,.39,2.04.65,3.11.8,2.06,0,4.79.38,5.63.38h26.58c1.69.02,3.37-.1,5.04-.38,1.05,0,1.72-.34,1.97-.34s.38.42.38.84v7.52c0,.76-.21.88-.5.88s-.5,0-.59-1.18v-.71c0-2.06-1.93-3.65-8.74-3.78h-8.95l-.25,28.94Z"/>
      <path class="cls-4" d="M200.91,484.4c.08-14.87,12.2-26.85,27.07-26.77.29,0,.57,0,.86.02,15.96,0,27.89,9.7,27.89,25.66.38,15.07-11.53,27.6-26.6,27.98-.57.01-1.14.01-1.71-.01-14.36.82-26.66-10.15-27.48-24.51-.05-.79-.05-1.58-.03-2.37ZM249.92,485.2c0-16.42-10.37-25.2-21.59-25.2s-20.7,7.52-20.7,22.51c0,15.96,9.91,26.21,22.72,26.21,6.34-.08,19.57-3.61,19.57-23.52Z"/>
      <path class="cls-2" d="M270.84,490.16v-29.1c0-2.65,0-3.4.8-3.4s1.76,1.51,2.48,2.18,11.63,12.18,22.55,23.48c7.01,7.22,14.74,15.58,16.8,17.85l-.76-34.77c0-4.45-.59-5.92-2.77-6.47-1.01-.24-2.03-.36-3.07-.38-.76,0-.97,0-.97-.46s.55-.46,1.39-.46h13.44c.76,0,1.26,0,1.26.46s-.29.42-.8.46l-1.81.29c-2.02.42-2.52,1.43-2.52,6.17v39.94c0,4.49,0,4.83-.63,4.83s-1.43-.76-5.17-4.2c-.8-.67-11-10.75-18.52-18.52-8.4-8.4-16.25-17.18-18.52-19.65l.92,32.76c0,5.63.84,7.39,2.77,7.94,1.15.29,2.34.43,3.53.42.38,0,.59,0,.59.42s-.42.55-1.3.55c-4.2,0-6.85-.21-7.52-.21s-3.61.21-6.8.21c-.71,0-1.13,0-1.13-.55s.21-.42.59-.42c.98.01,1.96-.13,2.9-.42,1.76-.46,2.14-2.44,2.14-8.65l.13-10.29Z"/>
      <path class="cls-1" d="M363.36,478.44v-14.78c0-2.18-.71-3.4-3.07-3.91-.8-.07-1.6-.07-2.39,0-.29,0-.59,0-.59-.38s.38-.55,1.13-.55h16.97c8.86,0,12.05,2.86,13.19,3.91,2.35,2.37,3.62,5.61,3.53,8.95,0,8.9-7.35,15.45-17.43,15.45-.49.04-.98.04-1.47,0-.38,0-.8,0-.8-.46s.42-.63,1.93-.63c6.35.28,11.73-4.63,12.01-10.98.01-.33.02-.66,0-.99.03-3.77-1.49-7.38-4.2-10-2.6-2.46-6.13-3.7-9.7-3.4-1.04-.04-2.07.09-3.07.38-.42,0-.55.63-.55,1.3v28.14c0,6.55,0,11.97.34,14.82.21,1.97.63,3.49,2.77,3.78,1.01,0,2.56.25,3.19.25s.55,0,.55.42-.34.55-1.13.55c-3.86,0-8.4-.21-8.69-.21s-4.7.21-6.8.21c-.8,0-1.13,0-1.13-.55s0-.42.55-.42c.72-.02,1.44-.11,2.14-.25,1.43-.29,1.76-1.81,2.06-3.78.34-2.86.34-8.4.34-14.82l.34-12.05Z"/>
      <path class="cls-5" d="M400.82,484.4c.08-14.87,12.2-26.85,27.07-26.77.29,0,.57,0,.86.02,15.96,0,27.89,9.7,27.89,25.66.38,15.07-11.53,27.6-26.6,27.98-.55.01-1.11.01-1.66,0-14.36.84-26.68-10.11-27.52-24.47-.05-.8-.06-1.61-.03-2.41ZM449.83,485.2c0-16.42-10.37-25.2-21.59-25.2s-20.87,7.48-20.87,22.47c0,15.96,9.95,26.21,22.72,26.21,6.68-.04,19.74-3.57,19.74-23.48Z"/>
      <path class="cls-10" d="M478.38,482.81c2.18-2.06,11.84-11.84,16.17-16.13,4.33-4.28,4.54-4.91,4.54-5.75,0-.59-.37-1.11-.92-1.3-.46,0-.63-.34-.63-.63s.42-.38,1.05-.38h11.72c1.13,0,1.22,0,1.22.46s0,.42-.8.46c-1.24.12-2.45.4-3.61.84-2.81,1.29-5.33,3.15-7.39,5.46-6.22,5.84-14.32,13.56-16.17,15.54,4.45,4.7,17.39,17.39,20.7,20.37,5.84,5.29,8.4,6.8,11.72,7.39.68.09,1.37.09,2.06,0,.55,0,1.01,0,1.01.5s-.29.46-1.09.46h-5.17c-4.01.53-8.05-.66-11.13-3.28-8.22-7.32-15.99-15.13-23.27-23.39v7.06c0,6.55,0,11.97.38,14.82,0,1.97.63,3.49,2.73,3.78l2.86.25c.63,0,.84.29.84.5s-.25.46-1.05.46c-3.91,0-8.4-.21-8.74-.21s-4.54.21-6.68.21c-.76,0-1.13,0-1.13-.46s0-.5.8-.5c.61.07,1.23.07,1.85,0,1.43-.25,1.85-1.85,2.14-3.82.34-2.86.34-8.4.34-14.82v-27.05c0-2.18-.88-3.49-2.44-3.82-.84-.19-1.7-.29-2.56-.29-.55,0-.76,0-.76-.38s.34-.55,1.13-.55h14.4c.76,0,1.13,0,1.13.46s0,.42-.8.46h-1.55c-1.93.21-2.48,1.55-2.65,3.95s0,4.2,0,14.78l-.25,4.54Z"/>
      <path class="cls-11" d="M527.52,478.44v-14.78c0-2.18-.71-3.4-3.07-3.91h-2.06c-.67,0-.92,0-.92-.38s.38-.55,1.13-.55h24.27c1.11-.05,2.21-.25,3.28-.59.22-.15.49-.24.76-.25,0,0,.29.25.29.59-.24,1.07-.43,2.15-.55,3.23,0,1.01,0,2.31-.29,4.2,0,.67-.29,1.13-.59,1.13s-.55-.34-.55-.88c0-.77-.12-1.54-.38-2.27-.5-1.55-1.97-2.23-5.08-2.52h-9.74c-.8,0-.42,0-.42.67v18.9c0,.46,0,.67.42.67h11.3c1.64,0,2.81-.34,3.53-1.18s.59-.67.88-.67.34,0,.34.55-.34,1.6-.59,3.82,0,3.7-.25,4.66,0,1.01-.5,1.01-.5-.55-.5-1.09c0-.64-.09-1.28-.29-1.89-.25-1.05-1.13-1.97-3.7-2.27-1.89,0-8.9-.34-10.12-.34-.25-.02-.48.16-.5.42,0,.01,0,.03,0,.04v17.72c0,2.81.59,4.2,2.35,5,1.91.53,3.9.74,5.88.63,2.15.07,4.29-.14,6.38-.63,2.27-.67,3.07-2.1,3.61-5.04,0-.76.29-1.05.63-1.05s.46.55.46,1.05-.59,5.17-.92,6.64-1.09,1.76-3.86,1.76h-10.33c-2.77,0-6.09-.21-8.86-.21-1.72,0-3.4.29-5.25.21-.8,0-1.13,0-1.13-.55s.34-.34.76-.42c.54.08,1.09.08,1.64,0,1.51-.34,2.44-1.3,2.56-6.43v-25.03Z"/>
      <path class="cls-12" d="M569.22,478.44v-14.78c0-2.18-.71-3.4-3.07-3.91-.8-.07-1.6-.07-2.39,0-.29,0-.59,0-.59-.38s.38-.55,1.13-.55h16.42c4.53-.35,9.05.69,12.98,2.98,2.86,2.14,4.61,5.46,4.75,9.03-.31,6.25-3.39,12.04-8.4,15.79,5.63,7.27,10.5,13.35,14.7,17.81,2.22,2.6,5.28,4.34,8.65,4.91.92.07,1.85.07,2.77,0,.34,0,.63,0,.63.42s-.42.55-1.68.55h-5.04c-2.6.24-5.23-.2-7.6-1.3-3.82-2.68-7.07-6.1-9.58-10.04-2.98-3.78-6.3-8.4-7.73-10.12-.22-.28-.57-.43-.92-.42h-8.74c-.34,0-.5,0-.5.55v1.64c0,6.55,0,11.97.38,14.82.21,1.97.63,3.49,2.77,3.78.97,0,2.52.25,3.19.25s.55,0,.55.42-.34.55-1.13.55c-3.91,0-8.4-.21-8.74-.21s-4.54.21-6.64.21c-.8,0-1.13,0-1.13-.55s0-.42.55-.42c.72-.02,1.44-.11,2.14-.25,1.43-.29,1.76-1.81,2.06-3.78.34-2.86.34-8.4.34-14.82l-.13-12.18ZM574.89,484.4c0,.34.2.64.5.8,2.39.83,4.91,1.21,7.43,1.09,1.87.1,3.72-.35,5.33-1.3,3.03-2.61,4.59-6.52,4.2-10.5,0-8.4-4.66-13.69-12.26-13.69-1.59-.04-3.18.1-4.75.42-.37.08-.62.42-.59.8l.13,22.38Z"/>
      <path class="cls-13" d="M450.25,164.81s-15.92,9.32-16.8,56.57c-.88,47.25,1.34,44.26,0,76.85-1.34,32.59-8.69,114.15-96.59,97.81,0,0,27.68-7.18,37.54-48.42,9.87-41.24,10.54-59.59,9.91-85-.63-25.41-7.94-110.11,65.93-97.81Z"/>
      <path class="cls-14" d="M435.13,166.28c-2.39.04-4.77.24-7.14.59-7.34,1.15-14.23,4.25-19.95,8.99-8.82,7.27-16,21.46-19.61,42-.77,5.3-1.1,10.65-1.01,16v10.58c.97,29.02,2.9,135.4-37.17,150.81,1.68,0,3.57.29,5.63.34h2.23c24,.69,46.39-12.05,58.04-33.05.59-.88,12.22-21.88,14.11-59.97v-11.3c0-5.17.29-10.75.25-17.09-.04-6.34,0-12.22,0-17.43v-1.6c0-3.74-4.79-74.54,12.26-88.61-1.47,0-3.44-.29-5.59-.29-.42,0-1.13.08-2.06.04Z"/>
      <path class="cls-15" d="M355.12,285.26c1.65,17.92.03,35.99-4.79,53.34-3.21,15.08-11.76,28.5-24.06,37.8-11.97,9.45-24.27,19.15-58.79,21-24.69,1.47-54.6-14.82-67.19-39.94,0,0-8.4-11.55-12.18-36.87-2.98-23.2-3.9-46.61-2.77-69.97.38-21.88,3.23-72.32-16.59-85.38,12.47-4.18,26.1-3.15,37.8,2.86,21.42,9.87,24.99,33.6,25.7,36.37s8.65,42.88,12.14,61.61c3.49,18.73,4.87,53.59,32.04,48.25,27.17-5.33,9.16-51.49,4.16-91.26s-2.35-63.96,2.65-86.09c5-22.13,25.2-53.17,65.09-42.67,0,0-19.61,16.8-16.55,59.42,3.07,42.63,5.75,52.5,10.21,67.19,4.45,14.7,11.93,39.56,13.14,64.34Z"/>
      <path class="cls-16" d="M351.13,309.78c1.83-29.09-2.21-58.26-11.88-85.76,0-.46-2.31-8.19-4.83-20.54-.92-4.54-1.93-9.66-2.77-15.24-2.43-14.53-3.57-29.24-3.4-43.97.5-20.58,4.87-40.32,13.86-48.55-3.21-.55-6.45-.83-9.7-.84-8.64-.07-17.08,2.53-24.19,7.43-6.78,4.93-12.34,11.36-16.25,18.77-3.82,7.48-6.36,15.54-7.52,23.85-2.56,14.11-3.67,28.45-3.32,42.79.28,14.34,1.39,28.66,3.32,42.88.76,3.4,15.66,68.03,6.59,76.43-3.78,7.06-11.33,11.27-19.32,10.79-2.52-.02-5.02-.31-7.48-.88-3.01-.96-5.76-2.59-8.06-4.75-2.34-2.04-4.2-4.58-5.42-7.43-.38-.59-6.17-9.32-10.75-43-.55-3.19-10.5-63.71-17.51-73.07-7.71-14.28-22.75-23.05-38.97-22.72-2.52,0-5.17.21-6.17,0,2.31,4.7,14.53,24.69,10.5,90.04,0,3.78-2.98,76.22,14.91,100.08,12.71,23.77,37.59,38.5,64.55,38.22,8.35-.01,16.67-1.11,24.74-3.28l2.69-.76c3.51-1.12,6.92-2.52,10.21-4.2,14.15-6.72,38.13-22.64,42.96-54.6,1.7-7.13,2.78-14.4,3.23-21.71Z"/>
    </g>
  </g>
</svg>