<?xml version="1.0" encoding="UTF-8"?>
<svg id="Layer_1" data-name="Layer 1" xmlns="http://www.w3.org/2000/svg" xmlns:xlink="http://www.w3.org/1999/xlink" viewBox="0 0 633.6 600">
  <defs>
    <style>
      .cls-1 {
        fill: url(#linear-gradient-4);
      }

      .cls-2 {
        fill: url(#linear-gradient-3);
      }

      .cls-3 {
        fill: url(#linear-gradient-2);
      }

      .cls-4 {
        fill: url(#linear-gradient);
      }
    </style>
    <linearGradient id="linear-gradient" x1="370.45" y1="-1776.7" x2="592.79" y2="-1776.7" gradientTransform="translate(0 -1406.7) scale(1 -1)" gradientUnits="userSpaceOnUse">
      <stop offset="0" stop-color="#846226"/>
      <stop offset=".08" stop-color="#ca912c"/>
      <stop offset=".17" stop-color="#f5cf6f"/>
      <stop offset=".28" stop-color="#efab2a"/>
      <stop offset=".39" stop-color="#dd9e28"/>
      <stop offset=".46" stop-color="#b2802c"/>
      <stop offset=".53" stop-color="#e6a42c"/>
      <stop offset=".75" stop-color="#f6d990"/>
      <stop offset=".83" stop-color="#f0b543"/>
      <stop offset=".9" stop-color="#efab2a"/>
      <stop offset="1" stop-color="#3e2f18"/>
    </linearGradient>
    <linearGradient id="linear-gradient-2" x1="-58.12" y1="657.29" x2="-49.89" y2="657.29" gradientTransform="translate(78935.45 -101268.57) rotate(32.88) scale(194.66)" xlink:href="#linear-gradient"/>
    <linearGradient id="linear-gradient-3" x1="40.81" y1="-1706.01" x2="407.5" y2="-1706.01" xlink:href="#linear-gradient"/>
    <linearGradient id="linear-gradient-4" x1="-58.21" y1="657.43" x2="-49.98" y2="657.43" gradientTransform="translate(80245.57 -102929.24) rotate(32.88) scale(197.9)" xlink:href="#linear-gradient"/>
  </defs>
  <path class="cls-4" d="M592.79,142.39s-31.21,18.28-32.94,110.92c-1.73,92.64,2.64,86.8,0,150.7-2.64,63.9-17.05,223.82-189.4,191.79,0,0,54.27-14.08,73.62-94.95,19.35-80.87,20.67-116.85,19.43-166.67-1.24-49.82-15.56-215.92,129.29-191.79Z"/>
  <path class="cls-3" d="M563.15,145.28c-4.69.08-9.36.47-14,1.15-14.39,2.25-27.9,8.34-39.12,17.62-17.29,14.25-31.37,42.08-38.46,82.35-1.5,10.39-2.16,20.88-1.98,31.37v20.75c1.89,56.9,5.68,265.49-72.88,295.71,3.29,0,7,.58,11.03.66h4.36c47.06,1.36,90.96-23.64,113.81-64.81,1.15-1.73,23.96-42.9,27.67-117.59v-22.15c0-10.13.58-21.08.49-33.52-.08-12.43,0-23.96,0-34.17v-3.13c0-7.33-9.39-146.17,24.05-173.76-2.88,0-6.75-.58-10.95-.58-.82,0-2.22.16-4.04.08Z"/>
  <path class="cls-2" d="M406.27,378.57c3.24,35.14.06,70.58-9.39,104.58-6.3,29.58-23.05,55.89-47.19,74.11-23.47,18.53-47.6,37.55-115.29,41.17-48.42,2.88-107.05-29.07-131.76-78.31,0,0-16.47-22.65-23.88-72.3-5.83-45.48-7.65-91.39-5.44-137.19.74-42.9,6.34-141.8-32.53-167.41,24.45-8.19,51.17-6.17,74.11,5.6,42,19.35,49,65.88,50.4,71.31s16.96,84.08,23.8,120.81c6.83,36.73,9.55,105.08,62.83,94.62,53.28-10.46,17.95-100.96,8.15-178.94-9.8-77.98-4.61-125.42,5.19-168.81,9.8-43.4,49.41-104.25,127.64-83.67,0,0-38.46,32.94-32.45,116.52,6.01,83.58,11.28,102.94,20.01,131.76,8.73,28.82,23.39,77.57,25.78,126.16Z"/>
  <path class="cls-1" d="M398.45,426.66c3.59-57.05-4.34-114.23-23.3-168.16,0-.91-4.53-16.06-9.47-40.27-1.81-8.89-3.79-18.94-5.44-29.89-4.76-28.49-6.99-57.34-6.67-86.22.99-40.35,9.55-79.05,27.18-95.2-6.29-1.07-12.65-1.62-19.02-1.65-16.93-.13-33.5,4.96-47.43,14.58-13.29,9.68-24.19,22.27-31.87,36.81-7.49,14.66-12.47,30.47-14.74,46.77-5.02,27.68-7.2,55.79-6.51,83.91.55,28.13,2.73,56.2,6.51,84.08,1.48,6.67,30.72,133.4,12.93,149.87-7.42,13.84-22.21,22.1-37.88,21.16-4.94-.03-9.85-.61-14.66-1.73-5.9-1.89-11.3-5.07-15.81-9.31-4.6-3.99-8.23-8.98-10.62-14.58-.74-1.15-12.11-18.28-21.08-84.33-1.07-6.26-20.59-124.92-34.34-143.29-15.11-28-44.61-45.19-76.42-44.55-4.94,0-10.13.41-12.11,0,4.53,9.22,28.49,48.42,20.59,176.56,0,7.41-5.85,149.46,29.23,196.24,24.92,46.62,73.71,75.5,126.57,74.94,16.38-.02,32.68-2.18,48.5-6.42l5.27-1.48c6.89-2.19,13.58-4.94,20.01-8.23,27.75-13.18,74.77-44.39,84.24-107.05,3.32-13.98,5.45-28.23,6.34-42.57Z"/>
</svg>