<?xml version="1.0" encoding="UTF-8"?>
<svg id="Layer_1" data-name="Layer 1" xmlns="http://www.w3.org/2000/svg" xmlns:xlink="http://www.w3.org/1999/xlink" viewBox="0 0 633.6 600">
  <defs>
    <style>
      .cls-1 {
        fill: none;
      }

      .cls-2 {
        fill: #1e3c7a;
      }

      .cls-3 {
        fill: #fff;
      }

      .cls-4 {
        fill: #d70a0a;
      }

      .cls-5 {
        clip-path: url(#clippath);
      }
    </style>
    <clipPath id="clippath">
      <rect class="cls-1" x="16.8" y="187.1" width="600" height="225.8"/>
    </clipPath>
  </defs>
  <g id="UK_ireland_for_light_bg" data-name="UK ireland for light bg">
    <g id="Group_14533" data-name="Group 14533">
      <g id="Group_14531" data-name="Group 14531">
        <g id="Group_14530" data-name="Group 14530">
          <g id="Group_14520" data-name="Group 14520">
            <g class="cls-5">
              <g id="Mask_Group_15" data-name="Mask Group 15">
                <path id="Path_60763" data-name="Path 60763" class="cls-3" d="M517.42,364.03c0-4.26-.04-8.52.04-12.78,0-.64-.05-1.43.96-1.87,1.81-.86,3.78-1.35,5.78-1.45,2.06.03,4.06.64,5.79,1.75.94,1.36.25,2.86.27,4.3.13,7.67.4,15.31.26,22.96-.02,1-1.33,2.43-3.45,2.91-5.1,1.14-9.57-.1-9.67-2.61-.14-3.1.16-6.21.25-9.32.04-1.3,0-2.6,0-3.9h-.23"/>
                <path id="Path_60760" data-name="Path 60760" class="cls-3" d="M578.5,362.16c0-4.51-.06-8.95.09-13.38,0-.41,1.58-1.22,2.02-1.12,1.78.4,4.78,1,4.85,1.67.45,3.64.44,7.33-.02,10.97-.28,2.13-3.23,2.28-6.95,1.85"/>
                <path id="Path_60764" data-name="Path 60764" class="cls-3" d="M456.08,354.49c-.14-2.13-.1-4.26.11-6.38.15-.95,1.79-2.59,2.21-2.48,1.72.45,4.52,1.36,4.61,2.27.33,4.35.34,8.73.04,13.08-.11,2.47-2.52,2.98-4.72,2.52-.96-.2-1.89-1.85-2.07-2.93-.2-2.02-.23-4.05-.09-6.07h-.09"/>
                <path id="Path_60769" data-name="Path 60769" class="cls-3" d="M346.03,356.93c-.15-2.14-.24-4.29-.46-6.43-.14-1.31-.3-2.96,2.36-2.76,1.94.13,3.77.96,5.15,2.33.93,1.47.33,3.33.38,5.03.21,1.96.21,3.93,0,5.89-.34,1.35-1.25,2.49-2.5,3.12-3.17,1.53-5.15.75-5.2-1.82-.03-1.79,0-3.58,0-5.37h.28"/>
                <path id="Path_60765" data-name="Path 60765" class="cls-3" d="M308.85,350.1c3.36-.05,3.56.14,3.58,3.04.03,7.31.06,14.62.1,21.93,0,.62.13,1.54-.21,1.8-.87.55-1.81.99-2.78,1.33-.24-.59-1.21.6-1.21,0-.03-8.06.51-17.9.53-25.96v-2.16"/>
                <path id="Path_60761" data-name="Path 60761" class="cls-3" d="M177.02,354.66c0-1.18-.85-4.48-.67-5.64.1-.63,2.42-.71,2.67-.67.84.2,1.38,1.82,1.42,2.33.25,2.54.25,5.09,0,7.63-.07.63-1.45,1.48-2.31,1.6-1.31.18-1-1.1-1.02-1.91-.03-1.12,0-2.24,0-3.36h-.06"/>
                <path id="Path_60732" data-name="Path 60732" class="cls-3" d="M316.69,411.15c-94.16,0-188.85.25-283,.27-7.3.02-12.22-4.96-15.36-11.49-.85-1.6-1.24-3.42-1.1-5.23-.12-26.15-.42-53.96-.42-80.1v-107.33c-.04-9.85,7.9-17.88,17.75-17.95h414.14c49.66,0,99.31.02,148.97.05,3.06-.16,6.13.13,9.1.87,6.92,2.17,10,9.46,10,16.88.01,18.77.01,37.53,0,56.3,0,43.04-.69,89.15-.64,132.19-3.54.16-4.44,10.51-12.7,12.72-1.07.29-1.7,3-2.83,3-94.48,0-189.44-.18-283.92-.18h0ZM511.8,213.17c-.56-.11-1.13-.18-1.7-.22-1.88.03-3.76.14-5.64.14H55.29c-2.13,0-4.27-.03-6.4,0-4.57-.28-8.51,3.2-8.79,7.77-.03.43-.02.87.02,1.3.02,1.94.1,3.88.1,5.82v72.81c0,3.75,0,7.5.12,11.26.14,2.75,1.75,5.22,4.21,6.45,2.41,1.09,5.09,1.47,7.71,1.08,113.94.01,227.88.02,341.82.03,2.7,0,5.41-.12,8.09.06,1.5.15,2.99-.43,4-1.55,3.65-3.7,7.36-7.35,11.05-11.02,27.37-27.22,54.74-54.44,82.11-81.67,4.03-4,8.11-7.97,12.49-12.28M567.03,319.59l.15-.39c-.5-.3-1-.59-1.49-.89-1.5-.78-2.93-1.67-4.3-2.67-6.76-6.09-11.04-14.47-12-23.52,0-.76.4-1.46,1.04-1.86.93-.16,1.89.03,2.69.53.77.73,1.44,1.55,2,2.45,7.54,9.29,21.19,10.71,30.48,3.17,1.91-1.55,3.54-3.41,4.82-5.5,3.45-5.85,4.27-12.89,2.26-19.38-2.66-10.3-7.92-19.74-15.27-27.42-9.4-10.3-19.45-20.02-29.2-30-1-1-1.7-.6-2.51.23-8.64,8.72-17.41,17.31-25.91,26.17-7.34,7.4-13.08,16.23-16.87,25.94-2.76,6.09-3.27,12.96-1.43,19.39,3.48,11.46,15.6,17.92,27.05,14.44,2.51-.76,4.87-1.98,6.95-3.58,1.95-1.83,3.8-3.77,5.52-5.81.71-.6,1.65-.86,2.56-.72,1.21.29,1.38,1.44,1.03,2.61-1.07,3.58-1.88,7.26-3.22,10.73-2.22,6.55-6.98,11.94-13.21,14.95-.4.22-.77.48-1.13.76l.11.35h39.87ZM589.7,362.26c.53-.43,1.22-.77,1.54-1.32.93-1.27,1.61-2.7,2-4.23.24-2.68.25-5.37.05-8.05.04-3.73-2.95-6.78-6.68-6.82-.17,0-.34,0-.5.01-4.7-.04-9.41-.04-14.11-.14-1.21-.02-1.57.51-1.54,1.56.03,1.13.1,2.25.1,3.37,0,12.75-.02,25.51-.08,38.26,0,1.47.45,2.02,1.94,1.95,2-.1,4-.08,6.02,0,1.38.06,1.87-.38,1.84-1.81-.09-3.44,0-6.88,0-10.32v-6.45c2.54-.28,3.08.1,3.28,2.05.07.67.03,1.37.03,2.06,0,3.88-.02,7.75.05,11.63.02,1.16.07,2.67,1.64,2.75,2.79.16,5.59.05,8.45.05-.15-1.54-.37-2.82-.39-4.11-.05-4.13-.13-8.26,0-12.38.62-2.96-.72-5.99-3.33-7.52-.14-.07-.19-.31-.35-.57M167.6,341.91c-.09.22-.16.45-.2.69,0,14.31,0,28.62-.03,42.93,0,1.11.48,1.36,1.49,1.33,2.07-.13,4.14-.13,6.2,0,1.68.15,2.17-.3,2.13-2-.13-5-.11-10-.07-15,0-.61.51-1.21.79-1.81.86.32,1.67.77,2.4,1.33.37.38.25,1.3.25,1.98,0,4.25-.03,8.5,0,12.75,0,1.11-.06,2.56,1.44,2.64,2.85.17,5.72.05,8.71.05-.14-1.52-.37-2.86-.38-4.21-.04-4.44-.09-8.88.02-13.31.36-2.49-.92-4.93-3.18-6.06-.29-.15-.46-.53-.78-.91.45-.46.94-.89,1.46-1.26,1.45-.83,2.35-2.37,2.36-4.04.18-3,.17-6-.03-9-.2-3.29-2.83-5.9-6.12-6.08-5.45-.13-10.9-.04-16.47-.04M366.21,364.46h-.31c0,3.87-.08,7.75.04,11.62.03,1.62.31,3.22.84,4.75,2.58,7.06,10.42,7.71,16.61,5.55,4.31-1.71,6.96-6.06,6.52-10.67.16-7.06.13-14.12,0-21.18-.07-2.36-.46-4.71-1.16-6.96-.84-3.19-3.5-5.57-6.77-6.04-1.92-.29-3.86-.4-5.8-.33-5.1-.29-9.49,3.57-9.86,8.67-.48,4.82-.1,9.72-.1,14.59M50.14,341.81c-2.89,0-5.52.1-8.14-.04-1.49-.08-2,.33-1.97,1.85.11,3.82.11,7.62.14,11.44.06,7.87-.07,15.75.24,23.62.09,4.86,4.1,8.72,8.95,8.63.12,0,.23,0,.35-.01,1.38.03,2.76.03,4.14,0,4.9-.09,8.96-3.83,9.46-8.7.19-1.93.33-3.86.35-5.8.03-9.81-.03-19.63.02-29.44,0-1.33-.55-1.57-1.68-1.55-2.26.05-4.52.08-6.77,0-1.33-.06-1.76.43-1.75,1.72.08,10.44.12,20.89.14,31.33.07.68,0,1.37-.24,2.02-.29.56-.84.95-1.46,1.05-.69-.13-1.29-.54-1.67-1.13-.21-.59-.27-1.22-.17-1.84,0-10.25.02-20.5.05-30.76v-2.36M512.02,364.44h.02c0,4.38-.13,8.76.04,13.13-.1,4.1,2.51,7.79,6.42,9.05,2.07.49,4.19.7,6.31.65,5.62.36,10.47-3.91,10.83-9.53.02-.25.02-.5.02-.74.19-8.44.19-16.89,0-25.33.26-5.28-3.67-9.84-8.93-10.36-1.25-.13-2.51-.17-3.76-.12-5.47-.55-10.34,3.45-10.89,8.91-.05.52-.06,1.05-.03,1.58-.14,4.25-.03,8.51-.03,12.76M466.85,362.17c.58-.28.87-.41,1.14-.57,2.11-1.23,3.31-3.57,3.09-6-.05-2.25,0-4.5-.1-6.75.11-3.75-2.85-6.88-6.6-6.98-.21,0-.42,0-.63.01-4.58-.04-9.16,0-13.74-.08-1.43-.02-2.13.33-1.85,1.93.15,1.05.2,2.11.17,3.17,0,12.75-.02,25.51-.09,38.26,0,1.35.46,1.76,1.74,1.72,2.07-.06,4.14-.07,6.21.03,1.44.07,1.8-.47,1.77-1.86-.11-5.06-.12-10.13-.06-15.19,0-.6.6-1.62,1.06-1.69,1.06-.18,2.17.14,2.24,1.6.03.69.06,1.37.06,2.06,0,4.06-.05,8.13,0,12.19.02,1.4.22,2.84,2.2,2.84,2.26,0,4.52.07,6.77-.02.39,0,1.08-.67,1.08-1-.05-6-.2-12-.28-18,0-1.52-.72-2.96-1.94-3.87-.57-.47-1.16-.92-2.25-1.78M299.31,364.31h.13v20.64c0,1.1.02,1.97,1.53,1.94,4.14-.08,8.28,0,12.42-.1,4.52.34,8.46-3.04,8.81-7.56.02-.31.03-.63.02-.94.19-9.44.14-18.89,0-28.33.22-4.27-3.05-7.91-7.32-8.13-.42-.02-.85,0-1.27.04-4.08,0-8.16.06-12.23-.12-1.63-.07-2.09.37-2.08,1.93.05,6.88.02,13.75.02,20.63M278.86,364.72l.56-.08c.69,2.31,1.47,4.59,2.04,6.92,1.1,4.49,2.08,9,3.12,13.5.24,1.05.7,1.84,2,1.79,1.69-.06,3.39-.06,5.07.04,1.43.08,1.96-.33,1.95-1.88-.07-13.13-.05-26.27-.06-39.4v-3.67h-8.15v20.21l-.56.08c-.62-2.33-1.28-4.67-1.84-7-.98-4.06-1.87-8.15-2.91-12.2-.23-.64-.75-1.13-1.41-1.31-2.18-.11-4.38.07-6.56.02-1.13-.03-1.64.33-1.59,1.48.05,1.06.07,2.13.07,3.19-.02,12.82-.03,25.64-.09,38.46,0,1.42.33,2.09,1.87,2,1.63-.1,3.26-.03,4.89,0,1.16.03,1.71-.4,1.69-1.65-.08-5-.09-10-.12-15v-5.52M136.17,359.9c-2.39,0-4.39.07-6.38-.03-1.29-.06-1.67.48-1.61,1.64.07,1.62.14,3.25.08,4.87-.09,1.18-.24,2.36-.46,3.52l-.62.03c-.28-.52-.59-1.03-.85-1.56-.83-1.75-1.54-3.56-2.5-5.23-.69-1.21-.69-1.86.57-2.72,2.66-1.6,4.6-4.16,5.43-7.15,1.8-7.61-1.76-12.17-9.47-12.08-4.58-.44-8.65,2.92-9.09,7.5-.05.54-.05,1.09,0,1.63-.07,3.96,1.12,7.84,3.39,11.08-.33.21-.6.38-.85.56-4.56,3.14-6.85,8.67-5.83,14.11.06.5.11,1,.17,1.49,1.19,6.65,7.55,11.08,14.2,9.89,1.29-.23,2.53-.66,3.67-1.29.93-.36,1.94-.45,2.91-.27.51.03,1,.51,1.49.75,3.74,1.77,5.06,1.17,6.03-2.75.12-.61.28-1.22.47-1.81.55-1.47.23-2.17-1.49-2.3-2.45-.19-2.55-.45-1.67-2.77,2.07-5.42,1.72-11.15,2.41-17.07M541.41,341.71c-.1.59-.17,1.18-.2,1.77.03,3.81.12,7.62.13,11.43.03,7.25-.05,14.5.05,21.75-.45,4.2,1.9,8.2,5.8,9.85,2.09.63,4.27.89,6.45.77,5.45.68,10.42-3.18,11.1-8.63.1-.77.1-1.55.02-2.32.05-4.38,0-8.75,0-13.13,0-6.56.05-13.13.04-19.69,0-.72.36-1.79-.97-1.8-2.93-.03-5.86,0-8.93,0v4.43c.02,9.56.04,19.12.05,28.69,0,.67,1.54,2.91,1.23,3.48-.28.51-2.57-.33-3.02-.36-.59-.06-2.53,1.5-2.88.96-.31-.47.98-3.33.98-3.97,0-4.94.02-9.88.05-14.81.03-5.5.09-11,.12-16.5,0-.82.27-1.9-1.14-1.9h-8.89M405.23,370.27h.54c.1.14.27.27.3.42,1.14,4.86,2.24,9.73,3.43,14.57.15.6.76,1.52,1.2,1.54,2.98.14,5.98.07,9.2.07-.05-.61-.13-1.21-.25-1.8-1.85-6.93-3.79-13.84-5.54-20.8-.37-1.5-.35-3.06.04-4.55,1.56-5.39,3.35-10.72,5.04-16.07.18-.56.25-1.14.4-1.85-3.02,0-5.76-.08-8.5.07-.69.21-1.25.73-1.49,1.41-.85,2.74-1.5,5.54-2.27,8.31-.47,1.71-1,3.39-1.52,5.09l-.56-.05c-.89-4.87.15-9.84-.31-14.67h-9.57v44.91c3,0,5.86.06,8.72-.07.33,0,.9-1.05.91-1.61.05-3-.09-6-.07-9,0-1.97.18-3.95.28-5.92M78.96,370.25l.35-.14c.61,1.8,1.33,3.58,1.81,5.42.83,3.2,1.46,6.45,2.29,9.67.16.62.8,1.56,1.25,1.59,3.03.14,6.06.07,9.12.07.03-.34.03-.69,0-1.03-2-7.41-4-14.82-5.95-22.24-.29-.88-.34-1.82-.15-2.72,1.76-5.79,3.64-11.54,5.47-17.31.16-.5.23-1.03.39-1.78-3.06,0-5.87-.07-8.67.07-.49.02-1.18.87-1.37,1.47-.62,1.9-.98,3.87-1.56,5.78-.76,2.52-1.62,5-2.44,7.5l-.56-.13c-.06-.28-.1-.56-.12-.85.1-4,.25-7.98.28-11.97,0-.58-.53-1.67-.85-1.67-2.92-.13-5.86-.08-8.92-.08-.06.83-.16,1.5-.16,2.18.02,10,.05,20,.09,30,0,3.69-.04,7.38.04,11.07,0,.59.54,1.67.86,1.67,2.91.13,5.84.08,8.8.08v-16.64ZM265.89,386.86c.06-.46.07-.93.05-1.39-.42-3.09-.85-6.18-1.29-9.27-1.08-7.6-2.19-15.2-3.25-22.81-.44-3.16-.71-6.33-1.17-9.48-.13-.9.18-2.23-1.62-2.14-2.88.14-5.77.13-8.65.05-1.49-.04-2.47.23-2.46,1.95-.06.5-.15.99-.27,1.47-1.61,12.83-3.24,25.65-4.81,38.48-.4,3.25-.61,3.46,2.79,3.09.44-.02.88-.01,1.32.03q4.2.2,4.33-4.03.1-2.97,3.06-2.9c.19,0,.38,0,.56,0,1.25-.09,1.81.39,1.77,1.73-.03,1.37.07,2.75.31,4.1.18.53.62.93,1.16,1.07,2.67.1,5.36.05,8.15.05M337.94,386.85c2.88,0,5.44-.08,8,.03,1.46.06,1.82-.49,1.79-1.85-.1-4.81-.06-9.63-.17-14.44-.02-1.03.29-1.36,1.23-1.33,1.38.02,2.76.02,4.14,0,3.32.09,6.25-2.14,7.05-5.36,1.25-5.5,1.28-11.21.1-16.73-.55-3.11-3.3-5.35-6.46-5.25-4.77-.11-9.54,0-14.3-.07-1.18,0-1.48.46-1.47,1.56.06,9,.08,18,.09,27v16.43M440.88,358.85c-2.09,0-3.91-.03-5.72,0-1.11.02-1.56-.33-1.45-1.55.15-1.49.15-2.99,0-4.49-.17-1.55.43-2.03,1.88-1.96,1.88.1,3.76.08,5.64.15,1,.04,1.5-.31,1.47-1.4-.06-2.19-.06-4.38-.03-6.56,0-1.05-.36-1.38-1.45-1.36-5.08.08-10.16.13-15.23.03-1.51-.03-1.79.52-1.78,1.84.04,13.82.04,27.63,0,41.45,0,1.43.48,1.84,1.84,1.83,5.08-.04,10.16-.03,15.25.03,1.33,0,1.77-.5,1.71-1.79-.1-1.94-.1-3.88,0-5.81.1-1.54-.37-2.16-1.98-2.06-1.94.12-3.89.12-5.83,0-.49-.03-1.33-.65-1.35-1.03-.12-2.67-.06-5.33-.06-8.05,2.1,0,3.84.07,5.58-.04.52-.03,1.42-.54,1.44-.87.11-2.73.07-5.46.07-8.39M195.81,341.86v5.08c0,12.62,0,25.25.03,37.87,0,.96-.31,2.03,1.38,2,5.39-.07,10.79-.04,16.18,0,1,0,1.35-.32,1.33-1.28-.03-2.31-.05-4.63,0-6.94.03-1.22-.54-1.44-1.61-1.4-2,.07-4-.03-6.02,0-1.37.03-1.91-.52-1.83-1.91.11-1.93.14-3.87.06-5.8-.05-1.2.41-1.55,1.52-1.49,1.38.07,2.76,0,4.14.09,1.12.07,1.59-.31,1.56-1.48-.06-2.12-.05-4.25.03-6.37.05-1.18-.44-1.55-1.55-1.5-1.38.07-2.76.02-4.14.07-1.19.04-1.7-.43-1.63-1.67.12-1.43.12-2.87,0-4.3-.16-1.58.6-2,1.94-2,1.88,0,3.76,0,5.64.05,1.03.03,1.44-.33,1.39-1.43-.1-1.99-.08-3.98.04-5.97.1-1.4-.33-1.88-1.76-1.82-3.33.13-6.65.12-9.97.14-2.18.02-4.36,0-6.73,0M491.74,386.86c3.08,0,6,.05,8.93-.07.31,0,.82-1,.83-1.51.03-10.07,0-20.14,0-30.21,0-4.16,0-4.2,4.12-4.06,1.14.04,1.6-.27,1.56-1.44-.06-2-.06-4,0-6,.04-1.32-.25-1.8-1.79-1.77-5.83.12-11.67.08-17.5-.03-1.38-.03-1.81.4-1.78,1.67.04,2.06.08,4.12,0,6.18-.04,1.14.5,1.41,1.47,1.39,1.06-.09,2.13-.08,3.19.04.55.19.96.65,1.09,1.22.02,8.38-.05,16.75-.09,25.13v9.48M229.47,341.79c-2.9,0-5.48.08-8.04-.03-1.36-.06-1.78.38-1.73,1.69.09,2.31.08,4.63.08,6.94,0,11.57,0,23.14-.03,34.7,0,1.02,0,1.82,1.44,1.8,5.02-.06,10.04-.04,15.06,0,1.16,0,1.55-.41,1.53-1.54-.05-2.25-.05-4.5,0-6.75.03-1.09-.42-1.43-1.45-1.41-1.69.05-3.39,0-5.08.03-1.38.03-1.85-.58-1.83-1.94.12-10.5.19-21,.26-31.51-.03-.67-.1-1.34-.2-2M161.85,386.86v-7.11c.02-12.12.05-24.24.08-36.36,0-1.26-.54-1.58-1.72-1.53-2.07.12-4.14.1-6.2-.05-1.77-.17-2.12.48-2.11,2.08.08,7.5.06,15,.07,22.49v18.56c0,.82-.29,1.91,1.11,1.92,2.82.02,5.63,0,8.77,0"/>
                <path id="Path_60733" data-name="Path 60733" class="cls-2" d="M511.8,213.17c-4.38,4.31-8.46,8.27-12.49,12.28-27.37,27.21-54.74,54.44-82.11,81.67-3.69,3.67-7.4,7.31-11.05,11.02-1.01,1.13-2.49,1.71-4,1.55-2.69-.18-5.39-.06-8.09-.06-113.94,0-227.88,0-341.82-.03-2.62.38-5.3,0-7.71-1.08-2.46-1.24-4.07-3.71-4.2-6.46-.1-3.75-.12-7.5-.12-11.26v-72.81c0-1.94-.08-3.88-.1-5.82-.43-4.56,2.92-8.61,7.48-9.04.43-.04.85-.05,1.28-.02,2.13-.03,4.27,0,6.4,0h449.17c1.88,0,3.76-.12,5.64-.14.57.04,1.14.11,1.7.22M130.07,287.97v-.02c5.21,0,10.43.13,15.63-.05,2.55-.09,5.07-.49,7.52-1.2,4.69-1.64,7.9-5.97,8.11-10.93.07-9.44.07-18.89,0-28.33-.13-.56-.55-1.02-1.09-1.2-5.46-.08-10.92-.09-16.38-.02-.55.16-.98.59-1.14,1.14-.02,8.82.02,17.64.08,26.46.02,3.46-1.52,5.07-5,5.08h-15.07c-4.07,0-5.49-1.48-5.39-5.59v-.75c.03-8.38.08-16.76.05-25.14-.15-.56-.58-1-1.14-1.17-5.4-.08-10.8-.05-16.2-.08-1.04,0-1.4.4-1.4,1.47.06,9.07.06,18.14.09,27.21-.13,4.22,1.95,8.21,5.49,10.52,2.54,1.76,5.57,2.67,8.67,2.63h17.14M186.7,273.31c.37.19.72.42,1.05.67,4.77,4.33,9.51,8.72,14.33,13,.81.72,1.84,1.15,2.92,1.23,5.77.13,11.55.1,17.33.1.73-.06,1.45-.16,2.16-.31-.27-.35-.55-.68-.85-1-6.41-5.71-12.82-11.41-19.23-17.11-2.93-2.62-2.94-2.67,0-5.28,6.19-5.57,12.39-11.13,18.61-16.67.45-.47.87-.97,1.25-1.5-.44-.16-.9-.28-1.37-.35-6.15.02-12.3.04-18.45.13-.68,0-1.33.22-1.87.64-4.42,3.98-8.79,8-13.18,12.03-.8.74-1.59,1.49-2.56,2.41-.13-.33-.23-.67-.29-1.02.05-4.12.08-8.25.21-12.37.03-1.04-.03-1.7-1.3-1.7-5.4.02-10.79.02-16.19,0-1.07,0-1.37.45-1.36,1.5.07,7.13.1,14.25.1,21.38,0,5.75.03,11.51-.14,17.25-.05,1.55.33,2,1.81,1.98,5.15-.04,10.29-.04,15.44,0,1.33,0,1.67-.43,1.64-1.77-.11-4.3-.04-8.6-.04-13.19M276.24,272.16h3.67c8.98,0,17.95,0,26.93.05,2.77.08,5.52-.53,8-1.76,6.1-2.77,8.8-9.96,6.03-16.06-.42-.93-.97-1.81-1.61-2.61-2.74-3.62-7.05-5.72-11.59-5.65-15.13.03-30.26.03-45.39,0-1.19-.07-2.38-.05-3.57.05-.54.19-.94.64-1.07,1.2-.1,1.81.03,3.62,0,5.44-.04,2.57-.06,2.53,2.55,2.52,13.75-.04,27.49-.07,41.24-.08,2.78,0,5.22,1.86,5.22,3.89,0,2.19-2.12,3.76-5.2,3.76-14.06-.03-28.12-.07-42.18-.12-.5.02-1,.08-1.49.16v24.89h18.5l-.02-15.68ZM320.58,246.25l-.14.51c.73.45,1.48.87,2.2,1.33,2.04,1.17,3.48,3.17,3.95,5.47.26,1.63,1.06,1.84,2.42,1.82,5.02-.06,10.04-.02,15.06-.1,1.31-.02,1.77.38,1.76,1.71-.06,9.76-.03,19.51-.12,29.27,0,1.5.55,1.78,1.86,1.76,5.08-.05,10.17-.06,15.25,0,1.14,0,1.58-.23,1.58-1.41-.05-9.69-.03-19.39-.08-29.08,0-2.26-.04-2.25,2.25-2.24,5.96.05,11.92,0,17.89.05,1.26,0,1.78-.28,1.58-1.75-.24-1.8-.25-3.62-.02-5.42.2-1.53-.18-2.12-1.7-2-.37.03-.75,0-1.13,0-20.27-.03-40.55-.05-60.82-.07-.6,0-1.19.08-1.79.13M230.35,246.32v41.7c5.82,0,11.45-.02,17.09,0,1.25,0,1.4-.67,1.4-1.67-.04-4.69-.04-9.37-.05-14.06,0-7.81-.05-15.62.02-23.43.02-2.71.14-2.72-2.38-2.73-4.83-.01-9.66-.01-14.48,0-.54,0-1.09.09-1.59.13"/>
                <path id="Path_60734" data-name="Path 60734" class="cls-4" d="M567.02,319.6h-39.86l-.11-.35c.36-.28.73-.54,1.13-.76,6.23-3.01,10.98-8.4,13.21-14.95,1.33-3.48,2.16-7.15,3.23-10.73.33-1.17.18-2.33-1.03-2.61-.92-.14-1.85.12-2.56.72-1.73,2.04-3.57,3.99-5.52,5.81-9.46,7.33-23.07,5.59-30.4-3.87-1.62-2.09-2.84-4.46-3.61-6.99-1.84-6.43-1.33-13.3,1.43-19.39,3.79-9.71,9.54-18.54,16.87-25.94,8.49-8.86,17.27-17.45,25.91-26.17.82-.83,1.53-1.24,2.51-.23,9.75,9.98,19.8,19.7,29.2,30,7.35,7.68,12.61,17.13,15.27,27.42,2.01,6.49,1.19,13.53-2.26,19.38-6.25,10.2-19.59,13.4-29.8,7.15-2.09-1.28-3.95-2.91-5.5-4.82-.56-.9-1.23-1.72-2-2.45-.8-.5-1.76-.69-2.69-.53-.64.4-1.04,1.1-1.04,1.86.96,9.05,5.23,17.43,12,23.52,1.36.99,2.8,1.88,4.3,2.67.49.3,1,.59,1.49.89l-.15.39M531.51,284.53c.42-.08.82-.21,1.2-.4,4.13-3.06,8.29-6.07,12.33-9.24,1.02-1.1,2.73-1.17,3.84-.15,3.4,2.56,6.84,5.09,10.27,7.6,1.02.74,2.09,1.42,3.13,2.12l.5-.39c-.62-1.52-1.33-3.02-1.86-4.57-1.33-3.9-2.57-7.83-3.92-11.72-.41-1.19.23-1.73,1.02-2.3,2.84-2.06,5.67-4.14,8.52-6.18,1.75-1.26,3.53-2.47,5.78-4.03-.82-.17-1.64-.29-2.48-.36-4.58,0-9.16,0-13.74.06-3.23.05-3.22.03-4.12-3.02-1.44-4.88-3-9.73-4.64-15.02-.47.75-.88,1.53-1.24,2.33-1.54,4.69-3.07,9.37-4.49,14.09-.15,1.09-1.15,1.85-2.24,1.71-5.02-.12-10.04-.21-15.06-.27-.63.04-1.26.12-1.87.25-.05.16-.09.33-.14.48.67.52,1.3,1.05,1.98,1.54,3.98,2.84,7.94,5.69,11.95,8.48.89.48,1.23,1.59.75,2.48,0,.02-.02.03-.03.05-1.79,5-3.48,10.03-5.19,15.05-.11.46-.19.93-.24,1.41"/>
                <path id="Path_60735" data-name="Path 60735" class="cls-2" d="M589.69,362.28c.16.27.21.5.35.57,2.61,1.53,3.96,4.56,3.33,7.52-.15,4.12-.06,8.25,0,12.38,0,1.29.23,2.57.38,4.11-2.86,0-5.67.12-8.45-.05-1.57-.09-1.62-1.59-1.64-2.75-.07-3.87-.04-7.75-.05-11.63,0-.69.04-1.38-.03-2.06-.2-1.96-.73-2.33-3.28-2.05v6.45c0,3.44-.1,6.88,0,10.32.03,1.44-.46,1.87-1.84,1.81-2-.09-4-.11-6.02,0-1.5.08-1.95-.48-1.94-1.95.07-12.75.07-25.51.08-38.26,0-1.13-.06-2.25-.1-3.37-.03-1.05.33-1.59,1.53-1.57,4.7.09,9.41.1,14.11.14,3.72-.24,6.93,2.58,7.17,6.31.01.17.02.33.01.5.2,2.68.19,5.37-.05,8.05-.39,1.52-1.07,2.96-2,4.22-.33.55-1,.89-1.54,1.33M580.34,359.82c1.7.31,3.04.2,3.17-1.33.21-2.61.21-5.24,0-7.85-.03-.47.14-1.24-2.21-1.19-.2-.07-.96-.29-.97,0-.07,3.17,0,7.15,0,10.37"/>
                <path id="Path_60736" data-name="Path 60736" class="cls-2" d="M167.6,341.91c5.57,0,11.02-.1,16.47.04,3.29.18,5.92,2.8,6.12,6.09.2,3,.21,6,.03,9-.01,1.67-.91,3.21-2.36,4.04-.53.37-1.01.8-1.46,1.26.32.38.49.77.78.91,2.25,1.12,3.53,3.56,3.18,6.06-.11,4.43-.06,8.87-.02,13.31,0,1.35.24,2.7.38,4.21-3,0-5.86.12-8.71-.05-1.5-.09-1.43-1.54-1.44-2.64-.02-4.25,0-8.5,0-12.75,0-.67.12-1.6-.25-1.98-.73-.56-1.54-1.01-2.4-1.33-.27.6-.78,1.21-.79,1.81-.04,5-.06,10,.07,15,.04,1.7-.44,2.15-2.13,2-2.07-.13-4.14-.13-6.2,0-1,.03-1.49-.21-1.49-1.33.03-14.31.04-28.62.03-42.93.04-.24.11-.47.2-.69M177.01,354.69h.06c0,1.12-.02,2.24,0,3.36.02.81-.29,2.09,1.02,1.91.86-.12,2.24-.97,2.31-1.6.25-2.54.25-5.09,0-7.63.11-1.45-3.23-1.75-3.33-1.12-.11,1.69-.14,3.39-.07,5.08"/>
                <path id="Path_60737" data-name="Path 60737" class="cls-2" d="M365.93,349.96c.54-5.17,5.03-9.02,10.22-8.74,1.94-.07,3.88.04,5.8.33,3.74.52,6.75,3.35,7.49,7.05.47,1.95.62,3.96.44,5.95.15,7.06.17,14.13,0,21.18.44,4.61-2.22,8.96-6.52,10.67-6.18,2.16-14.02,1.51-16.61-5.55-.53-1.53-.81-3.13-.84-4.75-.12-3.87-.04-7.75-.04-11.62M375.92,364.18h0v11.44c0,1.33.1,2.61,1.91,2.59,1.74-.02,1.98-1.24,2-2.59,0-7.56,0-15.12,0-22.7,0-1.47-.39-2.72-2.12-2.71-1.82,0-1.77,1.45-1.78,2.71v11.26"/>
                <path id="Path_60738" data-name="Path 60738" class="cls-2" d="M50.13,341.81v2.36c-.02,10.25-.03,20.5-.05,30.76-.1.62-.04,1.25.17,1.84.38.59.98.99,1.67,1.13.62-.1,1.17-.49,1.46-1.05.23-.65.32-1.34.24-2.02-.03-10.44-.08-20.89-.14-31.33,0-1.29.41-1.78,1.75-1.72,2.25.09,4.51.06,6.77,0,1.13-.02,1.69.22,1.68,1.55-.04,9.81,0,19.63-.02,29.44,0,1.93-.16,3.87-.33,5.8-.5,4.87-4.56,8.61-9.46,8.7-1.38.03-2.76.03-4.14,0-4.85.28-9.01-3.42-9.29-8.27,0-.12-.01-.23-.01-.35-.31-7.86-.18-15.75-.24-23.62-.03-3.81-.02-7.63-.14-11.44-.05-1.52.48-1.93,1.97-1.85,2.62.13,5.25.04,8.14.04"/>
                <path id="Path_60739" data-name="Path 60739" class="cls-2" d="M512.02,364.45c0-4.25-.11-8.51.03-12.76-.33-5.48,3.86-10.19,9.34-10.52.53-.03,1.06-.02,1.58.03,1.25-.05,2.51-.01,3.76.12,5.26.52,9.19,5.08,8.93,10.36.19,8.44.19,16.89,0,25.33.05,5.63-4.47,10.25-10.11,10.3-.25,0-.5,0-.74-.02-2.12.05-4.24-.17-6.31-.65-3.91-1.27-6.52-4.95-6.42-9.06-.16-4.37-.04-8.76-.04-13.13h-.02M521.84,364.25h.07v3.37c-.03,2.68-.11,5.37-.07,8.05.03,2.17.39,2.23,2.23,2.33,1.53.13,1.69-1.72,1.69-2.58.04-6.62.04-13.03,0-19.65.11-1.39.08-2.79-.08-4.18-.15-.64-.52-1.27-2.02-1.3-1.05.04-1.87.93-1.83,1.98,0,.05,0,.1.01.15-.02,3.67,0,8.16,0,11.84"/>
                <path id="Path_60740" data-name="Path 60740" class="cls-2" d="M466.85,362.18c1.09.87,1.67,1.32,2.25,1.78,1.22.91,1.94,2.35,1.94,3.87.07,6,.23,12,.28,18,0,.35-.69,1-1.08,1-2.26.09-4.51,0-6.77.02-1.98,0-2.18-1.44-2.2-2.84-.06-4.06,0-8.13,0-12.19,0-.69-.03-1.37-.06-2.06-.07-1.46-1.18-1.78-2.24-1.6-.45.08-1.05,1.1-1.06,1.69-.06,5.06-.05,10.13.06,15.19.03,1.39-.33,1.93-1.77,1.86-2.06-.1-4.14-.09-6.21-.03-1.28.04-1.75-.36-1.74-1.72.07-12.75.08-25.51.09-38.26.04-1.06-.02-2.12-.17-3.17-.28-1.59.43-1.95,1.85-1.93,4.58.07,9.16.04,13.74.08,3.74-.24,6.97,2.6,7.21,6.35.01.21.02.42.01.63.1,2.25.05,4.5.1,6.75.22,2.43-.98,4.77-3.09,6-.27.16-.57.29-1.14.57M457.8,354.6h.04c0,1.18-.11,3.65.05,4.81.09.63.53.33,1,.45,1.07.27,2.24-.03,2.3-1.47.15-2.55.14-5.11-.02-7.67-.04-.53-.31-1.1-2.24-1.33-.21-.06-1-.08-1.09.48-.1,1.57-.11,3.14-.04,4.71"/>
                <path id="Path_60741" data-name="Path 60741" class="cls-2" d="M299.32,364.31c0-6.88.03-13.76-.02-20.63,0-1.56.45-2,2.08-1.92,4.07.18,8.15.12,12.23.12,4.25-.48,8.08,2.58,8.55,6.82.05.42.06.85.04,1.27.15,9.44.2,18.89,0,28.33.18,4.53-3.35,8.34-7.87,8.52-.32.01-.63,0-.95-.02-4.14.11-8.28.02-12.42.1-1.51.03-1.54-.84-1.53-1.94.02-6.88,0-13.76,0-20.64h-.13M308.83,350.11v2.16c0,8.06-.03,16.56,0,24.62,0,.6,2.14.18,3.46,0,.33-.26.21-1.18.21-1.8-.02-7.31-.05-14.62-.1-21.93,0-2.9-.21-3.09-3.58-3.04"/>
                <path id="Path_60742" data-name="Path 60742" class="cls-2" d="M278.84,364.73v5.52c.03,5,.05,10,.12,15,.02,1.25-.53,1.67-1.69,1.65-1.63-.04-3.27-.1-4.89,0-1.55.1-1.88-.58-1.87-2,.07-12.82.07-25.64.09-38.46,0-1.06-.02-2.13-.07-3.19-.06-1.14.45-1.5,1.59-1.48,2.19.05,4.38-.13,6.56-.02.66.18,1.18.67,1.41,1.31,1.04,4.05,1.92,8.13,2.91,12.2.57,2.33,1.22,4.67,1.84,7l.56-.08v-20.22h8.15v3.67c0,13.13,0,26.27.06,39.4,0,1.56-.52,1.96-1.95,1.88-1.69-.1-3.39-.09-5.08-.04-1.31.05-1.77-.75-2-1.79-1.05-4.5-2.02-9.02-3.12-13.5-.57-2.33-1.36-4.62-2.04-6.93l-.56.08"/>
                <path id="Path_60743" data-name="Path 60743" class="cls-2" d="M136.18,359.93c-.69,5.92-.33,11.65-2.41,17.07-.89,2.33-.79,2.59,1.67,2.77,1.72.13,2.04.83,1.49,2.3-.19.6-.35,1.2-.47,1.81-.98,3.92-2.29,4.52-6.03,2.76-.51-.24-.98-.72-1.49-.75-.98-.18-1.99-.08-2.91.27-5.94,3.22-13.36,1.01-16.58-4.92-.62-1.15-1.06-2.39-1.29-3.68-.05-.5-.11-1-.17-1.49-1.02-5.44,1.27-10.97,5.83-14.11.26-.18.53-.33.85-.56-2.27-3.24-3.46-7.12-3.39-11.08-.46-4.58,2.88-8.67,7.46-9.13.54-.05,1.09-.06,1.63,0,7.71-.09,11.27,4.47,9.47,12.08-.83,2.99-2.78,5.55-5.43,7.15-1.26.87-1.26,1.52-.57,2.72.95,1.67,1.67,3.49,2.5,5.23.26.53.56,1.04.85,1.56l.62-.03c.22-1.15.38-2.32.48-3.49.06-1.62,0-3.25-.08-4.87-.05-1.16.33-1.71,1.61-1.64,2,.1,4,.03,6.38.03M123.65,379.3c-.04-.23-.11-.45-.19-.67-1.65-3.27-3.29-6.55-5-9.8-.18-.35-.81-.79-1.07-.71-.43.21-.72.61-.79,1.08-.11,2.41.04,4.83.46,7.21.43,2.35,2.68,3.92,5.04,3.49.55-.1,1.07-.3,1.54-.6M120.91,356.05c.22-.08.43-.19.62-.33,1.18-2.38,1.4-5.13.61-7.67-.5-.62-1.4-.71-2.02-.21-.19.15-.34.35-.43.58-.69,2.61-.25,5.39,1.22,7.65"/>
                <path id="Path_60744" data-name="Path 60744" class="cls-2" d="M541.41,341.71h8.89c1.41,0,1.14,1.08,1.14,1.9-.03,5.5-.08,11-.12,16.5-.03,4.94-.05,9.88-.05,14.81,0,.62-.14,3.11,1.94,2.98,1.87.17,1.75-2.41,1.75-3.09,0-9.56-.02-19.12-.05-28.69v-4.43h8.93c1.33,0,.97,1.08.97,1.8,0,6.56-.03,13.13-.04,19.69,0,4.38.05,8.75,0,13.13.6,5.46-3.34,10.37-8.8,10.97-.77.08-1.55.08-2.32-.02-2.18.12-4.36-.14-6.45-.77-3.9-1.64-6.25-5.64-5.8-9.85-.1-7.25-.02-14.5-.05-21.75,0-3.81-.1-7.62-.13-11.43.04-.59.1-1.18.2-1.77"/>
                <path id="Path_60745" data-name="Path 60745" class="cls-2" d="M405.24,370.26c-.1,1.97-.26,3.94-.28,5.92-.02,3,.12,6,.07,9,0,.57-.57,1.6-.91,1.61-2.86.13-5.74.07-8.72.07v-44.89h9.57c.46,4.81-.58,9.78.31,14.67l.55.05c.51-1.7,1.05-3.38,1.52-5.09.76-2.77,1.42-5.57,2.27-8.31.24-.68.8-1.21,1.49-1.41,2.74-.14,5.48-.07,8.5-.07-.15.7-.23,1.29-.4,1.85-1.69,5.35-3.49,10.67-5.04,16.07-.4,1.49-.41,3.05-.04,4.55,1.75,6.96,3.69,13.87,5.54,20.8.12.6.2,1.2.25,1.8-3.22,0-6.21.06-9.2-.07-.43-.02-1.05-.94-1.2-1.54-1.19-4.85-2.29-9.72-3.43-14.57-.04-.16-.2-.28-.3-.42h-.54"/>
                <path id="Path_60746" data-name="Path 60746" class="cls-2" d="M78.97,370.24v16.63c-2.96,0-5.89.05-8.8-.08-.33,0-.85-1.08-.86-1.67-.08-3.69-.03-7.38-.04-11.07-.03-10-.06-20-.09-30,0-.67.1-1.33.16-2.18,3.06,0,6-.05,8.92.08.33,0,.85,1.09.85,1.67-.03,4-.18,7.98-.28,11.97.02.28.05.57.12.85l.56.13c.82-2.5,1.67-4.98,2.44-7.5.57-1.91.94-3.89,1.56-5.78.19-.6.88-1.44,1.37-1.47,2.8-.14,5.61-.07,8.67-.07-.16.74-.23,1.28-.39,1.78-1.83,5.77-3.71,11.52-5.47,17.31-.19.9-.13,1.84.15,2.72,1.95,7.42,3.97,14.83,5.95,22.24.03.34.03.69,0,1.03-3.06,0-6.1.07-9.12-.07-.45-.02-1.09-.97-1.25-1.59-.82-3.2-1.46-6.45-2.29-9.67-.48-1.84-1.2-3.62-1.81-5.42l-.35.13"/>
                <path id="Path_60747" data-name="Path 60747" class="cls-2" d="M265.91,386.85c-2.78,0-5.47.05-8.14-.05-.54-.14-.97-.54-1.16-1.07-.24-1.35-.35-2.73-.31-4.1.04-1.33-.52-1.82-1.77-1.73h-.56q-2.96-.07-3.06,2.9-.14,4.23-4.33,4.03c-.44-.05-.88-.06-1.32-.03-3.4.37-3.19.16-2.79-3.09,1.57-12.83,3.2-25.67,4.81-38.48.12-.48.21-.97.27-1.47,0-1.73.97-2,2.46-1.95,2.88.08,5.77.09,8.65-.05,1.8-.09,1.49,1.25,1.62,2.14.46,3.15.73,6.33,1.17,9.48,1.05,7.61,2.16,15.21,3.25,22.81.44,3.09.88,6.18,1.29,9.27.02.47,0,.93-.06,1.39M253.73,358.48c-.23.46-.42.95-.56,1.45-.4,3.22-.75,6.44-1.15,9.67-.15,1.2.31,1.72,1.54,1.76,1.3.04,1.67-.62,1.58-1.74-.26-3.05-.53-6.09-.82-9.13-.14-.68-.34-1.35-.58-2"/>
                <path id="Path_60748" data-name="Path 60748" class="cls-2" d="M337.97,386.86v-16.43c-.02-9-.05-18-.09-27,0-1.1.29-1.57,1.47-1.56,4.77.05,9.54-.04,14.3.07,3.16-.1,5.91,2.13,6.46,5.25,1.18,5.52,1.15,11.23-.1,16.73-.8,3.22-3.74,5.45-7.05,5.36-1.38.01-2.76.01-4.14,0-.94,0-1.26.33-1.23,1.33.11,4.81.07,9.63.17,14.44.03,1.35-.33,1.91-1.79,1.85-2.55-.11-5.12-.03-8-.03M347.63,355.9c0,1.25-.05,3.33-.04,4.58.15.82,2.2.61,2.37.45l1.13-.87c.1-1.81.1-3.62,0-5.43.1-1.47,0-2.94-.31-4.38-.31-.76-1.33-.67-2.17-.77-1.19-.14-1.12,1-1.06,1.93"/>
                <path id="Path_60749" data-name="Path 60749" class="cls-2" d="M440.91,358.87c0,2.93.05,5.67-.07,8.39,0,.33-.92.83-1.44.87-1.74.11-3.49.04-5.58.04,0,2.74-.06,5.4.06,8.05,0,.38.86,1,1.35,1.03,1.94.12,3.89.12,5.83,0,1.61-.1,2.08.52,1.98,2.06-.1,1.94-.1,3.88,0,5.81.05,1.29-.38,1.8-1.71,1.79-5.08-.06-10.16-.07-15.25-.03-1.36,0-1.84-.4-1.84-1.83.04-13.82.04-27.63,0-41.45,0-1.31.27-1.87,1.78-1.84,5.08.1,10.16.05,15.23-.03,1.09,0,1.47.32,1.45,1.36-.03,2.19-.03,4.38.03,6.56.03,1.09-.45,1.44-1.47,1.4-1.88-.07-3.76-.05-5.64-.15-1.45-.08-2.05.4-1.88,1.96.15,1.49.15,2.99,0,4.49-.11,1.21.33,1.57,1.45,1.55,1.81-.03,3.63,0,5.72,0"/>
                <path id="Path_60750" data-name="Path 60750" class="cls-2" d="M195.87,341.91h6.73c3.33-.03,6.67,0,9.97-.14,1.44-.06,1.86.42,1.76,1.82-.12,1.99-.14,3.98-.04,5.97.05,1.11-.36,1.45-1.39,1.43-1.88-.05-3.76-.04-5.64-.05-1.33,0-2.11.41-1.94,2,.12,1.43.12,2.87,0,4.3-.08,1.24.43,1.71,1.63,1.67,1.38-.05,2.76,0,4.14-.07,1.11-.06,1.6.31,1.55,1.5-.08,2.12-.09,4.24-.03,6.37.03,1.17-.44,1.55-1.56,1.48-1.38-.08-2.76,0-4.14-.09-1.11-.06-1.57.29-1.52,1.49.08,1.93.05,3.87-.06,5.8-.08,1.39.47,1.94,1.84,1.91,2-.04,4,.05,6.02-.02,1.08-.04,1.65.18,1.62,1.4-.06,2.31-.04,4.62,0,6.94,0,.96-.33,1.29-1.33,1.28-5.39-.05-10.79-.08-16.18,0-1.69.02-1.38-1.04-1.38-2-.01-12.62-.02-25.25-.03-37.87v-5.08"/>
                <path id="Path_60751" data-name="Path 60751" class="cls-2" d="M491.72,386.86v-9.48c.04-8.38.11-16.75.09-25.13-.13-.57-.54-1.02-1.09-1.22-1.06-.11-2.13-.13-3.19-.04-.97.02-1.51-.24-1.47-1.39.08-2.06.04-4.12,0-6.18-.02-1.26.4-1.69,1.78-1.67,5.83.12,11.67.15,17.5.03,1.54-.03,1.83.45,1.79,1.77-.06,2-.06,4,0,6,.04,1.18-.41,1.48-1.56,1.44-4.14-.14-4.14-.1-4.13,4.06.02,10.07.05,20.14,0,30.21,0,.53-.52,1.5-.83,1.51-2.92.12-5.85.07-8.93.07"/>
                <path id="Path_60752" data-name="Path 60752" class="cls-2" d="M229.48,341.79c.1.66.17,1.33.2,2-.07,10.5-.15,21.01-.26,31.51,0,1.36.45,1.97,1.83,1.94,1.69-.04,3.39,0,5.08-.03,1.02-.03,1.48.33,1.45,1.41-.06,2.25-.06,4.5,0,6.75.03,1.13-.37,1.55-1.53,1.54-5.02-.05-10.04-.07-15.05,0-1.44,0-1.44-.78-1.44-1.8.02-11.57.03-23.13.03-34.7,0-2.31,0-4.63-.08-6.94-.05-1.31.37-1.75,1.73-1.69,2.56.12,5.14.03,8.04.03"/>
                <path id="Path_60753" data-name="Path 60753" class="cls-2" d="M161.85,386.86h-8.77c-1.4,0-1.11-1.1-1.11-1.92v-18.56c0-7.5,0-15-.07-22.49,0-1.6.33-2.25,2.11-2.08,2.06.15,4.13.17,6.2.05,1.18-.04,1.73.27,1.72,1.53-.04,12.12-.07,24.24-.08,36.36v7.11"/>
                <path id="Path_60754" data-name="Path 60754" class="cls-3" d="M130.07,287.97h-17.14c-3.09.05-6.12-.87-8.67-2.63-3.54-2.31-5.62-6.3-5.49-10.52-.02-9.07-.03-18.14-.09-27.21,0-1.06.35-1.47,1.4-1.47,5.4.02,10.8,0,16.2.08.56.16.99.6,1.14,1.17.03,8.38,0,16.76-.05,25.14v.75c-.1,4.12,1.33,5.59,5.39,5.59h15.07c3.48,0,5.02-1.62,5-5.08-.05-8.82-.1-17.64-.08-26.46.15-.55.59-.98,1.14-1.14,5.46-.07,10.92-.06,16.38.02.55.18.96.64,1.09,1.2.05,9.45.05,18.89,0,28.33-.21,4.96-3.42,9.3-8.11,10.94-2.45.71-4.98,1.11-7.52,1.2-5.2.18-10.42.05-15.63.05l-.04.03Z"/>
                <path id="Path_60755" data-name="Path 60755" class="cls-3" d="M186.74,273.3c0,4.59-.07,8.89.04,13.19.03,1.33-.31,1.79-1.64,1.77-5.15-.05-10.29-.05-15.44,0-1.47,0-1.85-.43-1.81-1.98.17-5.75.14-11.5.14-17.26,0-7.13-.03-14.25-.1-21.38,0-1.04.29-1.5,1.36-1.49,5.4.02,10.79.02,16.19,0,1.27,0,1.33.67,1.29,1.7-.13,4.12-.15,8.25-.2,12.37.06.35.16.69.29,1.02.98-.92,1.76-1.67,2.56-2.41,4.38-4.02,8.75-8.06,13.18-12.04.53-.41,1.19-.64,1.87-.64,6.15-.08,12.3-.1,18.45-.13.47.07.93.19,1.37.35-.38.52-.8,1.02-1.25,1.49-6.2,5.57-12.4,11.12-18.61,16.67-2.92,2.63-2.91,2.67.02,5.28,6.4,5.71,12.81,11.42,19.23,17.11.3.32.59.65.85,1-.71.15-1.44.25-2.16.31-5.77,0-11.55.04-17.33-.09-1.08-.09-2.1-.52-2.92-1.24-4.83-4.28-9.56-8.67-14.33-13-.33-.25-.68-.47-1.05-.67"/>
                <path id="Path_60756" data-name="Path 60756" class="cls-3" d="M276.26,272.11v15.73h-18.5v-24.89c.49-.08.99-.14,1.49-.16,14.06.04,28.12.08,42.18.12,3.09,0,5.2-1.56,5.2-3.76,0-2.03-2.43-3.89-5.22-3.89-13.75.01-27.49.04-41.24.08-2.61,0-2.58.05-2.54-2.52.03-1.81-.1-3.63,0-5.44.13-.56.53-1.01,1.07-1.2,1.19-.1,2.38-.11,3.57-.05h45.39c4.53-.09,8.84,1.99,11.59,5.59,4.21,5.21,3.4,12.84-1.81,17.05-.8.65-1.68,1.19-2.61,1.61-2.48,1.23-5.22,1.83-7.98,1.76-8.98-.06-17.95-.04-26.93-.05h-3.67"/>
                <path id="Path_60757" data-name="Path 60757" class="cls-3" d="M320.58,246.21c.6-.04,1.19-.13,1.79-.13,20.28.02,40.55.04,60.82.07.38,0,.76.04,1.13,0,1.52-.12,1.9.47,1.7,2-.23,1.8-.22,3.62.02,5.42.2,1.47-.33,1.75-1.58,1.74-5.96-.03-11.92,0-17.89-.05-2.29-.02-2.26-.03-2.25,2.24.05,9.69.03,19.39.08,29.08,0,1.19-.44,1.43-1.58,1.41-5.08-.07-10.17-.06-15.25,0-1.31,0-1.88-.26-1.86-1.76.09-9.76.06-19.51.12-29.27,0-1.33-.45-1.73-1.76-1.71-5.02.08-10.04.03-15.06.1-1.36.02-2.16-.19-2.42-1.82-.47-2.31-1.91-4.3-3.95-5.47-.72-.47-1.46-.9-2.2-1.33l.14-.51"/>
                <path id="Path_60758" data-name="Path 60758" class="cls-3" d="M230.34,246.29c.51-.05,1.05-.13,1.59-.13h14.48c2.52,0,2.4,0,2.38,2.73-.06,7.81-.02,15.62-.02,23.43,0,4.69,0,9.37.05,14.06,0,1-.14,1.67-1.4,1.67-5.64-.03-11.27,0-17.09,0v-41.74Z"/>
                <path id="Path_60759" data-name="Path 60759" class="cls-3" d="M531.51,284.54c.05-.47.13-.94.24-1.41,1.71-5.02,3.4-10.05,5.19-15.05.5-.88.2-1.99-.67-2.5-.02,0-.03-.02-.05-.03-4-2.79-7.98-5.64-11.95-8.48-.67-.48-1.33-1.02-1.98-1.54.05-.16.09-.33.14-.48.62-.13,1.24-.22,1.87-.25,5.02.07,10.04.16,15.06.27,1.09.14,2.09-.62,2.24-1.71,1.42-4.72,2.95-9.41,4.49-14.09.35-.81.77-1.59,1.24-2.33,1.64,5.29,3.2,10.14,4.64,15.02.9,3.05.88,3.07,4.12,3.02,4.58-.07,9.16-.07,13.74-.06.83.07,1.66.19,2.48.36-2.25,1.57-4.03,2.78-5.78,4.03-2.85,2.05-5.67,4.13-8.52,6.18-.79.57-1.43,1.11-1.02,2.3,1.35,3.89,2.58,7.83,3.92,11.72.53,1.55,1.24,3.05,1.86,4.57l-.5.39c-1.05-.71-2.12-1.38-3.13-2.12-3.44-2.52-6.87-5.04-10.27-7.6-1.1-1.02-2.82-.95-3.84.15-4.03,3.17-8.2,6.19-12.33,9.24-.38.18-.78.32-1.2.4"/>
                <path id="Path_60762" data-name="Path 60762" class="cls-3" d="M375.93,364.18v-11.26c0-1.27-.04-2.71,1.78-2.71,1.73,0,2.12,1.25,2.12,2.71,0,7.57,0,15.13,0,22.7,0,1.33-.24,2.57-2,2.59-1.82.02-1.91-1.26-1.91-2.59v-11.44h0"/>
                <path id="Path_60766" data-name="Path 60766" class="cls-3" d="M123.64,379.3c-2.02,1.28-4.7.67-5.98-1.35-.3-.47-.5-.99-.6-1.54-.41-2.38-.57-4.8-.46-7.21.07-.47.36-.87.79-1.08.26-.09.89.36,1.07.71,1.7,3.25,3.33,6.53,5,9.8.09.22.15.44.19.67"/>
                <path id="Path_60767" data-name="Path 60767" class="cls-3" d="M120.91,356.04c-1.47-2.26-1.92-5.04-1.22-7.65.3-.74,1.13-1.09,1.87-.8.23.09.43.24.58.43.79,2.54.58,5.28-.61,7.67-.19.14-.4.25-.62.33"/>
                <path id="Path_60768" data-name="Path 60768" class="cls-3" d="M253.73,358.46c.24.65.44,1.32.58,2,.3,3.04.56,6.09.82,9.13.1,1.12-.28,1.78-1.58,1.74-1.23-.04-1.69-.56-1.54-1.76.4-3.22.75-6.44,1.15-9.67.14-.5.33-.98.56-1.45"/>
              </g>
            </g>
          </g>
        </g>
        <path id="Rectangle_1590" data-name="Rectangle 1590" class="cls-2" d="M36.8,190c-9.2.01-16.66,7.47-16.67,16.67v186.67c.01,9.2,7.47,16.66,16.67,16.67h560c9.2-.01,16.66-7.47,16.67-16.67v-186.67c-.01-9.2-7.47-16.66-16.67-16.67H36.8M36.8,186.67h560c11.05,0,20,8.95,20,20v186.67c0,11.05-8.95,20-20,20H36.8c-11.05,0-20-8.95-20-20v-186.67c0-11.05,8.95-20,20-20Z"/>
      </g>
    </g>
  </g>
</svg>