<?xml version="1.0" encoding="UTF-8"?>
<svg id="Layer_1" data-name="Layer 1" xmlns="http://www.w3.org/2000/svg" viewBox="0 0 633.6 600">
  <defs>
    <style>
      .cls-1 {
        fill: #ff0049;
      }

      .cls-2 {
        fill: #fff;
      }

      .cls-3 {
        fill: #005ee1;
      }
    </style>
  </defs>
  <path id="Path_4924" data-name="Path 4924" class="cls-1" d="M108.96,564.93c-3.79,15.12,5.4,30.44,20.52,34.22,2.19.55,4.44.83,6.7.84h300.11c25.95.06,48.57-17.65,54.75-42.85l113.94-441.7c3.64-15.16-5.7-30.41-20.86-34.05-2.09-.5-4.23-.76-6.37-.78h-300.12c-25.92-.04-48.51,17.64-54.72,42.8l-113.94,441.49v.02Z"/>
  <path id="Path_4925" data-name="Path 4925" class="cls-3" d="M28.69,484.56c-3.77,15.13,5.43,30.45,20.56,34.23,2.17.54,4.4.82,6.64.84h300.12c26.02.04,48.67-17.78,54.76-43.08l113.95-441.71c3.65-15.15-5.67-30.39-20.81-34.04C501.81.28,499.66.02,497.51,0H197.34c-25.92-.01-48.49,17.67-54.68,42.84L28.69,484.56Z"/>
  <path id="Path_4926" data-name="Path 4926" class="cls-2" d="M410.85,476.44l102.2-396.29h-235.46c-25.92-.03-48.5,17.67-54.68,42.84l-102.16,396.24h235.36c25.93.05,48.53-17.63,54.72-42.8h.02Z"/>
  <path id="Path_4927" data-name="Path 4927" d="M273.12,343.5c-13.46,1.12-25.27-8.88-26.39-22.33-.3-3.58.2-7.18,1.44-10.54,5.78-24.65,43.43-53.93,72.14-76.32,3.53-2.75,6.91-5.38,10.08-7.8l2.25-1.13,1.61,1.13c2,2.53,4.17,5.18,6.45,7.8,18.14,22.33,41.98,51.67,36.2,76.32-4.33,18.93-20.99,32.48-40.41,32.87-11.18.42-21.84-4.78-28.37-13.87-9.59,8.66-21.97,13.59-34.89,13.87h-.12Z"/>
  <path id="Path_4928" data-name="Path 4928" d="M298.87,369.05c-16.4,0-30.57,1.13-30.57,1.13l-.93-3.89c13.23,0,37.48-22.71,37.48-22.71,0,0,13.63,22.71,26.94,22.71l-2.85,3.89s-13.78-1.13-30.08-1.13Z"/>
</svg>