<?xml version="1.0" encoding="UTF-8"?>
<svg id="Layer_1" data-name="Layer 1" xmlns="http://www.w3.org/2000/svg" viewBox="0 0 633.6 600">
  <defs>
    <style>
      .cls-1 {
        fill: #ed1d24;
      }
    </style>
  </defs>
  <path class="cls-1" d="M77.4,138.75h-20.8s.24-2.43-.61-6.93c-2.06-14.23-6.69-47.68-10.22-71.65-.36-2.31-1.58-6.32-1.58-6.32h19.1s-.12,3.65.12,5.84c2.92,24.09,7.66,63.5,7.66,63.5h.25s2.92-39.17,4.86-62.89c.25-2.43-.48-6.45-.48-6.45h20.07s0,3.77.24,5.96c2.92,23.23,7.66,62.28,7.66,62.28h.25s3.28-38.56,5.22-62.16c.25-2.43-.12-6.08-.12-6.08h11.07s-.85,4.02-1.1,6.32c-3.77,30.54-9.73,78.58-9.73,78.58h-19.95l-6.81-55.1h-.24l-4.87,55.1Z"/>
  <path class="cls-1" d="M124.59,63.82c0-9.73,5.72-11.07,22.14-11.07s21.41,1.58,21.41,11.55v62.76c0,9.97-2.19,12.77-22.02,12.77-18.49,0-21.53-2.56-21.53-12.16v-63.86M141.86,65.16v61.43c0,3.77,1.34,5.36,4.62,5.36s4.38-1.46,4.38-5.23v-61.67c0-3.29-1.58-4.38-4.62-4.38s-4.38,1.1-4.38,4.5"/>
  <path class="cls-1" d="M192.71,98.98v30.53c0,4.5.85,7.3,1.71,9.24h-19.83c.61-2.92.85-5.84.85-9.36v-64.71c0-3.53-.61-6.93-1.34-10.82h30.77c10.46,0,14.11,2.8,14.11,10.82v18.97c0,7.3-4.13,9.49-11.07,11.07,6.69,1.1,11.07,2.92,11.07,9.73v25.67c0,3.65.97,6.45,1.83,8.63h-19.1v-32.84c0-5.11-2.56-6.93-5.96-6.93h-3.04M192.71,62v29.19h3.29c4.38,0,5.72-3.89,5.72-6.93v-17.27c0-2.68-1.7-4.99-4.62-4.99h-4.38Z"/>
  <path class="cls-1" d="M225.43,138.75c.61-2.92.85-5.84.85-9.36v-64.71c0-3.53-.73-8.15-1.34-10.83h19.47c-.49,2.19-.85,5.36-.85,9v67.63c4.5,0,7.3-.12,11.68-.36,1.21,0,2.31-.25,3.53-.25v8.88h-33.33Z"/>
  <path class="cls-1" d="M261.55,53.85h32.23c8.88,0,12.65,2.67,12.65,10.46v63.13c0,9-2.68,11.31-12.04,11.31h-32.36c.61-2.92.86-5.84.86-9.37V63.09c0-3.53-.61-5.84-1.34-9.24M280.17,62.24v69.09h4.5c2.56,0,4.5-2.31,4.5-5.11v-59.6c0-2.43-1.58-4.38-4.26-4.38h-4.74Z"/>
  <path class="cls-1" d="M386.48,128.41c0,9.73-5.97,11.43-22.39,11.43-9.97,0-15.69-.48-21.16-1.21v-31.38h15.56v19.46c0,3.04,1.46,5.23,5.6,5.23s5.11-1.95,5.11-5.11v-16.91c0-6.09-7.3-7.78-12.52-9.85-8.03-3.17-13.75-3.41-13.75-15.21v-21.04c0-9.73,6.2-11.07,22.63-11.07,9,0,15.56.61,20.43.97v30.65h-15.33v-19.58c0-3.41-1.46-4.26-5.1-4.26s-5.35.85-5.35,4.5v16.42c0,7.18,7.54,8.63,13.13,10.58,6.32,2.19,13.15,4.38,13.15,11.07v25.3Z"/>
  <path class="cls-1" d="M392.92,138.75c.61-2.92.85-5.84.85-9.36v-64.71c0-3.53-.61-6.93-1.33-10.83h32.35v7.91c-.84-.37-1.45-.61-2.79-.61h-10.95v28.59h5.96c2.43,0,4.99-.49,5.84-.73v8.88c-1.09-.24-3.53-.85-5.72-.85h-6.08v33.45c4.49,0,7.29-.12,11.67-.36,1.23,0,2.31-.25,3.53-.25v8.88h-33.33Z"/>
  <path class="cls-1" d="M448.15,98.98v30.53c0,4.5.85,7.3,1.7,9.24h-19.83c.61-2.92.85-5.84.85-9.36v-64.71c0-3.53-.61-6.93-1.34-10.82h30.78c10.45,0,14.11,2.8,14.11,10.82v18.97c0,7.3-4.14,9.49-11.07,11.07,6.69,1.1,11.07,2.92,11.07,9.73v25.67c0,3.65.97,6.45,1.82,8.63h-19.09v-32.84c0-5.11-2.56-6.93-5.96-6.93h-3.04M448.15,62v29.19h3.28c4.37,0,5.72-3.89,5.72-6.93v-17.27c0-2.68-1.71-4.99-4.63-4.99h-4.38Z"/>
  <path class="cls-1" d="M498.99,129.27c0,4.5.73,7.3,1.34,9.49h-19.47c.61-2.92.86-5.84.86-9.37V63.7c0-3.4-.49-6.57-1.34-9.85h19.7c-.48,2.92-1.09,6.57-1.09,9.85v65.57Z"/>
  <path class="cls-1" d="M505.44,138.75c.61-2.92.84-5.84.84-9.36v-64.71c0-3.53-.6-6.93-1.33-10.83h32.36v7.91c-.86-.37-1.46-.61-2.8-.61h-10.95v28.59h5.96c2.44,0,4.99-.49,5.84-.73v8.88c-1.09-.24-3.53-.85-5.72-.85h-6.09v33.45c4.5,0,7.3-.12,11.68-.36,1.21,0,2.31-.25,3.52-.25v8.88h-33.32Z"/>
  <path class="cls-1" d="M586.93,128.41c0,9.73-5.96,11.43-22.38,11.43-9.98,0-15.7-.48-21.17-1.21v-31.38h15.58v19.46c0,3.04,1.45,5.23,5.59,5.23s5.11-1.95,5.11-5.11v-16.91c0-6.09-7.3-7.78-12.53-9.85-8.03-3.17-13.75-3.41-13.75-15.21v-21.04c0-9.73,6.21-11.07,22.62-11.07,9,0,15.58.61,20.44.97v30.65h-15.32v-19.58c0-3.41-1.46-4.26-5.11-4.26s-5.35.85-5.35,4.5v16.42c0,7.18,7.54,8.63,13.14,10.58,6.32,2.19,13.13,4.38,13.13,11.07v25.3Z"/>
  <path d="M308.58,152.52c0-4.56,2.68-5.19,10.38-5.19s10.04.74,10.04,5.42v29.43c0,4.67-1.03,5.99-10.32,5.99-8.67,0-10.1-1.2-10.1-5.7v-29.95M316.68,153.15v28.8c0,1.77.63,2.51,2.17,2.51s2.05-.68,2.05-2.45v-28.92c0-1.54-.74-2.05-2.16-2.05s-2.05.51-2.05,2.11"/>
  <path d="M332.02,187.66c.29-1.37.4-2.74.4-4.39v-30.34c0-1.66-.28-3.25-.62-5.08h15.17v3.71c-.45-.06-.86-.17-1.31-.17-1.94-.17-5.14-.11-5.14-.11v13.4h2.68c1.14,0,2.45-.23,2.85-.34v4.16c-.51-.12-1.83-.4-2.68-.4h-2.85v15c0,1.77.28,3.37.79,4.56h-9.3Z"/>
  <rect x="19.77" y="423.09" width="597.03" height="13.37"/>
  <path d="M360.6,173.88h256.2v-13.36h-256.2v13.36ZM19.77,173.88h272.28v-13.36H19.77v13.36Z"/>
  <path d="M63.54,326.59v53.15c0,11.31,3.06,23.83,4.28,27.19H18.02c1.53-7.33,2.14-14.66,2.14-23.52v-162.52c0-8.86-1.53-17.42-3.36-27.19h77.29c26.27,0,35.43,7.02,35.43,27.19v75.15c0,23.82-8.86,30.55-25.35,30.55h-40.63M63.54,214.17v93.48h11.91c7.64,0,10.69-9.78,10.69-17.42v-63.54c0-6.72-4.27-12.53-11.61-12.53h-11Z"/>
  <path d="M143.88,218.75c0-24.44,14.36-27.8,55.6-27.8s53.77,3.97,53.77,29.02v157.63c0,25.05-5.5,32.07-55.29,32.07-46.44,0-54.07-6.41-54.07-30.55v-160.37M187.26,222.11v154.27c0,9.47,3.36,13.44,11.61,13.44s11-3.66,11-13.13v-154.88c0-8.25-3.97-11-11.61-11s-11,2.75-11,11.3"/>
  <path d="M344.28,391.35c-8.86-29.64-28.41-86.75-28.41-86.75h-.91v77.59c0,11.3,2.14,21.38,3.36,24.75h-48.88c1.53-7.33,2.14-14.67,2.14-23.52v-166.8c0-8.55-1.53-14.66-3.36-22.91h49.18c-.92,3.97-2.45,14.05-2.45,20.47v78.51h.61s29.33-59.27,44.91-92.87c.91-1.83,2.14-6.11,2.14-6.11h26.28l-41.55,77.9s26.58,73.01,43.68,120.36c1.83,5.5,7.33,14.97,7.33,14.97h-51.32s-1.21-10.08-2.75-15.58"/>
  <path d="M404.76,406.93c1.53-7.34,2.14-14.66,2.14-23.52v-162.52c0-8.86-1.53-17.41-3.36-27.19h81.26v19.85c-2.14-.91-3.67-1.52-7.03-1.52h-27.49v71.79h14.97c6.11,0,12.53-1.22,14.67-1.83v22.3c-2.75-.61-8.86-2.13-14.36-2.13h-15.28v84c11.3,0,18.33-.31,29.33-.92,3.05,0,5.81-.61,8.86-.61v22.31h-83.7Z"/>
  <path d="M543.45,307.04v76.67c0,11.3,2.13,18.34,4.27,23.22h-49.8c1.53-7.33,2.14-14.66,2.14-23.52v-162.52c0-8.86-1.53-17.42-3.36-27.19h77.29c26.27,0,35.43,7.02,35.43,27.19v47.65c0,18.33-10.39,23.83-27.8,27.8,16.8,2.75,27.8,7.33,27.8,24.44v64.45c0,9.17,2.45,16.19,4.59,21.69h-47.96v-82.48c0-12.84-6.42-17.42-14.97-17.42h-7.63M543.45,214.17v73.32h8.24c11,0,14.36-9.78,14.36-17.42v-43.38c0-6.72-4.27-12.53-11.61-12.53h-10.99Z"/>
  <path class="cls-1" d="M144.74,546.1c.78-3.06,1.09-6.12,1.09-9.81v-67.79c0-3.7-.78-7.26-1.71-11.34h41.43v8.28c-1.09-.38-1.87-.64-3.58-.64h-14.02v29.95h7.63c3.12,0,6.39-.51,7.47-.76v9.3c-1.4-.25-4.52-.9-7.32-.9h-7.79v35.04c5.76,0,9.35-.13,14.95-.38,1.56,0,2.96-.25,4.52-.25v9.3h-42.67Z"/>
  <path class="cls-1" d="M191.61,457.15h25.08c-.47,1.66-1.25,7.39-1.25,11.85v64.86c0,3.31,1.71,5.1,5.92,5.1s5.61-1.91,5.61-4.97v-65.12c0-4.46-.78-10.06-1.24-11.72h25.07c-.93,3.44-1.72,6.75-1.72,10.96v65.75c0,10.32-2.8,13.38-28.19,13.38-23.67,0-27.56-2.8-27.56-12.74v-66.9c0-3.95-.78-7.01-1.71-10.45"/>
  <path class="cls-1" d="M280.54,504.43v31.98c0,4.72,1.09,7.64,2.18,9.69h-25.39c.78-3.06,1.09-6.12,1.09-9.81v-67.79c0-3.69-.78-7.26-1.71-11.34h39.4c13.4,0,18.07,2.93,18.07,11.34v19.88c0,7.64-5.29,9.94-14.17,11.6,8.57,1.15,14.17,3.06,14.17,10.19v26.89c0,3.82,1.25,6.75,2.34,9.05h-24.45v-34.41c0-5.35-3.27-7.26-7.63-7.26h-3.89ZM280.54,465.69v30.58h4.21c5.6,0,7.32-4.07,7.32-7.26v-18.09c0-2.8-2.18-5.23-5.92-5.23h-5.61Z"/>
  <path class="cls-1" d="M323.53,467.6c0-10.2,7.32-11.6,28.35-11.6s27.41,1.66,27.41,12.11v65.75c0,10.45-2.81,13.38-28.19,13.38-23.67,0-27.56-2.67-27.56-12.74v-66.9ZM345.64,469.01v64.35c0,3.95,1.71,5.61,5.92,5.61s5.61-1.53,5.61-5.48v-64.61c0-3.44-2.02-4.58-5.92-4.58s-5.61,1.14-5.61,4.71"/>
  <path class="cls-1" d="M410.74,512.59v22.17c0,4.72,1.56,9.94,2.18,11.34h-25.39c.78-3.06,1.09-6.12,1.09-9.81v-67.79c0-3.69-.78-7.26-1.71-11.34h39.41c13.39,0,18.06,2.93,18.06,11.34v31.35c0,9.94-4.52,12.74-12.93,12.74h-20.71ZM410.74,465.69v38.99h6.07c3.89,0,5.45-4.07,5.45-7.26v-26.5c0-2.8-2.18-5.23-5.92-5.23h-5.61Z"/>
  <path class="cls-1" d="M450.61,546.1c.78-3.06,1.09-6.12,1.09-9.81v-67.79c0-3.7-.78-7.26-1.72-11.34h41.43v8.28c-1.09-.38-1.87-.64-3.58-.64h-14.02v29.95h7.63c3.12,0,6.39-.51,7.48-.76v9.3c-1.4-.25-4.52-.9-7.32-.9h-7.79v35.04c5.76,0,9.35-.13,14.95-.38,1.56,0,2.96-.25,4.52-.25v9.3h-42.67Z"/>
</svg>